<svg width="69" height="65" viewBox="0 0 69 65" fill="none" xmlns="http://www.w3.org/2000/svg">
<mask id="mask0" mask-type="alpha" maskUnits="userSpaceOnUse" x="0" y="0" width="69" height="65">
<rect x="0.249756" y="0.749023" width="67.9834" height="63.75" rx="12.9492" fill="#C4C4C4"/>
</mask>
<g mask="url(#mask0)">
<mask id="mask1" mask-type="alpha" maskUnits="userSpaceOnUse" x="-7" y="0" width="81" height="65">
<rect x="-6.47412" y="0.749023" width="80.2778" height="63.75" rx="17.5295" fill="#C4C4C4"/>
</mask>
<g mask="url(#mask1)">
<path fill-rule="evenodd" clip-rule="evenodd" d="M47.6813 67.4889C63.9502 67.4889 77.8999 52.3209 77.8999 32.6089C77.8999 12.8968 63.9502 -2.27119 47.6813 -2.27119C44.3119 -2.27119 41.042 -1.62059 37.9749 -0.413765C38.4632 -0.0812378 38.9435 0.264915 39.4154 0.624231C55.0814 2.97884 67.1833 15.6992 67.9234 31.2743C67.3918 28.2148 65.5428 25.6073 62.982 24.0578C60.1866 15.5774 53.4265 8.73669 44.7255 5.62625C48.7424 10.2677 51.7307 16.065 53.2703 22.5399H49.5937C47.6061 14.8925 43.4147 8.44108 37.9496 4.03522C37.2458 3.95115 36.5341 3.89022 35.8153 3.85326V22.5399H32.8112V3.83925C31.9899 3.87376 31.1776 3.93956 30.3755 4.0354C24.9107 8.44134 20.7196 14.8927 18.7321 22.5399H15.0555C16.5949 16.0653 19.583 10.2682 23.5995 5.62682C14.9343 8.725 8.19431 15.5229 5.37853 23.9554C2.98191 25.344 1.18204 27.6484 0.457635 30.3899C1.60433 15.2202 13.5419 2.93497 28.9096 0.624474C29.3815 0.265119 29.8618 -0.0810719 30.3501 -0.413635C27.2833 -1.62023 24.0137 -2.27071 20.6446 -2.27071C4.37568 -2.27071 -9.57393 12.8973 -9.57393 32.6093C-9.57393 52.3214 4.37568 67.4894 20.6446 67.4894C24.014 67.4894 27.2839 66.8388 30.351 65.632C30.0662 65.438 29.784 65.2393 29.5046 65.0361C14.1577 62.9979 2.09982 51.0336 0.538615 36.0863C1.33955 38.7995 3.20157 41.0576 5.64421 42.3801C8.65639 50.6063 15.435 57.1784 24.0563 60.1088C20.0147 55.6122 16.9604 49.9714 15.298 43.6468H18.9975C21.1479 51.1118 25.4175 57.3705 30.9049 61.5997C31.5345 61.6642 32.1701 61.7102 32.8112 61.7371V43.6468H35.8153V61.7231C36.3548 61.6954 36.8904 61.6541 37.4216 61.5997C42.9089 57.3704 47.1782 51.1117 49.3286 43.6468H53.0281C51.3657 49.9715 48.3115 55.6123 44.27 60.1089C52.925 57.1672 59.723 50.5551 62.7175 42.2838C65.3299 40.8049 67.2493 38.2443 67.8671 35.2105C66.6948 50.5643 54.4675 62.9582 38.822 65.0361C38.5427 65.2393 38.2606 65.4379 37.9758 65.6318C41.0426 66.8384 44.3122 67.4889 47.6813 67.4889ZM34.1635 67.8666C30.0236 69.925 25.4513 71.0668 20.6446 71.0668C1.97961 71.0668 -13.1514 53.8488 -13.1514 32.6093C-13.1514 11.3699 1.97961 -5.84815 20.6446 -5.84815C25.4509 -5.84815 30.0229 -4.70646 34.1625 -2.64841C38.3023 -4.70677 42.8746 -5.84863 47.6813 -5.84863C66.3463 -5.84863 81.4773 11.3694 81.4773 32.6089C81.4773 53.8483 66.3463 71.0664 47.6813 71.0664C42.875 71.0664 38.3031 69.9247 34.1635 67.8666Z" fill="black"/>
<path d="M23.7428 26.4939L20.1775 39.6689H15.715L13.6373 31.1217L11.4886 39.6689H7.04976L3.46087 26.4939H7.49837L9.36365 35.9148L11.5831 26.4939H15.8567L18.0998 35.8676L19.9414 26.4939H23.7428ZM44.195 26.4939L40.6297 39.6689H36.1672L34.0895 31.1217L31.9408 39.6689H27.502L23.9131 26.4939H27.9506L29.8158 35.9148L32.0353 26.4939H36.3089L38.552 35.8676L40.3936 26.4939H44.195ZM64.6472 26.4939L61.0819 39.6689H56.6194L54.5417 31.1217L52.393 39.6689H47.9542L44.3653 26.4939H48.4028L50.268 35.9148L52.4875 26.4939H56.7611L59.0042 35.8676L60.8458 26.4939H64.6472Z" fill="black"/>
</g>
</g>
</svg>
