<svg width="1737" height="1544" viewBox="0 0 1737 1544" fill="none" xmlns="http://www.w3.org/2000/svg">
<g clip-path="url(#clip0)">
<rect width="1737" height="1544" fill="white"/>
<rect x="-73" width="1884" height="1291" fill="url(#paint0_linear)"/>
<path d="M133.784 781.619C136.818 774.528 145.455 771.805 152.008 775.873L578.594 1040.69C587.744 1046.37 586.009 1060.16 575.739 1063.4L-48.3958 1260.19C-58.6663 1263.43 -68.0013 1253.12 -63.7643 1243.22L133.784 781.619Z" fill="#BD8DDA"/>
<path fill-rule="evenodd" clip-rule="evenodd" d="M264.803 844.891C263.679 845.083 262.577 845.34 261.527 845.671C252.084 849.421 249.091 852.551 248.671 854.482C249.091 864.177 244.144 872.847 235.9 875.446C228.722 877.71 220.953 874.769 215.62 868.571C214.917 867.754 214.256 866.88 213.645 865.954C210.283 862.54 202.907 857.748 193.253 861.893C188.505 863.39 184.618 866.902 182.511 869.724C182.066 870.995 181.503 872.242 180.832 873.454C177.31 879.812 170.79 885.194 162.444 887.826C150.591 891.563 138.57 888.642 132.055 881.302C132.189 881.471 131.925 881.314 131.41 881.007L131.41 881.007C129.959 880.145 126.516 878.098 124.332 878.787C121.61 879.645 119.982 883.748 119.798 885.135C119.81 886.086 119.746 887.076 119.602 888.102C117.636 902.144 101.487 917.749 83.5321 922.955C71.0494 926.575 74.5099 916.965 78.4394 906.052C78.4707 905.965 78.5021 905.878 78.5335 905.79L132.689 780.419C135.733 773.37 144.323 770.661 150.86 774.689L264.803 844.891Z" fill="white"/>
<path d="M1554.39 829.782C1537.12 805.765 1505.63 796.735 1478.27 807.955L841.897 1068.88C785.83 1091.87 790.275 1172.7 848.525 1189.4L1886.3 1486.98C1944.55 1503.69 1991.16 1437.49 1955.79 1388.28L1554.39 829.782Z" fill="#DB8CA1"/>
<path d="M1611.22 906.683C1609.34 906.619 1607.43 906.324 1605.53 905.781C1599.22 903.97 1594.25 899.739 1591.35 894.384L1591.34 894.419C1584.6 879.446 1566.03 873.662 1552.02 881.767C1547.95 882.922 1543.52 882.993 1539.15 881.741C1532.83 879.93 1527.87 875.7 1524.97 870.344L1524.89 870.614L1520.96 859.394C1516.42 846.47 1500.58 841.754 1489.72 850.092L1480.39 857.247C1475.63 859.888 1469.87 860.712 1464.23 859.094C1457.67 857.215 1452.73 852.456 1450.37 846.586L1450.25 846.983C1445.39 836.193 1434.39 830.175 1423.38 830.687L1479.33 806.081C1506.24 794.105 1541.41 804.19 1557.88 828.606L1611.22 906.683Z" fill="white"/>
<path d="M1059.6 749.536C1073.92 729.681 1104.45 733.16 1113.94 755.728L1504.1 1683.56C1513.39 1705.67 1495.46 1729.6 1471.64 1726.88L492.61 1615.34C468.789 1612.62 456.698 1585.27 470.725 1565.83L1059.6 749.536Z" fill="#E0F1B6"/>
<path fill-rule="evenodd" clip-rule="evenodd" d="M1129.62 793.144C1129.09 792.95 1128.56 792.81 1128.03 792.74C1123.08 792.683 1121.04 794.097 1120.39 795.395C1118.2 802.668 1113.98 807.582 1109.82 807.036C1106.21 806.559 1103.61 802.07 1102.85 795.907C1102.75 795.094 1102.68 794.253 1102.64 793.388C1102.04 789.866 1100.06 784.129 1094.93 784.301C1092.54 783.986 1090.02 785.414 1088.43 786.865C1087.93 787.668 1087.39 788.42 1086.8 789.113C1083.75 792.748 1079.65 794.768 1075.45 794.215C1069.48 793.429 1065.06 787.683 1064.07 780.325C1064.09 780.49 1064.01 780.295 1063.87 779.915C1063.46 778.846 1062.49 776.308 1061.39 776.163C1060.02 775.983 1058.32 778.521 1057.9 779.489C1057.67 780.194 1057.41 780.904 1057.09 781.618C1052.83 791.383 1042.13 798.063 1033.19 796.537C1026.98 795.476 1030.8 789.425 1035.14 782.553C1035.18 782.5 1035.21 782.447 1035.24 782.395L1080.09 718.723C1086.26 709.965 1099.73 711.738 1103.42 721.794L1129.62 793.144Z" fill="white"/>
<path d="M588.651 775.968C609.82 755.313 642.399 751.889 667.401 767.691L1248.8 1135.15C1300.02 1167.53 1281.61 1246.36 1221.34 1252.7L147.655 1365.55C87.3903 1371.88 52.9876 1298.6 96.3606 1256.28L588.651 775.968Z" fill="#F3B38D"/>
<path d="M519.327 841.832C521.194 842.096 523.124 842.137 525.084 841.931C531.618 841.244 537.243 837.94 541.027 833.17L541.03 833.206C550.274 819.632 569.569 817.16 581.958 827.575C585.764 829.42 590.116 830.259 594.633 829.784C601.167 829.097 606.792 825.793 610.575 821.022L610.605 821.301L616.43 810.936C623.141 798.995 639.559 797.101 648.812 807.2L656.752 815.865C660.978 819.292 666.513 821.105 672.351 820.491C679.131 819.779 684.829 815.951 688.173 810.58L688.216 810.99C694.877 801.209 706.758 797.193 717.513 799.61L666.684 765.661C642.261 749.194 605.876 753.018 585.411 774.203L519.327 841.832Z" fill="white"/>
<circle cx="1407.46" cy="293.486" r="114.042" fill="#F3D48C"/>
<path d="M414.837 286.467C414.837 282.588 411.693 279.444 407.815 279.444H278.593C274.715 279.444 271.571 282.588 271.571 286.467C271.571 289.434 273.411 291.972 276.013 293H264.199L264.181 293L276.013 293C276.811 293.316 277.682 293.489 278.593 293.489H288.506C291.329 294.565 293.335 297.298 293.335 300.5C293.335 304.636 289.987 307.99 285.854 308H266.5C261.254 308 257 312.253 257 317.5C257 321.22 259.138 324.441 262.253 326H235C234.705 326 234.414 326.016 234.128 326.047H262.348C263.602 326.657 265.011 327 266.5 327H267.034C269.552 328.354 271.263 331.014 271.263 334.073C271.263 337.088 269.6 339.715 267.142 341.086H236.931C228.959 341.086 222.496 347.549 222.496 355.521C222.496 363.494 228.959 369.956 236.931 369.956H305.758C306.786 370.785 307.444 372.055 307.444 373.479C307.444 375.465 306.162 377.153 304.381 377.76H288.85C283.679 377.76 279.487 381.952 279.487 387.123C279.487 392.294 283.679 396.486 288.85 396.486H413.39C418.561 396.486 422.753 392.294 422.753 387.123C422.753 381.952 418.561 377.76 413.39 377.76H378.431C376.65 377.152 375.369 375.465 375.369 373.479C375.369 372.055 376.027 370.785 377.055 369.956H400.402C408.374 369.956 414.837 363.494 414.837 355.521C414.837 347.549 408.374 341.086 400.402 341.086H350.452C347.994 339.714 346.331 337.088 346.331 334.073C346.331 331.014 348.043 328.354 350.561 327H382.5C387.747 327 392 322.747 392 317.5C392 312.253 387.747 308 382.5 308H362.494C358.371 307.978 355.035 304.629 355.035 300.5C355.035 297.298 357.041 294.565 359.865 293.489H407.815C411.693 293.489 414.837 290.345 414.837 286.467Z" fill="#D6F1F5"/>
<path d="M1477.47 515.618C1477.47 512.807 1479.75 510.527 1482.56 510.527H1574.77C1577.58 510.527 1579.86 512.807 1579.86 515.618C1579.86 517.926 1578.32 519.876 1576.22 520.5H1584.27L1584.31 520.5L1576.22 520.5C1575.76 520.636 1575.27 520.709 1574.77 520.709H1567.48C1565.21 521.36 1563.54 523.458 1563.54 525.945C1563.54 528.138 1564.83 530.028 1566.7 530.891H1583.53C1587.44 530.891 1590.6 534.057 1590.6 537.962C1590.6 540.912 1588.8 543.44 1586.23 544.5H1606.32L1606.35 544.5L1586.23 544.5C1585.4 544.843 1584.49 545.033 1583.53 545.033H1583.3C1581.39 545.929 1580.08 547.865 1580.08 550.107C1580.08 552.377 1581.43 554.332 1583.37 555.214H1604.46C1610.24 555.214 1614.93 559.9 1614.93 565.679C1614.93 571.458 1610.24 576.144 1604.46 576.144H1556.3C1555.09 576.532 1554.22 577.664 1554.22 579C1554.22 580.277 1555.02 581.367 1556.14 581.8H1567.41C1571.16 581.8 1574.2 584.839 1574.2 588.588C1574.2 592.337 1571.16 595.376 1567.41 595.376H1478.6C1474.86 595.376 1471.82 592.337 1471.82 588.588C1471.82 584.839 1474.86 581.8 1478.6 581.8H1503.76C1504.88 581.367 1505.68 580.277 1505.68 579C1505.68 577.664 1504.81 576.532 1503.6 576.144H1487.94C1487.35 576.144 1486.77 576.095 1486.2 576H1483.86L1483.9 576H1486.2C1481.25 575.172 1477.47 570.866 1477.47 565.679C1477.47 559.9 1482.16 555.214 1487.94 555.214H1523.14C1525.08 554.332 1526.43 552.377 1526.43 550.107C1526.43 547.865 1525.11 545.929 1523.21 545.033H1500.95C1497.04 545.033 1493.88 541.867 1493.88 537.962C1493.88 534.057 1497.04 530.891 1500.95 530.891H1516.28C1518.15 530.028 1519.45 528.138 1519.45 525.945C1519.45 523.458 1517.78 521.36 1515.5 520.709H1482.56C1479.75 520.709 1477.47 518.43 1477.47 515.618Z" fill="white"/>
<path d="M1414.72 310.732C1414.72 292.209 1356.21 292.209 1356.21 310.732C1358.4 310.732 1360.61 310.732 1362.81 310.732C1362.81 296.392 1408.12 296.392 1408.12 310.732C1410.31 310.732 1412.51 310.732 1414.72 310.732Z" fill="#D4F1F5"/>
<path d="M1466.82 310.732C1466.82 292.209 1408.32 292.209 1408.32 310.732C1410.51 310.732 1412.71 310.732 1414.92 310.732C1414.92 296.392 1460.22 296.392 1460.22 310.732C1462.42 310.732 1464.62 310.732 1466.82 310.732Z" fill="#D4F1F5"/>
<path d="M181.007 537.336C181.007 518.814 122.497 518.814 122.497 537.336C124.688 537.336 126.894 537.336 129.097 537.336C129.097 522.996 174.406 522.996 174.406 537.336C176.597 537.336 178.803 537.336 181.007 537.336Z" fill="#D4F1F5"/>
<path d="M233.114 537.336C233.114 518.814 174.604 518.814 174.604 537.336C176.795 537.336 179.002 537.336 181.205 537.336C181.205 522.996 226.514 522.996 226.514 537.336C228.704 537.336 230.911 537.336 233.114 537.336Z" fill="#D4F1F5"/>
<path d="M1309.55 346.035C1309.55 331.127 1278.5 331.127 1278.5 346.035C1279.66 346.035 1280.83 346.035 1282 346.035C1282 334.493 1306.04 334.493 1306.04 346.035C1307.21 346.035 1308.38 346.035 1309.55 346.035Z" fill="#D4F1F5"/>
<path d="M1337.2 346.035C1337.2 331.127 1306.15 331.127 1306.15 346.035C1307.31 346.035 1308.48 346.035 1309.65 346.035C1309.65 334.493 1333.7 334.493 1333.7 346.035C1334.86 346.035 1336.03 346.035 1337.2 346.035Z" fill="#D4F1F5"/>
<ellipse cx="867.5" cy="1130.94" rx="907.5" ry="199.5" fill="#F3D48C"/>
<rect x="-40" y="1130.44" width="1815" height="414" fill="url(#paint1_linear)"/>
</g>
<defs>
<linearGradient id="paint0_linear" x1="868.441" y1="-9.26311e-08" x2="863.446" y2="1290.5" gradientUnits="userSpaceOnUse">
<stop stop-color="#BD8DDA"/>
<stop offset="0.207939" stop-color="#D8AEF2"/>
<stop offset="0.489976" stop-color="#E3C0F9"/>
<stop offset="0.99444" stop-color="#EED2FF"/>
</linearGradient>
<linearGradient id="paint1_linear" x1="867.5" y1="1130.44" x2="867.27" y2="1544.44" gradientUnits="userSpaceOnUse">
<stop stop-color="#F3D48C"/>
<stop offset="0.858093" stop-color="#FCF5B8"/>
</linearGradient>
<clipPath id="clip0">
<rect width="1737" height="1544" fill="white"/>
</clipPath>
</defs>
</svg>
