<svg width="1737" height="994" viewBox="0 0 1737 994" fill="none" xmlns="http://www.w3.org/2000/svg">
<g clip-path="url(#clip0)">
<rect width="1737" height="994" fill="white"/>
<rect x="-73" width="1884" height="1291" fill="url(#paint0_linear)"/>
<circle cx="1407.46" cy="237.042" r="114.042" fill="#F3D48C"/>
<path d="M414.837 230.023C414.837 226.144 411.693 223 407.815 223H278.593C274.715 223 271.571 226.144 271.571 230.023C271.571 232.99 273.411 235.527 276.013 236.556H264.199L264.181 236.556L276.013 236.556C276.811 236.871 277.682 237.045 278.593 237.045H288.506C291.329 238.121 293.335 240.854 293.335 244.056C293.335 248.192 289.987 251.546 285.854 251.556H266.5C261.254 251.556 257 255.809 257 261.056C257 264.776 259.138 267.996 262.253 269.556H235C234.705 269.556 234.414 269.572 234.128 269.603H262.348C263.602 270.213 265.011 270.556 266.5 270.556H267.034C269.552 271.91 271.263 274.569 271.263 277.628C271.263 280.643 269.6 283.27 267.142 284.642H236.931C228.959 284.642 222.496 291.105 222.496 299.077C222.496 307.049 228.959 313.512 236.931 313.512H305.758C306.786 314.341 307.444 315.611 307.444 317.034C307.444 319.021 306.162 320.708 304.381 321.315H288.85C283.679 321.315 279.487 325.507 279.487 330.679C279.487 335.85 283.679 340.042 288.85 340.042H413.39C418.561 340.042 422.753 335.85 422.753 330.679C422.753 325.507 418.561 321.315 413.39 321.315H378.431C376.65 320.708 375.369 319.021 375.369 317.034C375.369 315.611 376.027 314.341 377.055 313.512H400.402C408.374 313.512 414.837 307.049 414.837 299.077C414.837 291.105 408.374 284.642 400.402 284.642H350.452C347.994 283.27 346.331 280.644 346.331 277.629C346.331 274.569 348.043 271.91 350.561 270.556H382.5C387.747 270.556 392 266.302 392 261.056C392 255.809 387.747 251.556 382.5 251.556H362.494C358.371 251.534 355.035 248.184 355.035 244.056C355.035 240.854 357.041 238.121 359.865 237.045H407.815C411.693 237.045 414.837 233.901 414.837 230.023Z" fill="#D6F1F5"/>
<path d="M1477.47 459.174C1477.47 456.362 1479.75 454.083 1482.56 454.083H1574.77C1577.58 454.083 1579.86 456.362 1579.86 459.174C1579.86 461.482 1578.32 463.432 1576.22 464.056H1584.27L1584.31 464.056L1576.22 464.056C1575.76 464.192 1575.27 464.265 1574.77 464.265H1567.48C1565.21 464.916 1563.54 467.014 1563.54 469.501C1563.54 471.694 1564.83 473.584 1566.7 474.447H1583.53C1587.44 474.447 1590.6 477.612 1590.6 481.517C1590.6 484.468 1588.8 486.996 1586.23 488.056H1606.32L1606.35 488.056L1586.23 488.056C1585.4 488.399 1584.49 488.588 1583.53 488.588H1583.3C1581.39 489.485 1580.08 491.42 1580.08 493.663C1580.08 495.933 1581.43 497.888 1583.37 498.77H1604.46C1610.24 498.77 1614.93 503.455 1614.93 509.235C1614.93 515.014 1610.24 519.699 1604.46 519.699H1556.3C1555.09 520.088 1554.22 521.22 1554.22 522.556C1554.22 523.832 1555.02 524.923 1556.14 525.356H1567.41C1571.16 525.356 1574.2 528.395 1574.2 532.144C1574.2 535.893 1571.16 538.932 1567.41 538.932H1478.6C1474.86 538.932 1471.82 535.893 1471.82 532.144C1471.82 528.395 1474.86 525.356 1478.6 525.356H1503.76C1504.88 524.923 1505.68 523.832 1505.68 522.556C1505.68 521.22 1504.81 520.087 1503.6 519.699H1487.94C1487.35 519.699 1486.77 519.65 1486.2 519.556H1483.86L1483.9 519.556H1486.2C1481.25 518.728 1477.47 514.422 1477.47 509.235C1477.47 503.455 1482.16 498.77 1487.94 498.77H1523.14C1525.08 497.888 1526.43 495.933 1526.43 493.663C1526.43 491.42 1525.11 489.485 1523.21 488.588H1500.95C1497.04 488.588 1493.88 485.423 1493.88 481.517C1493.88 477.612 1497.04 474.447 1500.95 474.447H1516.28C1518.15 473.584 1519.45 471.694 1519.45 469.501C1519.45 467.014 1517.78 464.916 1515.5 464.265H1482.56C1479.75 464.265 1477.47 461.986 1477.47 459.174Z" fill="white"/>
<path d="M1414.72 152.09C1414.72 140.165 1356.21 140.165 1356.21 152.09C1358.4 152.09 1360.61 152.09 1362.81 152.09C1362.81 142.858 1408.12 142.858 1408.12 152.09C1410.31 152.09 1412.51 152.09 1414.72 152.09Z" fill="#D4F1F5"/>
<path d="M1466.82 152.09C1466.82 140.165 1408.32 140.165 1408.32 152.09C1410.51 152.09 1412.71 152.09 1414.92 152.09C1414.92 142.858 1460.22 142.858 1460.22 152.09C1462.42 152.09 1464.62 152.09 1466.82 152.09Z" fill="#D4F1F5"/>
<path d="M181.007 297.974C181.007 286.049 122.497 286.049 122.497 297.974C124.688 297.974 126.894 297.974 129.097 297.974C129.097 288.742 174.406 288.742 174.406 297.974C176.597 297.974 178.803 297.974 181.007 297.974Z" fill="#D4F1F5"/>
<path d="M233.114 297.974C233.114 286.049 174.604 286.049 174.604 297.974C176.795 297.974 179.002 297.974 181.205 297.974C181.205 288.742 226.514 288.742 226.514 297.974C228.704 297.974 230.911 297.974 233.114 297.974Z" fill="#D4F1F5"/>
<path d="M1309.55 174.817C1309.55 165.22 1278.5 165.22 1278.5 174.817C1279.66 174.817 1280.83 174.817 1282 174.817C1282 167.387 1306.04 167.387 1306.04 174.817C1307.21 174.817 1308.38 174.817 1309.55 174.817Z" fill="#D4F1F5"/>
<path d="M1337.2 174.817C1337.2 165.22 1306.15 165.22 1306.15 174.817C1307.31 174.817 1308.48 174.817 1309.65 174.817C1309.65 167.387 1333.7 167.387 1333.7 174.817C1334.86 174.817 1336.03 174.817 1337.2 174.817Z" fill="#D4F1F5"/>
<path d="M133.782 645.569C136.816 638.479 145.453 635.755 152.006 639.823L578.592 904.637C587.742 910.317 586.007 924.114 575.737 927.353L-48.3978 1124.14C-58.6683 1127.38 -68.0032 1117.07 -63.7663 1107.17L133.782 645.569Z" fill="#BD8DDA"/>
<path fill-rule="evenodd" clip-rule="evenodd" d="M264.801 708.841C263.677 709.033 262.575 709.29 261.525 709.621C252.082 713.371 249.089 716.501 248.669 718.432C249.089 728.127 244.142 736.797 235.898 739.397C228.72 741.66 220.951 738.72 215.618 732.521C214.915 731.704 214.254 730.83 213.643 729.904C210.281 726.49 202.905 721.698 193.251 725.843C188.503 727.34 184.616 730.852 182.509 733.674C182.064 734.945 181.501 736.192 180.83 737.404C177.308 743.762 170.788 749.144 162.443 751.776C150.589 755.513 138.568 752.592 132.053 745.252C132.187 745.421 131.923 745.264 131.408 744.958L131.408 744.958C129.957 744.095 126.514 742.048 124.33 742.737C121.608 743.595 119.98 747.698 119.796 749.086C119.808 750.036 119.744 751.026 119.6 752.052C117.635 766.094 101.485 781.699 83.5302 786.905C71.0474 790.525 74.5079 780.915 78.4374 770.002C78.4688 769.915 78.5002 769.828 78.5316 769.741L132.687 644.369C135.731 637.32 144.321 634.612 150.858 638.639L264.801 708.841Z" fill="white"/>
<path d="M1554.38 693.732C1537.12 669.715 1505.63 660.686 1478.27 671.906L841.896 932.829C785.829 955.817 790.274 1036.65 848.524 1053.36L1886.3 1350.93C1944.55 1367.64 1991.16 1301.44 1955.79 1252.23L1554.38 693.732Z" fill="#DB8CA1"/>
<path d="M1611.22 770.634C1609.33 770.569 1607.43 770.275 1605.53 769.732C1599.22 767.921 1594.25 763.69 1591.35 758.335L1591.34 758.37C1584.6 743.397 1566.02 737.613 1552.02 745.717C1547.95 746.873 1543.51 746.944 1539.15 745.692C1532.83 743.881 1527.87 739.65 1524.97 734.295L1524.89 734.564L1520.96 723.345C1516.42 710.421 1500.58 705.705 1489.71 714.043L1480.39 721.198C1475.63 723.839 1469.87 724.663 1464.23 723.045C1457.67 721.166 1452.73 716.407 1450.36 710.537L1450.25 710.933C1445.39 700.143 1434.39 694.125 1423.38 694.638L1479.33 670.031C1506.24 658.056 1541.41 668.14 1557.88 692.557L1611.22 770.634Z" fill="white"/>
<path d="M581.392 555.668C567.069 535.813 536.535 539.292 527.045 561.861L136.891 1489.7C127.598 1511.8 145.532 1535.73 169.354 1533.02L1148.38 1421.47C1172.2 1418.76 1184.29 1391.4 1170.26 1371.96L581.392 555.668Z" fill="#E0F1B6"/>
<path fill-rule="evenodd" clip-rule="evenodd" d="M511.37 599.276C511.897 599.082 512.43 598.941 512.96 598.872C517.905 598.815 519.947 600.229 520.597 601.527C522.784 608.8 527.012 613.714 531.165 613.167C534.781 612.691 537.38 608.202 538.144 602.039C538.244 601.226 538.313 600.385 538.348 599.519C538.95 595.998 540.929 590.261 546.061 590.432C548.453 590.118 550.969 591.546 552.557 592.996C553.057 593.8 553.602 594.552 554.184 595.245C557.239 598.88 561.336 600.9 565.54 600.347C571.512 599.56 575.931 593.815 576.92 586.457C576.904 586.621 576.978 586.427 577.124 586.047C577.532 584.978 578.502 582.44 579.603 582.295C580.974 582.115 582.67 584.653 583.088 585.621C583.314 586.326 583.583 587.036 583.895 587.75C588.161 597.515 598.863 604.195 607.797 602.669C614.009 601.608 610.187 595.556 605.846 588.685C605.813 588.632 605.779 588.579 605.746 588.526L560.895 524.855C554.726 516.097 541.259 517.87 537.567 527.926L511.37 599.276Z" fill="white"/>
<path d="M1049.84 631.547C1027.45 612.224 994.719 610.795 970.729 628.094L412.852 1030.36C363.7 1065.81 386.893 1143.37 447.432 1146.01L1526 1193.11C1586.54 1195.75 1616.41 1120.5 1570.53 1080.91L1049.84 631.547Z" fill="#F3B38D"/>
<path d="M1123.05 693.056C1121.21 693.433 1119.28 693.593 1117.31 693.507C1110.75 693.22 1104.93 690.265 1100.87 685.735L1100.86 685.771C1090.81 672.786 1071.4 671.498 1059.67 682.649C1055.98 684.723 1051.69 685.826 1047.15 685.628C1040.59 685.341 1034.77 682.387 1030.7 677.856L1030.69 678.136L1024.25 668.146C1016.82 656.637 1000.31 655.749 991.695 666.394L984.3 675.527C980.29 679.206 974.877 681.353 969.012 681.097C962.201 680.8 956.28 677.327 952.615 672.171L952.597 672.583C945.351 663.226 933.247 659.942 922.66 663.011L971.321 626.023C994.693 608.096 1031.24 609.692 1052.96 629.588L1123.05 693.056Z" fill="white"/>
<ellipse cx="867.5" cy="994.896" rx="907.5" ry="199.5" fill="#F3D48C"/>
</g>
<defs>
<linearGradient id="paint0_linear" x1="868.441" y1="-9.26311e-08" x2="863.446" y2="1290.5" gradientUnits="userSpaceOnUse">
<stop stop-color="#BD8DDA"/>
<stop offset="0.207939" stop-color="#D8AEF2"/>
<stop offset="0.489976" stop-color="#E3C0F9"/>
<stop offset="0.99444" stop-color="#EED2FF"/>
</linearGradient>
<clipPath id="clip0">
<rect width="1737" height="994" fill="white"/>
</clipPath>
</defs>
</svg>
