<svg width="1737" height="1543" viewBox="0 0 1737 1543" fill="none" xmlns="http://www.w3.org/2000/svg">
<g clip-path="url(#clip0)">
<rect width="1737" height="1543" fill="white"/>
<rect x="-66" width="1884" height="883" fill="url(#paint0_linear)"/>
<path d="M1572.87 608.744C1555.6 584.727 1524.11 575.697 1496.75 586.918L860.377 847.84C804.31 870.829 808.754 951.664 867.004 968.367L1904.78 1265.95C1963.03 1282.65 2009.64 1216.45 1974.27 1167.24L1572.87 608.744Z" fill="#DB8CA1"/>
<path d="M1629.7 685.645C1627.81 685.581 1625.91 685.287 1624.01 684.743C1617.7 682.932 1612.73 678.701 1609.83 673.346L1609.82 673.381C1603.08 658.408 1584.51 652.624 1570.5 660.729C1566.43 661.885 1562 661.956 1557.63 660.704C1551.31 658.893 1546.35 654.662 1543.45 649.307L1543.37 649.576L1539.44 638.357C1534.9 625.433 1519.06 620.716 1508.19 629.055L1498.87 636.21C1494.11 638.85 1488.35 639.675 1482.71 638.057C1476.15 636.178 1471.21 631.419 1468.85 625.549L1468.73 625.945C1463.87 615.155 1452.87 609.137 1441.86 609.65L1497.81 585.043C1524.72 573.068 1559.89 583.152 1576.36 607.568L1629.7 685.645Z" fill="white"/>
<path d="M1070.39 456.945C1079.46 444.366 1098.81 446.57 1104.82 460.868L1352 1048.69C1357.89 1062.69 1346.53 1077.86 1331.43 1076.14L711.178 1005.47C696.086 1003.75 688.426 986.419 697.312 974.101L1070.39 456.945Z" fill="#E0F1B6"/>
<path fill-rule="evenodd" clip-rule="evenodd" d="M1135.72 532.463C1135.09 532.231 1134.46 532.064 1133.82 531.98C1127.92 531.912 1125.49 533.599 1124.71 535.148C1124.62 535.449 1124.53 535.748 1124.43 536.042C1121.75 544.224 1116.89 549.664 1112.11 549.034C1107.79 548.466 1104.69 543.111 1103.78 535.758C1103.66 534.789 1103.58 533.785 1103.54 532.753C1102.82 528.552 1100.46 521.708 1094.34 521.913C1091.48 521.537 1088.48 523.241 1086.59 524.971C1085.99 525.93 1085.34 526.827 1084.65 527.654C1081 531.99 1076.11 534.4 1071.1 533.74C1063.97 532.802 1058.7 525.948 1057.52 517.171C1057.54 517.366 1057.45 517.134 1057.28 516.681C1056.79 515.406 1055.64 512.378 1054.32 512.206C1052.69 511.99 1050.66 515.018 1050.17 516.173C1049.9 517.014 1049.57 517.861 1049.2 518.712C1044.11 530.362 1031.35 538.33 1020.69 536.51C1013.28 535.244 1017.84 528.025 1023.02 519.828C1023.05 519.775 1023.08 519.722 1023.12 519.669L1076.64 443.683C1084 433.236 1100.07 435.35 1104.47 447.347L1135.72 532.463Z" fill="white"/>
<path d="M113.066 583.034C116.262 576.748 123.995 574.31 130.219 577.626L602.676 829.383C612.529 834.633 611.188 849.156 600.54 852.513L-114.53 1077.97C-125.178 1081.33 -134.606 1070.2 -129.547 1060.25L113.066 583.034Z" fill="#BD8DDA"/>
<path fill-rule="evenodd" clip-rule="evenodd" d="M257.161 644.231C255.885 644.472 254.63 644.777 253.431 645.155C242.619 649.336 239.113 652.628 238.56 654.601C238.563 654.942 238.558 655.282 238.547 655.62C238.223 665.021 232.376 673.488 223.292 676.353C215.097 678.937 206.446 676.274 200.677 670.213C199.917 669.414 199.207 668.556 198.554 667.643C194.897 664.322 186.766 659.768 175.7 664.358C170.279 666.067 165.749 669.783 163.255 672.726C162.701 674.031 162.015 675.318 161.208 676.573C156.974 683.155 149.395 688.871 139.867 691.875C126.334 696.142 112.882 693.672 105.827 686.503C105.97 686.668 105.679 686.52 105.11 686.231L105.11 686.231C103.508 685.416 99.7042 683.483 97.2101 684.269C94.1028 685.249 92.0979 689.47 91.8339 690.883C91.8088 691.846 91.6964 692.851 91.4925 693.896C88.7029 708.198 69.8386 724.658 49.3579 730.661C35.1194 734.835 39.4164 724.96 44.2957 713.748C44.3347 713.659 44.3736 713.569 44.4126 713.479L111.883 581.877C115.085 575.632 122.774 573.208 128.978 576.487L257.161 644.231Z" fill="white"/>
<path d="M599.148 528.919C620.318 508.264 652.897 504.84 677.898 520.642L1259.29 888.105C1310.52 920.48 1292.1 999.315 1231.84 1005.65L158.152 1118.5C97.8874 1124.83 63.4846 1051.55 106.858 1009.23L599.148 528.919Z" fill="#F3B38D"/>
<path d="M529.824 594.782C531.691 595.046 533.621 595.088 535.581 594.882C542.115 594.195 547.74 590.891 551.524 586.12L551.527 586.156C560.771 572.582 580.066 570.111 592.455 580.525C596.262 582.37 600.613 583.209 605.13 582.735C611.664 582.048 617.289 578.744 621.072 573.973L621.102 574.252L626.927 563.886C633.638 551.946 650.056 550.052 659.309 560.151L667.249 568.816C671.475 572.243 677.01 574.056 682.848 573.442C689.628 572.729 695.326 568.902 698.67 563.531L698.713 563.941C705.374 554.159 717.255 550.143 728.01 552.56L677.181 518.611C652.758 502.145 616.373 505.969 595.908 527.154L529.824 594.782Z" fill="white"/>
<circle cx="1406.97" cy="234.042" r="114.042" fill="#F3D48C"/>
<path d="M414.341 252.023C414.341 248.144 411.197 245 407.319 245H278.097C274.219 245 271.075 248.144 271.075 252.023C271.075 254.99 272.915 257.527 275.517 258.556H263.703L263.685 258.556L275.517 258.556C276.315 258.871 277.186 259.045 278.097 259.045H288.009C290.833 260.121 292.839 262.854 292.839 266.056C292.839 270.192 289.491 273.546 285.357 273.556H266.004C260.757 273.556 256.504 277.809 256.504 283.056C256.504 286.776 258.642 289.996 261.757 291.556H234.504C234.209 291.556 233.918 291.572 233.632 291.603H261.852C263.106 292.213 264.515 292.556 266.004 292.556H266.538C269.056 293.91 270.767 296.569 270.767 299.628C270.767 302.643 269.104 305.27 266.646 306.642H236.435C228.463 306.642 222 313.105 222 321.077C222 329.049 228.463 335.512 236.435 335.512H305.262C306.29 336.341 306.948 337.611 306.948 339.034C306.948 341.021 305.666 342.708 303.885 343.315H288.354C283.183 343.315 278.991 347.507 278.991 352.679C278.991 357.85 283.183 362.042 288.354 362.042H412.894C418.065 362.042 422.257 357.85 422.257 352.679C422.257 347.507 418.065 343.315 412.894 343.315H377.935C376.154 342.708 374.873 341.021 374.873 339.034C374.873 337.611 375.531 336.341 376.559 335.512H399.906C407.878 335.512 414.341 329.049 414.341 321.077C414.341 313.105 407.878 306.642 399.906 306.642H349.956C347.498 305.27 345.835 302.644 345.835 299.629C345.835 296.569 347.547 293.91 350.065 292.556H382.004C387.251 292.556 391.504 288.302 391.504 283.056C391.504 277.809 387.251 273.556 382.004 273.556H361.998C357.875 273.534 354.539 270.184 354.539 266.056C354.539 262.854 356.545 260.121 359.369 259.045H407.319C411.197 259.045 414.341 255.901 414.341 252.023Z" fill="#D6F1F5"/>
<path d="M1476.98 426.174C1476.98 423.362 1479.26 421.083 1482.07 421.083H1574.27C1577.08 421.083 1579.36 423.362 1579.36 426.174C1579.36 428.482 1577.83 430.432 1575.72 431.056H1583.78L1583.81 431.056L1575.72 431.056C1575.26 431.192 1574.77 431.265 1574.27 431.265H1566.99C1564.71 431.916 1563.04 434.014 1563.04 436.501C1563.04 438.694 1564.34 440.584 1566.21 441.447H1583.04C1586.94 441.447 1590.11 444.612 1590.11 448.517C1590.11 451.468 1588.3 453.996 1585.73 455.056H1605.83L1605.85 455.056L1585.73 455.056C1584.9 455.399 1583.99 455.588 1583.04 455.588H1582.8C1580.9 456.485 1579.58 458.42 1579.58 460.663C1579.58 462.933 1580.93 464.888 1582.87 465.77H1603.97C1609.75 465.77 1614.43 470.455 1614.43 476.235C1614.43 482.014 1609.75 486.699 1603.97 486.699H1555.8C1554.6 487.088 1553.72 488.22 1553.72 489.556C1553.72 490.832 1554.52 491.923 1555.65 492.356H1566.92C1570.67 492.356 1573.7 495.395 1573.7 499.144C1573.7 502.893 1570.67 505.932 1566.92 505.932H1478.11C1474.36 505.932 1471.32 502.893 1471.32 499.144C1471.32 495.395 1474.36 492.356 1478.11 492.356H1503.26C1504.39 491.923 1505.18 490.832 1505.18 489.556C1505.18 488.22 1504.31 487.087 1503.1 486.699H1487.44C1486.85 486.699 1486.27 486.65 1485.71 486.556H1483.37L1483.41 486.556H1485.7C1480.75 485.728 1476.98 481.422 1476.98 476.235C1476.98 470.455 1481.66 465.77 1487.44 465.77H1522.65C1524.59 464.888 1525.93 462.933 1525.93 460.663C1525.93 458.42 1524.62 456.485 1522.72 455.588H1500.45C1496.55 455.588 1493.38 452.423 1493.38 448.517C1493.38 444.612 1496.55 441.447 1500.45 441.447H1515.79C1517.65 440.584 1518.95 438.694 1518.95 436.501C1518.95 434.014 1517.28 431.916 1515 431.265H1482.07C1479.26 431.265 1476.98 428.986 1476.98 426.174Z" fill="white"/>
<path d="M1412.93 251.167C1412.93 240.124 1378.02 240.124 1378.02 251.167C1379.33 251.167 1380.65 251.167 1381.96 251.167C1381.96 242.617 1408.99 242.617 1408.99 251.167C1410.3 251.167 1411.61 251.167 1412.93 251.167Z" fill="#D4F1F5"/>
<path d="M1444.01 251.167C1444.01 240.124 1409.11 240.124 1409.11 251.167C1410.42 251.167 1411.73 251.167 1413.05 251.167C1413.05 242.617 1440.08 242.617 1440.08 251.167C1441.38 251.167 1442.7 251.167 1444.01 251.167Z" fill="#D4F1F5"/>
<path d="M178.46 442.754C178.46 430.762 157.396 430.762 157.396 442.754C158.185 442.754 158.979 442.754 159.773 442.754C159.773 433.47 176.084 433.47 176.084 442.754C176.872 442.754 177.667 442.754 178.46 442.754Z" fill="#D4F1F5"/>
<path d="M197.22 442.754C197.22 430.762 176.156 430.762 176.156 442.754C176.945 442.754 177.739 442.754 178.532 442.754C178.532 433.47 194.844 433.47 194.844 442.754C195.632 442.754 196.427 442.754 197.22 442.754Z" fill="#D4F1F5"/>
<path d="M1308.35 286.446C1308.35 277.665 1290.05 277.665 1290.05 286.446C1290.74 286.446 1291.43 286.446 1292.12 286.446C1292.12 279.648 1306.29 279.648 1306.29 286.446C1306.97 286.446 1307.66 286.446 1308.35 286.446Z" fill="#D4F1F5"/>
<path d="M1324.65 286.446C1324.65 277.665 1306.35 277.665 1306.35 286.446C1307.03 286.446 1307.73 286.446 1308.41 286.446C1308.41 279.648 1322.59 279.648 1322.59 286.446C1323.27 286.446 1323.96 286.446 1324.65 286.446Z" fill="#D4F1F5"/>
<ellipse cx="869.5" cy="923" rx="907.5" ry="215" fill="#F3D48C"/>
<rect x="-38" y="956" width="1815" height="587" fill="url(#paint1_linear)"/>
</g>
<defs>
<linearGradient id="paint0_linear" x1="875.441" y1="-6.33565e-08" x2="873.104" y2="882.666" gradientUnits="userSpaceOnUse">
<stop stop-color="#BD8DDA"/>
<stop offset="0.207939" stop-color="#D8AEF2"/>
<stop offset="0.489976" stop-color="#E3C0F9"/>
<stop offset="0.99444" stop-color="#EED2FF"/>
</linearGradient>
<linearGradient id="paint1_linear" x1="869.5" y1="956" x2="869.038" y2="1543" gradientUnits="userSpaceOnUse">
<stop stop-color="#F3D48C"/>
<stop offset="1" stop-color="#FCF5B8"/>
</linearGradient>
<clipPath id="clip0">
<rect width="1737" height="1543" fill="white"/>
</clipPath>
</defs>
</svg>
