<svg width="1261" height="2911" viewBox="0 0 1261 2911" fill="none" xmlns="http://www.w3.org/2000/svg">
<g clip-path="url(#clip0)">
<rect width="1261" height="2911" fill="white"/>
<rect x="-253" width="1884" height="2166" fill="url(#paint0_linear)"/>
<path d="M1338.87 1976.34C1321.6 1952.32 1290.11 1943.29 1262.75 1954.51L626.377 2215.43C570.31 2238.42 574.754 2319.26 633.004 2335.96L1670.78 2633.54C1729.03 2650.24 1775.64 2584.04 1740.27 2534.84L1338.87 1976.34Z" fill="#DB8CA1"/>
<path d="M1395.7 2053.24C1393.81 2053.17 1391.91 2052.88 1390.01 2052.34C1383.7 2050.53 1378.73 2046.29 1375.83 2040.94L1375.82 2040.97C1369.08 2026 1350.51 2020.22 1336.5 2028.32C1332.43 2029.48 1328 2029.55 1323.63 2028.3C1317.31 2026.49 1312.35 2022.25 1309.45 2016.9L1309.37 2017.17L1305.44 2005.95C1300.9 1993.03 1285.06 1988.31 1274.19 1996.65L1264.87 2003.8C1260.11 2006.44 1254.35 2007.27 1248.71 2005.65C1242.15 2003.77 1237.21 1999.01 1234.85 1993.14L1234.73 1993.54C1229.87 1982.75 1218.87 1976.73 1207.86 1977.24L1263.81 1952.64C1290.72 1940.66 1325.89 1950.74 1342.36 1975.16L1395.7 2053.24Z" fill="white"/>
<path d="M836.389 1824.54C845.463 1811.96 864.808 1814.16 870.82 1828.46L1118 2416.29C1123.89 2430.29 1112.53 2445.45 1097.43 2443.73L477.178 2373.06C462.086 2371.34 454.426 2354.01 463.312 2341.69L836.389 1824.54Z" fill="#E0F1B6"/>
<path fill-rule="evenodd" clip-rule="evenodd" d="M901.722 1900.06C901.093 1899.82 900.456 1899.66 899.824 1899.57C893.924 1899.51 891.489 1901.19 890.712 1902.74C890.621 1903.04 890.528 1903.34 890.431 1903.64C887.753 1911.82 882.888 1917.26 878.106 1916.63C873.792 1916.06 870.692 1910.7 869.781 1903.35C869.661 1902.38 869.579 1901.38 869.537 1900.35C868.819 1896.14 866.458 1889.3 860.336 1889.51C857.482 1889.13 854.481 1890.83 852.586 1892.56C851.989 1893.52 851.34 1894.42 850.645 1895.25C847.001 1899.58 842.114 1901.99 837.098 1901.33C829.974 1900.39 824.703 1893.54 823.523 1884.76C823.542 1884.96 823.453 1884.73 823.28 1884.27C822.793 1883 821.636 1879.97 820.323 1879.8C818.687 1879.58 816.663 1882.61 816.166 1883.77C815.895 1884.61 815.574 1885.45 815.202 1886.31C810.113 1897.95 797.347 1905.92 786.689 1904.1C779.278 1902.84 783.838 1895.62 789.017 1887.42C789.05 1887.37 789.083 1887.31 789.117 1887.26L842.642 1811.28C850.002 1800.83 866.066 1802.94 870.471 1814.94L901.722 1900.06Z" fill="white"/>
<path d="M-120.934 1950.63C-117.738 1944.34 -110.005 1941.9 -103.781 1945.22L368.676 2196.98C378.529 2202.23 377.188 2216.75 366.54 2220.11L-348.53 2445.57C-359.178 2448.92 -368.606 2437.8 -363.547 2427.84L-120.934 1950.63Z" fill="#BD8DDA"/>
<path fill-rule="evenodd" clip-rule="evenodd" d="M23.1607 2011.82C21.8849 2012.06 20.6296 2012.37 19.4308 2012.75C8.61885 2016.93 5.11337 2020.22 4.5601 2022.19C4.56288 2022.53 4.55839 2022.87 4.54673 2023.21C4.22302 2032.61 -1.62356 2041.08 -10.7084 2043.95C-18.9031 2046.53 -27.5545 2043.87 -33.3228 2037.81C-34.0832 2037.01 -34.7934 2036.15 -35.4459 2035.24C-39.1026 2031.91 -47.2339 2027.36 -58.3005 2031.95C-63.721 2033.66 -68.2514 2037.38 -70.7448 2040.32C-71.2991 2041.62 -71.9847 2042.91 -72.7919 2044.17C-77.0257 2050.75 -84.6049 2056.46 -94.1329 2059.47C-107.666 2063.74 -121.118 2061.26 -128.173 2054.1C-128.03 2054.26 -128.321 2054.11 -128.89 2053.82L-128.89 2053.82C-130.492 2053.01 -134.296 2051.08 -136.79 2051.86C-139.897 2052.84 -141.902 2057.06 -142.166 2058.48C-142.191 2059.44 -142.304 2060.44 -142.507 2061.49C-145.297 2075.79 -164.161 2092.25 -184.642 2098.25C-198.881 2102.43 -194.584 2092.55 -189.704 2081.34C-189.665 2081.25 -189.626 2081.16 -189.587 2081.07L-122.117 1949.47C-118.915 1943.22 -111.226 1940.8 -105.022 1944.08L23.1607 2011.82Z" fill="white"/>
<path d="M365.148 1896.51C386.318 1875.86 418.897 1872.43 443.898 1888.23L1025.29 2255.7C1076.52 2288.07 1058.1 2366.91 997.837 2373.24L-75.8475 2486.09C-136.113 2492.43 -170.515 2419.14 -127.142 2376.82L365.148 1896.51Z" fill="#F3B38D"/>
<path d="M295.824 1962.38C297.691 1962.64 299.621 1962.68 301.581 1962.47C308.115 1961.79 313.74 1958.48 317.524 1953.71L317.527 1953.75C326.771 1940.17 346.066 1937.7 358.455 1948.12C362.262 1949.96 366.613 1950.8 371.13 1950.33C377.664 1949.64 383.289 1946.34 387.072 1941.57L387.102 1941.84L392.927 1931.48C399.638 1919.54 416.056 1917.64 425.309 1927.74L433.249 1936.41C437.475 1939.84 443.01 1941.65 448.848 1941.03C455.628 1940.32 461.326 1936.49 464.67 1931.12L464.713 1931.53C471.374 1921.75 483.255 1917.74 494.01 1920.15L443.181 1886.2C418.758 1869.74 382.373 1873.56 361.908 1894.75L295.824 1962.38Z" fill="white"/>
<path d="M163.207 1057.63C163.207 1036.79 137.867 1036.79 137.867 1057.63C138.816 1057.63 139.772 1057.63 140.726 1057.63C140.726 1041.5 160.348 1041.5 160.348 1057.63C161.297 1057.63 162.253 1057.63 163.207 1057.63Z" fill="#D4F1F5"/>
<path d="M185.775 1057.63C185.775 1036.79 160.436 1036.79 160.436 1057.63C161.384 1057.63 162.34 1057.63 163.294 1057.63C163.294 1041.5 182.917 1041.5 182.917 1057.63C183.866 1057.63 184.821 1057.63 185.775 1057.63Z" fill="#D4F1F5"/>
<path d="M87.2866 1124.18C87.2866 1107.62 74 1107.62 74 1124.18C74.4975 1124.18 74.9985 1124.18 75.4988 1124.18C75.4988 1111.36 85.7878 1111.36 85.7878 1124.18C86.2852 1124.18 86.7863 1124.18 87.2866 1124.18Z" fill="#D4F1F5"/>
<path d="M99.1184 1124.18C99.1184 1107.62 85.832 1107.62 85.832 1124.18C86.3295 1124.18 86.8305 1124.18 87.3308 1124.18C87.3308 1111.36 97.6196 1111.36 97.6196 1124.18C98.117 1124.18 98.6181 1124.18 99.1184 1124.18Z" fill="#D4F1F5"/>
<ellipse cx="635.5" cy="2290.59" rx="907.5" ry="215" fill="#F3D48C"/>
<rect x="-272" y="2323.59" width="1815" height="587" fill="url(#paint1_linear)"/>
</g>
<defs>
<linearGradient id="paint0_linear" x1="688.441" y1="-1.55414e-07" x2="674.381" y2="2165.11" gradientUnits="userSpaceOnUse">
<stop stop-color="#BD8DDA"/>
<stop offset="0.207939" stop-color="#D8AEF2"/>
<stop offset="0.489976" stop-color="#E3C0F9"/>
<stop offset="0.99444" stop-color="#EED2FF"/>
</linearGradient>
<linearGradient id="paint1_linear" x1="635.5" y1="2323.59" x2="635.038" y2="2910.59" gradientUnits="userSpaceOnUse">
<stop stop-color="#F3D48C"/>
<stop offset="1" stop-color="#FCF5B8"/>
</linearGradient>
<clipPath id="clip0">
<rect width="1261" height="2911" fill="white"/>
</clipPath>
</defs>
</svg>
