<svg width="1737" height="977" viewBox="0 0 1737 977" fill="none" xmlns="http://www.w3.org/2000/svg">
<rect width="1737" height="977" fill="white"/>
<g clip-path="url(#clip0)">
<rect width="1737" height="977" transform="matrix(-1 0 0 1 1737 0)" fill="url(#paint0_linear)"/>
<path d="M1510.47 288.578L1107.18 303.728L1022.77 281.363L932.589 256.834H884.252L851.066 237.355L820.765 245.291L783.25 220.762L747.899 207.776L695.955 220.762L669.983 207.776L605.053 220.762L506.215 207.776L387.177 192.626L341.004 172.425L302.768 179.64L263.81 161.604L238.559 172.425L207.537 161.604L162.807 192.626L139.721 186.133L99.3202 199.84L19.9613 234.469L-14.6681 227.976L-58.6763 243.848H-83.2054L-134.428 256.834L-251.302 243.848L-280.16 624.05H1451.31L1510.47 288.578Z" fill="url(#paint1_linear)"/>
<path d="M2142.41 466.048L1739.27 484.717L1654.67 463.089L1564.28 439.348L1515.94 439.77L1482.59 420.581L1452.36 428.781L1414.63 404.58L1379.17 391.903L1327.34 405.342L1301.25 392.583L1236.44 406.135L1137.49 394.012L1018.33 379.902L971.979 360.105L933.807 367.653L894.693 349.957L869.538 360.999L838.423 350.448L793.965 381.859L770.823 375.568L730.544 389.628L651.49 424.948L616.805 418.758L572.937 435.013L548.409 435.227L497.302 448.659L352.255 527.844L354.78 817.133L2086.18 802.023L2142.41 466.048Z" fill="url(#paint2_linear)"/>
<path d="M1837.76 162.348L1782.3 185.254L1765.35 162.348L1742.98 170.061L1686.71 213.971L1666.51 206.855L1654.97 213.971L1643.42 206.855L1621.06 213.971L1595.81 206.855L1471.72 170.061L1325.99 256.634L1316.61 271.784L1307.95 294.871L1147.79 347.536L1133.36 341.764L1087.91 356.193L1060.5 369.179L973.923 369.179L932.801 393.708L896.729 404.53L839.734 436.995L807.991 445.653L762.54 441.324L689.674 456.474L556.207 420.402L466.747 445.653L405.423 445.652L277.727 493.268L199.09 499.039L140.653 522.847L105.302 530.062L16.5641 575.513L-82.9953 617.356L-148.647 636.114L-199.869 636.114L-121.232 1020.64L1913.63 466.679L1837.76 162.348Z" fill="url(#paint3_linear)"/>
<path d="M715.494 561.499C702.898 561.499 690.461 564.304 679.084 569.708L144.05 823.89L-85.3343 898.492C-90.6355 900.216 -95.7541 902.459 -100.616 905.187L-2760.55 2397.86C-2847.22 2446.5 -2794 2578.88 -2697.78 2554L4762.01 624.767C4855.05 600.704 4842.7 464.875 4746.84 457.991L2181.16 273.724C2171.77 273.05 2162.34 273.942 2153.25 276.364L1756.71 381.972C1750.32 383.672 1744.16 386.111 1738.35 389.239L1431.65 554.222C1422.7 559.035 1412.97 562.201 1402.9 563.572L1167.13 595.677C1158.95 596.791 1150.65 596.705 1142.5 595.422L933.369 562.53C929.008 561.844 924.6 561.5 920.186 561.5L715.494 561.499Z" fill="url(#paint4_linear)"/>
<path d="M1837.3 640.872C1824.06 637.446 1810.18 637.275 1796.85 640.372L1556.64 696.195L920.349 925.117C914.102 927.365 907.612 928.871 901.014 929.606L554.552 968.179L-1908.94 1547.42C-2007.03 1570.49 -1990.29 1714.87 -1889.52 1714.87L5737.44 1714.87C5833.55 1714.87 5855.6 1580.27 5764.52 1549.6L3331.2 730.327C3319.36 726.342 3306.79 725.019 3294.39 726.452L2531.6 814.559C2521.23 815.757 2510.73 815.031 2500.62 812.417L1837.3 640.872Z" fill="url(#paint5_linear)"/>
<path d="M204.98 793.544C194.79 792.089 184.421 792.5 174.378 794.757L-3576 1637.67C-3673.94 1659.68 -3659.24 1803.53 -3558.87 1805.29L4090.44 1938.81C4186.53 1940.48 4210.92 1806.29 4120.39 1774.04L1702.26 912.608C1690.16 908.298 1677.24 906.791 1664.48 908.199L1304.7 947.899C1297.62 948.681 1290.46 948.567 1283.4 947.559L204.98 793.544Z" fill="url(#paint6_linear)"/>
<path d="M-6.40434 847.958L-42.7169 885.353L-27.0438 936.257L-6.40434 847.958Z" fill="#070606"/>
<path d="M50.8143 762.728L30.7987 852.051L54.8549 866.329L50.8143 762.728Z" fill="#070606"/>
<path d="M67.1845 813.328L30.8719 850.723L46.545 901.627L67.1845 813.328Z" fill="#070606"/>
<path d="M31.0962 761.17L18.7761 859.974H43.4163L31.0962 761.17Z" fill="#070606"/>
<path d="M0.533453 783.825L-2.49281 887.673L21.4155 871.714L0.533453 783.825Z" fill="#070606"/>
<path d="M-12.4886 803.418L-2.72172 904.247L17.9433 868.317L-12.4886 803.418Z" fill="#070606"/>
<path d="M11.1655 762.819L7.49551 866.458L31.5099 851.681L11.1655 762.819Z" fill="#070606"/>
<path d="M23.0633 779.268L3.04776 868.591L27.1039 882.869L23.0633 779.268Z" fill="#070606"/>
<path d="M101.314 780.042L81.2987 869.365L105.355 883.644L101.314 780.042Z" fill="#070606"/>
<path d="M117.685 830.643L81.3719 868.038L97.045 918.942L117.685 830.643Z" fill="#070606"/>
<path d="M81.5962 778.484L69.2761 877.288H93.9163L81.5962 778.484Z" fill="#070606"/>
<path d="M51.0335 801.139L48.0072 904.988L71.9155 889.028L51.0335 801.139Z" fill="#070606"/>
<path d="M38.0124 820.733L47.7793 921.562L68.4443 885.632L38.0124 820.733Z" fill="#070606"/>
<path d="M61.6665 780.133L57.9965 883.772L82.0109 868.995L61.6665 780.133Z" fill="#070606"/>
<path d="M73.5643 796.582L53.5487 885.905L77.6049 900.184L73.5643 796.582Z" fill="#070606"/>
<path d="M225.402 738.2L205.387 827.522L229.443 841.801L225.402 738.2Z" fill="#070606"/>
<path d="M241.772 788.8L205.46 826.195L221.133 877.099L241.772 788.8Z" fill="#070606"/>
<path d="M205.684 736.642L193.364 835.446H218.004L205.684 736.642Z" fill="#070606"/>
<path d="M175.121 759.296L172.095 863.145L196.003 847.186L175.121 759.296Z" fill="#070606"/>
<path d="M162.099 778.89L171.866 879.718L192.531 843.789L162.099 778.89Z" fill="#070606"/>
<path d="M185.753 738.29L182.083 841.93L206.098 827.153L185.753 738.29Z" fill="#070606"/>
<path d="M197.651 754.74L177.636 844.062L201.692 858.341L197.651 754.74Z" fill="#070606"/>
<path d="M349.492 719.441L329.476 808.764L353.533 823.042L349.492 719.441Z" fill="#070606"/>
<path d="M365.862 770.041L329.55 807.436L345.223 858.34L365.862 770.041Z" fill="#070606"/>
<path d="M329.774 717.883L317.454 816.687H342.094L329.774 717.883Z" fill="#070606"/>
<path d="M299.211 740.537L296.185 844.386L320.093 828.427L299.211 740.537Z" fill="#070606"/>
<path d="M286.189 760.131L295.956 860.96L316.621 825.03L286.189 760.131Z" fill="#070606"/>
<path d="M309.843 719.531L306.173 823.171L330.188 808.394L309.843 719.531Z" fill="#070606"/>
<path d="M321.741 735.981L301.725 825.304L325.782 839.582L321.741 735.981Z" fill="#070606"/>
<path d="M438.95 795.915L418.934 885.237L442.991 899.516L438.95 795.915Z" fill="#070606"/>
<path d="M455.32 846.515L419.008 883.91L434.681 934.814L455.32 846.515Z" fill="#070606"/>
<path d="M419.232 794.356L406.912 893.16H431.552L419.232 794.356Z" fill="#070606"/>
<path d="M388.669 817.011L385.643 920.86L409.551 904.9L388.669 817.011Z" fill="#070606"/>
<path d="M375.647 836.604L385.414 937.433L406.079 901.504L375.647 836.604Z" fill="#070606"/>
<path d="M399.301 796.005L395.631 899.644L419.646 884.867L399.301 796.005Z" fill="#070606"/>
<path d="M411.199 812.455L391.184 901.777L415.24 916.056L411.199 812.455Z" fill="#070606"/>
<path d="M290.334 787.256L270.318 876.579L294.374 890.857L290.334 787.256Z" fill="#070606"/>
<path d="M306.704 837.857L270.391 875.252L286.065 926.156L306.704 837.857Z" fill="#070606"/>
<path d="M270.616 785.697L258.296 884.501H282.936L270.616 785.697Z" fill="#070606"/>
<path d="M240.053 808.352L237.027 912.201L260.935 896.241L240.053 808.352Z" fill="#070606"/>
<path d="M227.031 827.946L236.798 928.775L257.463 892.845L227.031 827.946Z" fill="#070606"/>
<path d="M250.685 787.347L247.015 890.986L271.029 876.209L250.685 787.347Z" fill="#070606"/>
<path d="M262.583 803.796L242.567 893.119L266.623 907.398L262.583 803.796Z" fill="#070606"/>
<path d="M146.044 755.514L126.028 844.837L150.084 859.115L146.044 755.514Z" fill="#070606"/>
<path d="M162.414 806.114L126.101 843.51L141.775 894.414L162.414 806.114Z" fill="#070606"/>
<path d="M126.326 753.956L114.006 852.76H138.646L126.326 753.956Z" fill="#070606"/>
<path d="M95.7629 776.611L92.7367 880.46L116.645 864.5L95.7629 776.611Z" fill="#070606"/>
<path d="M82.7409 796.204L92.5078 897.033L113.173 861.103L82.7409 796.204Z" fill="#070606"/>
<path d="M106.395 755.605L102.725 859.244L126.739 844.467L106.395 755.605Z" fill="#070606"/>
<path d="M118.293 772.054L98.2773 861.377L122.333 875.655L118.293 772.054Z" fill="#070606"/>
<path d="M249.932 749.742L229.917 839.064L253.973 853.343L249.932 749.742Z" fill="#070606"/>
<path d="M266.303 800.342L229.99 837.737L245.663 888.641L266.303 800.342Z" fill="#070606"/>
<path d="M230.214 748.184L217.894 846.988H242.535L230.214 748.184Z" fill="#070606"/>
<path d="M199.652 770.838L196.625 874.687L220.534 858.728L199.652 770.838Z" fill="#070606"/>
<path d="M186.63 790.432L196.396 891.26L217.061 855.331L186.63 790.432Z" fill="#070606"/>
<path d="M210.284 749.832L206.614 853.472L230.628 838.695L210.284 749.832Z" fill="#070606"/>
<path d="M222.181 766.282L202.166 855.604L226.222 869.883L222.181 766.282Z" fill="#070606"/>
<path d="M483.681 768.498L463.665 857.821L487.721 872.1L483.681 768.498Z" fill="#070606"/>
<path d="M500.051 819.099L463.738 856.494L479.411 907.398L500.051 819.099Z" fill="#070606"/>
<path d="M463.963 766.94L451.643 865.744H476.284L463.963 766.94Z" fill="#070606"/>
<path d="M433.4 789.595L430.373 893.444L454.282 877.484L433.4 789.595Z" fill="#070606"/>
<path d="M420.378 809.188L430.144 910.017L450.81 874.088L420.378 809.188Z" fill="#070606"/>
<path d="M444.032 768.589L440.362 872.228L464.376 857.451L444.032 768.589Z" fill="#070606"/>
<path d="M455.93 785.039L435.914 874.361L459.97 888.64L455.93 785.039Z" fill="#070606"/>
<path d="M534.182 777.156L514.167 866.478L538.223 880.757L534.182 777.156Z" fill="#070606"/>
<path d="M550.553 827.756L514.24 865.151L529.913 916.055L550.553 827.756Z" fill="#070606"/>
<path d="M514.465 775.598L502.145 874.402H526.785L514.465 775.598Z" fill="#070606"/>
<path d="M483.902 798.252L480.875 902.101L504.784 886.142L483.902 798.252Z" fill="#070606"/>
<path d="M470.88 817.846L480.646 918.674L501.311 882.745L470.88 817.846Z" fill="#070606"/>
<path d="M494.534 777.246L490.864 880.886L514.878 866.109L494.534 777.246Z" fill="#070606"/>
<path d="M506.431 793.696L486.416 883.018L510.472 897.297L506.431 793.696Z" fill="#070606"/>
<path d="M658.27 817.558L638.255 906.881L662.311 921.159L658.27 817.558Z" fill="#070606"/>
<path d="M674.641 868.158L638.328 905.554L654.001 956.457L674.641 868.158Z" fill="#070606"/>
<path d="M638.553 815.999L626.233 914.803H650.873L638.553 815.999Z" fill="#070606"/>
<path d="M607.99 838.654L604.963 942.503L628.872 926.543L607.99 838.654Z" fill="#070606"/>
<path d="M594.967 858.248L604.734 959.077L625.399 923.147L594.967 858.248Z" fill="#070606"/>
<path d="M618.622 817.649L614.952 921.288L638.966 906.511L618.622 817.649Z" fill="#070606"/>
<path d="M630.519 834.098L610.504 923.421L634.56 937.699L630.519 834.098Z" fill="#070606"/>
<path d="M433.181 730.984L413.165 820.307L437.221 834.585L433.181 730.984Z" fill="#070606"/>
<path d="M449.551 781.584L413.238 818.979L428.911 869.883L449.551 781.584Z" fill="#070606"/>
<path d="M413.462 729.426L401.142 828.23H425.783L413.462 729.426Z" fill="#070606"/>
<path d="M382.9 752.08L379.873 855.929L403.782 839.97L382.9 752.08Z" fill="#070606"/>
<path d="M369.878 771.674L379.644 872.503L400.31 836.573L369.878 771.674Z" fill="#070606"/>
<path d="M393.532 731.074L389.862 834.714L413.876 819.937L393.532 731.074Z" fill="#070606"/>
<path d="M405.43 747.524L385.414 836.847L409.47 851.125L405.43 747.524Z" fill="#070606"/>
<path d="M747.728 826.215L727.713 915.538L751.769 929.816L747.728 826.215Z" fill="#070606"/>
<path d="M764.099 876.816L727.786 914.211L743.459 965.115L764.099 876.816Z" fill="#070606"/>
<path d="M728.011 824.656L715.691 923.46H740.331L728.011 824.656Z" fill="#070606"/>
<path d="M697.448 847.312L694.421 951.161L718.33 935.201L697.448 847.312Z" fill="#070606"/>
<path d="M684.425 866.905L694.192 967.734L714.857 931.804L684.425 866.905Z" fill="#070606"/>
<path d="M708.08 826.306L704.41 929.945L728.424 915.168L708.08 826.306Z" fill="#070606"/>
<path d="M719.977 842.755L699.962 932.078L724.018 946.356L719.977 842.755Z" fill="#070606"/>
<path d="M809.774 817.558L789.759 906.881L813.815 921.159L809.774 817.558Z" fill="#070606"/>
<path d="M826.144 868.158L789.832 905.554L805.505 956.457L826.144 868.158Z" fill="#070606"/>
<path d="M790.057 816L777.737 914.804H802.377L790.057 816Z" fill="#070606"/>
<path d="M759.493 838.655L756.467 942.504L780.375 926.544L759.493 838.655Z" fill="#070606"/>
<path d="M746.471 858.248L756.238 959.077L776.903 923.147L746.471 858.248Z" fill="#070606"/>
<path d="M770.126 817.649L766.455 921.288L790.47 906.511L770.126 817.649Z" fill="#070606"/>
<path d="M782.023 834.098L762.008 923.421L786.064 937.699L782.023 834.098Z" fill="#070606"/>
<path d="M883.36 840.644L863.345 929.967L887.401 944.245L883.36 840.644Z" fill="#070606"/>
<path d="M899.73 891.244L863.418 928.639L879.091 979.543L899.73 891.244Z" fill="#070606"/>
<path d="M863.643 839.086L851.323 937.89H875.963L863.643 839.086Z" fill="#070606"/>
<path d="M833.079 861.741L830.053 965.589L853.961 949.63L833.079 861.741Z" fill="#070606"/>
<path d="M820.057 881.334L829.824 982.163L850.489 946.233L820.057 881.334Z" fill="#070606"/>
<path d="M843.711 840.735L840.041 944.374L864.056 929.597L843.711 840.735Z" fill="#070606"/>
<path d="M855.609 857.184L835.594 946.507L859.65 960.785L855.609 857.184Z" fill="#070606"/>
<path d="M956.948 808.901L936.933 898.224L960.989 912.502L956.948 808.901Z" fill="#070606"/>
<path d="M973.318 859.501L937.006 896.896L952.679 947.8L973.318 859.501Z" fill="#070606"/>
<path d="M937.231 807.343L924.911 906.147H949.551L937.231 807.343Z" fill="#070606"/>
<path d="M906.667 829.997L903.641 933.846L927.549 917.887L906.667 829.997Z" fill="#070606"/>
<path d="M893.645 849.591L903.412 950.42L924.077 914.49L893.645 849.591Z" fill="#070606"/>
<path d="M917.299 808.991L913.629 912.631L937.644 897.854L917.299 808.991Z" fill="#070606"/>
<path d="M929.197 825.441L909.182 914.764L933.238 929.042L929.197 825.441Z" fill="#070606"/>
<path d="M1034.86 853.631L1014.85 942.954L1038.9 957.232L1034.86 853.631Z" fill="#070606"/>
<path d="M1051.23 904.232L1014.92 941.627L1030.59 992.531L1051.23 904.232Z" fill="#070606"/>
<path d="M1015.15 852.073L1002.83 950.877H1027.47L1015.15 852.073Z" fill="#070606"/>
<path d="M984.583 874.728L981.557 978.577L1005.47 962.617L984.583 874.728Z" fill="#070606"/>
<path d="M971.561 894.321L981.328 995.15L1001.99 959.22L971.561 894.321Z" fill="#070606"/>
<path d="M995.215 853.722L991.545 957.361L1015.56 942.584L995.215 853.722Z" fill="#070606"/>
<path d="M1007.11 870.171L987.098 959.494L1011.15 973.773L1007.11 870.171Z" fill="#070606"/>
<path d="M1095.47 872.387L1075.45 961.71L1099.51 975.988L1095.47 872.387Z" fill="#070606"/>
<path d="M1111.84 922.988L1075.53 960.383L1091.2 1011.29L1111.84 922.988Z" fill="#070606"/>
<path d="M1075.75 870.829L1063.43 969.633H1088.07L1075.75 870.829Z" fill="#070606"/>
<path d="M1045.19 893.484L1042.16 997.333L1066.07 981.373L1045.19 893.484Z" fill="#070606"/>
<path d="M1032.16 913.077L1041.93 1013.91L1062.6 977.976L1032.16 913.077Z" fill="#070606"/>
<path d="M1055.82 872.478L1052.15 976.117L1076.16 961.34L1055.82 872.478Z" fill="#070606"/>
<path d="M1067.72 888.927L1047.7 978.25L1071.76 992.528L1067.72 888.927Z" fill="#070606"/>
<path d="M1233.98 891.145L1213.97 980.468L1238.02 994.746L1233.98 891.145Z" fill="#070606"/>
<path d="M1250.35 941.745L1214.04 979.14L1229.71 1030.04L1250.35 941.745Z" fill="#070606"/>
<path d="M1214.27 889.587L1201.95 988.391H1226.59L1214.27 889.587Z" fill="#070606"/>
<path d="M1183.7 912.242L1180.68 1016.09L1204.58 1000.13L1183.7 912.242Z" fill="#070606"/>
<path d="M1170.68 931.836L1180.45 1032.66L1201.11 996.735L1170.68 931.836Z" fill="#070606"/>
<path d="M1194.34 891.236L1190.67 994.875L1214.68 980.098L1194.34 891.236Z" fill="#070606"/>
<path d="M1206.23 907.685L1186.22 997.008L1210.27 1011.29L1206.23 907.685Z" fill="#070606"/>
<path d="M1307.57 872.387L1287.56 961.71L1311.61 975.988L1307.57 872.387Z" fill="#070606"/>
<path d="M1323.94 922.988L1287.63 960.383L1303.3 1011.29L1323.94 922.988Z" fill="#070606"/>
<path d="M1287.85 870.829L1275.53 969.633H1300.17L1287.85 870.829Z" fill="#070606"/>
<path d="M1257.29 893.484L1254.26 997.333L1278.17 981.373L1257.29 893.484Z" fill="#070606"/>
<path d="M1244.27 913.077L1254.04 1013.91L1274.7 977.976L1244.27 913.077Z" fill="#070606"/>
<path d="M1267.92 872.478L1264.25 976.117L1288.27 961.34L1267.92 872.478Z" fill="#070606"/>
<path d="M1279.82 888.927L1259.8 978.25L1283.86 992.528L1279.82 888.927Z" fill="#070606"/>
<path d="M1408.57 853.631L1388.56 942.954L1412.61 957.232L1408.57 853.631Z" fill="#070606"/>
<path d="M1424.94 904.232L1388.63 941.627L1404.3 992.531L1424.94 904.232Z" fill="#070606"/>
<path d="M1388.86 852.073L1376.54 950.877H1401.18L1388.86 852.073Z" fill="#070606"/>
<path d="M1358.29 874.728L1355.27 978.577L1379.17 962.617L1358.29 874.728Z" fill="#070606"/>
<path d="M1345.27 894.321L1355.04 995.15L1375.7 959.22L1345.27 894.321Z" fill="#070606"/>
<path d="M1368.92 853.722L1365.25 957.361L1389.27 942.584L1368.92 853.722Z" fill="#070606"/>
<path d="M1380.82 870.171L1360.81 959.494L1384.86 973.773L1380.82 870.171Z" fill="#070606"/>
<path d="M1506.69 826.215L1486.67 915.538L1510.73 929.816L1506.69 826.215Z" fill="#070606"/>
<path d="M1523.06 876.816L1486.75 914.211L1502.42 965.115L1523.06 876.816Z" fill="#070606"/>
<path d="M1486.97 824.657L1474.65 923.461H1499.29L1486.97 824.657Z" fill="#070606"/>
<path d="M1456.41 847.312L1453.38 951.161L1477.29 935.201L1456.41 847.312Z" fill="#070606"/>
<path d="M1443.39 866.905L1453.15 967.734L1473.82 931.804L1443.39 866.905Z" fill="#070606"/>
<path d="M1467.04 826.306L1463.37 929.945L1487.39 915.168L1467.04 826.306Z" fill="#070606"/>
<path d="M1478.94 842.755L1458.92 932.078L1482.98 946.356L1478.94 842.755Z" fill="#070606"/>
<path d="M1744.77 862.289L1724.75 951.611L1748.81 965.89L1744.77 862.289Z" fill="#070606"/>
<path d="M1761.14 912.889L1724.82 950.284L1740.5 1001.19L1761.14 912.889Z" fill="#070606"/>
<path d="M1725.05 860.73L1712.73 959.534H1737.37L1725.05 860.73Z" fill="#070606"/>
<path d="M1694.49 883.385L1691.46 987.234L1715.37 971.274L1694.49 883.385Z" fill="#070606"/>
<path d="M1681.46 902.978L1691.23 1003.81L1711.9 967.878L1681.46 902.978Z" fill="#070606"/>
<path d="M1705.12 862.379L1701.45 966.018L1725.46 951.241L1705.12 862.379Z" fill="#070606"/>
<path d="M1717.02 878.829L1697 968.151L1721.06 982.43L1717.02 878.829Z" fill="#070606"/>
<path d="M1694.27 856.516L1674.25 945.839L1698.31 960.117L1694.27 856.516Z" fill="#070606"/>
<path d="M1710.64 907.116L1674.32 944.512L1690 995.415L1710.64 907.116Z" fill="#070606"/>
<path d="M1674.55 854.958L1662.23 953.762H1686.87L1674.55 854.958Z" fill="#070606"/>
<path d="M1643.99 877.613L1640.96 981.462L1664.87 965.502L1643.99 877.613Z" fill="#070606"/>
<path d="M1630.96 897.206L1640.73 998.035L1661.4 962.105L1630.96 897.206Z" fill="#070606"/>
<path d="M1654.62 856.607L1650.95 960.246L1674.96 945.469L1654.62 856.607Z" fill="#070606"/>
<path d="M1666.52 873.056L1646.5 962.379L1670.56 976.657L1666.52 873.056Z" fill="#070606"/>
<path d="M1444.65 872.387L1424.63 961.71L1448.69 975.988L1444.65 872.387Z" fill="#070606"/>
<path d="M1461.02 922.988L1424.7 960.383L1440.38 1011.29L1461.02 922.988Z" fill="#070606"/>
<path d="M1424.93 870.829L1412.61 969.633H1437.25L1424.93 870.829Z" fill="#070606"/>
<path d="M1394.36 893.484L1391.34 997.333L1415.25 981.373L1394.36 893.484Z" fill="#070606"/>
<path d="M1381.34 913.077L1391.11 1013.91L1411.77 977.976L1381.34 913.077Z" fill="#070606"/>
<path d="M1405 872.478L1401.33 976.117L1425.34 961.34L1405 872.478Z" fill="#070606"/>
<path d="M1416.89 888.927L1396.88 978.25L1420.93 992.528L1416.89 888.927Z" fill="#070606"/>
<path d="M1362.4 886.817L1342.39 976.14L1366.44 990.418L1362.4 886.817Z" fill="#070606"/>
<path d="M1378.77 937.417L1342.46 974.812L1358.13 1025.72L1378.77 937.417Z" fill="#070606"/>
<path d="M1342.69 885.259L1330.36 984.063H1355.01L1342.69 885.259Z" fill="#070606"/>
<path d="M1312.12 907.913L1309.1 1011.76L1333 995.803L1312.12 907.913Z" fill="#070606"/>
<path d="M1299.1 927.507L1308.87 1028.34L1329.53 992.406L1299.1 927.507Z" fill="#070606"/>
<path d="M1322.75 886.907L1319.08 990.547L1343.1 975.77L1322.75 886.907Z" fill="#070606"/>
<path d="M1334.65 903.357L1314.64 992.68L1338.69 1006.96L1334.65 903.357Z" fill="#070606"/>
<path d="M1189.25 872.388L1169.24 961.711L1193.3 975.989L1189.25 872.388Z" fill="#070606"/>
<path d="M1205.62 922.989L1169.31 960.384L1184.99 1011.29L1205.62 922.989Z" fill="#070606"/>
<path d="M1169.54 870.83L1157.22 969.634H1181.86L1169.54 870.83Z" fill="#070606"/>
<path d="M1138.97 893.485L1135.95 997.334L1159.86 981.374L1138.97 893.485Z" fill="#070606"/>
<path d="M1125.95 913.078L1135.72 1013.91L1156.38 977.977L1125.95 913.078Z" fill="#070606"/>
<path d="M1149.61 872.479L1145.94 976.118L1169.95 961.341L1149.61 872.479Z" fill="#070606"/>
<path d="M1161.5 888.928L1141.49 978.251L1165.54 992.529L1161.5 888.928Z" fill="#070606"/>
<path d="M1004.56 859.402L984.548 948.724L1008.6 963.003L1004.56 859.402Z" fill="#070606"/>
<path d="M1020.93 910.002L984.621 947.397L1000.29 998.301L1020.93 910.002Z" fill="#070606"/>
<path d="M984.846 857.844L972.526 956.648H997.166L984.846 857.844Z" fill="#070606"/>
<path d="M954.282 880.498L951.256 984.347L975.165 968.388L954.282 880.498Z" fill="#070606"/>
<path d="M941.26 900.092L951.027 1000.92L971.692 964.991L941.26 900.092Z" fill="#070606"/>
<path d="M964.915 859.492L961.245 963.132L985.259 948.355L964.915 859.492Z" fill="#070606"/>
<path d="M976.812 875.942L956.797 965.265L980.853 979.543L976.812 875.942Z" fill="#070606"/>
<path d="M894.905 823.33L874.89 912.652L898.946 926.931L894.905 823.33Z" fill="#070606"/>
<path d="M911.275 873.93L874.963 911.325L890.636 962.229L911.275 873.93Z" fill="#070606"/>
<path d="M875.188 821.771L862.868 920.575H887.508L875.188 821.771Z" fill="#070606"/>
<path d="M844.624 844.426L841.598 948.275L865.506 932.315L844.624 844.426Z" fill="#070606"/>
<path d="M831.602 864.019L841.369 964.848L862.034 928.919L831.602 864.019Z" fill="#070606"/>
<path d="M855.256 823.42L851.586 927.059L875.601 912.282L855.256 823.42Z" fill="#070606"/>
<path d="M867.154 839.87L847.139 929.192L871.195 943.471L867.154 839.87Z" fill="#070606"/>
<path d="M871.819 811.786L851.804 901.108L875.86 915.387L871.819 811.786Z" fill="#070606"/>
<path d="M888.189 862.386L851.877 899.781L867.55 950.685L888.189 862.386Z" fill="#070606"/>
<path d="M852.102 810.228L839.782 909.032H864.422L852.102 810.228Z" fill="#070606"/>
<path d="M821.538 832.882L818.512 936.731L842.42 920.772L821.538 832.882Z" fill="#070606"/>
<path d="M808.516 852.475L818.283 953.304L838.948 917.375L808.516 852.475Z" fill="#070606"/>
<path d="M832.17 811.876L828.5 915.515L852.515 900.739L832.17 811.876Z" fill="#070606"/>
<path d="M844.068 828.326L824.053 917.648L848.109 931.927L844.068 828.326Z" fill="#070606"/>
<path d="M1656.75 826.215L1636.73 915.538L1660.79 929.816L1656.75 826.215Z" fill="#070606"/>
<path d="M1673.12 876.816L1636.81 914.211L1652.48 965.115L1673.12 876.816Z" fill="#070606"/>
<path d="M1637.03 824.656L1624.71 923.46H1649.35L1637.03 824.656Z" fill="#070606"/>
<path d="M1606.47 847.312L1603.44 951.161L1627.35 935.201L1606.47 847.312Z" fill="#070606"/>
<path d="M1593.45 866.905L1603.21 967.734L1623.88 931.804L1593.45 866.905Z" fill="#070606"/>
<path d="M1617.1 826.306L1613.43 929.945L1637.45 915.168L1617.1 826.306Z" fill="#070606"/>
<path d="M1629 842.755L1608.98 932.078L1633.04 946.356L1629 842.755Z" fill="#070606"/>
<path d="M1580.28 844.974L1560.26 934.297L1584.32 948.575L1580.28 844.974Z" fill="#070606"/>
<path d="M1596.65 895.574L1560.33 932.97L1576.01 983.873L1596.65 895.574Z" fill="#070606"/>
<path d="M1560.56 843.416L1548.24 942.22H1572.88L1560.56 843.416Z" fill="#070606"/>
<path d="M1530 866.071L1526.97 969.92L1550.88 953.96L1530 866.071Z" fill="#070606"/>
<path d="M1516.97 885.664L1526.74 986.493L1547.41 950.563L1516.97 885.664Z" fill="#070606"/>
<path d="M1540.63 845.065L1536.96 948.704L1560.97 933.927L1540.63 845.065Z" fill="#070606"/>
<path d="M1552.53 861.514L1532.51 950.837L1556.57 965.115L1552.53 861.514Z" fill="#070606"/>
<path d="M1275.83 889.702L1255.81 979.024L1279.87 993.303L1275.83 889.702Z" fill="#070606"/>
<path d="M1292.2 940.302L1255.89 977.697L1271.56 1028.6L1292.2 940.302Z" fill="#070606"/>
<path d="M1256.11 888.144L1243.79 986.948H1268.43L1256.11 888.144Z" fill="#070606"/>
<path d="M1225.55 910.798L1222.52 1014.65L1246.43 998.688L1225.55 910.798Z" fill="#070606"/>
<path d="M1212.53 930.392L1222.29 1031.22L1242.96 995.291L1212.53 930.392Z" fill="#070606"/>
<path d="M1236.18 889.792L1232.51 993.431L1256.52 978.655L1236.18 889.792Z" fill="#070606"/>
<path d="M1248.08 906.242L1228.06 995.564L1252.12 1009.84L1248.08 906.242Z" fill="#070606"/>
<path d="M1151.74 870.946L1131.72 960.268L1155.78 974.547L1151.74 870.946Z" fill="#070606"/>
<path d="M1168.11 921.546L1131.8 958.941L1147.47 1009.85L1168.11 921.546Z" fill="#070606"/>
<path d="M1132.02 869.388L1119.7 968.192H1144.34L1132.02 869.388Z" fill="#070606"/>
<path d="M1101.46 892.042L1098.43 995.891L1122.34 979.932L1101.46 892.042Z" fill="#070606"/>
<path d="M1088.44 911.636L1098.2 1012.46L1118.87 976.535L1088.44 911.636Z" fill="#070606"/>
<path d="M1112.09 871.036L1108.42 974.676L1132.43 959.899L1112.09 871.036Z" fill="#070606"/>
<path d="M1123.99 887.486L1103.97 976.808L1128.03 991.087L1123.99 887.486Z" fill="#070606"/>
<path d="M1143.08 847.858L1123.07 937.181L1147.12 951.459L1143.08 847.858Z" fill="#070606"/>
<path d="M1159.45 898.458L1123.14 935.853L1138.81 986.757L1159.45 898.458Z" fill="#070606"/>
<path d="M1123.36 846.3L1111.04 945.104H1135.68L1123.36 846.3Z" fill="#070606"/>
<path d="M1092.8 868.954L1089.77 972.803L1113.68 956.844L1092.8 868.954Z" fill="#070606"/>
<path d="M1079.78 888.548L1089.54 989.377L1110.21 953.447L1079.78 888.548Z" fill="#070606"/>
<path d="M1103.43 847.948L1099.76 951.588L1123.78 936.811L1103.43 847.948Z" fill="#070606"/>
<path d="M1115.33 864.398L1095.31 953.721L1119.37 967.999L1115.33 864.398Z" fill="#070606"/>
<path d="M635.184 784.372L615.169 873.694L639.225 887.973L635.184 784.372Z" fill="#070606"/>
<path d="M651.555 834.972L615.242 872.367L630.915 923.271L651.555 834.972Z" fill="#070606"/>
<path d="M615.467 782.813L603.147 881.617H627.787L615.467 782.813Z" fill="#070606"/>
<path d="M584.904 805.468L581.877 909.317L605.786 893.357L584.904 805.468Z" fill="#070606"/>
<path d="M571.882 825.061L581.648 925.89L602.313 889.961L571.882 825.061Z" fill="#070606"/>
<path d="M595.536 784.462L591.866 888.101L615.88 873.324L595.536 784.462Z" fill="#070606"/>
<path d="M607.433 800.912L587.418 890.234L611.474 904.513L607.433 800.912Z" fill="#070606"/>
<path d="M697.228 826.215L677.213 915.538L701.269 929.816L697.228 826.215Z" fill="#070606"/>
<path d="M713.599 876.816L677.286 914.211L692.959 965.115L713.599 876.816Z" fill="#070606"/>
<path d="M677.511 824.656L665.191 923.46H689.831L677.511 824.656Z" fill="#070606"/>
<path d="M646.948 847.312L643.921 951.161L667.83 935.201L646.948 847.312Z" fill="#070606"/>
<path d="M633.925 866.905L643.692 967.734L664.357 931.804L633.925 866.905Z" fill="#070606"/>
<path d="M657.58 826.306L653.91 929.945L677.924 915.168L657.58 826.306Z" fill="#070606"/>
<path d="M669.477 842.755L649.462 932.078L673.518 946.356L669.477 842.755Z" fill="#070606"/>
<path d="M394.223 785.814L374.207 875.137L398.263 889.415L394.223 785.814Z" fill="#070606"/>
<path d="M410.593 836.414L374.28 873.809L389.953 924.713L410.593 836.414Z" fill="#070606"/>
<path d="M374.504 784.256L362.184 883.06H386.825L374.504 784.256Z" fill="#070606"/>
<path d="M343.942 806.911L340.915 910.759L364.824 894.8L343.942 806.911Z" fill="#070606"/>
<path d="M330.92 826.504L340.686 927.333L361.352 891.403L330.92 826.504Z" fill="#070606"/>
<path d="M354.574 785.905L350.904 889.544L374.918 874.767L354.574 785.905Z" fill="#070606"/>
<path d="M366.472 802.354L346.456 891.677L370.512 905.955L366.472 802.354Z" fill="#070606"/>
<path d="M394.223 769.943L374.207 859.266L398.263 873.544L394.223 769.943Z" fill="#070606"/>
<path d="M410.593 820.543L374.28 857.938L389.953 908.842L410.593 820.543Z" fill="#070606"/>
<path d="M374.504 768.384L362.184 867.188H386.825L374.504 768.384Z" fill="#070606"/>
<path d="M343.942 791.039L340.915 894.888L364.824 878.929L343.942 791.039Z" fill="#070606"/>
<path d="M330.92 810.633L340.686 911.462L361.352 875.532L330.92 810.633Z" fill="#070606"/>
<path d="M354.574 770.033L350.904 873.673L374.918 858.896L354.574 770.033Z" fill="#070606"/>
<path d="M366.472 786.483L346.456 875.806L370.512 890.084L366.472 786.483Z" fill="#070606"/>
<path d="M298.991 743.97L278.976 833.293L303.032 847.571L298.991 743.97Z" fill="#070606"/>
<path d="M315.361 794.571L279.049 831.966L294.722 882.87L315.361 794.571Z" fill="#070606"/>
<path d="M279.274 742.411L266.954 841.215H291.594L279.274 742.411Z" fill="#070606"/>
<path d="M248.71 765.067L245.684 868.916L269.592 852.956L248.71 765.067Z" fill="#070606"/>
<path d="M235.688 784.66L245.455 885.489L266.12 849.559L235.688 784.66Z" fill="#070606"/>
<path d="M259.342 744.061L255.672 847.7L279.687 832.923L259.342 744.061Z" fill="#070606"/>
<path d="M271.24 760.51L251.225 849.833L275.281 864.111L271.24 760.51Z" fill="#070606"/>
<path d="M186.444 748.299L166.429 837.622L190.485 851.9L186.444 748.299Z" fill="#070606"/>
<path d="M202.814 798.9L166.502 836.295L182.175 887.199L202.814 798.9Z" fill="#070606"/>
<path d="M166.726 746.741L154.406 845.545H179.046L166.726 746.741Z" fill="#070606"/>
<path d="M136.163 769.396L133.137 873.245L157.045 857.285L136.163 769.396Z" fill="#070606"/>
<path d="M123.141 788.989L132.908 889.818L153.573 853.888L123.141 788.989Z" fill="#070606"/>
<path d="M146.795 748.39L143.125 852.029L167.14 837.252L146.795 748.39Z" fill="#070606"/>
<path d="M158.693 764.839L138.678 854.162L162.734 868.44L158.693 764.839Z" fill="#070606"/>
<path d="M101.314 775.714L81.2987 865.037L105.355 879.315L101.314 775.714Z" fill="#070606"/>
<path d="M117.685 826.315L81.3719 863.71L97.045 914.614L117.685 826.315Z" fill="#070606"/>
<path d="M81.5962 774.156L69.2761 872.96H93.9163L81.5962 774.156Z" fill="#070606"/>
<path d="M51.0335 796.811L48.0072 900.66L71.9155 884.7L51.0335 796.811Z" fill="#070606"/>
<path d="M38.0124 816.404L47.7793 917.233L68.4443 881.303L38.0124 816.404Z" fill="#070606"/>
<path d="M61.6665 775.805L57.9965 879.444L82.0109 864.667L61.6665 775.805Z" fill="#070606"/>
<path d="M73.5643 792.254L53.5487 881.577L77.6049 895.856L73.5643 792.254Z" fill="#070606"/>
<path d="M580.354 797.358L560.339 886.681L584.395 900.959L580.354 797.358Z" fill="#070606"/>
<path d="M596.725 847.958L560.412 885.353L576.085 936.257L596.725 847.958Z" fill="#070606"/>
<path d="M560.637 795.8L548.317 894.604H572.957L560.637 795.8Z" fill="#070606"/>
<path d="M530.073 818.454L527.047 922.303L550.956 906.344L530.073 818.454Z" fill="#070606"/>
<path d="M517.051 838.048L526.818 938.877L547.483 902.947L517.051 838.048Z" fill="#070606"/>
<path d="M540.706 797.448L537.036 901.088L561.05 886.311L540.706 797.448Z" fill="#070606"/>
<path d="M552.603 813.898L532.588 903.221L556.644 917.499L552.603 813.898Z" fill="#070606"/>
<path d="M762.159 803.127L742.143 892.45L766.2 906.729L762.159 803.127Z" fill="#070606"/>
<path d="M778.529 853.728L742.217 891.123L757.89 942.027L778.529 853.728Z" fill="#070606"/>
<path d="M742.442 801.569L730.122 900.373H754.762L742.442 801.569Z" fill="#070606"/>
<path d="M711.878 824.224L708.852 928.073L732.76 912.113L711.878 824.224Z" fill="#070606"/>
<path d="M698.856 843.818L708.623 944.647L729.288 908.717L698.856 843.818Z" fill="#070606"/>
<path d="M722.51 803.218L718.84 906.857L742.855 892.08L722.51 803.218Z" fill="#070606"/>
<path d="M734.408 819.667L714.392 908.99L738.449 923.269L734.408 819.667Z" fill="#070606"/>
<path d="M724.643 794.47L704.628 883.793L728.684 898.071L724.643 794.47Z" fill="#070606"/>
<path d="M741.014 845.071L704.701 882.466L720.374 933.37L741.014 845.071Z" fill="#070606"/>
<path d="M704.926 792.912L692.606 891.716H717.246L704.926 792.912Z" fill="#070606"/>
<path d="M674.363 815.567L671.336 919.416L695.245 903.456L674.363 815.567Z" fill="#070606"/>
<path d="M661.341 835.16L671.107 935.989L691.772 900.059L661.341 835.16Z" fill="#070606"/>
<path d="M684.995 794.561L681.325 898.2L705.339 883.423L684.995 794.561Z" fill="#070606"/>
<path d="M696.892 811.01L676.877 900.333L700.933 914.611L696.892 811.01Z" fill="#070606"/>
<path d="M815.546 817.558L795.53 906.881L819.586 921.159L815.546 817.558Z" fill="#070606"/>
<path d="M831.916 868.158L795.603 905.554L811.276 956.457L831.916 868.158Z" fill="#070606"/>
<path d="M795.829 816L783.509 914.804H808.149L795.829 816Z" fill="#070606"/>
<path d="M765.265 838.655L762.239 942.504L786.147 926.544L765.265 838.655Z" fill="#070606"/>
<path d="M752.243 858.248L762.01 959.077L782.675 923.147L752.243 858.248Z" fill="#070606"/>
<path d="M775.897 817.649L772.227 921.288L796.241 906.511L775.897 817.649Z" fill="#070606"/>
<path d="M787.795 834.098L767.779 923.421L791.835 937.699L787.795 834.098Z" fill="#070606"/>
</g>
<defs>
<linearGradient id="paint0_linear" x1="1104.29" y1="-49.1611" x2="1099.81" y2="566.917" gradientUnits="userSpaceOnUse">
<stop stop-color="#557C99"/>
<stop offset="0.197099" stop-color="#86B2D3"/>
<stop offset="0.50737" stop-color="#CBD7D8"/>
<stop offset="1" stop-color="#BECED6"/>
</linearGradient>
<linearGradient id="paint1_linear" x1="615.875" y1="98.1163" x2="615.153" y2="624.05" gradientUnits="userSpaceOnUse">
<stop stop-color="#718DD3"/>
<stop offset="0.443093" stop-color="#BED1DA" stop-opacity="0"/>
<stop offset="1" stop-color="#C2D0D9"/>
</linearGradient>
<linearGradient id="paint2_linear" x1="1246.19" y1="283.4" x2="1250.06" y2="809.32" gradientUnits="userSpaceOnUse">
<stop stop-color="#718DD3"/>
<stop offset="0.265461" stop-color="#BED1DA" stop-opacity="0"/>
<stop offset="1" stop-color="#C2D0D9"/>
</linearGradient>
<linearGradient id="paint3_linear" x1="800.565" y1="153.668" x2="901.672" y2="765.606" gradientUnits="userSpaceOnUse">
<stop offset="0.264036" stop-color="#5080A2"/>
<stop offset="0.460477" stop-color="#80A4B9"/>
<stop offset="0.95725" stop-color="#C6CFCA"/>
</linearGradient>
<linearGradient id="paint4_linear" x1="776.036" y1="541.805" x2="966.575" y2="1606.33" gradientUnits="userSpaceOnUse">
<stop stop-color="#3C5168"/>
<stop offset="0.180685" stop-color="#6C7266"/>
<stop offset="0.51559" stop-color="#8E846A" stop-opacity="0.58"/>
</linearGradient>
<linearGradient id="paint5_linear" x1="1636" y1="859.963" x2="678.64" y2="1012.91" gradientUnits="userSpaceOnUse">
<stop offset="0.228791" stop-color="#3B2F19"/>
<stop offset="1" stop-color="#887449"/>
</linearGradient>
<linearGradient id="paint6_linear" x1="189.567" y1="791.343" x2="170.733" y2="1870.39" gradientUnits="userSpaceOnUse">
<stop stop-color="#060606"/>
<stop offset="1" stop-color="#0B0804"/>
</linearGradient>
<clipPath id="clip0">
<rect width="1737" height="977" fill="white" transform="matrix(-1 0 0 1 1737 0)"/>
</clipPath>
</defs>
</svg>
