<svg width="325" height="565" viewBox="0 0 325 565" fill="none" xmlns="http://www.w3.org/2000/svg">
<g clip-path="url(#clip0)">
<rect width="325" height="565" fill="white"/>
<g clip-path="url(#clip1)">
<rect width="498.49" height="670.411" transform="matrix(-1 0 0 1 498.49 0)" fill="url(#paint0_linear)"/>
<path d="M403.201 94.5145L275.869 99.812L249.218 91.9919L220.745 83.4151H205.483L195.005 76.604L185.438 79.3789L173.593 70.802L162.432 66.2614L146.031 70.802L137.831 66.2614L117.33 70.802L86.1237 66.2614L48.5391 60.9639L33.9608 53.9006L21.8881 56.4232L9.58773 50.1167L1.61523 53.9006L-8.17954 50.1167L-22.3022 60.9639L-29.5914 58.6935L-42.3474 63.4865L-67.4038 75.595L-78.3375 73.3246L-92.2324 78.8744H-99.9771L-116.15 83.4151L-153.051 78.8744L-162.163 211.816H384.523L403.201 94.5145Z" fill="url(#paint1_linear)"/>
<path d="M602.729 136.158L475.443 142.686L448.732 135.124L420.192 126.822L404.931 126.97L394.4 120.26L384.855 123.128L372.943 114.665L361.746 110.233L345.382 114.932L337.146 110.471L316.682 115.209L285.441 110.97L247.816 106.036L233.182 99.1141L221.13 101.753L208.78 95.5659L200.838 99.4267L191.014 95.7376L176.977 106.721L169.67 104.521L156.953 109.437L131.993 121.787L121.041 119.623L107.191 125.306L99.4464 125.381L83.31 130.078L37.5138 157.766L38.3109 258.918L584.975 253.635L602.729 136.158Z" fill="url(#paint2_linear)"/>
<path d="M409.634 114.981L397.57 121.686L393.133 111.696L388.23 113.786L376.506 128.909L371.724 125.128L369.272 127.469L366.463 124.08L361.545 125.931L355.612 121.92L326.414 101.48L295.371 129.718L293.613 135.391L292.218 144.291L257.039 158.225L253.606 155.247L243.61 158.993L237.688 162.977L217.959 159.049L209.202 167.058L201.253 169.777L189.078 180.26L182.061 182.305L171.595 178.5L155.369 181.293L124.051 160.718L104.297 166.824L90.3222 164.042L62.4145 177.416L44.6389 176.172L31.9181 183.104L24.0429 184.404L4.95887 198.674L-16.6814 211.001L-31.1727 215.574L-42.8455 213.25L-15.2986 371.604L434.544 240.927L409.634 114.981Z" fill="url(#paint3_linear)"/>
<path d="M38.7346 308.834C34.3528 308.313 29.8645 309.376 26.0358 311.841L-77.6694 378.598C-78.7733 379.309 -79.9391 379.907 -81.1494 380.385L-125.22 397.772C-127.039 398.49 -128.754 399.48 -130.308 400.708L-697.053 848.862C-713.948 862.222 -701.701 888.922 -681.351 883.093L925.761 422.808C945.155 417.254 945.528 389.127 926.266 384.748L342.367 252.017C339.244 251.307 335.963 251.426 332.827 252.363L254.397 275.801C252.156 276.47 250.035 277.544 248.136 278.97L189.709 322.836C186.758 325.052 183.293 326.401 179.711 326.73L134.16 330.908C131.485 331.153 128.813 330.823 126.318 329.939L82.7976 314.517C81.5261 314.067 80.2052 313.759 78.8576 313.599L38.7346 308.834Z" fill="url(#paint4_linear)"/>
<path d="M557.307 266.429C552.016 264.841 546.388 264.762 541.055 266.2L448.949 291.038L204.107 393.257C201.667 394.276 199.101 394.964 196.479 395.302L63.2588 412.514L-945.365 687.715C-978.755 696.826 -972.167 746.005 -937.555 746.005L2099.96 746.005C2132.76 746.005 2141.31 700.639 2110.76 688.703L1132.18 306.369C1127.49 304.54 1122.42 303.93 1117.44 304.598L824.501 343.862C820.322 344.422 816.071 344.085 812.032 342.873L557.307 266.429Z" fill="url(#paint5_linear)"/>
<path d="M-26.3804 414.116C-31.5794 413.373 -36.8702 413.583 -41.9941 414.735L-1955.53 844.809C-2005.5 856.041 -1998.01 929.439 -1946.79 930.333L1956.08 998.457C2005.11 999.313 2017.55 930.846 1971.36 914.391L737.57 474.865C731.398 472.666 724.807 471.897 718.294 472.616L534.727 492.872C531.111 493.271 527.46 493.212 523.858 492.698L-26.3804 414.116Z" fill="url(#paint6_linear)"/>
<path d="M47.353 376.307L37.1406 421.881L49.4146 429.167L47.353 376.307Z" fill="#070606"/>
<path d="M55.7053 402.124L37.1777 421.204L45.1745 447.177L55.7053 402.124Z" fill="#070606"/>
<path d="M37.2923 375.511L31.0063 425.924H43.5783L37.2923 375.511Z" fill="#070606"/>
<path d="M21.6974 387.071L20.1533 440.057L32.3519 431.914L21.6974 387.071Z" fill="#070606"/>
<path d="M15.0531 397.067L20.0364 448.513L30.5803 430.18L15.0531 397.067Z" fill="#070606"/>
<path d="M27.1231 376.353L25.2506 429.232L37.5034 421.693L27.1231 376.353Z" fill="#070606"/>
<path d="M33.1929 384.746L22.9804 430.321L35.2545 437.606L33.1929 384.746Z" fill="#070606"/>
<path d="M92.9976 415.325L82.7851 460.9L95.0592 468.185L92.9976 415.325Z" fill="#070606"/>
<path d="M101.35 441.143L82.8222 460.223L90.819 486.195L101.35 441.143Z" fill="#070606"/>
<path d="M82.9368 414.53L76.6508 464.942H89.2229L82.9368 414.53Z" fill="#070606"/>
<path d="M67.3419 426.089L65.7978 479.075L77.9964 470.932L67.3419 426.089Z" fill="#070606"/>
<path d="M60.6977 436.086L65.681 487.531L76.2248 469.199L60.6977 436.086Z" fill="#070606"/>
<path d="M72.7677 415.371L70.8951 468.251L83.1479 460.711L72.7677 415.371Z" fill="#070606"/>
<path d="M78.8374 423.765L68.6249 469.339L80.899 476.625L78.8374 423.765Z" fill="#070606"/>
<path d="M17.1694 410.907L6.95698 456.482L19.231 463.767L17.1694 410.907Z" fill="#070606"/>
<path d="M25.5217 436.725L6.9941 455.805L14.9909 481.777L25.5217 436.725Z" fill="#070606"/>
<path d="M7.1087 410.112L0.822668 460.524H13.3947L7.1087 410.112Z" fill="#070606"/>
<path d="M-8.48624 421.671L-10.0303 474.657L2.16831 466.514L-8.48624 421.671Z" fill="#070606"/>
<path d="M-15.1304 431.668L-10.1471 483.113L0.396673 464.781L-15.1304 431.668Z" fill="#070606"/>
<path d="M-3.06047 410.953L-4.93301 463.833L7.31976 456.293L-3.06047 410.953Z" fill="#070606"/>
<path d="M3.00927 419.347L-7.20318 464.921L5.07088 472.207L3.00927 419.347Z" fill="#070606"/>
<path d="M-3.44385 391.766L-13.6563 437.341L-1.38224 444.626L-3.44385 391.766Z" fill="#070606"/>
<path d="M4.90843 417.584L-13.6192 436.664L-5.62237 462.636L4.90843 417.584Z" fill="#070606"/>
<path d="M115.818 401.337L105.605 446.912L117.879 454.197L115.818 401.337Z" fill="#070606"/>
<path d="M124.17 427.155L105.643 446.235L113.639 472.208L124.17 427.155Z" fill="#070606"/>
<path d="M105.757 400.542L99.4711 450.955H112.043L105.757 400.542Z" fill="#070606"/>
<path d="M90.1622 412.101L88.6181 465.088L100.817 456.945L90.1622 412.101Z" fill="#070606"/>
<path d="M83.518 422.098L88.5013 473.544L99.0451 455.211L83.518 422.098Z" fill="#070606"/>
<path d="M95.588 401.384L93.7154 454.263L105.968 446.724L95.588 401.384Z" fill="#070606"/>
<path d="M101.658 409.777L91.4453 455.352L103.719 462.637L101.658 409.777Z" fill="#070606"/>
<path d="M141.585 405.754L131.373 451.328L143.647 458.614L141.585 405.754Z" fill="#070606"/>
<path d="M149.938 431.571L131.41 450.651L139.407 476.624L149.938 431.571Z" fill="#070606"/>
<path d="M131.525 404.958L125.239 455.371H137.811L131.525 404.958Z" fill="#070606"/>
<path d="M115.93 416.518L114.386 469.504L126.584 461.361L115.93 416.518Z" fill="#070606"/>
<path d="M109.286 426.514L114.269 477.96L124.813 459.628L109.286 426.514Z" fill="#070606"/>
<path d="M121.356 405.8L119.483 458.679L131.736 451.14L121.356 405.8Z" fill="#070606"/>
<path d="M127.425 414.193L117.213 459.768L129.487 467.053L127.425 414.193Z" fill="#070606"/>
<path d="M204.902 426.368L194.689 471.943L206.963 479.228L204.902 426.368Z" fill="#070606"/>
<path d="M213.254 452.186L194.727 471.266L202.723 497.238L213.254 452.186Z" fill="#070606"/>
<path d="M194.841 425.573L188.555 475.985H201.127L194.841 425.573Z" fill="#070606"/>
<path d="M179.246 437.132L177.702 490.119L189.901 481.976L179.246 437.132Z" fill="#070606"/>
<path d="M172.602 447.129L177.585 498.574L188.129 480.242L172.602 447.129Z" fill="#070606"/>
<path d="M184.672 426.415L182.799 479.294L195.052 471.754L184.672 426.415Z" fill="#070606"/>
<path d="M190.742 434.808L180.529 480.382L192.803 487.668L190.742 434.808Z" fill="#070606"/>
<path d="M90.0522 382.196L79.8398 427.77L92.1138 435.056L90.0522 382.196Z" fill="#070606"/>
<path d="M98.4045 408.014L79.8769 427.093L87.8737 453.066L98.4045 408.014Z" fill="#070606"/>
<path d="M79.9915 381.401L73.7055 431.813H86.2775L79.9915 381.401Z" fill="#070606"/>
<path d="M64.3966 392.96L62.8525 445.946L75.0511 437.803L64.3966 392.96Z" fill="#070606"/>
<path d="M57.7524 402.956L62.7357 454.402L73.2795 436.07L57.7524 402.956Z" fill="#070606"/>
<path d="M69.8223 382.242L67.9498 435.122L80.2026 427.582L69.8223 382.242Z" fill="#070606"/>
<path d="M75.8921 390.635L65.6796 436.21L77.9537 443.495L75.8921 390.635Z" fill="#070606"/>
<path d="M250.544 430.785L240.332 476.36L252.606 483.645L250.544 430.785Z" fill="#070606"/>
<path d="M258.897 456.603L240.369 475.683L248.366 501.656L258.897 456.603Z" fill="#070606"/>
<path d="M240.484 429.99L234.198 480.403H246.77L240.484 429.99Z" fill="#070606"/>
<path d="M224.889 441.549L223.345 494.536L235.543 486.393L224.889 441.549Z" fill="#070606"/>
<path d="M218.245 451.546L223.228 502.992L233.772 484.659L218.245 451.546Z" fill="#070606"/>
<path d="M230.315 430.832L228.442 483.711L240.695 476.172L230.315 430.832Z" fill="#070606"/>
<path d="M236.384 439.225L226.172 484.8L238.446 492.085L236.384 439.225Z" fill="#070606"/>
<path d="M282.201 426.368L271.988 471.943L284.262 479.228L282.201 426.368Z" fill="#070606"/>
<path d="M290.553 452.186L272.025 471.266L280.022 497.238L290.553 452.186Z" fill="#070606"/>
<path d="M272.14 425.573L265.854 475.985H278.426L272.14 425.573Z" fill="#070606"/>
<path d="M256.545 437.132L255.001 490.119L267.2 481.976L256.545 437.132Z" fill="#070606"/>
<path d="M249.901 447.129L254.884 498.574L265.428 480.242L249.901 447.129Z" fill="#070606"/>
<path d="M261.971 426.415L260.098 479.294L272.351 471.754L261.971 426.415Z" fill="#070606"/>
<path d="M268.041 434.808L257.828 480.382L270.102 487.668L268.041 434.808Z" fill="#070606"/>
<path d="M319.748 438.147L309.535 483.721L321.809 491.007L319.748 438.147Z" fill="#070606"/>
<path d="M328.1 463.964L309.572 483.044L317.569 509.017L328.1 463.964Z" fill="#070606"/>
<path d="M309.687 437.352L303.401 487.764H315.973L309.687 437.352Z" fill="#070606"/>
<path d="M294.092 448.911L292.548 501.897L304.746 493.754L294.092 448.911Z" fill="#070606"/>
<path d="M287.448 458.907L292.431 510.353L302.975 492.021L287.448 458.907Z" fill="#070606"/>
<path d="M299.518 438.193L297.645 491.072L309.898 483.533L299.518 438.193Z" fill="#070606"/>
<path d="M305.587 446.586L295.375 492.161L307.649 499.446L305.587 446.586Z" fill="#070606"/>
<path d="M324.993 442.712L329.976 494.157L340.52 475.825L324.993 442.712Z" fill="#070606"/>
<path d="M325.636 429.313L315.424 474.888L327.698 482.173L325.636 429.313Z" fill="#070606"/>
<path d="M333.989 455.131L315.461 474.211L323.458 500.183L333.989 455.131Z" fill="#070606"/>
<path d="M315.575 428.518L309.289 478.931H321.862L315.575 428.518Z" fill="#070606"/>
<path d="M299.981 440.077L298.436 493.064L310.635 484.921L299.981 440.077Z" fill="#070606"/>
<path d="M293.336 450.074L298.32 501.519L308.863 483.187L293.336 450.074Z" fill="#070606"/>
<path d="M305.406 429.36L303.534 482.239L315.787 474.699L305.406 429.36Z" fill="#070606"/>
<path d="M311.476 437.753L301.264 483.328L313.538 490.613L311.476 437.753Z" fill="#070606"/>
<path d="M313.857 423.423L303.644 468.998L315.919 476.283L313.857 423.423Z" fill="#070606"/>
<path d="M322.209 449.241L303.682 468.321L311.678 494.293L322.209 449.241Z" fill="#070606"/>
<path d="M303.796 422.628L297.51 473.04H310.082L303.796 422.628Z" fill="#070606"/>
<path d="M288.201 434.187L286.657 487.174L298.856 479.031L288.201 434.187Z" fill="#070606"/>
<path d="M281.557 444.184L286.54 495.629L297.084 477.297L281.557 444.184Z" fill="#070606"/>
<path d="M293.627 423.469L291.754 476.349L304.007 468.809L293.627 423.469Z" fill="#070606"/>
<path d="M299.697 431.863L289.484 477.437L301.758 484.723L299.697 431.863Z" fill="#070606"/>
<path d="M193.121 409.436L182.908 455.01L195.182 462.296L193.121 409.436Z" fill="#070606"/>
<path d="M201.473 435.254L182.945 454.333L190.942 480.306L201.473 435.254Z" fill="#070606"/>
<path d="M183.06 408.641L176.774 459.053H189.346L183.06 408.641Z" fill="#070606"/>
<path d="M167.465 420.2L165.921 473.186L178.119 465.043L167.465 420.2Z" fill="#070606"/>
<path d="M160.821 430.196L165.804 481.642L176.348 463.31L160.821 430.196Z" fill="#070606"/>
<path d="M172.891 409.482L171.018 462.362L183.271 454.822L172.891 409.482Z" fill="#070606"/>
<path d="M178.96 417.875L168.748 463.45L181.022 470.735L178.96 417.875Z" fill="#070606"/>
<path d="M224.777 430.785L214.564 476.36L226.838 483.645L224.777 430.785Z" fill="#070606"/>
<path d="M233.129 456.603L214.602 475.683L222.598 501.655L233.129 456.603Z" fill="#070606"/>
<path d="M214.716 429.99L208.43 480.402H221.002L214.716 429.99Z" fill="#070606"/>
<path d="M199.121 441.549L197.577 494.536L209.776 486.393L199.121 441.549Z" fill="#070606"/>
<path d="M192.477 451.546L197.46 502.991L208.004 484.659L192.477 451.546Z" fill="#070606"/>
<path d="M204.547 430.831L202.674 483.711L214.927 476.171L204.547 430.831Z" fill="#070606"/>
<path d="M210.617 439.225L200.404 484.799L212.678 492.085L210.617 439.225Z" fill="#070606"/>
<path d="M70.1753 410.172L59.9628 455.746L72.2369 463.032L70.1753 410.172Z" fill="#070606"/>
<path d="M78.5276 435.989L60 455.069L67.9968 481.042L78.5276 435.989Z" fill="#070606"/>
<path d="M60.1146 409.376L53.8285 459.789H66.4006L60.1146 409.376Z" fill="#070606"/>
<path d="M44.5196 420.936L42.9755 473.922L55.1742 465.779L44.5196 420.936Z" fill="#070606"/>
<path d="M37.8754 430.932L42.8587 482.378L53.4025 464.045L37.8754 430.932Z" fill="#070606"/>
<path d="M49.9454 410.218L48.0728 463.097L60.3256 455.558L49.9454 410.218Z" fill="#070606"/>
<path d="M56.0151 418.611L45.8027 464.186L58.0767 471.471L56.0151 418.611Z" fill="#070606"/>
<path d="M70.1753 402.073L59.9628 447.648L72.2369 454.933L70.1753 402.073Z" fill="#070606"/>
<path d="M78.5276 427.891L60 446.971L67.9968 472.944L78.5276 427.891Z" fill="#070606"/>
<path d="M60.1146 401.279L53.8285 451.691H66.4006L60.1146 401.279Z" fill="#070606"/>
<path d="M44.5196 412.838L42.9755 465.824L55.1742 457.681L44.5196 412.838Z" fill="#070606"/>
<path d="M37.8754 422.834L42.8587 474.28L53.4025 455.947L37.8754 422.834Z" fill="#070606"/>
<path d="M49.9454 402.12L48.0728 454.999L60.3256 447.46L49.9454 402.12Z" fill="#070606"/>
<path d="M56.0151 410.513L45.8027 456.088L58.0767 463.373L56.0151 410.513Z" fill="#070606"/>
<path d="M21.5854 388.822L11.373 434.397L23.6471 441.682L21.5854 388.822Z" fill="#070606"/>
<path d="M29.9377 414.64L11.4101 433.72L19.4069 459.692L29.9377 414.64Z" fill="#070606"/>
<path d="M11.5247 388.027L5.23868 438.439H17.8108L11.5247 388.027Z" fill="#070606"/>
<path d="M-4.07022 399.586L-5.6143 452.572L6.58433 444.429L-4.07022 399.586Z" fill="#070606"/>
<path d="M-10.7144 409.583L-5.73113 461.028L4.81269 442.696L-10.7144 409.583Z" fill="#070606"/>
<path d="M1.35555 388.868L-0.516994 441.748L11.7358 434.208L1.35555 388.868Z" fill="#070606"/>
<path d="M7.42529 397.262L-2.78716 442.836L9.4869 450.122L7.42529 397.262Z" fill="#070606"/>
<path d="M165.144 416.061L154.932 461.635L167.206 468.921L165.144 416.061Z" fill="#070606"/>
<path d="M173.496 441.879L154.969 460.958L162.966 486.931L173.496 441.879Z" fill="#070606"/>
<path d="M155.083 415.266L148.797 465.678H161.369L155.083 415.266Z" fill="#070606"/>
<path d="M139.488 426.825L137.944 479.811L150.143 471.668L139.488 426.825Z" fill="#070606"/>
<path d="M132.844 436.821L137.827 488.267L148.371 469.935L132.844 436.821Z" fill="#070606"/>
<path d="M144.914 416.107L143.042 468.987L155.294 461.447L144.914 416.107Z" fill="#070606"/>
<path d="M150.984 424.5L140.771 470.075L153.045 477.36L150.984 424.5Z" fill="#070606"/>
<path d="M257.906 419.005L247.693 464.58L259.967 471.865L257.906 419.005Z" fill="#070606"/>
<path d="M266.258 444.823L247.73 463.903L255.727 489.875L266.258 444.823Z" fill="#070606"/>
<path d="M247.845 418.21L241.559 468.622H254.131L247.845 418.21Z" fill="#070606"/>
<path d="M232.25 429.769L230.706 482.756L242.905 474.613L232.25 429.769Z" fill="#070606"/>
<path d="M225.606 439.767L230.589 491.212L241.133 472.88L225.606 439.767Z" fill="#070606"/>
<path d="M237.676 419.051L235.803 471.931L248.056 464.391L237.676 419.051Z" fill="#070606"/>
<path d="M243.746 427.445L233.533 473.019L245.807 480.305L243.746 427.445Z" fill="#070606"/>
<path d="M238.765 414.587L228.553 460.162L240.827 467.447L238.765 414.587Z" fill="#070606"/>
<path d="M247.117 440.405L228.59 459.485L236.587 485.457L247.117 440.405Z" fill="#070606"/>
<path d="M228.704 413.792L222.418 464.204H234.99L228.704 413.792Z" fill="#070606"/>
<path d="M213.109 425.351L211.565 478.338L223.764 470.195L213.109 425.351Z" fill="#070606"/>
<path d="M206.465 435.348L211.449 486.793L221.992 468.461L206.465 435.348Z" fill="#070606"/>
<path d="M218.535 414.633L216.663 467.513L228.915 459.973L218.535 414.633Z" fill="#070606"/>
<path d="M224.605 423.027L214.393 468.601L226.667 475.887L224.605 423.027Z" fill="#070606"/>
<path d="M285.146 426.368L274.934 471.943L287.208 479.228L285.146 426.368Z" fill="#070606"/>
<path d="M293.498 452.186L274.971 471.266L282.967 497.238L293.498 452.186Z" fill="#070606"/>
<path d="M275.085 425.573L268.799 475.985H281.371L275.085 425.573Z" fill="#070606"/>
<path d="M259.49 437.132L257.946 490.119L270.145 481.976L259.49 437.132Z" fill="#070606"/>
<path d="M252.846 447.129L257.829 498.574L268.373 480.242L252.846 447.129Z" fill="#070606"/>
<path d="M264.916 426.415L263.044 479.294L275.296 471.754L264.916 426.415Z" fill="#070606"/>
<path d="M270.986 434.808L260.773 480.382L273.047 487.668L270.986 434.808Z" fill="#070606"/>
</g>
</g>
<defs>
<linearGradient id="paint0_linear" x1="316.914" y1="-33.734" x2="309.565" y2="388.909" gradientUnits="userSpaceOnUse">
<stop stop-color="#557C99"/>
<stop offset="0.197099" stop-color="#86B2D3"/>
<stop offset="0.50737" stop-color="#CBD7D8"/>
<stop offset="1" stop-color="#BECED6"/>
</linearGradient>
<linearGradient id="paint1_linear" x1="120.747" y1="27.9178" x2="120.468" y2="211.815" gradientUnits="userSpaceOnUse">
<stop stop-color="#718DD3"/>
<stop offset="0.443093" stop-color="#BED1DA" stop-opacity="0"/>
<stop offset="1" stop-color="#C2D0D9"/>
</linearGradient>
<linearGradient id="paint2_linear" x1="319.761" y1="72.2936" x2="321.259" y2="256.184" gradientUnits="userSpaceOnUse">
<stop stop-color="#718DD3"/>
<stop offset="0.265461" stop-color="#BED1DA" stop-opacity="0"/>
<stop offset="1" stop-color="#C2D0D9"/>
</linearGradient>
<linearGradient id="paint3_linear" x1="173.058" y1="64.4341" x2="196.898" y2="316.719" gradientUnits="userSpaceOnUse">
<stop offset="0.264036" stop-color="#5080A2"/>
<stop offset="0.460477" stop-color="#80A4B9"/>
<stop offset="0.95725" stop-color="#C6CFCA"/>
</linearGradient>
<linearGradient id="paint4_linear" x1="48.4242" y1="303.616" x2="104.672" y2="656.899" gradientUnits="userSpaceOnUse">
<stop stop-color="#3C5168"/>
<stop offset="0.180685" stop-color="#6C7266"/>
<stop offset="0.51559" stop-color="#8E846A" stop-opacity="0.58"/>
</linearGradient>
<linearGradient id="paint5_linear" x1="479.493" y1="364.181" x2="108.643" y2="415.238" gradientUnits="userSpaceOnUse">
<stop offset="0.228791" stop-color="#3B2F19"/>
<stop offset="1" stop-color="#887449"/>
</linearGradient>
<linearGradient id="paint6_linear" x1="-34.2443" y1="412.993" x2="-43.8542" y2="963.549" gradientUnits="userSpaceOnUse">
<stop stop-color="#060606"/>
<stop offset="1" stop-color="#0B0804"/>
</linearGradient>
<clipPath id="clip0">
<rect width="325" height="565" fill="white"/>
</clipPath>
<clipPath id="clip1">
<rect width="498.49" height="670.411" fill="white" transform="matrix(-1 0 0 1 498.49 0)"/>
</clipPath>
</defs>
</svg>
