<svg width="768" height="679" viewBox="0 0 768 679" fill="none" xmlns="http://www.w3.org/2000/svg">
<g clip-path="url(#clip0)">
<rect width="768" height="679" fill="white"/>
<g clip-path="url(#clip1)">
<rect width="1294.62" height="728.178" transform="matrix(-1 0 0 1 1264.91 0)" fill="url(#paint0_linear)"/>
<path d="M1096.07 215.082L795.494 226.374L732.582 209.705L665.368 191.423H629.342L604.607 176.905L582.024 182.82L554.063 164.538L527.715 154.859L489 164.538L469.643 154.859L421.249 164.538L347.583 154.859L258.862 143.567L224.448 128.511L195.95 133.888L166.914 120.446L148.094 128.511L124.972 120.446L91.6344 143.567L74.4278 138.728L44.3162 148.944L-14.8317 174.754L-40.6416 169.915L-73.4418 181.744H-91.7239L-129.901 191.423L-217.01 181.744L-238.518 465.116H1051.98L1096.07 215.082Z" fill="url(#paint1_linear)"/>
<path d="M1567.07 347.354L1266.6 361.268L1203.55 345.149L1136.18 327.454L1100.15 327.769L1075.29 313.467L1052.76 319.579L1024.64 301.541L998.211 292.093L959.582 302.109L940.141 292.599L891.834 302.7L818.086 293.665L729.269 283.147L694.726 268.393L666.275 274.018L637.123 260.829L618.374 269.059L595.183 261.195L562.048 284.607L544.8 279.918L514.779 290.397L455.858 316.722L430.007 312.108L397.312 324.223L379.03 324.383L340.939 334.394L232.833 393.412L234.714 609.025L1525.16 597.763L1567.07 347.354Z" fill="url(#paint2_linear)"/>
<path d="M1340.01 121.001L1298.68 138.073L1286.04 121.001L1269.37 126.75L1227.43 159.477L1212.37 154.173L1203.77 159.477L1195.17 154.173L1178.5 159.477L1159.68 154.173L1067.19 126.749L958.575 191.274L951.585 202.566L945.133 219.773L825.762 259.025L815.008 254.724L781.132 265.478L760.699 275.157L696.174 275.157L665.525 293.439L638.639 301.504L596.161 325.701L572.501 332.154L538.626 328.927L484.317 340.219L384.841 313.334L318.166 332.154L272.459 332.154L177.285 367.642L118.675 371.944L75.1208 389.688L48.7731 395.065L-17.365 428.941L-91.5686 460.128L-140.5 474.108L-178.677 474.108L-120.067 760.707L1396.56 347.825L1340.01 121.001Z" fill="url(#paint3_linear)"/>
<path d="M503.562 418.498C494.174 418.498 484.905 420.588 476.425 424.616L77.6533 614.063L-93.3115 669.665C-97.2626 670.95 -101.077 672.621 -104.701 674.655L-2087.2 1787.17C-2151.8 1823.42 -2112.14 1922.09 -2040.42 1903.55L3519.51 465.652C3588.86 447.717 3579.65 346.481 3508.21 341.35L1595.95 204.013C1588.96 203.511 1581.93 204.175 1575.15 205.981L1279.6 284.692C1274.84 285.959 1270.25 287.777 1265.91 290.109L1037.33 413.074C1030.66 416.66 1023.4 419.021 1015.9 420.042L840.175 443.971C834.079 444.801 827.894 444.737 821.817 443.781L665.949 419.266C662.699 418.754 659.413 418.498 656.123 418.498L503.562 418.498Z" fill="url(#paint4_linear)"/>
<path d="M1339.67 477.655C1329.8 475.102 1319.46 474.974 1309.52 477.282L1130.49 518.888L656.245 689.508C651.589 691.183 646.752 692.306 641.834 692.854L383.61 721.604L-1452.48 1153.32C-1525.59 1170.51 -1513.11 1278.12 -1438.01 1278.12L4246.52 1278.12C4318.15 1278.12 4334.59 1177.81 4266.7 1154.95L2453.1 544.328C2444.28 541.358 2434.91 540.371 2425.66 541.439L1857.14 607.107C1849.41 608 1841.59 607.459 1834.05 605.511L1339.67 477.655Z" fill="url(#paint5_linear)"/>
<path d="M120.427 507.037C112.833 505.952 105.104 506.259 97.6194 507.941L-2837.13 1167.54C-2910.12 1183.94 -2899.17 1291.16 -2824.36 1292.47L3154.67 1396.83C3226.29 1398.08 3244.47 1298.07 3177 1274.03L1283.16 599.369C1274.15 596.157 1264.52 595.033 1255 596.083L974.652 627.019C969.37 627.602 964.035 627.516 958.775 626.765L120.427 507.037Z" fill="url(#paint6_linear)"/>
<path d="M1.18037 483.172L-14.3643 552.543L4.31839 563.632L1.18037 483.172Z" fill="#070606"/>
<path d="M13.8923 522.471L-14.309 551.513L-2.13685 591.046L13.8923 522.471Z" fill="#070606"/>
<path d="M40.3991 496.619L24.8545 565.99L43.5371 577.079L40.3991 496.619Z" fill="#070606"/>
<path d="M53.113 535.917L24.9117 564.959L37.0839 604.493L53.113 535.917Z" fill="#070606"/>
<path d="M25.0864 495.41L15.5183 572.144H34.6546L25.0864 495.41Z" fill="#070606"/>
<path d="M1.34822 513.004L-1.00205 593.656L17.5658 581.261L1.34822 513.004Z" fill="#070606"/>
<path d="M-8.76395 528.221L-1.17875 606.528L14.8703 578.624L-8.76395 528.221Z" fill="#070606"/>
<path d="M9.60728 496.69L6.75703 577.179L25.4073 565.703L9.60728 496.69Z" fill="#070606"/>
<path d="M18.8483 509.466L3.30371 578.837L21.9864 589.926L18.8483 509.466Z" fill="#070606"/>
<path d="M136.77 464.124L121.226 533.494L139.908 544.583L136.77 464.124Z" fill="#070606"/>
<path d="M149.482 503.422L121.281 532.464L133.453 571.997L149.482 503.422Z" fill="#070606"/>
<path d="M121.456 462.914L111.887 539.648H131.024L121.456 462.914Z" fill="#070606"/>
<path d="M97.7193 480.508L95.369 561.16L113.937 548.766L97.7193 480.508Z" fill="#070606"/>
<path d="M87.6071 495.724L95.1923 574.031L111.241 546.127L87.6071 495.724Z" fill="#070606"/>
<path d="M105.976 464.195L103.126 544.684L121.776 533.207L105.976 464.195Z" fill="#070606"/>
<path d="M115.217 476.971L99.6729 546.341L118.356 557.43L115.217 476.971Z" fill="#070606"/>
<path d="M233.139 449.555L217.595 518.925L236.277 530.014L233.139 449.555Z" fill="#070606"/>
<path d="M245.853 488.853L217.652 517.895L229.824 557.428L245.853 488.853Z" fill="#070606"/>
<path d="M217.827 448.345L208.259 525.079H227.395L217.827 448.345Z" fill="#070606"/>
<path d="M194.088 465.939L191.738 546.591L210.306 534.197L194.088 465.939Z" fill="#070606"/>
<path d="M183.976 481.155L191.561 559.462L207.61 531.558L183.976 481.155Z" fill="#070606"/>
<path d="M202.348 449.626L199.497 530.115L218.148 518.639L202.348 449.626Z" fill="#070606"/>
<path d="M211.589 462.402L196.044 531.772L214.727 542.861L211.589 462.402Z" fill="#070606"/>
<path d="M302.616 508.946L287.071 578.316L305.754 589.405L302.616 508.946Z" fill="#070606"/>
<path d="M315.33 548.244L287.128 577.286L299.301 616.819L315.33 548.244Z" fill="#070606"/>
<path d="M287.303 507.736L277.735 584.47H296.871L287.303 507.736Z" fill="#070606"/>
<path d="M263.565 525.33L261.215 605.982L279.783 593.587L263.565 525.33Z" fill="#070606"/>
<path d="M253.453 540.546L261.038 618.852L277.087 590.948L253.453 540.546Z" fill="#070606"/>
<path d="M271.824 509.016L268.974 589.505L287.624 578.029L271.824 509.016Z" fill="#070606"/>
<path d="M281.065 521.793L265.521 591.163L284.203 602.252L281.065 521.793Z" fill="#070606"/>
<path d="M187.196 502.222L171.651 571.592L190.334 582.681L187.196 502.222Z" fill="#070606"/>
<path d="M199.91 541.52L171.709 570.562L183.881 610.095L199.91 541.52Z" fill="#070606"/>
<path d="M171.883 501.012L162.315 577.746H181.451L171.883 501.012Z" fill="#070606"/>
<path d="M148.145 518.606L145.795 599.258L164.363 586.863L148.145 518.606Z" fill="#070606"/>
<path d="M138.033 533.822L145.618 612.128L161.667 584.224L138.033 533.822Z" fill="#070606"/>
<path d="M156.404 502.293L153.554 582.782L172.204 571.305L156.404 502.293Z" fill="#070606"/>
<path d="M165.645 515.068L150.101 584.439L168.783 595.528L165.645 515.068Z" fill="#070606"/>
<path d="M75.1374 477.569L59.5928 546.939L78.2754 558.028L75.1374 477.569Z" fill="#070606"/>
<path d="M87.8513 516.867L59.65 545.909L71.8221 585.442L87.8513 516.867Z" fill="#070606"/>
<path d="M59.8247 476.36L50.2566 553.093H69.3929L59.8247 476.36Z" fill="#070606"/>
<path d="M36.0865 493.954L33.7362 574.605L52.3041 562.211L36.0865 493.954Z" fill="#070606"/>
<path d="M25.9743 509.169L33.5595 587.476L49.6085 559.572L25.9743 509.169Z" fill="#070606"/>
<path d="M44.3456 477.64L41.4953 558.129L60.1456 546.653L44.3456 477.64Z" fill="#070606"/>
<path d="M53.5866 490.416L38.042 559.786L56.7246 570.875L53.5866 490.416Z" fill="#070606"/>
<path d="M155.819 473.087L140.274 542.457L158.957 553.546L155.819 473.087Z" fill="#070606"/>
<path d="M168.533 512.385L140.332 541.427L152.504 580.96L168.533 512.385Z" fill="#070606"/>
<path d="M140.506 471.877L130.938 548.611H150.074L140.506 471.877Z" fill="#070606"/>
<path d="M116.768 489.471L114.418 570.123L132.986 557.729L116.768 489.471Z" fill="#070606"/>
<path d="M106.656 504.687L114.241 582.994L130.29 555.09L106.656 504.687Z" fill="#070606"/>
<path d="M125.027 473.158L122.177 553.647L140.827 542.171L125.027 473.158Z" fill="#070606"/>
<path d="M134.268 485.934L118.724 555.304L137.406 566.393L134.268 485.934Z" fill="#070606"/>
<path d="M337.354 487.654L321.81 557.025L340.492 568.114L337.354 487.654Z" fill="#070606"/>
<path d="M350.068 526.952L321.867 555.994L334.039 595.528L350.068 526.952Z" fill="#070606"/>
<path d="M322.042 486.445L312.473 563.179H331.61L322.042 486.445Z" fill="#070606"/>
<path d="M298.303 504.039L295.953 584.691L314.521 572.296L298.303 504.039Z" fill="#070606"/>
<path d="M288.191 519.255L295.776 597.561L311.825 569.657L288.191 519.255Z" fill="#070606"/>
<path d="M306.562 487.725L303.712 568.214L322.362 556.738L306.562 487.725Z" fill="#070606"/>
<path d="M315.803 500.501L300.259 569.872L318.941 580.961L315.803 500.501Z" fill="#070606"/>
<path d="M376.577 494.377L361.032 563.747L379.715 574.836L376.577 494.377Z" fill="#070606"/>
<path d="M389.289 533.675L361.087 562.717L373.26 602.25L389.289 533.675Z" fill="#070606"/>
<path d="M361.262 493.167L351.694 569.901H370.83L361.262 493.167Z" fill="#070606"/>
<path d="M337.526 510.762L335.176 591.413L353.744 579.019L337.526 510.762Z" fill="#070606"/>
<path d="M327.414 525.977L334.999 604.284L351.048 576.38L327.414 525.977Z" fill="#070606"/>
<path d="M345.783 494.448L342.933 574.937L361.583 563.461L345.783 494.448Z" fill="#070606"/>
<path d="M355.024 507.224L339.479 576.594L358.162 587.683L355.024 507.224Z" fill="#070606"/>
<path d="M472.946 525.756L457.401 595.126L476.084 606.215L472.946 525.756Z" fill="#070606"/>
<path d="M485.66 565.054L457.459 594.096L469.631 633.629L485.66 565.054Z" fill="#070606"/>
<path d="M457.633 524.546L448.065 601.28H467.201L457.633 524.546Z" fill="#070606"/>
<path d="M433.895 542.14L431.545 622.792L450.113 610.398L433.895 542.14Z" fill="#070606"/>
<path d="M423.783 557.356L431.368 635.662L447.417 607.758L423.783 557.356Z" fill="#070606"/>
<path d="M442.154 525.827L439.304 606.316L457.954 594.84L442.154 525.827Z" fill="#070606"/>
<path d="M451.395 538.603L435.851 607.973L454.533 619.062L451.395 538.603Z" fill="#070606"/>
<path d="M298.137 458.52L282.593 527.89L301.275 538.979L298.137 458.52Z" fill="#070606"/>
<path d="M310.851 497.818L282.65 526.86L294.822 566.393L310.851 497.818Z" fill="#070606"/>
<path d="M282.825 457.31L273.257 534.044H292.393L282.825 457.31Z" fill="#070606"/>
<path d="M259.087 474.904L256.736 555.556L275.304 543.162L259.087 474.904Z" fill="#070606"/>
<path d="M248.974 490.12L256.56 568.427L272.609 540.523L248.974 490.12Z" fill="#070606"/>
<path d="M267.346 458.591L264.495 539.08L283.146 527.603L267.346 458.591Z" fill="#070606"/>
<path d="M276.587 471.367L261.042 540.737L279.725 551.826L276.587 471.367Z" fill="#070606"/>
<path d="M542.423 532.48L526.878 601.85L545.561 612.939L542.423 532.48Z" fill="#070606"/>
<path d="M555.135 571.778L526.933 600.82L539.105 640.353L555.135 571.778Z" fill="#070606"/>
<path d="M527.108 531.27L517.54 608.004H536.676L527.108 531.27Z" fill="#070606"/>
<path d="M503.372 548.864L501.021 629.516L519.589 617.121L503.372 548.864Z" fill="#070606"/>
<path d="M493.259 564.08L500.845 642.386L516.894 614.482L493.259 564.08Z" fill="#070606"/>
<path d="M511.629 532.551L508.779 613.04L527.429 601.563L511.629 532.551Z" fill="#070606"/>
<path d="M520.87 545.327L505.325 614.697L524.008 625.786L520.87 545.327Z" fill="#070606"/>
<path d="M590.61 525.756L575.065 595.126L593.748 606.215L590.61 525.756Z" fill="#070606"/>
<path d="M603.322 565.054L575.121 594.096L587.293 633.629L603.322 565.054Z" fill="#070606"/>
<path d="M575.295 524.546L565.727 601.28H584.864L575.295 524.546Z" fill="#070606"/>
<path d="M551.559 542.14L549.209 622.792L567.777 610.398L551.559 542.14Z" fill="#070606"/>
<path d="M541.447 557.356L549.032 635.662L565.081 607.758L541.447 557.356Z" fill="#070606"/>
<path d="M559.816 525.827L556.966 606.316L575.616 594.84L559.816 525.827Z" fill="#070606"/>
<path d="M569.057 538.603L553.513 607.973L572.195 619.062L569.057 538.603Z" fill="#070606"/>
<path d="M647.757 543.684L632.212 613.054L650.895 624.143L647.757 543.684Z" fill="#070606"/>
<path d="M660.47 582.982L632.269 612.024L644.441 651.557L660.47 582.982Z" fill="#070606"/>
<path d="M632.444 542.475L622.876 619.208H642.012L632.444 542.475Z" fill="#070606"/>
<path d="M608.706 560.069L606.355 640.72L624.923 628.326L608.706 560.069Z" fill="#070606"/>
<path d="M598.593 575.284L606.179 653.591L622.228 625.687L598.593 575.284Z" fill="#070606"/>
<path d="M616.965 543.755L614.114 624.244L632.765 612.768L616.965 543.755Z" fill="#070606"/>
<path d="M626.206 556.531L610.661 625.901L629.344 636.991L626.206 556.531Z" fill="#070606"/>
<path d="M704.907 519.031L689.362 588.401L708.045 599.491L704.907 519.031Z" fill="#070606"/>
<path d="M717.621 558.329L689.42 587.371L701.592 626.905L717.621 558.329Z" fill="#070606"/>
<path d="M689.594 517.822L680.026 594.555H699.162L689.594 517.822Z" fill="#070606"/>
<path d="M665.856 535.416L663.506 616.068L682.074 603.673L665.856 535.416Z" fill="#070606"/>
<path d="M655.744 550.631L663.329 628.938L679.378 601.034L655.744 550.631Z" fill="#070606"/>
<path d="M674.115 519.102L671.265 599.591L689.915 588.115L674.115 519.102Z" fill="#070606"/>
<path d="M683.356 531.878L667.812 601.249L686.494 612.338L683.356 531.878Z" fill="#070606"/>
<path d="M765.421 553.77L749.876 623.14L768.559 634.229L765.421 553.77Z" fill="#070606"/>
<path d="M778.135 593.068L749.933 622.11L762.105 661.643L778.135 593.068Z" fill="#070606"/>
<path d="M750.108 552.56L740.54 629.294H759.676L750.108 552.56Z" fill="#070606"/>
<path d="M726.37 570.154L724.019 650.806L742.587 638.412L726.37 570.154Z" fill="#070606"/>
<path d="M716.258 585.37L723.843 663.676L739.892 635.772L716.258 585.37Z" fill="#070606"/>
<path d="M734.629 553.841L731.779 634.33L750.429 622.853L734.629 553.841Z" fill="#070606"/>
<path d="M743.87 566.617L728.325 635.987L747.008 647.076L743.87 566.617Z" fill="#070606"/>
<path d="M773.436 584.723L771.086 665.375L789.654 652.98L773.436 584.723Z" fill="#070606"/>
<path d="M763.324 599.939L770.909 678.245L786.958 650.341L763.324 599.939Z" fill="#070606"/>
<path d="M741.887 558.252L726.343 627.622L745.025 638.711L741.887 558.252Z" fill="#070606"/>
<path d="M754.601 597.55L726.4 626.592L738.572 666.125L754.601 597.55Z" fill="#070606"/>
<path d="M726.575 557.042L717.007 633.776H736.143L726.575 557.042Z" fill="#070606"/>
<path d="M702.837 574.637L700.486 655.288L719.054 642.894L702.837 574.637Z" fill="#070606"/>
<path d="M692.724 589.852L700.31 668.158L716.359 640.254L692.724 589.852Z" fill="#070606"/>
<path d="M711.096 558.323L708.245 638.812L726.896 627.336L711.096 558.323Z" fill="#070606"/>
<path d="M720.337 571.099L704.792 640.469L723.475 651.558L720.337 571.099Z" fill="#070606"/>
<path d="M656.723 530.238L641.179 599.608L659.861 610.697L656.723 530.238Z" fill="#070606"/>
<path d="M669.435 569.536L641.234 598.578L653.406 638.111L669.435 569.536Z" fill="#070606"/>
<path d="M641.409 529.028L631.841 605.762H650.977L641.409 529.028Z" fill="#070606"/>
<path d="M617.672 546.623L615.322 627.274L633.89 614.88L617.672 546.623Z" fill="#070606"/>
<path d="M607.56 561.838L615.145 640.145L631.194 612.241L607.56 561.838Z" fill="#070606"/>
<path d="M625.93 530.309L623.079 610.798L641.73 599.322L625.93 530.309Z" fill="#070606"/>
<path d="M635.171 543.085L619.626 612.455L638.309 623.544L635.171 543.085Z" fill="#070606"/>
<path d="M638.798 521.271L623.253 590.642L641.936 601.731L638.798 521.271Z" fill="#070606"/>
<path d="M651.51 560.569L623.308 589.611L635.48 629.145L651.51 560.569Z" fill="#070606"/>
<path d="M623.483 520.062L613.915 596.796H633.051L623.483 520.062Z" fill="#070606"/>
<path d="M599.747 537.656L597.396 618.308L615.964 605.913L599.747 537.656Z" fill="#070606"/>
<path d="M589.634 552.872L597.22 631.178L613.269 603.274L589.634 552.872Z" fill="#070606"/>
<path d="M608.004 521.342L605.154 601.831L623.804 590.355L608.004 521.342Z" fill="#070606"/>
<path d="M617.245 534.118L601.7 603.489L620.383 614.578L617.245 534.118Z" fill="#070606"/>
<path d="M455.016 499.982L439.472 569.352L458.154 580.441L455.016 499.982Z" fill="#070606"/>
<path d="M467.73 539.28L439.529 568.322L451.701 607.856L467.73 539.28Z" fill="#070606"/>
<path d="M439.704 498.773L430.136 575.507H449.272L439.704 498.773Z" fill="#070606"/>
<path d="M415.965 516.367L413.615 597.019L432.183 584.624L415.965 516.367Z" fill="#070606"/>
<path d="M405.853 531.583L413.438 609.889L429.487 581.985L405.853 531.583Z" fill="#070606"/>
<path d="M424.224 500.053L421.374 580.542L440.024 569.066L424.224 500.053Z" fill="#070606"/>
<path d="M433.466 512.829L417.921 582.199L436.604 593.288L433.466 512.829Z" fill="#070606"/>
<path d="M503.204 532.48L487.659 601.85L506.342 612.939L503.204 532.48Z" fill="#070606"/>
<path d="M515.918 571.778L487.716 600.82L499.889 640.353L515.918 571.778Z" fill="#070606"/>
<path d="M487.891 531.27L478.323 608.004H497.459L487.891 531.27Z" fill="#070606"/>
<path d="M464.153 548.864L461.803 629.516L480.37 617.121L464.153 548.864Z" fill="#070606"/>
<path d="M454.041 564.08L461.626 642.386L477.675 614.482L454.041 564.08Z" fill="#070606"/>
<path d="M472.412 532.551L469.562 613.04L488.212 601.563L472.412 532.551Z" fill="#070606"/>
<path d="M481.653 545.327L466.108 614.697L484.791 625.786L481.653 545.327Z" fill="#070606"/>
<path d="M267.88 501.101L252.335 570.472L271.018 581.561L267.88 501.101Z" fill="#070606"/>
<path d="M280.593 540.4L252.392 569.442L264.564 608.975L280.593 540.4Z" fill="#070606"/>
<path d="M252.567 499.892L242.999 576.626H262.135L252.567 499.892Z" fill="#070606"/>
<path d="M228.829 517.486L226.478 598.138L245.046 585.743L228.829 517.486Z" fill="#070606"/>
<path d="M218.717 532.702L226.302 611.008L242.351 583.104L218.717 532.702Z" fill="#070606"/>
<path d="M237.088 501.172L234.238 581.661L252.888 570.185L237.088 501.172Z" fill="#070606"/>
<path d="M246.329 513.948L230.784 583.319L249.467 594.408L246.329 513.948Z" fill="#070606"/>
<path d="M267.88 488.775L252.335 558.146L271.018 569.235L267.88 488.775Z" fill="#070606"/>
<path d="M280.593 528.074L252.392 557.116L264.564 596.649L280.593 528.074Z" fill="#070606"/>
<path d="M252.567 487.566L242.999 564.3H262.135L252.567 487.566Z" fill="#070606"/>
<path d="M228.829 505.16L226.478 585.812L245.046 573.417L228.829 505.16Z" fill="#070606"/>
<path d="M218.717 520.376L226.302 598.682L242.351 570.778L218.717 520.376Z" fill="#070606"/>
<path d="M237.088 488.846L234.238 569.336L252.888 557.859L237.088 488.846Z" fill="#070606"/>
<path d="M246.329 501.622L230.784 570.993L249.467 582.082L246.329 501.622Z" fill="#070606"/>
<path d="M193.921 468.605L178.376 537.976L197.059 549.065L193.921 468.605Z" fill="#070606"/>
<path d="M206.635 507.903L178.433 536.945L190.605 576.479L206.635 507.903Z" fill="#070606"/>
<path d="M178.608 467.396L169.04 544.13H188.176L178.608 467.396Z" fill="#070606"/>
<path d="M154.87 484.99L152.519 565.642L171.087 553.247L154.87 484.99Z" fill="#070606"/>
<path d="M144.758 500.206L152.343 578.512L168.392 550.608L144.758 500.206Z" fill="#070606"/>
<path d="M163.129 468.676L160.279 549.165L178.929 537.689L163.129 468.676Z" fill="#070606"/>
<path d="M172.37 481.452L156.825 550.823L175.508 561.912L172.37 481.452Z" fill="#070606"/>
<path d="M106.512 471.966L90.9678 541.336L109.65 552.425L106.512 471.966Z" fill="#070606"/>
<path d="M119.226 511.264L91.025 540.306L103.197 579.839L119.226 511.264Z" fill="#070606"/>
<path d="M91.1997 470.757L81.6316 547.49H100.768L91.1997 470.757Z" fill="#070606"/>
<path d="M67.4615 488.351L65.1112 569.002L83.6791 556.608L67.4615 488.351Z" fill="#070606"/>
<path d="M57.3493 503.566L64.9345 581.873L80.9835 553.969L57.3493 503.566Z" fill="#070606"/>
<path d="M75.7206 472.037L72.8703 552.526L91.5206 541.05L75.7206 472.037Z" fill="#070606"/>
<path d="M84.9616 484.813L69.417 554.183L88.0996 565.273L84.9616 484.813Z" fill="#070606"/>
<path d="M40.3991 493.257L24.8545 562.628L43.5371 573.717L40.3991 493.257Z" fill="#070606"/>
<path d="M53.113 532.556L24.9117 561.598L37.0839 601.131L53.113 532.556Z" fill="#070606"/>
<path d="M25.0864 492.048L15.5183 568.782H34.6546L25.0864 492.048Z" fill="#070606"/>
<path d="M1.34822 509.642L-1.00205 590.294L17.5658 577.899L1.34822 509.642Z" fill="#070606"/>
<path d="M-8.76395 524.858L-1.17875 603.164L14.8703 575.26L-8.76395 524.858Z" fill="#070606"/>
<path d="M9.60728 493.328L6.75703 573.817L25.4073 562.341L9.60728 493.328Z" fill="#070606"/>
<path d="M18.8483 506.104L3.30371 575.475L21.9864 586.564L18.8483 506.104Z" fill="#070606"/>
<path d="M412.432 510.067L396.888 579.437L415.57 590.526L412.432 510.067Z" fill="#070606"/>
<path d="M425.146 549.365L396.945 578.407L409.117 617.94L425.146 549.365Z" fill="#070606"/>
<path d="M397.12 508.857L387.552 585.591H406.688L397.12 508.857Z" fill="#070606"/>
<path d="M373.381 526.452L371.031 607.104L389.599 594.709L373.381 526.452Z" fill="#070606"/>
<path d="M363.269 541.667L370.854 619.974L386.903 592.07L363.269 541.667Z" fill="#070606"/>
<path d="M381.64 510.138L378.79 590.627L397.44 579.151L381.64 510.138Z" fill="#070606"/>
<path d="M390.882 522.914L375.337 592.284L394.02 603.373L390.882 522.914Z" fill="#070606"/>
<path d="M553.63 514.548L538.085 583.918L556.768 595.007L553.63 514.548Z" fill="#070606"/>
<path d="M566.342 553.846L538.14 582.888L550.312 622.421L566.342 553.846Z" fill="#070606"/>
<path d="M538.315 513.338L528.747 590.072H547.883L538.315 513.338Z" fill="#070606"/>
<path d="M514.579 530.932L512.228 611.584L530.796 599.19L514.579 530.932Z" fill="#070606"/>
<path d="M504.467 546.149L512.052 624.456L528.101 596.552L504.467 546.149Z" fill="#070606"/>
<path d="M522.836 514.619L519.986 595.108L538.636 583.632L522.836 514.619Z" fill="#070606"/>
<path d="M532.077 527.395L516.532 596.765L535.215 607.854L532.077 527.395Z" fill="#070606"/>
<path d="M524.497 507.823L508.952 577.193L527.635 588.283L524.497 507.823Z" fill="#070606"/>
<path d="M537.209 547.121L509.007 576.163L521.18 615.697L537.209 547.121Z" fill="#070606"/>
<path d="M509.182 506.614L499.614 583.348H518.75L509.182 506.614Z" fill="#070606"/>
<path d="M485.446 524.208L483.096 604.86L501.663 592.465L485.446 524.208Z" fill="#070606"/>
<path d="M475.334 539.424L482.919 617.73L498.968 589.826L475.334 539.424Z" fill="#070606"/>
<path d="M493.703 507.894L490.853 588.383L509.503 576.907L493.703 507.894Z" fill="#070606"/>
<path d="M502.944 520.67L487.399 590.041L506.082 601.13L502.944 520.67Z" fill="#070606"/>
<path d="M595.094 525.756L579.55 595.126L598.232 606.215L595.094 525.756Z" fill="#070606"/>
<path d="M607.806 565.054L579.605 594.096L591.777 633.629L607.806 565.054Z" fill="#070606"/>
<path d="M579.78 524.546L570.212 601.28H589.348L579.78 524.546Z" fill="#070606"/>
<path d="M556.044 542.14L553.693 622.792L572.261 610.398L556.044 542.14Z" fill="#070606"/>
<path d="M545.931 557.356L553.517 635.662L569.566 607.758L545.931 557.356Z" fill="#070606"/>
<path d="M564.301 525.827L561.45 606.316L580.101 594.84L564.301 525.827Z" fill="#070606"/>
<path d="M573.542 538.603L557.997 607.973L576.68 619.062L573.542 538.603Z" fill="#070606"/>
</g>
</g>
<defs>
<linearGradient id="paint0_linear" x1="823.053" y1="-36.6408" x2="819.714" y2="422.534" gradientUnits="userSpaceOnUse">
<stop stop-color="#557C99"/>
<stop offset="0.197099" stop-color="#86B2D3"/>
<stop offset="0.50737" stop-color="#CBD7D8"/>
<stop offset="1" stop-color="#BECED6"/>
</linearGradient>
<linearGradient id="paint1_linear" x1="429.315" y1="73.1275" x2="428.777" y2="465.116" gradientUnits="userSpaceOnUse">
<stop stop-color="#718DD3"/>
<stop offset="0.443093" stop-color="#BED1DA" stop-opacity="0"/>
<stop offset="1" stop-color="#C2D0D9"/>
</linearGradient>
<linearGradient id="paint2_linear" x1="899.101" y1="211.223" x2="901.984" y2="603.202" gradientUnits="userSpaceOnUse">
<stop stop-color="#718DD3"/>
<stop offset="0.265461" stop-color="#BED1DA" stop-opacity="0"/>
<stop offset="1" stop-color="#C2D0D9"/>
</linearGradient>
<linearGradient id="paint3_linear" x1="566.967" y1="114.531" x2="642.324" y2="570.621" gradientUnits="userSpaceOnUse">
<stop offset="0.264036" stop-color="#5080A2"/>
<stop offset="0.460477" stop-color="#80A4B9"/>
<stop offset="0.95725" stop-color="#C6CFCA"/>
</linearGradient>
<linearGradient id="paint4_linear" x1="548.685" y1="403.819" x2="690.698" y2="1197.23" gradientUnits="userSpaceOnUse">
<stop stop-color="#3C5168"/>
<stop offset="0.180685" stop-color="#6C7266"/>
<stop offset="0.51559" stop-color="#8E846A" stop-opacity="0.58"/>
</linearGradient>
<linearGradient id="paint5_linear" x1="1189.63" y1="640.947" x2="476.095" y2="754.942" gradientUnits="userSpaceOnUse">
<stop offset="0.228791" stop-color="#3B2F19"/>
<stop offset="1" stop-color="#887449"/>
</linearGradient>
<linearGradient id="paint6_linear" x1="108.94" y1="505.396" x2="94.3126" y2="1343.41" gradientUnits="userSpaceOnUse">
<stop stop-color="#060606"/>
<stop offset="1" stop-color="#0B0804"/>
</linearGradient>
<clipPath id="clip0">
<rect width="768" height="679" fill="white"/>
</clipPath>
<clipPath id="clip1">
<rect width="1294.62" height="728.178" fill="white" transform="matrix(-1 0 0 1 1264.91 0)"/>
</clipPath>
</defs>
</svg>
