<svg width="1550" height="875" viewBox="0 0 1550 875" fill="none" xmlns="http://www.w3.org/2000/svg">
<g clip-path="url(#clip0)">
<rect width="1550" height="875" fill="white"/>
<g clip-path="url(#clip1)">
<rect width="1555.66" height="875" transform="matrix(-1 0 0 1 1555.66 0)" fill="url(#paint0_linear)"/>
<path d="M1352.78 258.45L991.591 272.019L915.995 251.989L835.229 230.02H791.939L762.217 212.575L735.08 219.682L701.481 197.714L669.821 186.084L623.3 197.714L600.039 186.084L541.888 197.714L453.369 186.084L346.758 172.515L305.406 154.424L271.162 160.885L236.271 144.732L213.656 154.424L185.873 144.732L145.813 172.515L125.137 166.7L88.9543 178.977L17.8805 209.991L-13.1335 204.175L-52.5472 218.39H-74.5154L-120.39 230.02L-225.063 218.39L-250.908 558.898H1299.79L1352.78 258.45Z" fill="url(#paint1_linear)"/>
<path d="M1918.74 417.392L1557.69 434.112L1481.92 414.742L1400.97 393.48L1357.68 393.857L1327.81 376.672L1300.73 384.016L1266.94 362.342L1235.18 350.988L1188.76 363.024L1165.4 351.597L1107.36 363.734L1018.74 352.877L912.014 340.239L870.505 322.509L836.318 329.269L801.288 313.421L778.759 323.31L750.892 313.861L711.076 341.993L690.35 336.358L654.276 348.95L583.475 380.583L552.412 375.039L513.124 389.597L491.156 389.789L445.385 401.819L315.481 472.737L317.742 731.823L1868.38 718.291L1918.74 417.392Z" fill="url(#paint2_linear)"/>
<path d="M1645.89 145.398L1596.23 165.913L1581.05 145.398L1561.02 152.306L1510.62 191.632L1492.53 185.259L1482.19 191.632L1471.85 185.259L1451.82 191.632L1429.21 185.259L1318.07 152.306L1187.56 229.841L1179.16 243.41L1171.4 264.086L1027.96 311.253L1015.04 306.084L974.335 319.006L949.782 330.637L872.247 330.637L835.418 352.605L803.112 362.297L752.068 391.372L723.639 399.126L682.933 395.249L617.674 408.818L498.141 376.511L418.021 399.126L363.099 399.126L248.735 441.77L178.307 446.939L125.971 468.261L94.3112 474.722L14.8377 515.428L-74.3275 552.904L-133.125 569.703L-179 569.703L-108.572 914.088L1713.85 417.957L1645.89 145.398Z" fill="url(#paint3_linear)"/>
<path d="M640.798 502.878C629.518 502.878 618.379 505.39 608.19 510.23L129.014 737.875L-76.4223 804.689C-81.17 806.233 -85.754 808.241 -90.1079 810.684L-2472.34 2147.52C-2549.96 2191.08 -2502.3 2309.64 -2416.12 2287.36L4264.85 559.54C4348.18 537.99 4337.12 416.341 4251.27 410.176L1953.45 245.147C1945.04 244.543 1936.59 245.342 1928.45 247.512L1573.31 342.094C1567.59 343.616 1562.07 345.8 1556.86 348.602L1282.19 496.361C1274.17 500.671 1265.45 503.507 1256.44 504.734L1045.28 533.487C1037.96 534.485 1030.53 534.408 1023.22 533.259L835.927 503.801C832.022 503.187 828.074 502.878 824.12 502.878L640.798 502.878Z" fill="url(#paint4_linear)"/>
<path d="M1645.49 573.964C1633.63 570.896 1621.2 570.743 1609.26 573.516L1394.13 623.511L824.266 828.534C818.671 830.547 812.859 831.896 806.949 832.554L496.658 867.1L-1709.64 1385.87C-1797.49 1406.53 -1782.5 1535.83 -1692.25 1535.83L5138.45 1535.83C5224.52 1535.83 5244.27 1415.29 5162.7 1387.82L2983.42 654.08C2972.82 650.511 2961.56 649.326 2950.45 650.61L2267.3 729.518C2258.01 730.591 2248.61 729.94 2239.55 727.6L1645.49 573.964Z" fill="url(#paint5_linear)"/>
<path d="M183.578 710.697C174.452 709.394 165.166 709.762 156.171 711.783L-3202.66 1466.69C-3290.38 1486.41 -3277.21 1615.24 -3187.33 1616.81L3663.39 1736.39C3749.45 1737.89 3771.3 1617.71 3690.22 1588.83L1524.54 817.33C1513.71 813.47 1502.14 812.121 1490.71 813.382L1168.49 848.937C1162.14 849.637 1155.73 849.535 1149.41 848.632L183.578 710.697Z" fill="url(#paint6_linear)"/>
<path d="M-5.73697 759.429L-38.2585 792.92L-24.2217 838.51L-5.73697 759.429Z" fill="#070606"/>
<path d="M45.5085 683.098L27.5825 763.095L49.1272 775.883L45.5085 683.098Z" fill="#070606"/>
<path d="M60.1693 728.416L27.6478 761.907L41.6846 807.496L60.1693 728.416Z" fill="#070606"/>
<path d="M27.849 681.702L16.8152 770.191H38.8829L27.849 681.702Z" fill="#070606"/>
<path d="M0.47748 701.992L-2.23283 794.999L19.1794 780.705L0.47748 701.992Z" fill="#070606"/>
<path d="M-11.1853 719.54L-2.43817 809.842L16.0694 777.663L-11.1853 719.54Z" fill="#070606"/>
<path d="M9.99878 683.179L6.7119 775.999L28.2192 762.764L9.99878 683.179Z" fill="#070606"/>
<path d="M20.6549 697.911L2.72902 777.908L24.2737 790.696L20.6549 697.911Z" fill="#070606"/>
<path d="M90.735 698.605L72.8091 778.603L94.3538 791.391L90.735 698.605Z" fill="#070606"/>
<path d="M105.396 743.923L72.8743 777.414L86.9111 823.004L105.396 743.923Z" fill="#070606"/>
<path d="M73.0756 697.21L62.0417 785.698H84.1095L73.0756 697.21Z" fill="#070606"/>
<path d="M45.704 717.499L42.9937 810.506L64.406 796.213L45.704 717.499Z" fill="#070606"/>
<path d="M34.0432 735.049L42.7903 825.351L61.2979 793.172L34.0432 735.049Z" fill="#070606"/>
<path d="M55.2253 698.687L51.9385 791.506L73.4458 778.272L55.2253 698.687Z" fill="#070606"/>
<path d="M65.8835 713.418L47.9575 793.416L69.5022 806.204L65.8835 713.418Z" fill="#070606"/>
<path d="M201.87 661.13L183.944 741.127L205.489 753.915L201.87 661.13Z" fill="#070606"/>
<path d="M216.531 706.448L184.009 739.939L198.046 785.528L216.531 706.448Z" fill="#070606"/>
<path d="M184.21 659.734L173.176 748.223H195.244L184.21 659.734Z" fill="#070606"/>
<path d="M156.839 680.024L154.128 773.031L175.541 758.737L156.839 680.024Z" fill="#070606"/>
<path d="M145.176 697.572L153.923 787.874L172.431 755.695L145.176 697.572Z" fill="#070606"/>
<path d="M166.36 661.211L163.073 754.031L184.581 740.796L166.36 661.211Z" fill="#070606"/>
<path d="M177.016 675.943L159.09 755.94L180.635 768.728L177.016 675.943Z" fill="#070606"/>
<path d="M313.005 644.33L295.079 724.327L316.623 737.115L313.005 644.33Z" fill="#070606"/>
<path d="M327.665 689.648L295.144 723.139L309.181 768.728L327.665 689.648Z" fill="#070606"/>
<path d="M295.345 642.934L284.311 731.423H306.379L295.345 642.934Z" fill="#070606"/>
<path d="M267.974 663.224L265.263 756.231L286.676 741.937L267.974 663.224Z" fill="#070606"/>
<path d="M256.311 680.772L265.058 771.074L283.565 738.895L256.311 680.772Z" fill="#070606"/>
<path d="M277.495 644.411L274.208 737.231L295.715 723.996L277.495 644.411Z" fill="#070606"/>
<path d="M288.151 659.143L270.225 739.14L291.77 751.928L288.151 659.143Z" fill="#070606"/>
<path d="M393.124 712.82L375.198 792.817L396.742 805.605L393.124 712.82Z" fill="#070606"/>
<path d="M407.785 758.137L375.263 791.628L389.3 837.218L407.785 758.137Z" fill="#070606"/>
<path d="M375.464 711.424L364.43 799.913H386.498L375.464 711.424Z" fill="#070606"/>
<path d="M348.093 731.713L345.382 824.72L366.795 810.427L348.093 731.713Z" fill="#070606"/>
<path d="M336.43 749.261L345.177 839.564L363.685 807.385L336.43 749.261Z" fill="#070606"/>
<path d="M357.614 712.901L354.327 805.72L375.834 792.486L357.614 712.901Z" fill="#070606"/>
<path d="M368.27 727.633L350.344 807.63L371.889 820.418L368.27 727.633Z" fill="#070606"/>
<path d="M260.022 705.065L242.096 785.063L263.641 797.851L260.022 705.065Z" fill="#070606"/>
<path d="M274.683 750.383L242.161 783.874L256.198 829.463L274.683 750.383Z" fill="#070606"/>
<path d="M242.363 703.67L231.329 792.158H253.397L242.363 703.67Z" fill="#070606"/>
<path d="M214.991 723.959L212.281 816.966L233.693 802.673L214.991 723.959Z" fill="#070606"/>
<path d="M203.328 741.507L212.076 831.809L230.583 799.631L203.328 741.507Z" fill="#070606"/>
<path d="M224.512 705.147L221.226 797.966L242.733 784.732L224.512 705.147Z" fill="#070606"/>
<path d="M235.169 719.878L217.243 799.876L238.787 812.664L235.169 719.878Z" fill="#070606"/>
<path d="M130.798 676.637L112.872 756.635L134.416 769.422L130.798 676.637Z" fill="#070606"/>
<path d="M145.458 721.955L112.937 755.446L126.974 801.035L145.458 721.955Z" fill="#070606"/>
<path d="M113.138 675.241L102.104 763.73H124.172L113.138 675.241Z" fill="#070606"/>
<path d="M85.7665 695.531L83.0562 788.538L104.468 774.244L85.7665 695.531Z" fill="#070606"/>
<path d="M74.1037 713.079L82.8509 803.381L101.358 771.202L74.1037 713.079Z" fill="#070606"/>
<path d="M95.2878 676.718L92.001 769.538L113.508 756.303L95.2878 676.718Z" fill="#070606"/>
<path d="M105.944 691.45L88.0181 771.447L109.563 784.235L105.944 691.45Z" fill="#070606"/>
<path d="M223.839 671.468L205.913 751.465L227.457 764.253L223.839 671.468Z" fill="#070606"/>
<path d="M238.499 716.785L205.978 750.276L220.015 795.866L238.499 716.785Z" fill="#070606"/>
<path d="M206.179 670.072L195.145 758.561H217.213L206.179 670.072Z" fill="#070606"/>
<path d="M178.808 690.361L176.097 783.368L197.509 769.075L178.808 690.361Z" fill="#070606"/>
<path d="M167.145 707.909L175.892 798.211L194.399 766.033L167.145 707.909Z" fill="#070606"/>
<path d="M188.329 671.549L185.042 764.368L206.549 751.134L188.329 671.549Z" fill="#070606"/>
<path d="M198.985 686.281L181.059 766.278L202.604 779.066L198.985 686.281Z" fill="#070606"/>
<path d="M433.182 688.266L415.256 768.263L436.801 781.051L433.182 688.266Z" fill="#070606"/>
<path d="M447.843 733.583L415.322 767.074L429.358 812.664L447.843 733.583Z" fill="#070606"/>
<path d="M415.523 686.87L404.489 775.359H426.557L415.523 686.87Z" fill="#070606"/>
<path d="M388.151 707.159L385.441 800.166L406.853 785.873L388.151 707.159Z" fill="#070606"/>
<path d="M376.488 724.707L385.236 815.01L403.743 782.831L376.488 724.707Z" fill="#070606"/>
<path d="M397.673 688.347L394.386 781.166L415.893 767.932L397.673 688.347Z" fill="#070606"/>
<path d="M408.329 703.079L390.403 783.076L411.948 795.864L408.329 703.079Z" fill="#070606"/>
<path d="M478.413 696.02L460.487 776.017L482.031 788.805L478.413 696.02Z" fill="#070606"/>
<path d="M493.074 741.337L460.552 774.828L474.589 820.418L493.074 741.337Z" fill="#070606"/>
<path d="M460.753 694.624L449.719 783.113H471.787L460.753 694.624Z" fill="#070606"/>
<path d="M433.382 714.913L430.671 807.92L452.084 793.627L433.382 714.913Z" fill="#070606"/>
<path d="M421.719 732.461L430.466 822.764L448.974 790.585L421.719 732.461Z" fill="#070606"/>
<path d="M442.903 696.101L439.616 788.92L461.123 775.686L442.903 696.101Z" fill="#070606"/>
<path d="M453.559 710.833L435.633 790.83L457.178 803.618L453.559 710.833Z" fill="#070606"/>
<path d="M589.548 732.204L571.622 812.201L593.166 824.989L589.548 732.204Z" fill="#070606"/>
<path d="M604.208 777.521L571.687 811.012L585.724 856.601L604.208 777.521Z" fill="#070606"/>
<path d="M571.888 730.808L560.854 819.297H582.922L571.888 730.808Z" fill="#070606"/>
<path d="M544.517 751.097L541.806 844.104L563.218 829.811L544.517 751.097Z" fill="#070606"/>
<path d="M532.854 768.645L541.601 858.947L560.108 826.769L532.854 768.645Z" fill="#070606"/>
<path d="M554.038 732.285L550.751 825.104L572.258 811.87L554.038 732.285Z" fill="#070606"/>
<path d="M564.692 747.016L546.766 827.014L568.311 839.801L564.692 747.016Z" fill="#070606"/>
<path d="M387.954 654.668L370.028 734.666L391.573 747.454L387.954 654.668Z" fill="#070606"/>
<path d="M402.615 699.986L370.093 733.477L384.13 779.067L402.615 699.986Z" fill="#070606"/>
<path d="M370.294 653.273L359.26 741.761H381.328L370.294 653.273Z" fill="#070606"/>
<path d="M342.923 673.562L340.212 766.569L361.625 752.276L342.923 673.562Z" fill="#070606"/>
<path d="M331.26 691.11L340.007 781.412L358.515 749.234L331.26 691.11Z" fill="#070606"/>
<path d="M352.444 654.75L349.157 747.569L370.665 734.335L352.444 654.75Z" fill="#070606"/>
<path d="M363.1 669.481L345.174 749.479L366.719 762.267L363.1 669.481Z" fill="#070606"/>
<path d="M669.665 739.957L651.739 819.954L673.283 832.742L669.665 739.957Z" fill="#070606"/>
<path d="M684.326 785.274L651.804 818.765L665.841 864.355L684.326 785.274Z" fill="#070606"/>
<path d="M652.005 738.561L640.971 827.05H663.039L652.005 738.561Z" fill="#070606"/>
<path d="M624.634 758.851L621.923 851.858L643.336 837.564L624.634 758.851Z" fill="#070606"/>
<path d="M612.971 776.399L621.718 866.701L640.226 834.522L612.971 776.399Z" fill="#070606"/>
<path d="M634.155 740.038L630.868 832.857L652.375 819.623L634.155 740.038Z" fill="#070606"/>
<path d="M644.811 754.77L626.885 834.767L648.43 847.555L644.811 754.77Z" fill="#070606"/>
<path d="M725.231 732.204L707.305 812.201L728.85 824.989L725.231 732.204Z" fill="#070606"/>
<path d="M739.892 777.521L707.37 811.012L721.407 856.602L739.892 777.521Z" fill="#070606"/>
<path d="M707.572 730.808L696.538 819.297H718.606L707.572 730.808Z" fill="#070606"/>
<path d="M680.2 751.097L677.49 844.104L698.902 829.811L680.2 751.097Z" fill="#070606"/>
<path d="M668.535 768.645L677.283 858.947L695.79 826.769L668.535 768.645Z" fill="#070606"/>
<path d="M689.721 732.285L686.435 825.104L707.942 811.87L689.721 732.285Z" fill="#070606"/>
<path d="M700.378 747.017L682.452 827.014L703.996 839.802L700.378 747.017Z" fill="#070606"/>
<path d="M791.137 752.879L773.211 832.876L794.756 845.664L791.137 752.879Z" fill="#070606"/>
<path d="M805.798 798.197L773.277 831.688L787.313 877.277L805.798 798.197Z" fill="#070606"/>
<path d="M773.478 751.483L762.444 839.972H784.512L773.478 751.483Z" fill="#070606"/>
<path d="M746.106 771.773L743.396 864.78L764.808 850.486L746.106 771.773Z" fill="#070606"/>
<path d="M734.444 789.321L743.191 879.623L761.698 847.444L734.444 789.321Z" fill="#070606"/>
<path d="M755.628 752.96L752.341 845.78L773.848 832.545L755.628 752.96Z" fill="#070606"/>
<path d="M766.284 767.692L748.358 847.689L769.903 860.477L766.284 767.692Z" fill="#070606"/>
<path d="M857.044 724.45L839.118 804.448L860.662 817.236L857.044 724.45Z" fill="#070606"/>
<path d="M871.704 769.768L839.183 803.259L853.22 848.848L871.704 769.768Z" fill="#070606"/>
<path d="M839.384 723.055L828.35 811.543H850.418L839.384 723.055Z" fill="#070606"/>
<path d="M812.013 743.344L809.302 836.351L830.715 822.058L812.013 743.344Z" fill="#070606"/>
<path d="M800.35 760.892L809.097 851.194L827.605 819.016L800.35 760.892Z" fill="#070606"/>
<path d="M821.534 724.532L818.247 817.351L839.754 804.117L821.534 724.532Z" fill="#070606"/>
<path d="M832.19 739.263L814.264 819.261L835.809 832.049L832.19 739.263Z" fill="#070606"/>
<path d="M926.825 764.511L908.899 844.508L930.444 857.296L926.825 764.511Z" fill="#070606"/>
<path d="M941.486 809.828L908.964 843.319L923.001 888.909L941.486 809.828Z" fill="#070606"/>
<path d="M909.165 763.115L898.132 851.603H920.199L909.165 763.115Z" fill="#070606"/>
<path d="M881.794 783.404L879.084 876.411L900.496 862.118L881.794 783.404Z" fill="#070606"/>
<path d="M870.131 800.952L878.878 891.254L897.386 859.076L870.131 800.952Z" fill="#070606"/>
<path d="M891.315 764.592L888.028 857.411L909.536 844.177L891.315 764.592Z" fill="#070606"/>
<path d="M901.971 779.324L884.045 859.321L905.59 872.109L901.971 779.324Z" fill="#070606"/>
<path d="M981.098 781.308L963.172 861.306L984.717 874.093L981.098 781.308Z" fill="#070606"/>
<path d="M995.759 826.626L963.238 860.117L977.274 905.706L995.759 826.626Z" fill="#070606"/>
<path d="M963.439 779.913L952.405 868.401H974.473L963.439 779.913Z" fill="#070606"/>
<path d="M936.067 800.202L933.357 893.209L954.769 878.916L936.067 800.202Z" fill="#070606"/>
<path d="M924.404 817.75L933.152 908.052L951.659 875.874L924.404 817.75Z" fill="#070606"/>
<path d="M945.589 781.39L942.302 874.209L963.809 860.975L945.589 781.39Z" fill="#070606"/>
<path d="M956.245 796.121L938.319 876.119L959.864 888.906L956.245 796.121Z" fill="#070606"/>
<path d="M1105.15 798.108L1087.23 878.106L1108.77 890.893L1105.15 798.108Z" fill="#070606"/>
<path d="M1119.81 843.426L1087.29 876.917L1101.33 922.506L1119.81 843.426Z" fill="#070606"/>
<path d="M1087.49 796.713L1076.46 885.201H1098.53L1087.49 796.713Z" fill="#070606"/>
<path d="M1060.12 817.002L1057.41 910.009L1078.82 895.716L1060.12 817.002Z" fill="#070606"/>
<path d="M1048.46 834.552L1057.21 924.854L1075.71 892.675L1048.46 834.552Z" fill="#070606"/>
<path d="M1069.64 798.19L1066.35 891.009L1087.86 877.775L1069.64 798.19Z" fill="#070606"/>
<path d="M1080.3 812.921L1062.37 892.919L1083.92 905.706L1080.3 812.921Z" fill="#070606"/>
<path d="M1171.06 781.308L1153.13 861.306L1174.68 874.093L1171.06 781.308Z" fill="#070606"/>
<path d="M1185.72 826.626L1153.2 860.117L1167.23 905.706L1185.72 826.626Z" fill="#070606"/>
<path d="M1153.4 779.913L1142.36 868.401H1164.43L1153.4 779.913Z" fill="#070606"/>
<path d="M1126.03 800.202L1123.32 893.209L1144.73 878.916L1126.03 800.202Z" fill="#070606"/>
<path d="M1114.36 817.75L1123.11 908.052L1141.62 875.874L1114.36 817.75Z" fill="#070606"/>
<path d="M1135.55 781.39L1132.26 874.209L1153.77 860.975L1135.55 781.39Z" fill="#070606"/>
<path d="M1146.2 796.121L1128.28 876.119L1149.82 888.906L1146.2 796.121Z" fill="#070606"/>
<path d="M1261.51 764.511L1243.59 844.508L1265.13 857.296L1261.51 764.511Z" fill="#070606"/>
<path d="M1276.18 809.828L1243.65 843.319L1257.69 888.909L1276.18 809.828Z" fill="#070606"/>
<path d="M1243.85 763.115L1232.82 851.603H1254.89L1243.85 763.115Z" fill="#070606"/>
<path d="M1216.48 783.404L1213.77 876.411L1235.19 862.118L1216.48 783.404Z" fill="#070606"/>
<path d="M1204.82 800.952L1213.57 891.254L1232.08 859.076L1204.82 800.952Z" fill="#070606"/>
<path d="M1226 764.592L1222.72 857.411L1244.23 844.177L1226 764.592Z" fill="#070606"/>
<path d="M1236.66 779.324L1218.73 859.321L1240.28 872.109L1236.66 779.324Z" fill="#070606"/>
<path d="M1349.39 739.957L1331.46 819.954L1353.01 832.742L1349.39 739.957Z" fill="#070606"/>
<path d="M1364.05 785.275L1331.53 818.766L1345.57 864.355L1364.05 785.275Z" fill="#070606"/>
<path d="M1331.73 738.561L1320.7 827.05H1342.76L1331.73 738.561Z" fill="#070606"/>
<path d="M1304.36 758.851L1301.65 851.858L1323.06 837.564L1304.36 758.851Z" fill="#070606"/>
<path d="M1292.7 776.399L1301.44 866.701L1319.95 834.522L1292.7 776.399Z" fill="#070606"/>
<path d="M1313.88 740.038L1310.59 832.857L1332.1 819.623L1313.88 740.038Z" fill="#070606"/>
<path d="M1324.54 754.77L1306.61 834.767L1328.15 847.555L1324.54 754.77Z" fill="#070606"/>
<path d="M1562.61 772.264L1544.69 852.261L1566.23 865.049L1562.61 772.264Z" fill="#070606"/>
<path d="M1577.27 817.581L1544.75 851.072L1558.79 896.662L1577.27 817.581Z" fill="#070606"/>
<path d="M1544.95 770.868L1533.92 859.357H1555.99L1544.95 770.868Z" fill="#070606"/>
<path d="M1517.58 791.158L1514.87 884.164L1536.28 869.871L1517.58 791.158Z" fill="#070606"/>
<path d="M1505.92 808.706L1514.67 899.008L1533.17 866.829L1505.92 808.706Z" fill="#070606"/>
<path d="M1527.1 772.345L1523.82 865.164L1545.32 851.93L1527.1 772.345Z" fill="#070606"/>
<path d="M1537.76 787.077L1519.83 867.074L1541.38 879.862L1537.76 787.077Z" fill="#070606"/>
<path d="M1517.38 767.095L1499.46 847.092L1521 859.88L1517.38 767.095Z" fill="#070606"/>
<path d="M1532.04 812.412L1499.52 845.903L1513.56 891.493L1532.04 812.412Z" fill="#070606"/>
<path d="M1499.72 765.699L1488.69 854.187H1510.76L1499.72 765.699Z" fill="#070606"/>
<path d="M1472.35 785.988L1469.64 878.995L1491.05 864.702L1472.35 785.988Z" fill="#070606"/>
<path d="M1460.69 803.536L1469.44 893.839L1487.94 861.66L1460.69 803.536Z" fill="#070606"/>
<path d="M1481.87 767.176L1478.59 859.995L1500.09 846.761L1481.87 767.176Z" fill="#070606"/>
<path d="M1492.53 781.907L1474.6 861.905L1496.15 874.693L1492.53 781.907Z" fill="#070606"/>
<path d="M1293.82 781.309L1275.9 861.306L1297.44 874.094L1293.82 781.309Z" fill="#070606"/>
<path d="M1308.48 826.626L1275.96 860.117L1290 905.707L1308.48 826.626Z" fill="#070606"/>
<path d="M1276.16 779.913L1265.13 868.402H1287.2L1276.16 779.913Z" fill="#070606"/>
<path d="M1248.79 800.202L1246.08 893.209L1267.49 878.916L1248.79 800.202Z" fill="#070606"/>
<path d="M1237.13 817.75L1245.87 908.052L1264.38 875.874L1237.13 817.75Z" fill="#070606"/>
<path d="M1258.31 781.39L1255.02 874.209L1276.53 860.975L1258.31 781.39Z" fill="#070606"/>
<path d="M1268.97 796.122L1251.04 876.119L1272.59 888.907L1268.97 796.122Z" fill="#070606"/>
<path d="M1220.16 794.232L1202.24 874.229L1223.78 887.017L1220.16 794.232Z" fill="#070606"/>
<path d="M1234.83 839.549L1202.3 873.04L1216.34 918.63L1234.83 839.549Z" fill="#070606"/>
<path d="M1202.51 792.836L1191.47 881.325H1213.54L1202.51 792.836Z" fill="#070606"/>
<path d="M1175.13 813.126L1172.42 906.132L1193.84 891.839L1175.13 813.126Z" fill="#070606"/>
<path d="M1163.47 830.674L1172.22 920.976L1190.73 888.797L1163.47 830.674Z" fill="#070606"/>
<path d="M1184.66 794.313L1181.37 887.132L1202.88 873.898L1184.66 794.313Z" fill="#070606"/>
<path d="M1195.31 809.045L1177.39 889.042L1198.93 901.83L1195.31 809.045Z" fill="#070606"/>
<path d="M1065.1 781.309L1047.17 861.306L1068.72 874.094L1065.1 781.309Z" fill="#070606"/>
<path d="M1079.76 826.627L1047.24 860.118L1061.27 905.707L1079.76 826.627Z" fill="#070606"/>
<path d="M1047.44 779.913L1036.4 868.402H1058.47L1047.44 779.913Z" fill="#070606"/>
<path d="M1020.07 800.203L1017.36 893.21L1038.77 878.916L1020.07 800.203Z" fill="#070606"/>
<path d="M1008.4 817.75L1017.15 908.053L1035.66 875.874L1008.4 817.75Z" fill="#070606"/>
<path d="M1029.59 781.39L1026.3 874.21L1047.81 860.975L1029.59 781.39Z" fill="#070606"/>
<path d="M1040.24 796.122L1022.32 876.119L1043.86 888.907L1040.24 796.122Z" fill="#070606"/>
<path d="M899.686 769.678L881.76 849.676L903.305 862.464L899.686 769.678Z" fill="#070606"/>
<path d="M914.347 814.996L881.826 848.487L895.862 894.077L914.347 814.996Z" fill="#070606"/>
<path d="M882.027 768.283L870.993 856.771H893.061L882.027 768.283Z" fill="#070606"/>
<path d="M854.655 788.572L851.945 881.579L873.357 867.286L854.655 788.572Z" fill="#070606"/>
<path d="M842.992 806.12L851.74 896.422L870.247 864.244L842.992 806.12Z" fill="#070606"/>
<path d="M864.177 769.76L860.89 862.579L882.397 849.345L864.177 769.76Z" fill="#070606"/>
<path d="M874.833 784.491L856.907 864.489L878.451 877.277L874.833 784.491Z" fill="#070606"/>
<path d="M801.473 737.372L783.547 817.37L805.092 830.157L801.473 737.372Z" fill="#070606"/>
<path d="M816.134 782.69L783.613 816.181L797.649 861.77L816.134 782.69Z" fill="#070606"/>
<path d="M783.814 735.977L772.78 824.465H794.848L783.814 735.977Z" fill="#070606"/>
<path d="M756.442 756.266L753.732 849.273L775.144 834.98L756.442 756.266Z" fill="#070606"/>
<path d="M744.779 773.814L753.527 864.116L772.034 831.938L744.779 773.814Z" fill="#070606"/>
<path d="M765.964 737.454L762.677 830.273L784.184 817.039L765.964 737.454Z" fill="#070606"/>
<path d="M776.62 752.185L758.694 832.183L780.239 844.97L776.62 752.185Z" fill="#070606"/>
<path d="M780.799 727.034L762.874 807.031L784.418 819.819L780.799 727.034Z" fill="#070606"/>
<path d="M795.46 772.351L762.939 805.842L776.976 851.432L795.46 772.351Z" fill="#070606"/>
<path d="M763.14 725.638L752.106 814.127H774.174L763.14 725.638Z" fill="#070606"/>
<path d="M735.768 745.928L733.058 838.934L754.47 824.641L735.768 745.928Z" fill="#070606"/>
<path d="M724.106 763.476L732.853 853.778L751.36 821.599L724.106 763.476Z" fill="#070606"/>
<path d="M745.29 727.115L742.003 819.934L763.51 806.7L745.29 727.115Z" fill="#070606"/>
<path d="M755.946 741.847L738.02 821.844L759.565 834.632L755.946 741.847Z" fill="#070606"/>
<path d="M1483.78 739.957L1465.86 819.954L1487.4 832.742L1483.78 739.957Z" fill="#070606"/>
<path d="M1498.44 785.274L1465.92 818.765L1479.96 864.355L1498.44 785.274Z" fill="#070606"/>
<path d="M1466.12 738.561L1455.09 827.05H1477.16L1466.12 738.561Z" fill="#070606"/>
<path d="M1438.75 758.851L1436.04 851.858L1457.45 837.564L1438.75 758.851Z" fill="#070606"/>
<path d="M1427.09 776.399L1435.84 866.701L1454.34 834.522L1427.09 776.399Z" fill="#070606"/>
<path d="M1448.27 740.038L1444.99 832.857L1466.49 819.623L1448.27 740.038Z" fill="#070606"/>
<path d="M1458.93 754.77L1441 834.767L1462.55 847.555L1458.93 754.77Z" fill="#070606"/>
<path d="M1415.29 756.757L1397.37 836.754L1418.91 849.542L1415.29 756.757Z" fill="#070606"/>
<path d="M1429.95 802.075L1397.43 835.566L1411.47 881.155L1429.95 802.075Z" fill="#070606"/>
<path d="M1397.63 755.361L1386.6 843.85H1408.67L1397.63 755.361Z" fill="#070606"/>
<path d="M1370.26 775.651L1367.55 868.658L1388.96 854.364L1370.26 775.651Z" fill="#070606"/>
<path d="M1358.6 793.199L1367.35 883.501L1385.85 851.322L1358.6 793.199Z" fill="#070606"/>
<path d="M1379.78 756.838L1376.5 849.658L1398 836.423L1379.78 756.838Z" fill="#070606"/>
<path d="M1390.44 771.57L1372.51 851.567L1394.06 864.355L1390.44 771.57Z" fill="#070606"/>
<path d="M1142.63 796.815L1124.7 876.813L1146.25 889.601L1142.63 796.815Z" fill="#070606"/>
<path d="M1157.29 842.133L1124.77 875.624L1138.81 921.213L1157.29 842.133Z" fill="#070606"/>
<path d="M1124.97 795.42L1113.94 883.908H1136L1124.97 795.42Z" fill="#070606"/>
<path d="M1097.6 815.709L1094.89 908.716L1116.3 894.423L1097.6 815.709Z" fill="#070606"/>
<path d="M1085.94 833.257L1094.68 923.559L1113.19 891.381L1085.94 833.257Z" fill="#070606"/>
<path d="M1107.12 796.897L1103.83 889.716L1125.34 876.482L1107.12 796.897Z" fill="#070606"/>
<path d="M1117.78 811.628L1099.85 891.626L1121.39 904.414L1117.78 811.628Z" fill="#070606"/>
<path d="M1031.49 780.017L1013.57 860.015L1035.11 872.802L1031.49 780.017Z" fill="#070606"/>
<path d="M1046.16 825.335L1013.63 858.826L1027.67 904.415L1046.16 825.335Z" fill="#070606"/>
<path d="M1013.84 778.622L1002.8 867.11H1024.87L1013.84 778.622Z" fill="#070606"/>
<path d="M986.464 798.911L983.753 891.918L1005.17 877.625L986.464 798.911Z" fill="#070606"/>
<path d="M974.803 816.459L983.55 906.761L1002.06 874.582L974.803 816.459Z" fill="#070606"/>
<path d="M995.985 780.099L992.698 872.918L1014.21 859.684L995.985 780.099Z" fill="#070606"/>
<path d="M1006.64 794.83L988.715 874.828L1010.26 887.615L1006.64 794.83Z" fill="#070606"/>
<path d="M1023.74 759.34L1005.81 839.338L1027.36 852.125L1023.74 759.34Z" fill="#070606"/>
<path d="M1038.4 804.658L1005.88 838.149L1019.92 883.738L1038.4 804.658Z" fill="#070606"/>
<path d="M1006.08 757.945L995.048 846.433H1017.12L1006.08 757.945Z" fill="#070606"/>
<path d="M978.71 778.234L976 871.241L997.412 856.948L978.71 778.234Z" fill="#070606"/>
<path d="M967.047 795.782L975.794 886.084L994.302 853.906L967.047 795.782Z" fill="#070606"/>
<path d="M988.231 759.422L984.944 852.241L1006.45 839.007L988.231 759.422Z" fill="#070606"/>
<path d="M998.887 774.153L980.961 854.151L1002.51 866.938L998.887 774.153Z" fill="#070606"/>
<path d="M568.868 702.482L550.942 782.479L572.487 795.267L568.868 702.482Z" fill="#070606"/>
<path d="M583.529 747.8L551.007 781.291L565.044 826.88L583.529 747.8Z" fill="#070606"/>
<path d="M551.208 701.086L540.175 789.575H562.242L551.208 701.086Z" fill="#070606"/>
<path d="M523.837 721.376L521.127 814.383L542.539 800.089L523.837 721.376Z" fill="#070606"/>
<path d="M512.174 738.924L520.921 829.226L539.429 797.047L512.174 738.924Z" fill="#070606"/>
<path d="M533.358 702.563L530.071 795.383L551.579 782.148L533.358 702.563Z" fill="#070606"/>
<path d="M544.014 717.295L526.088 797.292L547.633 810.08L544.014 717.295Z" fill="#070606"/>
<path d="M624.436 739.957L606.51 819.954L628.055 832.742L624.436 739.957Z" fill="#070606"/>
<path d="M639.097 785.274L606.576 818.765L620.612 864.355L639.097 785.274Z" fill="#070606"/>
<path d="M606.777 738.561L595.743 827.05H617.811L606.777 738.561Z" fill="#070606"/>
<path d="M579.405 758.851L576.695 851.858L598.107 837.564L579.405 758.851Z" fill="#070606"/>
<path d="M567.742 776.399L576.49 866.701L594.997 834.522L567.742 776.399Z" fill="#070606"/>
<path d="M588.927 740.038L585.64 832.857L607.147 819.623L588.927 740.038Z" fill="#070606"/>
<path d="M599.583 754.77L581.657 834.767L603.201 847.555L599.583 754.77Z" fill="#070606"/>
<path d="M353.065 703.774L335.139 783.771L356.684 796.559L353.065 703.774Z" fill="#070606"/>
<path d="M367.726 749.091L335.204 782.582L349.241 828.172L367.726 749.091Z" fill="#070606"/>
<path d="M335.406 702.378L324.372 790.867H346.44L335.406 702.378Z" fill="#070606"/>
<path d="M308.034 722.668L305.324 815.674L326.736 801.381L308.034 722.668Z" fill="#070606"/>
<path d="M296.371 740.216L305.118 830.518L323.626 798.339L296.371 740.216Z" fill="#070606"/>
<path d="M317.555 703.855L314.269 796.674L335.776 783.44L317.555 703.855Z" fill="#070606"/>
<path d="M328.212 718.587L310.286 798.584L331.83 811.372L328.212 718.587Z" fill="#070606"/>
<path d="M353.063 689.559L335.137 769.556L356.682 782.344L353.063 689.559Z" fill="#070606"/>
<path d="M367.724 734.876L335.202 768.367L349.239 813.957L367.724 734.876Z" fill="#070606"/>
<path d="M335.404 688.162L324.37 776.651H346.438L335.404 688.162Z" fill="#070606"/>
<path d="M308.032 708.452L305.322 801.459L326.734 787.166L308.032 708.452Z" fill="#070606"/>
<path d="M296.369 726L305.117 816.303L323.624 784.124L296.369 726Z" fill="#070606"/>
<path d="M317.553 689.64L314.267 782.459L335.774 769.225L317.553 689.64Z" fill="#070606"/>
<path d="M328.21 704.372L310.284 784.369L331.828 797.157L328.21 704.372Z" fill="#070606"/>
<path d="M267.774 666.298L249.848 746.295L271.393 759.083L267.774 666.298Z" fill="#070606"/>
<path d="M282.435 711.616L249.913 745.107L263.95 790.696L282.435 711.616Z" fill="#070606"/>
<path d="M250.115 664.902L239.081 753.39H261.149L250.115 664.902Z" fill="#070606"/>
<path d="M222.743 685.192L220.033 778.199L241.445 763.905L222.743 685.192Z" fill="#070606"/>
<path d="M211.08 702.74L219.827 793.042L238.335 760.863L211.08 702.74Z" fill="#070606"/>
<path d="M232.264 666.379L228.978 759.199L250.485 745.964L232.264 666.379Z" fill="#070606"/>
<path d="M242.921 681.111L224.995 761.108L246.539 773.896L242.921 681.111Z" fill="#070606"/>
<path d="M166.979 670.175L149.053 750.172L170.598 762.96L166.979 670.175Z" fill="#070606"/>
<path d="M181.64 715.493L149.118 748.984L163.155 794.573L181.64 715.493Z" fill="#070606"/>
<path d="M149.32 668.779L138.286 757.268H160.354L149.32 668.779Z" fill="#070606"/>
<path d="M121.948 689.069L119.238 782.076L140.65 767.782L121.948 689.069Z" fill="#070606"/>
<path d="M110.285 706.617L119.033 796.919L137.54 764.74L110.285 706.617Z" fill="#070606"/>
<path d="M131.469 670.256L128.183 763.075L149.69 749.841L131.469 670.256Z" fill="#070606"/>
<path d="M142.126 684.988L124.2 764.985L145.744 777.773L142.126 684.988Z" fill="#070606"/>
<path d="M90.735 694.729L72.8091 774.726L94.3538 787.514L90.735 694.729Z" fill="#070606"/>
<path d="M105.396 740.046L72.8743 773.537L86.9111 819.127L105.396 740.046Z" fill="#070606"/>
<path d="M73.0756 693.333L62.0417 781.822H84.1095L73.0756 693.333Z" fill="#070606"/>
<path d="M45.704 713.622L42.9937 806.629L64.406 792.336L45.704 713.622Z" fill="#070606"/>
<path d="M34.0432 731.17L42.7903 821.473L61.2979 789.294L34.0432 731.17Z" fill="#070606"/>
<path d="M55.2253 694.81L51.9385 787.629L73.4458 774.395L55.2253 694.81Z" fill="#070606"/>
<path d="M65.8835 709.542L47.9575 789.539L69.5022 802.327L65.8835 709.542Z" fill="#070606"/>
<path d="M519.764 714.112L501.838 794.109L523.383 806.897L519.764 714.112Z" fill="#070606"/>
<path d="M534.425 759.43L501.904 792.921L515.94 838.51L534.425 759.43Z" fill="#070606"/>
<path d="M502.105 712.716L491.071 801.205H513.139L502.105 712.716Z" fill="#070606"/>
<path d="M474.733 733.006L472.023 826.013L493.435 811.719L474.733 733.006Z" fill="#070606"/>
<path d="M463.071 750.554L471.818 840.856L490.325 808.677L463.071 750.554Z" fill="#070606"/>
<path d="M484.255 714.193L480.968 807.012L502.475 793.778L484.255 714.193Z" fill="#070606"/>
<path d="M494.911 728.925L476.985 808.922L498.53 821.71L494.911 728.925Z" fill="#070606"/>
<path d="M682.589 719.28L664.663 799.277L686.207 812.065L682.589 719.28Z" fill="#070606"/>
<path d="M697.249 764.597L664.728 798.088L678.765 843.678L697.249 764.597Z" fill="#070606"/>
<path d="M664.929 717.884L653.895 806.373H675.963L664.929 717.884Z" fill="#070606"/>
<path d="M637.558 738.173L634.847 831.18L656.259 816.887L637.558 738.173Z" fill="#070606"/>
<path d="M625.895 755.722L634.642 846.024L653.149 813.846L625.895 755.722Z" fill="#070606"/>
<path d="M647.079 719.361L643.792 812.18L665.299 798.946L647.079 719.361Z" fill="#070606"/>
<path d="M657.735 734.093L639.809 814.09L661.354 826.878L657.735 734.093Z" fill="#070606"/>
<path d="M648.987 711.527L631.061 791.524L652.606 804.312L648.987 711.527Z" fill="#070606"/>
<path d="M663.648 756.844L631.126 790.335L645.163 835.925L663.648 756.844Z" fill="#070606"/>
<path d="M631.328 710.131L620.294 798.62H642.361L631.328 710.131Z" fill="#070606"/>
<path d="M603.956 730.42L601.246 823.427L622.658 809.134L603.956 730.42Z" fill="#070606"/>
<path d="M592.293 747.968L601.04 838.27L619.548 806.092L592.293 747.968Z" fill="#070606"/>
<path d="M613.477 711.608L610.19 804.427L631.698 791.193L613.477 711.608Z" fill="#070606"/>
<path d="M624.133 726.34L606.208 806.337L627.752 819.125L624.133 726.34Z" fill="#070606"/>
<path d="M730.403 732.204L712.477 812.201L734.022 824.989L730.403 732.204Z" fill="#070606"/>
<path d="M745.064 777.521L712.542 811.012L726.579 856.602L745.064 777.521Z" fill="#070606"/>
<path d="M712.744 730.808L701.71 819.297H723.777L712.744 730.808Z" fill="#070606"/>
<path d="M685.372 751.097L682.662 844.104L704.074 829.811L685.372 751.097Z" fill="#070606"/>
<path d="M673.709 768.645L682.456 858.947L700.964 826.769L673.709 768.645Z" fill="#070606"/>
<path d="M694.893 732.285L691.606 825.104L713.114 811.87L694.893 732.285Z" fill="#070606"/>
<path d="M705.549 747.017L687.624 827.014L709.168 839.802L705.549 747.017Z" fill="#070606"/>
</g>
</g>
<defs>
<linearGradient id="paint0_linear" x1="989.005" y1="-44.0287" x2="984.993" y2="507.73" gradientUnits="userSpaceOnUse">
<stop stop-color="#557C99"/>
<stop offset="0.197099" stop-color="#86B2D3"/>
<stop offset="0.50737" stop-color="#CBD7D8"/>
<stop offset="1" stop-color="#BECED6"/>
</linearGradient>
<linearGradient id="paint1_linear" x1="551.58" y1="87.8729" x2="550.934" y2="558.898" gradientUnits="userSpaceOnUse">
<stop stop-color="#718DD3"/>
<stop offset="0.443093" stop-color="#BED1DA" stop-opacity="0"/>
<stop offset="1" stop-color="#C2D0D9"/>
</linearGradient>
<linearGradient id="paint2_linear" x1="1116.09" y1="253.813" x2="1119.55" y2="724.826" gradientUnits="userSpaceOnUse">
<stop stop-color="#718DD3"/>
<stop offset="0.265461" stop-color="#BED1DA" stop-opacity="0"/>
<stop offset="1" stop-color="#C2D0D9"/>
</linearGradient>
<linearGradient id="paint3_linear" x1="716.988" y1="137.625" x2="807.54" y2="685.675" gradientUnits="userSpaceOnUse">
<stop offset="0.264036" stop-color="#5080A2"/>
<stop offset="0.460477" stop-color="#80A4B9"/>
<stop offset="0.95725" stop-color="#C6CFCA"/>
</linearGradient>
<linearGradient id="paint4_linear" x1="695.02" y1="485.24" x2="865.667" y2="1438.63" gradientUnits="userSpaceOnUse">
<stop stop-color="#3C5168"/>
<stop offset="0.180685" stop-color="#6C7266"/>
<stop offset="0.51559" stop-color="#8E846A" stop-opacity="0.58"/>
</linearGradient>
<linearGradient id="paint5_linear" x1="1465.2" y1="770.182" x2="607.792" y2="907.16" gradientUnits="userSpaceOnUse">
<stop offset="0.228791" stop-color="#3B2F19"/>
<stop offset="1" stop-color="#887449"/>
</linearGradient>
<linearGradient id="paint6_linear" x1="169.775" y1="708.726" x2="152.907" y2="1675.12" gradientUnits="userSpaceOnUse">
<stop stop-color="#060606"/>
<stop offset="1" stop-color="#0B0804"/>
</linearGradient>
<clipPath id="clip0">
<rect width="1550" height="875" fill="white"/>
</clipPath>
<clipPath id="clip1">
<rect width="1555.66" height="875" fill="white" transform="matrix(-1 0 0 1 1555.66 0)"/>
</clipPath>
</defs>
</svg>
