<svg width="480" height="565" viewBox="0 0 480 565" fill="none" xmlns="http://www.w3.org/2000/svg">
<g clip-path="url(#clip0)">
<rect width="480" height="565" fill="white"/>
<g clip-path="url(#clip1)">
<rect width="1294.62" height="728.178" transform="matrix(-1 0 0 1 1255.62 -49)" fill="url(#paint0_linear)"/>
<path d="M1070.59 184.637L770.011 195.928L707.099 179.259L639.886 160.977H603.86L579.125 146.459L556.541 152.374L528.581 134.092L502.233 124.413L463.518 134.092L444.16 124.413L395.767 134.092L322.101 124.413L233.379 113.121L198.966 98.0656L170.467 103.443L141.431 90L122.611 98.0656L99.4899 90L66.152 113.121L48.9454 108.282L18.8337 118.499L-40.3141 144.308L-66.124 139.469L-98.9242 151.299H-117.206L-155.384 160.977L-242.492 151.299L-264 434.671H1026.5L1070.59 184.637Z" fill="url(#paint1_linear)"/>
<path d="M1557.78 298.354L1257.31 312.268L1194.26 296.149L1126.89 278.454L1090.86 278.769L1066 264.467L1043.47 270.579L1015.35 252.541L988.92 243.093L950.291 253.109L930.85 243.599L882.542 253.7L808.795 244.665L719.978 234.147L685.435 219.393L656.984 225.018L627.832 211.829L609.083 220.059L585.892 212.195L552.757 235.607L535.509 230.918L505.488 241.397L446.567 267.722L420.716 263.108L388.021 275.223L369.739 275.383L331.648 285.394L223.542 344.412L225.423 560.025L1515.87 548.763L1557.78 298.354Z" fill="url(#paint2_linear)"/>
<path d="M1375.4 31.6269L1334.07 48.6994L1321.43 31.6269L1304.76 37.3758L1262.82 70.1031L1247.77 64.7989L1239.16 70.1031L1230.56 64.7989L1213.89 70.1031L1195.07 64.7989L1102.59 37.3756L993.97 101.9L986.98 113.192L980.527 130.399L861.156 169.652L850.402 165.35L816.526 176.104L796.094 185.783L731.569 185.783L700.919 204.065L674.034 212.131L631.555 236.327L607.896 242.78L574.02 239.554L519.712 250.845L420.236 223.96L353.56 242.78L307.854 242.78L212.68 278.269L154.07 282.57L110.515 300.315L84.1677 305.692L18.0296 339.567L-56.1741 370.754L-105.105 384.735L-143.283 384.735L-84.6726 671.333L1431.95 258.451L1375.4 31.6269Z" fill="url(#paint3_linear)"/>
<path d="M83.7866 372.23C74.3989 372.23 65.1292 374.32 56.6499 378.348L-342.122 567.795L-513.087 623.398C-517.038 624.683 -520.853 626.354 -524.476 628.387L-2506.98 1740.91C-2571.58 1777.16 -2531.91 1875.83 -2460.19 1857.28L3099.73 419.385C3169.08 401.45 3159.88 300.214 3088.43 295.083L1176.18 157.746C1169.18 157.243 1162.15 157.908 1155.37 159.713L859.824 238.425C855.067 239.691 850.475 241.509 846.14 243.841L617.552 366.806C610.884 370.393 603.627 372.753 596.126 373.775L420.399 397.703C414.303 398.533 408.119 398.469 402.041 397.514L246.173 372.998C242.923 372.487 239.638 372.23 236.348 372.23L83.7866 372.23Z" fill="url(#paint4_linear)"/>
<path d="M1330.38 428.655C1320.51 426.102 1310.16 425.974 1300.23 428.282L1121.19 469.888L646.954 640.508C642.298 642.183 637.461 643.306 632.543 643.854L374.319 672.604L-1461.77 1104.32C-1534.88 1121.51 -1522.4 1229.12 -1447.3 1229.12L4237.23 1229.12C4308.86 1229.12 4325.3 1128.81 4257.41 1105.95L2443.81 495.328C2434.99 492.358 2425.62 491.371 2416.37 492.439L1847.85 558.107C1840.12 559 1832.29 558.459 1824.76 556.511L1330.38 428.655Z" fill="url(#paint5_linear)"/>
<path d="M35.4294 490.037C27.8349 488.952 20.1062 489.259 12.6214 490.941L-2922.13 1150.54C-2995.12 1166.94 -2984.17 1274.16 -2909.36 1275.47L3069.67 1379.83C3141.29 1381.08 3159.48 1281.07 3092 1257.03L1198.16 582.369C1189.15 579.157 1179.52 578.033 1170.01 579.083L889.654 610.019C884.372 610.602 879.037 610.516 873.777 609.765L35.4294 490.037Z" fill="url(#paint6_linear)"/>
<path d="M51.7722 447.124L36.2275 516.494L54.9102 527.583L51.7722 447.124Z" fill="#070606"/>
<path d="M64.4841 486.422L36.2828 515.464L48.4549 554.997L64.4841 486.422Z" fill="#070606"/>
<path d="M36.4575 445.914L26.8894 522.648H46.0257L36.4575 445.914Z" fill="#070606"/>
<path d="M12.7213 463.508L10.371 544.16L28.9388 531.766L12.7213 463.508Z" fill="#070606"/>
<path d="M2.6091 478.724L10.1943 557.031L26.2433 529.127L2.6091 478.724Z" fill="#070606"/>
<path d="M20.9784 447.195L18.1281 527.684L36.7784 516.207L20.9784 447.195Z" fill="#070606"/>
<path d="M30.2194 459.971L14.6748 529.341L33.3575 540.43L30.2194 459.971Z" fill="#070606"/>
<path d="M148.141 432.555L132.597 501.925L151.279 513.014L148.141 432.555Z" fill="#070606"/>
<path d="M160.855 471.853L132.654 500.895L144.826 540.428L160.855 471.853Z" fill="#070606"/>
<path d="M132.829 431.345L123.261 508.079H142.397L132.829 431.345Z" fill="#070606"/>
<path d="M109.09 448.939L106.74 529.591L125.308 517.197L109.09 448.939Z" fill="#070606"/>
<path d="M98.9782 464.155L106.563 542.462L122.612 514.558L98.9782 464.155Z" fill="#070606"/>
<path d="M117.349 432.626L114.499 513.115L133.149 501.639L117.349 432.626Z" fill="#070606"/>
<path d="M126.591 445.402L111.046 514.772L129.729 525.861L126.591 445.402Z" fill="#070606"/>
<path d="M217.618 491.946L202.073 561.316L220.756 572.405L217.618 491.946Z" fill="#070606"/>
<path d="M230.332 531.244L202.13 560.286L214.303 599.819L230.332 531.244Z" fill="#070606"/>
<path d="M202.305 490.736L192.737 567.47H211.873L202.305 490.736Z" fill="#070606"/>
<path d="M178.567 508.33L176.217 588.982L194.785 576.587L178.567 508.33Z" fill="#070606"/>
<path d="M168.455 523.546L176.04 601.852L192.089 573.948L168.455 523.546Z" fill="#070606"/>
<path d="M186.826 492.016L183.976 572.505L202.626 561.029L186.826 492.016Z" fill="#070606"/>
<path d="M196.067 504.793L180.522 574.163L199.205 585.252L196.067 504.793Z" fill="#070606"/>
<path d="M102.198 485.222L86.6533 554.592L105.336 565.681L102.198 485.222Z" fill="#070606"/>
<path d="M114.912 524.52L86.7105 553.562L98.8827 593.095L114.912 524.52Z" fill="#070606"/>
<path d="M86.8853 484.012L77.3171 560.746H96.4534L86.8853 484.012Z" fill="#070606"/>
<path d="M63.147 501.606L60.7968 582.258L79.3646 569.863L63.147 501.606Z" fill="#070606"/>
<path d="M53.0349 516.822L60.6201 595.128L76.6691 567.224L53.0349 516.822Z" fill="#070606"/>
<path d="M71.4061 485.293L68.5559 565.782L87.2061 554.305L71.4061 485.293Z" fill="#070606"/>
<path d="M80.6472 498.068L65.1025 567.439L83.7852 578.528L80.6472 498.068Z" fill="#070606"/>
<path d="M2.85326 499.867L-25.3481 528.909L-13.1759 568.442L2.85326 499.867Z" fill="#070606"/>
<path d="M70.821 456.087L55.2764 525.457L73.959 536.546L70.821 456.087Z" fill="#070606"/>
<path d="M83.5349 495.385L55.3336 524.427L67.5057 563.96L83.5349 495.385Z" fill="#070606"/>
<path d="M55.5083 454.877L45.9402 531.611H65.0764L55.5083 454.877Z" fill="#070606"/>
<path d="M31.7701 472.471L29.4198 553.123L47.9876 540.729L31.7701 472.471Z" fill="#070606"/>
<path d="M21.6579 487.687L29.2431 565.994L45.2921 538.09L21.6579 487.687Z" fill="#070606"/>
<path d="M40.0292 456.158L37.1789 536.647L55.8292 525.171L40.0292 456.158Z" fill="#070606"/>
<path d="M49.2702 468.934L33.7256 538.304L52.4082 549.393L49.2702 468.934Z" fill="#070606"/>
<path d="M252.356 470.654L236.812 540.025L255.494 551.114L252.356 470.654Z" fill="#070606"/>
<path d="M265.07 509.952L236.869 538.994L249.041 578.528L265.07 509.952Z" fill="#070606"/>
<path d="M237.043 469.445L227.475 546.179H246.612L237.043 469.445Z" fill="#070606"/>
<path d="M213.305 487.039L210.955 567.691L229.523 555.296L213.305 487.039Z" fill="#070606"/>
<path d="M203.193 502.255L210.778 580.561L226.827 552.657L203.193 502.255Z" fill="#070606"/>
<path d="M221.564 470.725L218.714 551.214L237.364 539.738L221.564 470.725Z" fill="#070606"/>
<path d="M230.805 483.501L215.261 552.872L233.943 563.961L230.805 483.501Z" fill="#070606"/>
<path d="M291.579 477.377L276.034 546.747L294.717 557.836L291.579 477.377Z" fill="#070606"/>
<path d="M304.291 516.675L276.089 545.717L288.262 585.25L304.291 516.675Z" fill="#070606"/>
<path d="M276.264 476.167L266.696 552.901H285.832L276.264 476.167Z" fill="#070606"/>
<path d="M252.528 493.762L250.178 574.413L268.745 562.019L252.528 493.762Z" fill="#070606"/>
<path d="M242.416 508.977L250.001 587.284L266.05 559.38L242.416 508.977Z" fill="#070606"/>
<path d="M260.785 477.448L257.935 557.937L276.585 546.461L260.785 477.448Z" fill="#070606"/>
<path d="M270.026 490.224L254.481 559.594L273.164 570.683L270.026 490.224Z" fill="#070606"/>
<path d="M387.95 508.756L372.405 578.126L391.088 589.215L387.95 508.756Z" fill="#070606"/>
<path d="M400.664 548.054L372.462 577.096L384.635 616.629L400.664 548.054Z" fill="#070606"/>
<path d="M372.637 507.546L363.069 584.28H382.205L372.637 507.546Z" fill="#070606"/>
<path d="M348.899 525.14L346.549 605.792L365.117 593.398L348.899 525.14Z" fill="#070606"/>
<path d="M338.787 540.356L346.372 618.662L362.421 590.758L338.787 540.356Z" fill="#070606"/>
<path d="M357.158 508.827L354.308 589.316L372.958 577.84L357.158 508.827Z" fill="#070606"/>
<path d="M366.399 521.603L350.854 590.973L369.537 602.062L366.399 521.603Z" fill="#070606"/>
<path d="M213.139 441.52L197.595 510.89L216.277 521.979L213.139 441.52Z" fill="#070606"/>
<path d="M225.853 480.818L197.652 509.86L209.824 549.393L225.853 480.818Z" fill="#070606"/>
<path d="M197.827 440.31L188.259 517.044H207.395L197.827 440.31Z" fill="#070606"/>
<path d="M174.088 457.904L171.738 538.556L190.306 526.162L174.088 457.904Z" fill="#070606"/>
<path d="M163.976 473.12L171.561 551.427L187.61 523.523L163.976 473.12Z" fill="#070606"/>
<path d="M182.348 441.591L179.497 522.08L198.148 510.603L182.348 441.591Z" fill="#070606"/>
<path d="M191.589 454.367L176.044 523.737L194.727 534.826L191.589 454.367Z" fill="#070606"/>
<path d="M457.425 515.48L441.88 584.85L460.563 595.939L457.425 515.48Z" fill="#070606"/>
<path d="M470.136 554.778L441.935 583.82L454.107 623.353L470.136 554.778Z" fill="#070606"/>
<path d="M442.11 514.27L432.542 591.004H451.678L442.11 514.27Z" fill="#070606"/>
<path d="M418.374 531.864L416.023 612.516L434.591 600.121L418.374 531.864Z" fill="#070606"/>
<path d="M408.261 547.08L415.847 625.386L431.896 597.482L408.261 547.08Z" fill="#070606"/>
<path d="M426.631 515.551L423.78 596.04L442.431 584.563L426.631 515.551Z" fill="#070606"/>
<path d="M435.872 528.327L420.327 597.697L439.01 608.786L435.872 528.327Z" fill="#070606"/>
<path d="M466.561 525.14L464.211 605.792L482.779 593.398L466.561 525.14Z" fill="#070606"/>
<path d="M456.449 540.356L464.034 618.662L480.083 590.758L456.449 540.356Z" fill="#070606"/>
<path d="M474.818 508.827L471.968 589.316L490.618 577.84L474.818 508.827Z" fill="#070606"/>
<path d="M484.059 521.603L468.515 590.973L487.197 602.062L484.059 521.603Z" fill="#070606"/>
<path d="M370.018 482.982L354.474 552.352L373.156 563.441L370.018 482.982Z" fill="#070606"/>
<path d="M382.732 522.28L354.531 551.322L366.703 590.856L382.732 522.28Z" fill="#070606"/>
<path d="M354.706 481.773L345.137 558.507H364.274L354.706 481.773Z" fill="#070606"/>
<path d="M330.967 499.367L328.617 580.019L347.185 567.624L330.967 499.367Z" fill="#070606"/>
<path d="M320.855 514.583L328.44 592.889L344.489 564.985L320.855 514.583Z" fill="#070606"/>
<path d="M339.226 483.053L336.376 563.542L355.026 552.066L339.226 483.053Z" fill="#070606"/>
<path d="M348.467 495.829L332.923 565.199L351.606 576.288L348.467 495.829Z" fill="#070606"/>
<path d="M418.206 515.48L402.661 584.85L421.344 595.939L418.206 515.48Z" fill="#070606"/>
<path d="M430.92 554.778L402.718 583.82L414.89 623.353L430.92 554.778Z" fill="#070606"/>
<path d="M402.893 514.27L393.325 591.004H412.461L402.893 514.27Z" fill="#070606"/>
<path d="M379.155 531.864L376.805 612.516L395.372 600.121L379.155 531.864Z" fill="#070606"/>
<path d="M369.043 547.08L376.628 625.386L392.677 597.482L369.043 547.08Z" fill="#070606"/>
<path d="M387.414 515.551L384.564 596.04L403.214 584.563L387.414 515.551Z" fill="#070606"/>
<path d="M396.655 528.327L381.11 597.697L399.793 608.786L396.655 528.327Z" fill="#070606"/>
<path d="M182.882 484.101L167.337 553.472L186.02 564.561L182.882 484.101Z" fill="#070606"/>
<path d="M195.595 523.4L167.394 552.442L179.566 591.975L195.595 523.4Z" fill="#070606"/>
<path d="M167.569 482.892L158.001 559.626H177.137L167.569 482.892Z" fill="#070606"/>
<path d="M143.831 500.486L141.48 581.138L160.048 568.743L143.831 500.486Z" fill="#070606"/>
<path d="M133.718 515.702L141.304 594.008L157.353 566.104L133.718 515.702Z" fill="#070606"/>
<path d="M152.09 484.172L149.239 564.661L167.89 553.185L152.09 484.172Z" fill="#070606"/>
<path d="M161.331 496.948L145.786 566.319L164.469 577.408L161.331 496.948Z" fill="#070606"/>
<path d="M182.882 471.775L167.337 541.146L186.02 552.235L182.882 471.775Z" fill="#070606"/>
<path d="M195.595 511.074L167.394 540.116L179.566 579.649L195.595 511.074Z" fill="#070606"/>
<path d="M167.569 470.566L158.001 547.3H177.137L167.569 470.566Z" fill="#070606"/>
<path d="M143.831 488.16L141.48 568.812L160.048 556.417L143.831 488.16Z" fill="#070606"/>
<path d="M133.718 503.376L141.304 581.682L157.353 553.778L133.718 503.376Z" fill="#070606"/>
<path d="M152.09 471.846L149.239 552.336L167.89 540.859L152.09 471.846Z" fill="#070606"/>
<path d="M161.331 484.622L145.786 553.993L164.469 565.082L161.331 484.622Z" fill="#070606"/>
<path d="M108.923 451.605L93.3779 520.976L112.061 532.065L108.923 451.605Z" fill="#070606"/>
<path d="M121.636 490.903L93.4351 519.945L105.607 559.479L121.636 490.903Z" fill="#070606"/>
<path d="M93.6099 450.396L84.0418 527.13H103.178L93.6099 450.396Z" fill="#070606"/>
<path d="M69.8717 467.99L67.5214 548.642L86.0892 536.247L69.8717 467.99Z" fill="#070606"/>
<path d="M59.7595 483.206L67.3447 561.512L83.3937 533.608L59.7595 483.206Z" fill="#070606"/>
<path d="M78.1307 451.676L75.2805 532.165L93.9307 520.689L78.1307 451.676Z" fill="#070606"/>
<path d="M87.3718 464.452L71.8271 533.823L90.5098 544.912L87.3718 464.452Z" fill="#070606"/>
<path d="M21.5143 454.966L5.96973 524.336L24.6524 535.425L21.5143 454.966Z" fill="#070606"/>
<path d="M34.2283 494.264L6.02693 523.306L18.1991 562.839L34.2283 494.264Z" fill="#070606"/>
<path d="M6.20168 453.757L-3.36645 530.49H15.7698L6.20168 453.757Z" fill="#070606"/>
<path d="M-9.27749 455.037L-12.1277 535.526L6.52251 524.05L-9.27749 455.037Z" fill="#070606"/>
<path d="M-0.0364321 467.813L-15.5811 537.183L3.10159 548.273L-0.0364321 467.813Z" fill="#070606"/>
<path d="M327.434 493.067L311.89 562.437L330.572 573.526L327.434 493.067Z" fill="#070606"/>
<path d="M340.148 532.365L311.947 561.407L324.119 600.94L340.148 532.365Z" fill="#070606"/>
<path d="M312.122 491.857L302.553 568.591H321.69L312.122 491.857Z" fill="#070606"/>
<path d="M288.383 509.452L286.033 590.104L304.601 577.709L288.383 509.452Z" fill="#070606"/>
<path d="M278.271 524.667L285.856 602.974L301.905 575.07L278.271 524.667Z" fill="#070606"/>
<path d="M296.642 493.138L293.792 573.627L312.442 562.151L296.642 493.138Z" fill="#070606"/>
<path d="M305.883 505.914L290.339 575.284L309.022 586.373L305.883 505.914Z" fill="#070606"/>
<path d="M468.632 497.548L453.087 566.918L471.77 578.007L468.632 497.548Z" fill="#070606"/>
<path d="M481.343 536.846L453.142 565.888L465.314 605.421L481.343 536.846Z" fill="#070606"/>
<path d="M453.317 496.338L443.749 573.072H462.885L453.317 496.338Z" fill="#070606"/>
<path d="M429.581 513.932L427.23 594.584L445.798 582.19L429.581 513.932Z" fill="#070606"/>
<path d="M419.468 529.149L427.054 607.456L443.103 579.552L419.468 529.149Z" fill="#070606"/>
<path d="M437.838 497.619L434.988 578.108L453.638 566.632L437.838 497.619Z" fill="#070606"/>
<path d="M447.079 510.395L431.534 579.765L450.217 590.854L447.079 510.395Z" fill="#070606"/>
<path d="M439.499 490.823L423.954 560.193L442.637 571.283L439.499 490.823Z" fill="#070606"/>
<path d="M452.211 530.121L424.009 559.163L436.182 598.697L452.211 530.121Z" fill="#070606"/>
<path d="M424.184 489.614L414.616 566.348H433.752L424.184 489.614Z" fill="#070606"/>
<path d="M400.448 507.208L398.098 587.86L416.665 575.465L400.448 507.208Z" fill="#070606"/>
<path d="M390.336 522.424L397.921 600.73L413.97 572.826L390.336 522.424Z" fill="#070606"/>
<path d="M408.705 490.894L405.855 571.383L424.505 559.907L408.705 490.894Z" fill="#070606"/>
<path d="M417.946 503.67L402.401 573.041L421.084 584.13L417.946 503.67Z" fill="#070606"/>
<path d="M471.045 525.14L468.695 605.792L487.263 593.398L471.045 525.14Z" fill="#070606"/>
<path d="M460.933 540.356L468.519 618.662L484.568 590.758L460.933 540.356Z" fill="#070606"/>
<path d="M479.303 508.827L476.452 589.316L495.103 577.84L479.303 508.827Z" fill="#070606"/>
<path d="M488.544 521.603L472.999 590.973L491.682 602.062L488.544 521.603Z" fill="#070606"/>
</g>
</g>
<defs>
<linearGradient id="paint0_linear" x1="823.053" y1="-36.6408" x2="819.714" y2="422.534" gradientUnits="userSpaceOnUse">
<stop stop-color="#557C99"/>
<stop offset="0.197099" stop-color="#86B2D3"/>
<stop offset="0.50737" stop-color="#CBD7D8"/>
<stop offset="1" stop-color="#BECED6"/>
</linearGradient>
<linearGradient id="paint1_linear" x1="403.832" y1="42.6817" x2="403.295" y2="434.671" gradientUnits="userSpaceOnUse">
<stop stop-color="#718DD3"/>
<stop offset="0.443093" stop-color="#BED1DA" stop-opacity="0"/>
<stop offset="1" stop-color="#C2D0D9"/>
</linearGradient>
<linearGradient id="paint2_linear" x1="889.81" y1="162.223" x2="892.693" y2="554.202" gradientUnits="userSpaceOnUse">
<stop stop-color="#718DD3"/>
<stop offset="0.265461" stop-color="#BED1DA" stop-opacity="0"/>
<stop offset="1" stop-color="#C2D0D9"/>
</linearGradient>
<linearGradient id="paint3_linear" x1="602.361" y1="25.1576" x2="677.719" y2="481.247" gradientUnits="userSpaceOnUse">
<stop offset="0.264036" stop-color="#5080A2"/>
<stop offset="0.460477" stop-color="#80A4B9"/>
<stop offset="0.95725" stop-color="#C6CFCA"/>
</linearGradient>
<linearGradient id="paint4_linear" x1="128.91" y1="357.552" x2="270.923" y2="1150.97" gradientUnits="userSpaceOnUse">
<stop stop-color="#3C5168"/>
<stop offset="0.180685" stop-color="#6C7266"/>
<stop offset="0.51559" stop-color="#8E846A" stop-opacity="0.58"/>
</linearGradient>
<linearGradient id="paint5_linear" x1="1180.34" y1="591.947" x2="466.804" y2="705.942" gradientUnits="userSpaceOnUse">
<stop offset="0.228791" stop-color="#3B2F19"/>
<stop offset="1" stop-color="#887449"/>
</linearGradient>
<linearGradient id="paint6_linear" x1="23.9422" y1="488.396" x2="9.31458" y2="1326.41" gradientUnits="userSpaceOnUse">
<stop stop-color="#060606"/>
<stop offset="1" stop-color="#0B0804"/>
</linearGradient>
<clipPath id="clip0">
<rect width="480" height="565" fill="white"/>
</clipPath>
<clipPath id="clip1">
<rect width="1294.62" height="728.178" fill="white" transform="matrix(-1 0 0 1 1255.62 -49)"/>
</clipPath>
</defs>
</svg>
