<svg width="1200" height="875" viewBox="0 0 1200 875" fill="none" xmlns="http://www.w3.org/2000/svg">
<g clip-path="url(#clip0)">
<rect width="1200" height="875" fill="white"/>
<g clip-path="url(#clip1)">
<rect width="1517" height="875" transform="matrix(-1 0 0 1 1482 0)" fill="url(#paint0_linear)"/>
<path d="M1284.14 252.05L931.9 265.282L858.175 245.748L779.41 224.324H737.191L708.205 207.311L681.74 214.242L648.974 192.818L618.097 181.476L572.728 192.818L550.044 181.476L493.332 192.818L407.005 181.476L303.034 168.243L262.706 150.599L229.309 156.901L195.283 141.147L173.228 150.599L146.133 141.147L107.065 168.243L86.901 162.572L51.6139 174.544L-17.7 204.79L-47.946 199.119L-86.3837 212.982H-107.808L-152.547 224.324L-254.627 212.982L-279.832 545.058H1232.47L1284.14 252.05Z" fill="url(#paint1_linear)"/>
<path d="M1836.09 407.055L1483.98 423.361L1410.09 404.472L1331.14 383.735L1288.92 384.104L1259.79 367.344L1233.39 374.506L1200.43 353.369L1169.46 342.296L1124.19 354.034L1101.41 342.89L1044.8 354.727L958.375 344.138L854.292 331.814L813.812 314.523L780.471 321.115L746.309 305.659L724.337 315.303L697.161 306.088L658.331 333.524L638.118 328.029L602.937 340.309L533.889 371.158L503.595 365.751L465.28 379.949L443.856 380.136L399.218 391.868L272.531 461.03L274.736 713.701L1786.98 700.504L1836.09 407.055Z" fill="url(#paint2_linear)"/>
<path d="M1570 141.798L1521.57 161.805L1506.76 141.798L1487.22 148.535L1438.07 186.887L1420.43 180.671L1410.35 186.887L1400.27 180.671L1380.73 186.887L1358.68 180.671L1250.3 148.535L1123.01 224.15L1114.82 237.382L1107.26 257.546L967.371 303.546L954.768 298.505L915.07 311.107L891.125 322.449L815.51 322.449L779.593 343.874L748.087 353.326L698.307 381.681L670.581 389.243L630.883 385.462L567.241 398.695L450.667 367.188L372.532 389.243L318.97 389.243L207.437 430.831L138.754 435.872L87.7134 456.666L56.8372 462.967L-20.6683 502.665L-107.626 539.213L-164.967 555.596L-209.706 555.596L-141.022 891.453L1636.27 407.608L1570 141.798Z" fill="url(#paint3_linear)"/>
<path d="M589.793 490.427C578.792 490.427 567.929 492.876 557.992 497.597L90.6812 719.605L-109.668 784.764C-114.298 786.27 -118.769 788.228 -123.015 790.611L-2446.26 2094.34C-2521.96 2136.83 -2475.48 2252.45 -2391.43 2230.72L4124.11 545.686C4205.37 524.669 4194.59 406.033 4110.86 400.02L1869.94 239.078C1861.74 238.489 1853.5 239.268 1845.56 241.384L1499.21 333.624C1493.64 335.108 1488.26 337.238 1483.18 339.971L1215.3 484.071C1207.49 488.274 1198.98 491.04 1190.19 492.237L984.261 520.278C977.117 521.251 969.87 521.176 962.748 520.056L780.09 491.327C776.281 490.728 772.431 490.427 768.576 490.427L589.793 490.427Z" fill="url(#paint4_linear)"/>
<path d="M1569.61 559.752C1558.04 556.76 1545.92 556.61 1534.28 559.315L1324.47 608.072L768.719 808.018C763.262 809.981 757.595 811.297 751.831 811.938L449.224 845.629L-1702.45 1351.55C-1788.12 1371.7 -1773.5 1497.8 -1685.48 1497.8L4976.08 1497.8C5060.02 1497.8 5079.28 1380.24 4999.72 1353.46L2874.41 637.884C2864.07 634.403 2853.09 633.248 2842.26 634.499L2176.02 711.454C2166.96 712.5 2157.79 711.866 2148.96 709.583L1569.61 559.752Z" fill="url(#paint5_linear)"/>
<path d="M144.245 696.047C135.344 694.776 126.287 695.135 117.516 697.106L-3321.64 1470.07C-3407.18 1489.29 -3394.35 1614.94 -3306.68 1616.47L3700 1738.77C3783.93 1740.24 3805.24 1623.03 3726.16 1594.86L1506.82 804.248C1496.26 800.484 1484.98 799.167 1473.83 800.398L1145.29 836.651C1139.1 837.334 1132.85 837.234 1126.68 836.353L144.245 696.047Z" fill="url(#paint6_linear)"/>
<path d="M4.50028 668.081L-13.7161 749.374L8.17765 762.369L4.50028 668.081Z" fill="#070606"/>
<path d="M19.3993 714.133L-13.6491 748.167L0.615108 794.495L19.3993 714.133Z" fill="#070606"/>
<path d="M50.4651 683.839L32.2488 765.132L54.1425 778.127L50.4651 683.839Z" fill="#070606"/>
<path d="M65.3622 729.891L32.3138 763.925L46.578 810.253L65.3622 729.891Z" fill="#070606"/>
<path d="M32.5176 682.421L21.3049 772.344H43.7302L32.5176 682.421Z" fill="#070606"/>
<path d="M4.70296 703.04L1.94874 797.553L23.7079 783.028L4.70296 703.04Z" fill="#070606"/>
<path d="M-7.14754 720.872L1.74137 812.638L20.5488 779.938L-7.14754 720.872Z" fill="#070606"/>
<path d="M14.3796 683.922L11.0395 778.245L32.8952 764.796L14.3796 683.922Z" fill="#070606"/>
<path d="M25.2073 698.894L6.99095 780.187L28.8847 793.182L25.2073 698.894Z" fill="#070606"/>
<path d="M163.395 645.758L145.178 727.051L167.072 740.046L163.395 645.758Z" fill="#070606"/>
<path d="M178.294 691.81L145.245 725.844L159.51 772.172L178.294 691.81Z" fill="#070606"/>
<path d="M145.449 644.34L134.237 734.263H156.662L145.449 644.34Z" fill="#070606"/>
<path d="M117.633 664.958L114.878 759.472L136.638 744.947L117.633 664.958Z" fill="#070606"/>
<path d="M105.782 682.79L114.671 774.555L133.478 741.855L105.782 682.79Z" fill="#070606"/>
<path d="M127.311 645.841L123.971 740.164L145.827 726.715L127.311 645.841Z" fill="#070606"/>
<path d="M138.139 660.813L119.923 742.106L141.816 755.101L138.139 660.813Z" fill="#070606"/>
<path d="M276.332 628.685L258.116 709.978L280.01 722.973L276.332 628.685Z" fill="#070606"/>
<path d="M291.229 674.737L258.181 708.771L272.445 755.099L291.229 674.737Z" fill="#070606"/>
<path d="M258.385 627.268L247.172 717.19H269.597L258.385 627.268Z" fill="#070606"/>
<path d="M230.57 647.886L227.816 742.4L249.575 727.875L230.57 647.886Z" fill="#070606"/>
<path d="M218.72 665.717L227.609 757.482L246.416 724.782L218.72 665.717Z" fill="#070606"/>
<path d="M240.247 628.768L236.907 723.091L258.762 709.642L240.247 628.768Z" fill="#070606"/>
<path d="M251.074 643.74L232.858 725.033L254.752 738.028L251.074 643.74Z" fill="#070606"/>
<path d="M357.75 698.283L339.534 779.577L361.428 792.572L357.75 698.283Z" fill="#070606"/>
<path d="M372.647 744.336L339.599 778.369L353.863 824.697L372.647 744.336Z" fill="#070606"/>
<path d="M339.803 696.866L328.59 786.788H351.015L339.803 696.866Z" fill="#070606"/>
<path d="M311.988 717.484L309.234 811.998L330.993 797.473L311.988 717.484Z" fill="#070606"/>
<path d="M300.138 735.315L309.027 827.08L327.834 794.38L300.138 735.315Z" fill="#070606"/>
<path d="M321.665 698.366L318.325 792.689L340.18 779.241L321.665 698.366Z" fill="#070606"/>
<path d="M332.492 713.338L314.276 794.632L336.17 807.627L332.492 713.338Z" fill="#070606"/>
<path d="M222.492 690.404L204.276 771.697L226.17 784.692L222.492 690.404Z" fill="#070606"/>
<path d="M237.39 736.456L204.341 770.49L218.605 816.818L237.39 736.456Z" fill="#070606"/>
<path d="M204.545 688.986L193.332 778.909H215.758L204.545 688.986Z" fill="#070606"/>
<path d="M176.73 709.605L173.976 804.119L195.735 789.594L176.73 709.605Z" fill="#070606"/>
<path d="M164.88 727.436L173.769 819.201L192.576 786.501L164.88 727.436Z" fill="#070606"/>
<path d="M186.407 690.487L183.067 784.81L204.923 771.361L186.407 690.487Z" fill="#070606"/>
<path d="M197.237 705.459L179.02 786.752L200.914 799.747L197.237 705.459Z" fill="#070606"/>
<path d="M91.1722 661.514L72.9558 742.807L94.8495 755.802L91.1722 661.514Z" fill="#070606"/>
<path d="M106.069 707.566L73.0208 741.6L87.285 787.928L106.069 707.566Z" fill="#070606"/>
<path d="M73.2246 660.097L62.012 750.019H84.4373L73.2246 660.097Z" fill="#070606"/>
<path d="M45.41 680.715L42.6558 775.229L64.4149 760.704L45.41 680.715Z" fill="#070606"/>
<path d="M33.5595 698.546L42.4484 790.311L61.2558 757.611L33.5595 698.546Z" fill="#070606"/>
<path d="M55.0867 661.597L51.7465 755.92L73.6023 742.472L55.0867 661.597Z" fill="#070606"/>
<path d="M65.9143 676.569L47.698 757.862L69.5917 770.857L65.9143 676.569Z" fill="#070606"/>
<path d="M185.723 656.261L167.507 737.555L189.4 750.55L185.723 656.261Z" fill="#070606"/>
<path d="M200.62 702.314L167.572 736.347L181.836 782.675L200.62 702.314Z" fill="#070606"/>
<path d="M167.775 654.844L156.563 744.766H178.988L167.775 654.844Z" fill="#070606"/>
<path d="M139.961 675.462L137.207 769.976L158.966 755.451L139.961 675.462Z" fill="#070606"/>
<path d="M128.11 693.293L136.999 785.058L155.807 752.358L128.11 693.293Z" fill="#070606"/>
<path d="M149.637 656.344L146.297 750.668L168.153 737.219L149.637 656.344Z" fill="#070606"/>
<path d="M160.465 671.316L142.249 752.61L164.142 765.605L160.465 671.316Z" fill="#070606"/>
<path d="M398.457 673.333L380.241 754.626L402.135 767.621L398.457 673.333Z" fill="#070606"/>
<path d="M413.354 719.385L380.306 753.419L394.57 799.747L413.354 719.385Z" fill="#070606"/>
<path d="M380.51 671.916L369.297 761.838H391.722L380.51 671.916Z" fill="#070606"/>
<path d="M352.695 692.534L349.941 787.048L371.7 772.523L352.695 692.534Z" fill="#070606"/>
<path d="M340.845 710.365L349.734 802.13L368.541 769.43L340.845 710.365Z" fill="#070606"/>
<path d="M362.372 673.416L359.032 767.739L380.887 754.29L362.372 673.416Z" fill="#070606"/>
<path d="M373.199 688.388L354.983 769.681L376.877 782.676L373.199 688.388Z" fill="#070606"/>
<path d="M444.418 681.211L426.202 762.504L448.096 775.499L444.418 681.211Z" fill="#070606"/>
<path d="M459.317 727.263L426.269 761.297L440.533 807.625L459.317 727.263Z" fill="#070606"/>
<path d="M426.473 679.793L415.26 769.716H437.685L426.473 679.793Z" fill="#070606"/>
<path d="M398.656 700.412L395.902 794.925L417.661 780.401L398.656 700.412Z" fill="#070606"/>
<path d="M386.806 718.243L395.694 810.008L414.502 777.308L386.806 718.243Z" fill="#070606"/>
<path d="M408.335 681.294L404.995 775.617L426.85 762.168L408.335 681.294Z" fill="#070606"/>
<path d="M419.162 696.266L400.946 777.559L422.84 790.554L419.162 696.266Z" fill="#070606"/>
<path d="M557.356 717.983L539.139 799.276L561.033 812.271L557.356 717.983Z" fill="#070606"/>
<path d="M572.253 764.035L539.204 798.069L553.469 844.397L572.253 764.035Z" fill="#070606"/>
<path d="M539.408 716.565L528.196 806.488H550.621L539.408 716.565Z" fill="#070606"/>
<path d="M511.594 737.184L508.839 831.697L530.599 817.172L511.594 737.184Z" fill="#070606"/>
<path d="M499.743 755.014L508.632 846.78L527.439 814.08L499.743 755.014Z" fill="#070606"/>
<path d="M521.27 718.066L517.93 812.389L539.786 798.94L521.27 718.066Z" fill="#070606"/>
<path d="M532.098 733.038L513.882 814.331L535.775 827.326L532.098 733.038Z" fill="#070606"/>
<path d="M352.5 639.191L334.284 720.484L356.178 733.479L352.5 639.191Z" fill="#070606"/>
<path d="M367.397 685.243L334.349 719.277L348.613 765.605L367.397 685.243Z" fill="#070606"/>
<path d="M334.553 637.773L323.34 727.696H345.765L334.553 637.773Z" fill="#070606"/>
<path d="M306.738 658.392L303.984 752.905L325.743 738.381L306.738 658.392Z" fill="#070606"/>
<path d="M294.888 676.223L303.777 767.988L322.584 735.288L294.888 676.223Z" fill="#070606"/>
<path d="M316.415 639.274L313.075 733.597L334.93 720.148L316.415 639.274Z" fill="#070606"/>
<path d="M327.242 654.246L309.026 735.539L330.92 748.534L327.242 654.246Z" fill="#070606"/>
<path d="M638.77 725.862L620.553 807.156L642.447 820.151L638.77 725.862Z" fill="#070606"/>
<path d="M653.669 771.915L620.62 805.948L634.885 852.277L653.669 771.915Z" fill="#070606"/>
<path d="M620.824 724.445L609.612 814.367H632.037L620.824 724.445Z" fill="#070606"/>
<path d="M593.008 745.063L590.253 839.577L612.013 825.052L593.008 745.063Z" fill="#070606"/>
<path d="M581.157 762.894L590.046 854.659L608.853 821.959L581.157 762.894Z" fill="#070606"/>
<path d="M602.686 725.945L599.346 820.269L621.202 806.82L602.686 725.945Z" fill="#070606"/>
<path d="M613.514 740.918L595.298 822.211L617.191 835.206L613.514 740.918Z" fill="#070606"/>
<path d="M695.239 717.983L677.022 799.276L698.916 812.271L695.239 717.983Z" fill="#070606"/>
<path d="M710.138 764.035L677.089 798.069L691.353 844.397L710.138 764.035Z" fill="#070606"/>
<path d="M677.293 716.565L666.08 806.488H688.506L677.293 716.565Z" fill="#070606"/>
<path d="M649.476 737.184L646.722 831.697L668.481 817.172L649.476 737.184Z" fill="#070606"/>
<path d="M637.626 755.014L646.515 846.78L665.322 814.08L637.626 755.014Z" fill="#070606"/>
<path d="M659.155 718.066L655.815 812.389L677.671 798.94L659.155 718.066Z" fill="#070606"/>
<path d="M669.985 733.038L651.768 814.331L673.662 827.326L669.985 733.038Z" fill="#070606"/>
<path d="M762.211 738.992L743.995 820.286L765.889 833.281L762.211 738.992Z" fill="#070606"/>
<path d="M777.108 785.045L744.06 819.079L758.324 865.407L777.108 785.045Z" fill="#070606"/>
<path d="M744.264 737.575L733.051 827.498H755.476L744.264 737.575Z" fill="#070606"/>
<path d="M716.449 758.193L713.695 852.707L735.454 838.182L716.449 758.193Z" fill="#070606"/>
<path d="M704.599 776.024L713.487 867.789L732.295 835.089L704.599 776.024Z" fill="#070606"/>
<path d="M726.126 739.076L722.786 833.399L744.641 819.95L726.126 739.076Z" fill="#070606"/>
<path d="M736.955 754.048L718.739 835.341L740.633 848.336L736.955 754.048Z" fill="#070606"/>
<path d="M829.184 710.103L810.968 791.396L832.861 804.391L829.184 710.103Z" fill="#070606"/>
<path d="M844.081 756.155L811.033 790.189L825.297 836.517L844.081 756.155Z" fill="#070606"/>
<path d="M811.236 708.685L800.024 798.608H822.449L811.236 708.685Z" fill="#070606"/>
<path d="M783.422 729.303L780.667 823.817L802.427 809.292L783.422 729.303Z" fill="#070606"/>
<path d="M771.571 747.134L780.46 838.9L799.268 806.2L771.571 747.134Z" fill="#070606"/>
<path d="M793.098 710.186L789.758 804.509L811.614 791.06L793.098 710.186Z" fill="#070606"/>
<path d="M803.928 725.158L785.712 806.451L807.605 819.446L803.928 725.158Z" fill="#070606"/>
<path d="M900.098 750.812L881.882 832.105L903.775 845.1L900.098 750.812Z" fill="#070606"/>
<path d="M914.995 796.864L881.947 830.898L896.211 877.226L914.995 796.864Z" fill="#070606"/>
<path d="M882.15 749.395L870.938 839.317H893.363L882.15 749.395Z" fill="#070606"/>
<path d="M854.336 770.013L851.582 864.527L873.341 850.002L854.336 770.013Z" fill="#070606"/>
<path d="M842.485 787.843L851.374 879.609L870.182 846.909L842.485 787.843Z" fill="#070606"/>
<path d="M864.012 750.895L860.672 845.218L882.528 831.769L864.012 750.895Z" fill="#070606"/>
<path d="M874.842 765.867L856.626 847.16L878.519 860.155L874.842 765.867Z" fill="#070606"/>
<path d="M955.254 767.884L937.038 849.178L958.932 862.173L955.254 767.884Z" fill="#070606"/>
<path d="M970.151 813.937L937.103 847.97L951.367 894.299L970.151 813.937Z" fill="#070606"/>
<path d="M937.307 766.467L926.094 856.389H948.519L937.307 766.467Z" fill="#070606"/>
<path d="M909.492 787.085L906.738 881.599L928.497 867.074L909.492 787.085Z" fill="#070606"/>
<path d="M897.642 804.916L906.53 896.681L925.338 863.981L897.642 804.916Z" fill="#070606"/>
<path d="M919.169 767.967L915.829 862.291L937.684 848.842L919.169 767.967Z" fill="#070606"/>
<path d="M929.998 782.939L911.782 864.233L933.676 877.228L929.998 782.939Z" fill="#070606"/>
<path d="M1081.32 784.954L1063.1 866.248L1084.99 879.243L1081.32 784.954Z" fill="#070606"/>
<path d="M1096.21 831.007L1063.17 865.04L1077.43 911.369L1096.21 831.007Z" fill="#070606"/>
<path d="M1063.37 783.537L1052.16 873.46H1074.58L1063.37 783.537Z" fill="#070606"/>
<path d="M1035.55 804.155L1032.8 898.669L1054.56 884.144L1035.55 804.155Z" fill="#070606"/>
<path d="M1023.7 821.988L1032.59 913.753L1051.4 881.053L1023.7 821.988Z" fill="#070606"/>
<path d="M1045.23 785.038L1041.89 879.361L1063.75 865.912L1045.23 785.038Z" fill="#070606"/>
<path d="M1056.06 800.01L1037.84 881.303L1059.74 894.298L1056.06 800.01Z" fill="#070606"/>
<path d="M1148.29 767.884L1130.07 849.178L1151.97 862.173L1148.29 767.884Z" fill="#070606"/>
<path d="M1163.19 813.937L1130.14 847.97L1144.4 894.299L1163.19 813.937Z" fill="#070606"/>
<path d="M1130.34 766.467L1119.13 856.389H1141.55L1130.34 766.467Z" fill="#070606"/>
<path d="M1102.53 787.085L1099.77 881.599L1121.53 867.074L1102.53 787.085Z" fill="#070606"/>
<path d="M1090.68 804.916L1099.57 896.681L1118.37 863.981L1090.68 804.916Z" fill="#070606"/>
<path d="M1112.2 767.967L1108.86 862.291L1130.72 848.842L1112.2 767.967Z" fill="#070606"/>
<path d="M1123.03 782.939L1104.82 864.233L1126.71 877.228L1123.03 782.939Z" fill="#070606"/>
<path d="M1194.45 770.013L1191.69 864.527L1213.45 850.002L1194.45 770.013Z" fill="#070606"/>
<path d="M1182.6 787.843L1191.49 879.609L1210.29 846.909L1182.6 787.843Z" fill="#070606"/>
<path d="M1204.13 750.895L1200.79 845.218L1222.64 831.769L1204.13 750.895Z" fill="#070606"/>
<path d="M1214.96 765.867L1196.74 847.16L1218.63 860.155L1214.96 765.867Z" fill="#070606"/>
<path d="M1198.19 781.015L1179.98 862.309L1201.87 875.304L1198.19 781.015Z" fill="#070606"/>
<path d="M1213.09 827.068L1180.04 861.101L1194.31 907.429L1213.09 827.068Z" fill="#070606"/>
<path d="M1180.25 779.598L1169.03 869.52H1191.46L1180.25 779.598Z" fill="#070606"/>
<path d="M1152.43 800.216L1149.68 894.73L1171.43 880.205L1152.43 800.216Z" fill="#070606"/>
<path d="M1140.58 818.047L1149.47 909.812L1168.28 877.112L1140.58 818.047Z" fill="#070606"/>
<path d="M1162.11 781.098L1158.77 875.421L1180.62 861.973L1162.11 781.098Z" fill="#070606"/>
<path d="M1172.94 796.07L1154.72 877.364L1176.62 890.359L1172.94 796.07Z" fill="#070606"/>
<path d="M1040.61 767.884L1022.39 849.178L1044.29 862.173L1040.61 767.884Z" fill="#070606"/>
<path d="M1055.51 813.937L1022.46 847.97L1036.72 894.299L1055.51 813.937Z" fill="#070606"/>
<path d="M1022.66 766.467L1011.45 856.389H1033.87L1022.66 766.467Z" fill="#070606"/>
<path d="M994.847 787.085L992.093 881.599L1013.85 867.074L994.847 787.085Z" fill="#070606"/>
<path d="M982.997 804.916L991.886 896.681L1010.69 863.981L982.997 804.916Z" fill="#070606"/>
<path d="M1004.52 767.967L1001.18 862.291L1023.04 848.842L1004.52 767.967Z" fill="#070606"/>
<path d="M1015.35 782.939L997.137 864.233L1019.03 877.228L1015.35 782.939Z" fill="#070606"/>
<path d="M872.52 756.064L854.303 837.358L876.197 850.353L872.52 756.064Z" fill="#070606"/>
<path d="M887.417 802.117L854.368 836.15L868.633 882.478L887.417 802.117Z" fill="#070606"/>
<path d="M854.576 754.647L843.364 844.569H865.789L854.576 754.647Z" fill="#070606"/>
<path d="M826.758 775.265L824.003 869.779L845.763 855.254L826.758 775.265Z" fill="#070606"/>
<path d="M814.907 793.096L823.796 884.861L842.603 852.161L814.907 793.096Z" fill="#070606"/>
<path d="M836.434 756.147L833.094 850.47L854.95 837.022L836.434 756.147Z" fill="#070606"/>
<path d="M847.264 771.119L829.048 852.413L850.941 865.408L847.264 771.119Z" fill="#070606"/>
<path d="M772.715 723.235L754.499 804.529L776.392 817.524L772.715 723.235Z" fill="#070606"/>
<path d="M787.614 769.288L754.566 803.321L768.83 849.65L787.614 769.288Z" fill="#070606"/>
<path d="M754.77 721.818L743.557 811.74H765.982L754.77 721.818Z" fill="#070606"/>
<path d="M726.953 742.436L724.199 836.95L745.958 822.425L726.953 742.436Z" fill="#070606"/>
<path d="M715.102 760.267L723.991 852.032L742.799 819.332L715.102 760.267Z" fill="#070606"/>
<path d="M736.632 723.319L733.291 817.642L755.147 804.193L736.632 723.319Z" fill="#070606"/>
<path d="M747.461 738.291L729.245 819.584L751.139 832.579L747.461 738.291Z" fill="#070606"/>
<path d="M751.707 712.728L733.491 794.021L755.385 807.016L751.707 712.728Z" fill="#070606"/>
<path d="M766.606 758.78L733.558 792.814L747.822 839.142L766.606 758.78Z" fill="#070606"/>
<path d="M733.762 711.311L722.549 801.233H744.974L733.762 711.311Z" fill="#070606"/>
<path d="M705.945 731.929L703.191 826.443L724.95 811.918L705.945 731.929Z" fill="#070606"/>
<path d="M694.095 749.759L702.984 841.525L721.791 808.825L694.095 749.759Z" fill="#070606"/>
<path d="M715.624 712.811L712.284 807.134L734.139 793.685L715.624 712.811Z" fill="#070606"/>
<path d="M726.453 727.783L708.237 809.076L730.131 822.071L726.453 727.783Z" fill="#070606"/>
<path d="M1119.4 783.64L1101.18 864.933L1123.08 877.928L1119.4 783.64Z" fill="#070606"/>
<path d="M1134.3 829.692L1101.25 863.726L1115.51 910.054L1134.3 829.692Z" fill="#070606"/>
<path d="M1101.45 782.223L1090.24 872.145H1112.66L1101.45 782.223Z" fill="#070606"/>
<path d="M1073.64 802.841L1070.88 897.355L1092.64 882.83L1073.64 802.841Z" fill="#070606"/>
<path d="M1061.79 820.672L1070.67 912.437L1089.48 879.737L1061.79 820.672Z" fill="#070606"/>
<path d="M1083.31 783.723L1079.97 878.046L1101.83 864.598L1083.31 783.723Z" fill="#070606"/>
<path d="M1094.14 798.695L1075.93 879.989L1097.82 892.983L1094.14 798.695Z" fill="#070606"/>
<path d="M1006.47 766.572L988.249 847.865L1010.14 860.86L1006.47 766.572Z" fill="#070606"/>
<path d="M1021.36 812.624L988.314 846.658L1002.58 892.986L1021.36 812.624Z" fill="#070606"/>
<path d="M988.518 765.154L977.305 855.077H999.73L988.518 765.154Z" fill="#070606"/>
<path d="M960.703 785.772L957.949 880.286L979.708 865.761L960.703 785.772Z" fill="#070606"/>
<path d="M948.852 803.603L957.741 895.369L976.549 862.669L948.852 803.603Z" fill="#070606"/>
<path d="M970.38 766.655L967.039 860.978L988.895 847.529L970.38 766.655Z" fill="#070606"/>
<path d="M981.209 781.627L962.993 862.92L984.887 875.915L981.209 781.627Z" fill="#070606"/>
<path d="M998.586 745.557L980.37 826.85L1002.26 839.845L998.586 745.557Z" fill="#070606"/>
<path d="M1013.48 791.609L980.435 825.643L994.699 871.971L1013.48 791.609Z" fill="#070606"/>
<path d="M980.639 744.14L969.426 834.062H991.851L980.639 744.14Z" fill="#070606"/>
<path d="M952.824 764.758L950.07 859.272L971.829 844.747L952.824 764.758Z" fill="#070606"/>
<path d="M940.974 782.589L949.862 874.354L968.67 841.654L940.974 782.589Z" fill="#070606"/>
<path d="M962.501 745.64L959.161 839.963L981.016 826.515L962.501 745.64Z" fill="#070606"/>
<path d="M973.33 760.612L955.114 841.906L977.008 854.9L973.33 760.612Z" fill="#070606"/>
<path d="M536.344 687.779L518.128 769.073L540.021 782.068L536.344 687.779Z" fill="#070606"/>
<path d="M551.241 733.832L518.193 767.865L532.457 814.194L551.241 733.832Z" fill="#070606"/>
<path d="M518.396 686.362L507.184 776.285H529.609L518.396 686.362Z" fill="#070606"/>
<path d="M490.582 706.98L487.828 801.494L509.587 786.969L490.582 706.98Z" fill="#070606"/>
<path d="M478.731 724.811L487.62 816.577L506.428 783.877L478.731 724.811Z" fill="#070606"/>
<path d="M500.259 687.862L496.918 782.186L518.774 768.737L500.259 687.862Z" fill="#070606"/>
<path d="M511.086 702.834L492.87 784.128L514.764 797.123L511.086 702.834Z" fill="#070606"/>
<path d="M592.813 725.862L574.596 807.156L596.49 820.151L592.813 725.862Z" fill="#070606"/>
<path d="M607.71 771.915L574.661 805.948L588.926 852.277L607.71 771.915Z" fill="#070606"/>
<path d="M574.865 724.445L563.653 814.367H586.078L574.865 724.445Z" fill="#070606"/>
<path d="M547.051 745.063L544.296 839.577L566.056 825.052L547.051 745.063Z" fill="#070606"/>
<path d="M535.2 762.894L544.089 854.659L562.896 821.959L535.2 762.894Z" fill="#070606"/>
<path d="M556.727 725.945L553.387 820.269L575.243 806.82L556.727 725.945Z" fill="#070606"/>
<path d="M567.555 740.918L549.339 822.211L571.232 835.206L567.555 740.918Z" fill="#070606"/>
<path d="M317.043 689.091L298.827 770.385L320.721 783.379L317.043 689.091Z" fill="#070606"/>
<path d="M331.94 735.144L298.892 769.177L313.156 815.505L331.94 735.144Z" fill="#070606"/>
<path d="M299.096 687.674L287.883 777.596H310.308L299.096 687.674Z" fill="#070606"/>
<path d="M271.281 708.292L268.527 802.806L290.286 788.281L271.281 708.292Z" fill="#070606"/>
<path d="M259.431 726.123L268.319 817.888L287.127 785.188L259.431 726.123Z" fill="#070606"/>
<path d="M280.958 689.174L277.618 783.497L299.473 770.049L280.958 689.174Z" fill="#070606"/>
<path d="M291.785 704.146L273.569 785.439L295.463 798.434L291.785 704.146Z" fill="#070606"/>
<path d="M317.043 674.647L298.827 755.94L320.721 768.935L317.043 674.647Z" fill="#070606"/>
<path d="M331.94 720.699L298.892 754.733L313.156 801.061L331.94 720.699Z" fill="#070606"/>
<path d="M299.096 673.229L287.883 763.152H310.308L299.096 673.229Z" fill="#070606"/>
<path d="M271.281 693.848L268.527 788.361L290.286 773.837L271.281 693.848Z" fill="#070606"/>
<path d="M259.431 711.679L268.319 803.444L287.127 770.744L259.431 711.679Z" fill="#070606"/>
<path d="M280.958 674.73L277.618 769.053L299.473 755.604L280.958 674.73Z" fill="#070606"/>
<path d="M291.785 689.702L273.569 770.995L295.463 783.99L291.785 689.702Z" fill="#070606"/>
<path d="M230.371 651.01L212.155 732.303L234.049 745.298L230.371 651.01Z" fill="#070606"/>
<path d="M245.268 697.062L212.22 731.096L226.484 777.424L245.268 697.062Z" fill="#070606"/>
<path d="M212.424 649.592L201.211 739.515H223.636L212.424 649.592Z" fill="#070606"/>
<path d="M184.609 670.211L181.855 764.725L203.614 750.2L184.609 670.211Z" fill="#070606"/>
<path d="M172.759 688.042L181.648 779.807L200.455 747.107L172.759 688.042Z" fill="#070606"/>
<path d="M194.286 651.093L190.946 745.416L212.801 731.967L194.286 651.093Z" fill="#070606"/>
<path d="M205.114 666.065L186.897 747.358L208.791 760.353L205.114 666.065Z" fill="#070606"/>
<path d="M127.942 654.948L109.725 736.241L131.619 749.236L127.942 654.948Z" fill="#070606"/>
<path d="M142.839 701L109.79 735.034L124.055 781.362L142.839 701Z" fill="#070606"/>
<path d="M109.994 653.531L98.7815 743.453H121.207L109.994 653.531Z" fill="#070606"/>
<path d="M82.1795 674.149L79.4253 768.663L101.184 754.138L82.1795 674.149Z" fill="#070606"/>
<path d="M70.329 691.98L79.2179 783.745L98.0254 751.045L70.329 691.98Z" fill="#070606"/>
<path d="M91.8562 655.031L88.5161 749.354L110.372 735.906L91.8562 655.031Z" fill="#070606"/>
<path d="M102.684 670.003L84.4675 751.297L106.361 764.292L102.684 670.003Z" fill="#070606"/>
<path d="M50.4651 679.899L32.2488 761.192L54.1425 774.187L50.4651 679.899Z" fill="#070606"/>
<path d="M65.3622 725.951L32.3138 759.985L46.578 806.313L65.3622 725.951Z" fill="#070606"/>
<path d="M32.5176 678.481L21.3049 768.404H43.7302L32.5176 678.481Z" fill="#070606"/>
<path d="M4.70296 699.1L1.94874 793.614L23.7079 779.089L4.70296 699.1Z" fill="#070606"/>
<path d="M-7.14754 716.931L1.74137 808.696L20.5488 775.996L-7.14754 716.931Z" fill="#070606"/>
<path d="M14.3796 679.982L11.0395 774.305L32.8952 760.857L14.3796 679.982Z" fill="#070606"/>
<path d="M25.2073 694.954L6.99095 776.247L28.8847 789.242L25.2073 694.954Z" fill="#070606"/>
<path d="M486.442 699.598L468.225 780.891L490.119 793.886L486.442 699.598Z" fill="#070606"/>
<path d="M501.339 745.65L468.29 779.684L482.555 826.012L501.339 745.65Z" fill="#070606"/>
<path d="M468.494 698.18L457.282 788.103H479.707L468.494 698.18Z" fill="#070606"/>
<path d="M440.68 718.799L437.925 813.312L459.684 798.787L440.68 718.799Z" fill="#070606"/>
<path d="M428.829 736.629L437.718 828.395L456.525 795.695L428.829 736.629Z" fill="#070606"/>
<path d="M450.356 699.681L447.016 794.004L468.872 780.555L450.356 699.681Z" fill="#070606"/>
<path d="M461.184 714.653L442.968 795.946L464.861 808.941L461.184 714.653Z" fill="#070606"/>
<path d="M651.903 704.848L633.686 786.142L655.58 799.137L651.903 704.848Z" fill="#070606"/>
<path d="M666.802 750.901L633.753 784.934L648.017 831.263L666.802 750.901Z" fill="#070606"/>
<path d="M633.957 703.431L622.744 793.354H645.17L633.957 703.431Z" fill="#070606"/>
<path d="M606.14 724.049L603.386 818.563L625.145 804.038L606.14 724.049Z" fill="#070606"/>
<path d="M594.29 741.882L603.179 833.647L621.986 800.947L594.29 741.882Z" fill="#070606"/>
<path d="M615.819 704.932L612.479 799.255L634.335 785.806L615.819 704.932Z" fill="#070606"/>
<path d="M626.647 719.904L608.43 801.197L630.324 814.192L626.647 719.904Z" fill="#070606"/>
<path d="M617.762 696.968L599.546 778.261L621.439 791.256L617.762 696.968Z" fill="#070606"/>
<path d="M632.661 743.02L599.613 777.054L613.877 823.382L632.661 743.02Z" fill="#070606"/>
<path d="M599.816 695.551L588.604 785.473H611.029L599.816 695.551Z" fill="#070606"/>
<path d="M572 716.169L569.246 810.683L591.005 796.158L572 716.169Z" fill="#070606"/>
<path d="M560.149 734L569.038 825.765L587.846 793.065L560.149 734Z" fill="#070606"/>
<path d="M581.678 697.051L578.338 791.374L600.194 777.926L581.678 697.051Z" fill="#070606"/>
<path d="M592.506 712.023L574.29 793.317L596.184 806.312L592.506 712.023Z" fill="#070606"/>
<path d="M700.492 717.983L682.276 799.276L704.17 812.271L700.492 717.983Z" fill="#070606"/>
<path d="M715.391 764.035L682.343 798.069L696.607 844.397L715.391 764.035Z" fill="#070606"/>
<path d="M682.547 716.565L671.334 806.488H693.76L682.547 716.565Z" fill="#070606"/>
<path d="M654.73 737.184L651.976 831.697L673.735 817.172L654.73 737.184Z" fill="#070606"/>
<path d="M642.88 755.014L651.769 846.78L670.576 814.08L642.88 755.014Z" fill="#070606"/>
<path d="M664.409 718.066L661.069 812.389L682.925 798.94L664.409 718.066Z" fill="#070606"/>
<path d="M675.239 733.038L657.022 814.331L678.916 827.326L675.239 733.038Z" fill="#070606"/>
</g>
</g>
<defs>
<linearGradient id="paint0_linear" x1="964.43" y1="-44.0287" x2="960.316" y2="507.728" gradientUnits="userSpaceOnUse">
<stop stop-color="#557C99"/>
<stop offset="0.197099" stop-color="#86B2D3"/>
<stop offset="0.50737" stop-color="#CBD7D8"/>
<stop offset="1" stop-color="#BECED6"/>
</linearGradient>
<linearGradient id="paint1_linear" x1="502.784" y1="85.6964" x2="502.154" y2="545.058" gradientUnits="userSpaceOnUse">
<stop stop-color="#718DD3"/>
<stop offset="0.443093" stop-color="#BED1DA" stop-opacity="0"/>
<stop offset="1" stop-color="#C2D0D9"/>
</linearGradient>
<linearGradient id="paint2_linear" x1="1053.31" y1="247.527" x2="1056.69" y2="706.877" gradientUnits="userSpaceOnUse">
<stop stop-color="#718DD3"/>
<stop offset="0.265461" stop-color="#BED1DA" stop-opacity="0"/>
<stop offset="1" stop-color="#C2D0D9"/>
</linearGradient>
<linearGradient id="paint3_linear" x1="664.095" y1="134.217" x2="752.405" y2="668.697" gradientUnits="userSpaceOnUse">
<stop offset="0.264036" stop-color="#5080A2"/>
<stop offset="0.460477" stop-color="#80A4B9"/>
<stop offset="0.95725" stop-color="#C6CFCA"/>
</linearGradient>
<linearGradient id="paint4_linear" x1="642.672" y1="473.226" x2="809.093" y2="1403.01" gradientUnits="userSpaceOnUse">
<stop stop-color="#3C5168"/>
<stop offset="0.180685" stop-color="#6C7266"/>
<stop offset="0.51559" stop-color="#8E846A" stop-opacity="0.58"/>
</linearGradient>
<linearGradient id="paint5_linear" x1="1393.78" y1="751.11" x2="557.605" y2="884.697" gradientUnits="userSpaceOnUse">
<stop offset="0.228791" stop-color="#3B2F19"/>
<stop offset="1" stop-color="#887449"/>
</linearGradient>
<linearGradient id="paint6_linear" x1="130.783" y1="694.124" x2="113.641" y2="1676.17" gradientUnits="userSpaceOnUse">
<stop stop-color="#060606"/>
<stop offset="1" stop-color="#0B0804"/>
</linearGradient>
<clipPath id="clip0">
<rect width="1200" height="875" fill="white"/>
</clipPath>
<clipPath id="clip1">
<rect width="1517" height="875" fill="white" transform="matrix(-1 0 0 1 1482 0)"/>
</clipPath>
</defs>
</svg>
