<svg width="1024" height="768" viewBox="0 0 1024 768" fill="none" xmlns="http://www.w3.org/2000/svg">
<g clip-path="url(#clip0)">
<rect width="1024" height="768" fill="white"/>
<g clip-path="url(#clip1)">
<rect width="1295" height="768" transform="matrix(-1 0 0 1 1265 0)" fill="url(#paint0_linear)"/>
<path d="M1096.16 215.082L795.582 226.374L732.67 209.705L665.456 191.423H629.43L604.695 176.905L582.112 182.82L554.151 164.538L527.803 154.859L489.088 164.538L469.731 154.859L421.337 164.538L347.671 154.859L258.949 143.567L224.536 128.511L196.038 133.888L167.001 120.446L148.182 128.511L125.06 120.446L91.7223 143.567L74.5157 138.728L44.4041 148.944L-14.7438 174.754L-40.5537 169.915L-73.3539 181.744H-91.636L-129.813 191.423L-216.922 181.744L-238.43 465.116H1052.07L1096.16 215.082Z" fill="url(#paint1_linear)"/>
<path d="M1567.16 347.354L1266.69 361.268L1203.64 345.149L1136.27 327.454L1100.24 327.769L1075.38 313.467L1052.85 319.579L1024.73 301.541L998.299 292.093L959.67 302.109L940.229 292.599L891.921 302.7L818.174 293.665L729.357 283.147L694.813 268.393L666.363 274.018L637.211 260.829L618.462 269.059L595.271 261.195L562.136 284.607L544.888 279.918L514.867 290.397L455.946 316.722L430.095 312.108L397.399 324.223L379.118 324.383L341.027 334.394L232.921 393.412L234.802 609.025L1525.25 597.763L1567.16 347.354Z" fill="url(#paint2_linear)"/>
<path d="M1340.09 121.001L1298.76 138.073L1286.13 121.001L1269.46 126.75L1227.52 159.477L1212.46 154.173L1203.86 159.477L1195.25 154.173L1178.59 159.477L1159.77 154.173L1067.28 126.749L958.663 191.274L951.673 202.566L945.221 219.773L825.85 259.025L815.095 254.724L781.22 265.478L760.787 275.157L696.262 275.157L665.613 293.439L638.727 301.504L596.248 325.701L572.589 332.154L538.714 328.927L484.405 340.219L384.929 313.334L318.254 332.154L272.547 332.154L177.373 367.642L118.763 371.944L75.2087 389.688L48.861 395.065L-17.2771 428.941L-91.4807 460.128L-140.412 474.108L-178.589 474.108L-119.979 760.707L1396.65 347.825L1340.09 121.001Z" fill="url(#paint3_linear)"/>
<path d="M503.65 418.498C494.262 418.498 484.992 420.588 476.513 424.616L77.7412 614.063L-93.2236 669.665C-97.1747 670.95 -100.99 672.621 -104.613 674.655L-2087.11 1787.17C-2151.71 1823.42 -2112.05 1922.09 -2040.33 1903.55L3519.6 465.652C3588.95 447.717 3579.74 346.481 3508.29 341.35L1596.04 204.013C1589.04 203.511 1582.01 204.175 1575.24 205.981L1279.69 284.692C1274.93 285.959 1270.34 287.777 1266 290.109L1037.42 413.074C1030.75 416.66 1023.49 419.021 1015.99 420.042L840.263 443.971C834.167 444.801 827.982 444.737 821.905 443.781L666.037 419.266C662.786 418.754 659.501 418.498 656.211 418.498L503.65 418.498Z" fill="url(#paint4_linear)"/>
<path d="M1339.76 477.655C1329.89 475.102 1319.54 474.974 1309.61 477.282L1130.57 518.888L656.333 689.508C651.677 691.183 646.84 692.306 641.922 692.854L383.698 721.604L-1452.39 1153.32C-1525.5 1170.51 -1513.02 1278.12 -1437.92 1278.12L4246.61 1278.12C4318.24 1278.12 4334.67 1177.81 4266.79 1154.95L2453.19 544.328C2444.37 541.358 2435 540.371 2425.75 541.439L1857.23 607.107C1849.5 608 1841.67 607.459 1834.14 605.511L1339.76 477.655Z" fill="url(#paint5_linear)"/>
<path d="M123.449 593.96C115.854 592.875 108.126 593.181 100.641 594.864L-2834.11 1254.46C-2907.1 1270.86 -2896.15 1378.08 -2821.34 1379.39L3157.69 1483.75C3229.31 1485 3247.5 1384.99 3180.02 1360.95L1286.18 686.292C1277.17 683.08 1267.54 681.956 1258.03 683.006L977.673 713.942C972.391 714.525 967.057 714.439 961.796 713.688L123.449 593.96Z" fill="url(#paint6_linear)"/>
<path d="M4.20185 570.095L-11.3428 639.466L7.33988 650.555L4.20185 570.095Z" fill="#070606"/>
<path d="M16.9138 609.393L-11.2875 638.435L0.884633 677.969L16.9138 609.393Z" fill="#070606"/>
<path d="M43.4206 583.542L27.876 652.912L46.5586 664.002L43.4206 583.542Z" fill="#070606"/>
<path d="M56.1345 622.84L27.9332 651.882L40.1053 691.416L56.1345 622.84Z" fill="#070606"/>
<path d="M28.1079 582.333L18.5398 659.067H37.6761L28.1079 582.333Z" fill="#070606"/>
<path d="M4.3697 599.927L2.01943 680.579L20.5873 668.184L4.3697 599.927Z" fill="#070606"/>
<path d="M-5.74246 615.144L1.84274 693.45L17.8917 665.546L-5.74246 615.144Z" fill="#070606"/>
<path d="M12.6288 583.613L9.77852 664.102L28.4288 652.626L12.6288 583.613Z" fill="#070606"/>
<path d="M21.8698 596.389L6.3252 665.76L25.0078 676.849L21.8698 596.389Z" fill="#070606"/>
<path d="M139.792 551.046L124.247 620.417L142.93 631.506L139.792 551.046Z" fill="#070606"/>
<path d="M152.504 590.345L124.302 619.387L136.474 658.92L152.504 590.345Z" fill="#070606"/>
<path d="M124.477 549.837L114.909 626.571H134.045L124.477 549.837Z" fill="#070606"/>
<path d="M100.741 567.431L98.3905 648.083L116.958 635.688L100.741 567.431Z" fill="#070606"/>
<path d="M90.6286 582.647L98.2138 660.953L114.263 633.049L90.6286 582.647Z" fill="#070606"/>
<path d="M108.998 551.117L106.148 631.607L124.798 620.13L108.998 551.117Z" fill="#070606"/>
<path d="M118.239 563.893L102.694 633.264L121.377 644.353L118.239 563.893Z" fill="#070606"/>
<path d="M236.161 536.478L220.616 605.848L239.299 616.937L236.161 536.478Z" fill="#070606"/>
<path d="M248.875 575.776L220.673 604.818L232.846 644.351L248.875 575.776Z" fill="#070606"/>
<path d="M220.848 535.268L211.28 612.002H230.416L220.848 535.268Z" fill="#070606"/>
<path d="M197.11 552.862L194.76 633.514L213.327 621.12L197.11 552.862Z" fill="#070606"/>
<path d="M186.998 568.078L194.583 646.385L210.632 618.481L186.998 568.078Z" fill="#070606"/>
<path d="M205.369 536.549L202.519 617.038L221.169 605.561L205.369 536.549Z" fill="#070606"/>
<path d="M214.61 549.325L199.065 618.695L217.748 629.784L214.61 549.325Z" fill="#070606"/>
<path d="M305.637 595.868L290.093 665.239L308.775 676.328L305.637 595.868Z" fill="#070606"/>
<path d="M318.351 635.166L290.15 664.208L302.322 703.742L318.351 635.166Z" fill="#070606"/>
<path d="M290.325 594.659L280.757 671.393H299.893L290.325 594.659Z" fill="#070606"/>
<path d="M266.587 612.253L264.236 692.905L282.804 680.51L266.587 612.253Z" fill="#070606"/>
<path d="M256.474 627.469L264.06 705.775L280.109 677.871L256.474 627.469Z" fill="#070606"/>
<path d="M274.846 595.939L271.995 676.428L290.646 664.952L274.846 595.939Z" fill="#070606"/>
<path d="M284.087 608.715L268.542 678.086L287.225 689.175L284.087 608.715Z" fill="#070606"/>
<path d="M190.217 589.144L174.673 658.515L193.356 669.604L190.217 589.144Z" fill="#070606"/>
<path d="M202.931 628.442L174.73 657.485L186.902 697.018L202.931 628.442Z" fill="#070606"/>
<path d="M174.905 587.935L165.337 664.669H184.473L174.905 587.935Z" fill="#070606"/>
<path d="M151.167 605.529L148.816 686.181L167.384 673.786L151.167 605.529Z" fill="#070606"/>
<path d="M141.054 620.745L148.64 699.051L164.689 671.147L141.054 620.745Z" fill="#070606"/>
<path d="M159.426 589.215L156.575 669.704L175.226 658.228L159.426 589.215Z" fill="#070606"/>
<path d="M168.667 601.991L153.122 671.362L171.805 682.451L168.667 601.991Z" fill="#070606"/>
<path d="M78.1589 564.492L62.6143 633.862L81.2969 644.951L78.1589 564.492Z" fill="#070606"/>
<path d="M90.8728 603.79L62.6715 632.832L74.8436 672.365L90.8728 603.79Z" fill="#070606"/>
<path d="M62.8462 563.282L53.2781 640.016H72.4143L62.8462 563.282Z" fill="#070606"/>
<path d="M39.108 580.876L36.7577 661.528L55.3255 649.134L39.108 580.876Z" fill="#070606"/>
<path d="M28.9958 596.092L36.581 674.399L52.63 646.495L28.9958 596.092Z" fill="#070606"/>
<path d="M47.367 564.563L44.5168 645.052L63.167 633.576L47.367 564.563Z" fill="#070606"/>
<path d="M56.6081 577.339L41.0635 646.709L59.7461 657.798L56.6081 577.339Z" fill="#070606"/>
<path d="M158.841 560.01L143.296 629.38L161.979 640.469L158.841 560.01Z" fill="#070606"/>
<path d="M171.554 599.308L143.353 628.35L155.525 667.883L171.554 599.308Z" fill="#070606"/>
<path d="M143.528 558.8L133.96 635.534H153.096L143.528 558.8Z" fill="#070606"/>
<path d="M119.79 576.394L117.439 657.046L136.007 644.652L119.79 576.394Z" fill="#070606"/>
<path d="M109.677 591.61L117.263 669.917L133.312 642.013L109.677 591.61Z" fill="#070606"/>
<path d="M128.049 560.081L125.198 640.57L143.849 629.093L128.049 560.081Z" fill="#070606"/>
<path d="M137.29 572.857L121.745 642.227L140.428 653.316L137.29 572.857Z" fill="#070606"/>
<path d="M340.376 574.577L324.831 643.947L343.514 655.036L340.376 574.577Z" fill="#070606"/>
<path d="M353.09 613.875L324.888 642.917L337.06 682.45L353.09 613.875Z" fill="#070606"/>
<path d="M325.063 573.368L315.495 650.102H334.631L325.063 573.368Z" fill="#070606"/>
<path d="M301.325 590.962L298.975 671.614L317.542 659.219L301.325 590.962Z" fill="#070606"/>
<path d="M291.213 606.178L298.798 684.484L314.847 656.58L291.213 606.178Z" fill="#070606"/>
<path d="M309.584 574.648L306.734 655.137L325.384 643.661L309.584 574.648Z" fill="#070606"/>
<path d="M318.825 587.424L303.28 656.795L321.963 667.884L318.825 587.424Z" fill="#070606"/>
<path d="M379.598 581.3L364.054 650.67L382.736 661.759L379.598 581.3Z" fill="#070606"/>
<path d="M392.31 620.598L364.109 649.64L376.281 689.173L392.31 620.598Z" fill="#070606"/>
<path d="M364.284 580.09L354.716 656.824H373.852L364.284 580.09Z" fill="#070606"/>
<path d="M340.547 597.684L338.197 678.336L356.765 665.942L340.547 597.684Z" fill="#070606"/>
<path d="M330.435 612.9L338.02 691.207L354.069 663.303L330.435 612.9Z" fill="#070606"/>
<path d="M348.805 581.371L345.954 661.86L364.605 650.384L348.805 581.371Z" fill="#070606"/>
<path d="M358.046 594.147L342.501 663.517L361.184 674.606L358.046 594.147Z" fill="#070606"/>
<path d="M475.969 612.679L460.425 682.049L479.107 693.138L475.969 612.679Z" fill="#070606"/>
<path d="M488.683 651.977L460.482 681.019L472.654 720.552L488.683 651.977Z" fill="#070606"/>
<path d="M460.657 611.469L451.089 688.203H470.225L460.657 611.469Z" fill="#070606"/>
<path d="M436.919 629.063L434.568 709.715L453.136 697.32L436.919 629.063Z" fill="#070606"/>
<path d="M426.806 644.279L434.392 722.585L450.441 694.681L426.806 644.279Z" fill="#070606"/>
<path d="M445.178 612.75L442.327 693.239L460.978 681.762L445.178 612.75Z" fill="#070606"/>
<path d="M454.419 625.526L438.874 694.896L457.557 705.985L454.419 625.526Z" fill="#070606"/>
<path d="M301.159 545.442L285.614 614.813L304.297 625.902L301.159 545.442Z" fill="#070606"/>
<path d="M313.873 584.741L285.671 613.783L297.844 653.316L313.873 584.741Z" fill="#070606"/>
<path d="M285.846 544.233L276.278 620.967H295.414L285.846 544.233Z" fill="#070606"/>
<path d="M262.108 561.827L259.758 642.479L278.326 630.084L262.108 561.827Z" fill="#070606"/>
<path d="M251.996 577.043L259.581 655.349L275.63 627.445L251.996 577.043Z" fill="#070606"/>
<path d="M270.367 545.513L267.517 626.003L286.167 614.526L270.367 545.513Z" fill="#070606"/>
<path d="M279.608 558.29L264.063 627.66L282.746 638.749L279.608 558.29Z" fill="#070606"/>
<path d="M545.444 619.402L529.899 688.773L548.582 699.862L545.444 619.402Z" fill="#070606"/>
<path d="M558.156 658.701L529.955 687.743L542.127 727.276L558.156 658.701Z" fill="#070606"/>
<path d="M530.129 618.193L520.561 694.927H539.698L530.129 618.193Z" fill="#070606"/>
<path d="M506.393 635.787L504.043 716.439L522.611 704.044L506.393 635.787Z" fill="#070606"/>
<path d="M496.281 651.003L503.866 729.309L519.915 701.405L496.281 651.003Z" fill="#070606"/>
<path d="M514.65 619.473L511.8 699.962L530.45 688.486L514.65 619.473Z" fill="#070606"/>
<path d="M523.891 632.25L508.347 701.62L527.029 712.709L523.891 632.25Z" fill="#070606"/>
<path d="M593.632 612.679L578.087 682.049L596.77 693.138L593.632 612.679Z" fill="#070606"/>
<path d="M606.343 651.977L578.142 681.019L590.314 720.552L606.343 651.977Z" fill="#070606"/>
<path d="M578.317 611.469L568.749 688.203H587.885L578.317 611.469Z" fill="#070606"/>
<path d="M554.581 629.063L552.23 709.715L570.798 697.32L554.581 629.063Z" fill="#070606"/>
<path d="M544.468 644.279L552.054 722.585L568.103 694.681L544.468 644.279Z" fill="#070606"/>
<path d="M562.838 612.75L559.988 693.239L578.638 681.762L562.838 612.75Z" fill="#070606"/>
<path d="M572.079 625.526L556.534 694.896L575.217 705.985L572.079 625.526Z" fill="#070606"/>
<path d="M650.778 630.607L635.233 699.977L653.916 711.066L650.778 630.607Z" fill="#070606"/>
<path d="M663.492 669.905L635.291 698.947L647.463 738.48L663.492 669.905Z" fill="#070606"/>
<path d="M635.465 629.397L625.897 706.131H645.033L635.465 629.397Z" fill="#070606"/>
<path d="M611.727 646.991L609.377 727.643L627.945 715.249L611.727 646.991Z" fill="#070606"/>
<path d="M601.615 662.207L609.2 740.513L625.249 712.609L601.615 662.207Z" fill="#070606"/>
<path d="M619.986 630.678L617.136 711.167L635.786 699.691L619.986 630.678Z" fill="#070606"/>
<path d="M629.227 643.454L613.683 712.824L632.365 723.913L629.227 643.454Z" fill="#070606"/>
<path d="M707.928 605.954L692.384 675.324L711.066 686.413L707.928 605.954Z" fill="#070606"/>
<path d="M720.642 645.252L692.441 674.294L704.613 713.827L720.642 645.252Z" fill="#070606"/>
<path d="M692.616 604.744L683.048 681.478H702.184L692.616 604.744Z" fill="#070606"/>
<path d="M668.878 622.339L666.527 702.99L685.095 690.596L668.878 622.339Z" fill="#070606"/>
<path d="M658.765 637.554L666.351 715.861L682.4 687.957L658.765 637.554Z" fill="#070606"/>
<path d="M677.137 606.025L674.286 686.514L692.937 675.038L677.137 606.025Z" fill="#070606"/>
<path d="M686.378 618.801L670.833 688.171L689.516 699.261L686.378 618.801Z" fill="#070606"/>
<path d="M768.442 640.692L752.897 710.063L771.58 721.152L768.442 640.692Z" fill="#070606"/>
<path d="M781.156 679.991L752.955 709.033L765.127 748.566L781.156 679.991Z" fill="#070606"/>
<path d="M753.129 639.483L743.561 716.217H762.698L753.129 639.483Z" fill="#070606"/>
<path d="M729.391 657.077L727.041 737.729L745.609 725.334L729.391 657.077Z" fill="#070606"/>
<path d="M719.279 672.293L726.864 750.599L742.913 722.695L719.279 672.293Z" fill="#070606"/>
<path d="M737.65 640.763L734.8 721.253L753.45 709.776L737.65 640.763Z" fill="#070606"/>
<path d="M746.891 653.54L731.347 722.91L750.029 733.999L746.891 653.54Z" fill="#070606"/>
<path d="M815.508 655.261L799.964 724.631L818.647 735.72L815.508 655.261Z" fill="#070606"/>
<path d="M828.222 694.559L800.021 723.601L812.193 763.135L828.222 694.559Z" fill="#070606"/>
<path d="M800.196 654.052L790.628 730.785H809.764L800.196 654.052Z" fill="#070606"/>
<path d="M776.458 671.646L774.107 752.298L792.675 739.903L776.458 671.646Z" fill="#070606"/>
<path d="M766.345 686.861L773.931 765.168L789.98 737.264L766.345 686.861Z" fill="#070606"/>
<path d="M784.717 655.332L781.866 735.821L800.517 724.345L784.717 655.332Z" fill="#070606"/>
<path d="M793.958 668.108L778.413 737.479L797.096 748.568L793.958 668.108Z" fill="#070606"/>
<path d="M923.081 669.827L907.536 739.198L926.219 750.287L923.081 669.827Z" fill="#070606"/>
<path d="M935.795 709.126L907.593 738.168L919.765 777.701L935.795 709.126Z" fill="#070606"/>
<path d="M907.768 668.618L898.2 745.352H917.336L907.768 668.618Z" fill="#070606"/>
<path d="M884.03 686.212L881.68 766.864L900.247 754.469L884.03 686.212Z" fill="#070606"/>
<path d="M873.918 701.429L881.503 779.736L897.552 751.832L873.918 701.429Z" fill="#070606"/>
<path d="M892.291 669.898L889.441 750.388L908.091 738.911L892.291 669.898Z" fill="#070606"/>
<path d="M901.53 682.675L885.985 752.045L904.668 763.134L901.53 682.675Z" fill="#070606"/>
<path d="M980.231 655.261L964.687 724.631L983.369 735.72L980.231 655.261Z" fill="#070606"/>
<path d="M992.945 694.559L964.744 723.601L976.916 763.135L992.945 694.559Z" fill="#070606"/>
<path d="M964.918 654.052L955.35 730.785H974.487L964.918 654.052Z" fill="#070606"/>
<path d="M941.18 671.646L938.83 752.298L957.398 739.903L941.18 671.646Z" fill="#070606"/>
<path d="M931.068 686.861L938.653 765.168L954.702 737.264L931.068 686.861Z" fill="#070606"/>
<path d="M949.439 655.332L946.589 735.821L965.239 724.345L949.439 655.332Z" fill="#070606"/>
<path d="M958.68 668.108L943.136 737.479L961.818 748.568L958.68 668.108Z" fill="#070606"/>
<path d="M1019.62 657.077L1017.27 737.729L1035.84 725.334L1019.62 657.077Z" fill="#070606"/>
<path d="M1009.51 672.293L1017.1 750.599L1033.15 722.695L1009.51 672.293Z" fill="#070606"/>
<path d="M1027.88 640.763L1025.03 721.253L1043.68 709.776L1027.88 640.763Z" fill="#070606"/>
<path d="M1037.12 653.54L1021.58 722.91L1040.26 733.999L1037.12 653.54Z" fill="#070606"/>
<path d="M1022.82 666.466L1007.27 735.837L1025.96 746.926L1022.82 666.466Z" fill="#070606"/>
<path d="M1035.53 705.764L1007.33 734.806L1019.5 774.34L1035.53 705.764Z" fill="#070606"/>
<path d="M1007.5 665.257L997.936 741.99H1017.07L1007.5 665.257Z" fill="#070606"/>
<path d="M983.768 682.851L981.418 763.503L999.986 751.108L983.768 682.851Z" fill="#070606"/>
<path d="M973.656 698.066L981.241 776.373L997.29 748.469L973.656 698.066Z" fill="#070606"/>
<path d="M992.025 666.537L989.175 747.026L1007.83 735.55L992.025 666.537Z" fill="#070606"/>
<path d="M1001.27 679.313L985.722 748.684L1004.4 759.773L1001.27 679.313Z" fill="#070606"/>
<path d="M888.344 655.261L872.8 724.631L891.482 735.72L888.344 655.261Z" fill="#070606"/>
<path d="M901.058 694.559L872.857 723.601L885.029 763.135L901.058 694.559Z" fill="#070606"/>
<path d="M873.032 654.052L863.464 730.785H882.6L873.032 654.052Z" fill="#070606"/>
<path d="M849.294 671.646L846.943 752.298L865.511 739.903L849.294 671.646Z" fill="#070606"/>
<path d="M839.181 686.861L846.767 765.168L862.816 737.264L839.181 686.861Z" fill="#070606"/>
<path d="M857.553 655.332L854.702 735.821L873.353 724.345L857.553 655.332Z" fill="#070606"/>
<path d="M866.794 668.108L851.249 737.479L869.932 748.568L866.794 668.108Z" fill="#070606"/>
<path d="M744.909 645.175L729.364 714.545L748.047 725.634L744.909 645.175Z" fill="#070606"/>
<path d="M757.623 684.473L729.421 713.515L741.594 753.048L757.623 684.473Z" fill="#070606"/>
<path d="M729.596 643.965L720.028 720.699H739.164L729.596 643.965Z" fill="#070606"/>
<path d="M705.858 661.559L703.508 742.211L722.076 729.817L705.858 661.559Z" fill="#070606"/>
<path d="M695.746 676.775L703.331 755.081L719.38 727.177L695.746 676.775Z" fill="#070606"/>
<path d="M714.117 645.246L711.267 725.735L729.917 714.259L714.117 645.246Z" fill="#070606"/>
<path d="M723.358 658.022L707.813 727.392L726.496 738.481L723.358 658.022Z" fill="#070606"/>
<path d="M659.745 617.161L644.2 686.531L662.883 697.62L659.745 617.161Z" fill="#070606"/>
<path d="M672.457 656.459L644.255 685.501L656.428 725.034L672.457 656.459Z" fill="#070606"/>
<path d="M644.43 615.951L634.862 692.685H653.998L644.43 615.951Z" fill="#070606"/>
<path d="M620.694 633.545L618.344 714.197L636.911 701.803L620.694 633.545Z" fill="#070606"/>
<path d="M610.582 648.761L618.167 727.067L634.216 699.163L610.582 648.761Z" fill="#070606"/>
<path d="M628.951 617.232L626.101 697.721L644.751 686.245L628.951 617.232Z" fill="#070606"/>
<path d="M638.192 630.008L622.647 699.378L641.33 710.467L638.192 630.008Z" fill="#070606"/>
<path d="M641.819 608.194L626.274 677.565L644.957 688.654L641.819 608.194Z" fill="#070606"/>
<path d="M654.531 647.492L626.33 676.534L638.502 716.068L654.531 647.492Z" fill="#070606"/>
<path d="M626.504 606.985L616.936 683.719H636.073L626.504 606.985Z" fill="#070606"/>
<path d="M602.768 624.579L600.418 705.231L618.986 692.836L602.768 624.579Z" fill="#070606"/>
<path d="M592.656 639.794L600.241 718.101L616.29 690.197L592.656 639.794Z" fill="#070606"/>
<path d="M611.025 608.265L608.175 688.754L626.825 677.278L611.025 608.265Z" fill="#070606"/>
<path d="M620.266 621.041L604.722 690.412L623.404 701.501L620.266 621.041Z" fill="#070606"/>
<path d="M955.579 668.706L940.034 738.076L958.717 749.165L955.579 668.706Z" fill="#070606"/>
<path d="M968.293 708.004L940.091 737.046L952.264 776.579L968.293 708.004Z" fill="#070606"/>
<path d="M940.266 667.497L930.698 744.23H949.834L940.266 667.497Z" fill="#070606"/>
<path d="M916.528 685.091L914.178 765.742L932.745 753.348L916.528 685.091Z" fill="#070606"/>
<path d="M906.416 700.306L914.001 778.613L930.05 750.709L906.416 700.306Z" fill="#070606"/>
<path d="M924.787 668.777L921.937 749.266L940.587 737.79L924.787 668.777Z" fill="#070606"/>
<path d="M934.028 681.553L918.483 750.923L937.166 762.012L934.028 681.553Z" fill="#070606"/>
<path d="M859.208 654.141L843.663 723.511L862.346 734.6L859.208 654.141Z" fill="#070606"/>
<path d="M871.922 693.439L843.72 722.481L855.892 762.014L871.922 693.439Z" fill="#070606"/>
<path d="M843.895 652.932L834.327 729.665H853.463L843.895 652.932Z" fill="#070606"/>
<path d="M820.157 670.526L817.807 751.177L836.374 738.783L820.157 670.526Z" fill="#070606"/>
<path d="M810.045 685.741L817.63 764.048L833.679 736.144L810.045 685.741Z" fill="#070606"/>
<path d="M828.416 654.212L825.566 734.701L844.216 723.225L828.416 654.212Z" fill="#070606"/>
<path d="M837.657 666.988L822.112 736.358L840.795 747.448L837.657 666.988Z" fill="#070606"/>
<path d="M852.485 636.208L836.94 705.579L855.623 716.668L852.485 636.208Z" fill="#070606"/>
<path d="M865.199 675.506L836.998 704.548L849.17 744.082L865.199 675.506Z" fill="#070606"/>
<path d="M837.172 634.999L827.604 711.733H846.741L837.172 634.999Z" fill="#070606"/>
<path d="M813.434 652.593L811.084 733.245L829.652 720.85L813.434 652.593Z" fill="#070606"/>
<path d="M803.322 667.809L810.907 746.115L826.956 718.211L803.322 667.809Z" fill="#070606"/>
<path d="M821.693 636.279L818.843 716.768L837.493 705.292L821.693 636.279Z" fill="#070606"/>
<path d="M830.934 649.055L815.39 718.426L834.072 729.515L830.934 649.055Z" fill="#070606"/>
<path d="M458.038 586.905L442.493 656.275L461.176 667.364L458.038 586.905Z" fill="#070606"/>
<path d="M470.752 626.203L442.55 655.245L454.723 694.778L470.752 626.203Z" fill="#070606"/>
<path d="M442.725 585.696L433.157 662.429H452.293L442.725 585.696Z" fill="#070606"/>
<path d="M418.987 603.29L416.637 683.941L435.204 671.547L418.987 603.29Z" fill="#070606"/>
<path d="M408.875 618.505L416.46 696.812L432.509 668.908L408.875 618.505Z" fill="#070606"/>
<path d="M427.246 586.976L424.396 667.465L443.046 655.989L427.246 586.976Z" fill="#070606"/>
<path d="M436.487 599.752L420.942 669.122L439.625 680.211L436.487 599.752Z" fill="#070606"/>
<path d="M506.225 619.402L490.681 688.773L509.363 699.862L506.225 619.402Z" fill="#070606"/>
<path d="M518.939 658.701L490.738 687.743L502.91 727.276L518.939 658.701Z" fill="#070606"/>
<path d="M490.913 618.193L481.344 694.927H500.481L490.913 618.193Z" fill="#070606"/>
<path d="M467.174 635.787L464.824 716.439L483.392 704.044L467.174 635.787Z" fill="#070606"/>
<path d="M457.062 651.003L464.647 729.309L480.696 701.405L457.062 651.003Z" fill="#070606"/>
<path d="M475.433 619.473L472.583 699.962L491.233 688.486L475.433 619.473Z" fill="#070606"/>
<path d="M484.675 632.25L469.13 701.62L487.813 712.709L484.675 632.25Z" fill="#070606"/>
<path d="M270.901 588.024L255.356 657.395L274.039 668.484L270.901 588.024Z" fill="#070606"/>
<path d="M283.615 627.322L255.414 656.364L267.586 695.898L283.615 627.322Z" fill="#070606"/>
<path d="M255.588 586.815L246.02 663.549H265.157L255.588 586.815Z" fill="#070606"/>
<path d="M231.85 604.409L229.5 685.061L248.068 672.666L231.85 604.409Z" fill="#070606"/>
<path d="M221.738 619.625L229.323 697.931L245.372 670.027L221.738 619.625Z" fill="#070606"/>
<path d="M240.109 588.095L237.259 668.584L255.909 657.108L240.109 588.095Z" fill="#070606"/>
<path d="M249.35 600.871L233.806 670.242L252.488 681.331L249.35 600.871Z" fill="#070606"/>
<path d="M270.901 575.698L255.356 645.069L274.039 656.158L270.901 575.698Z" fill="#070606"/>
<path d="M283.615 614.996L255.414 644.038L267.586 683.572L283.615 614.996Z" fill="#070606"/>
<path d="M255.588 574.489L246.02 651.223H265.157L255.588 574.489Z" fill="#070606"/>
<path d="M231.85 592.083L229.5 672.735L248.068 660.34L231.85 592.083Z" fill="#070606"/>
<path d="M221.738 607.299L229.323 685.605L245.372 657.701L221.738 607.299Z" fill="#070606"/>
<path d="M240.109 575.769L237.259 656.258L255.909 644.782L240.109 575.769Z" fill="#070606"/>
<path d="M249.35 588.545L233.806 657.916L252.488 669.005L249.35 588.545Z" fill="#070606"/>
<path d="M196.942 555.528L181.397 624.899L200.08 635.988L196.942 555.528Z" fill="#070606"/>
<path d="M209.656 594.826L181.455 623.868L193.627 663.402L209.656 594.826Z" fill="#070606"/>
<path d="M181.629 554.319L172.061 631.052H191.198L181.629 554.319Z" fill="#070606"/>
<path d="M157.891 571.913L155.541 652.565L174.109 640.17L157.891 571.913Z" fill="#070606"/>
<path d="M147.779 587.129L155.364 665.435L171.413 637.531L147.779 587.129Z" fill="#070606"/>
<path d="M166.15 555.599L163.3 636.088L181.95 624.612L166.15 555.599Z" fill="#070606"/>
<path d="M175.391 568.375L159.847 637.745L178.529 648.835L175.391 568.375Z" fill="#070606"/>
<path d="M109.534 558.889L93.9893 628.259L112.672 639.348L109.534 558.889Z" fill="#070606"/>
<path d="M122.248 598.187L94.0465 627.229L106.219 666.762L122.248 598.187Z" fill="#070606"/>
<path d="M94.2212 557.679L84.6531 634.413H103.789L94.2212 557.679Z" fill="#070606"/>
<path d="M70.483 575.273L68.1327 655.925L86.7005 643.531L70.483 575.273Z" fill="#070606"/>
<path d="M60.3708 590.489L67.956 668.796L84.005 640.892L60.3708 590.489Z" fill="#070606"/>
<path d="M78.742 558.96L75.8918 639.449L94.542 627.973L78.742 558.96Z" fill="#070606"/>
<path d="M87.9831 571.736L72.4385 641.106L91.1211 652.195L87.9831 571.736Z" fill="#070606"/>
<path d="M43.4206 580.18L27.876 649.551L46.5586 660.64L43.4206 580.18Z" fill="#070606"/>
<path d="M56.1345 619.478L27.9332 648.52L40.1053 688.054L56.1345 619.478Z" fill="#070606"/>
<path d="M28.1079 578.971L18.5398 655.705H37.6761L28.1079 578.971Z" fill="#070606"/>
<path d="M4.3697 596.565L2.01943 677.217L20.5873 664.822L4.3697 596.565Z" fill="#070606"/>
<path d="M-5.74246 611.781L1.84274 690.087L17.8917 662.183L-5.74246 611.781Z" fill="#070606"/>
<path d="M12.6288 580.251L9.77852 660.74L28.4288 649.264L12.6288 580.251Z" fill="#070606"/>
<path d="M21.8698 593.027L6.3252 662.398L25.0078 673.487L21.8698 593.027Z" fill="#070606"/>
<path d="M415.454 596.99L399.909 666.36L418.592 677.449L415.454 596.99Z" fill="#070606"/>
<path d="M428.168 636.288L399.966 665.33L412.139 704.863L428.168 636.288Z" fill="#070606"/>
<path d="M400.141 595.78L390.573 672.514H409.709L400.141 595.78Z" fill="#070606"/>
<path d="M376.403 613.375L374.053 694.026L392.62 681.632L376.403 613.375Z" fill="#070606"/>
<path d="M366.291 628.59L373.876 706.897L389.925 678.993L366.291 628.59Z" fill="#070606"/>
<path d="M384.662 597.061L381.812 677.55L400.462 666.074L384.662 597.061Z" fill="#070606"/>
<path d="M393.903 609.837L378.358 679.207L397.041 690.296L393.903 609.837Z" fill="#070606"/>
<path d="M556.651 601.471L541.106 670.841L559.789 681.93L556.651 601.471Z" fill="#070606"/>
<path d="M569.363 640.769L541.162 669.811L553.334 709.344L569.363 640.769Z" fill="#070606"/>
<path d="M541.336 600.261L531.768 676.995H550.905L541.336 600.261Z" fill="#070606"/>
<path d="M517.6 617.855L515.25 698.507L533.818 686.112L517.6 617.855Z" fill="#070606"/>
<path d="M507.488 633.072L515.073 711.379L531.122 683.475L507.488 633.072Z" fill="#070606"/>
<path d="M525.857 601.542L523.007 682.031L541.657 670.554L525.857 601.542Z" fill="#070606"/>
<path d="M535.098 614.318L519.554 683.688L538.236 694.777L535.098 614.318Z" fill="#070606"/>
<path d="M527.518 594.746L511.974 664.116L530.656 675.205L527.518 594.746Z" fill="#070606"/>
<path d="M540.23 634.044L512.029 663.086L524.201 702.619L540.23 634.044Z" fill="#070606"/>
<path d="M512.204 593.537L502.636 670.27H521.772L512.204 593.537Z" fill="#070606"/>
<path d="M488.467 611.131L486.117 691.782L504.685 679.388L488.467 611.131Z" fill="#070606"/>
<path d="M478.355 626.346L485.94 704.653L501.989 676.749L478.355 626.346Z" fill="#070606"/>
<path d="M496.724 594.817L493.874 675.306L512.524 663.83L496.724 594.817Z" fill="#070606"/>
<path d="M505.966 607.593L490.421 676.963L509.104 688.053L505.966 607.593Z" fill="#070606"/>
<path d="M598.116 612.679L582.571 682.049L601.254 693.138L598.116 612.679Z" fill="#070606"/>
<path d="M610.828 651.977L582.627 681.019L594.799 720.552L610.828 651.977Z" fill="#070606"/>
<path d="M582.801 611.469L573.233 688.203H592.369L582.801 611.469Z" fill="#070606"/>
<path d="M559.065 629.063L556.715 709.715L575.283 697.32L559.065 629.063Z" fill="#070606"/>
<path d="M548.953 644.279L556.538 722.585L572.587 694.681L548.953 644.279Z" fill="#070606"/>
<path d="M567.322 612.75L564.472 693.239L583.122 681.762L567.322 612.75Z" fill="#070606"/>
<path d="M576.563 625.526L561.019 694.896L579.701 705.985L576.563 625.526Z" fill="#070606"/>
</g>
</g>
<defs>
<linearGradient id="paint0_linear" x1="823.294" y1="-38.6446" x2="819.581" y2="445.639" gradientUnits="userSpaceOnUse">
<stop stop-color="#557C99"/>
<stop offset="0.197099" stop-color="#86B2D3"/>
<stop offset="0.50737" stop-color="#CBD7D8"/>
<stop offset="1" stop-color="#BECED6"/>
</linearGradient>
<linearGradient id="paint1_linear" x1="429.403" y1="73.1275" x2="428.865" y2="465.116" gradientUnits="userSpaceOnUse">
<stop stop-color="#718DD3"/>
<stop offset="0.443093" stop-color="#BED1DA" stop-opacity="0"/>
<stop offset="1" stop-color="#C2D0D9"/>
</linearGradient>
<linearGradient id="paint2_linear" x1="899.189" y1="211.223" x2="902.072" y2="603.202" gradientUnits="userSpaceOnUse">
<stop stop-color="#718DD3"/>
<stop offset="0.265461" stop-color="#BED1DA" stop-opacity="0"/>
<stop offset="1" stop-color="#C2D0D9"/>
</linearGradient>
<linearGradient id="paint3_linear" x1="567.055" y1="114.531" x2="642.412" y2="570.621" gradientUnits="userSpaceOnUse">
<stop offset="0.264036" stop-color="#5080A2"/>
<stop offset="0.460477" stop-color="#80A4B9"/>
<stop offset="0.95725" stop-color="#C6CFCA"/>
</linearGradient>
<linearGradient id="paint4_linear" x1="548.773" y1="403.819" x2="690.786" y2="1197.23" gradientUnits="userSpaceOnUse">
<stop stop-color="#3C5168"/>
<stop offset="0.180685" stop-color="#6C7266"/>
<stop offset="0.51559" stop-color="#8E846A" stop-opacity="0.58"/>
</linearGradient>
<linearGradient id="paint5_linear" x1="1189.72" y1="640.947" x2="476.183" y2="754.942" gradientUnits="userSpaceOnUse">
<stop offset="0.228791" stop-color="#3B2F19"/>
<stop offset="1" stop-color="#887449"/>
</linearGradient>
<linearGradient id="paint6_linear" x1="111.962" y1="592.319" x2="97.3341" y2="1430.33" gradientUnits="userSpaceOnUse">
<stop stop-color="#060606"/>
<stop offset="1" stop-color="#0B0804"/>
</linearGradient>
<clipPath id="clip0">
<rect width="1024" height="768" fill="white"/>
</clipPath>
<clipPath id="clip1">
<rect width="1295" height="768" fill="white" transform="matrix(-1 0 0 1 1265 0)"/>
</clipPath>
</defs>
</svg>
