<svg width="481" height="854" viewBox="0 0 481 854" fill="none" xmlns="http://www.w3.org/2000/svg">
<g clip-path="url(#clip0)">
<rect width="481" height="854" fill="white"/>
<g clip-path="url(#clip1)">
<rect width="635" height="854" transform="matrix(-1 0 0 1 635 0)" fill="url(#paint0_linear)"/>
<path d="M513.615 120.397L351.414 127.145L317.465 117.183L281.194 106.258H261.753L248.406 97.5816L236.219 101.116L221.13 90.1908L206.912 84.4066L186.02 90.1908L175.574 84.4066L149.46 90.1908L109.707 84.4066L61.8303 77.6585L43.2598 68.6609L27.8811 71.8743L12.2123 63.8408L2.05653 68.6609L-10.4205 63.8408L-28.4107 77.6585L-37.6959 74.7664L-53.9451 80.8719L-85.8631 96.2962L-99.7909 93.4042L-117.491 100.474H-127.357L-147.958 106.258L-194.965 100.474L-206.571 269.82H489.822L513.615 120.397Z" fill="url(#paint1_linear)"/>
<path d="M767.781 173.444L605.638 181.76L571.612 172.127L535.257 161.552L515.817 161.74L502.401 153.193L490.243 156.846L475.069 146.066L460.806 140.42L439.96 146.405L429.469 140.723L403.401 146.759L363.604 141.359L315.676 135.074L297.035 126.256L281.683 129.618L265.951 121.736L255.834 126.654L243.319 121.955L225.439 135.946L216.131 133.144L199.93 139.406L168.135 155.138L154.185 152.381L136.541 159.621L126.676 159.717L106.121 165.7L47.7836 200.969L48.799 329.822L745.166 323.092L767.781 173.444Z" fill="url(#paint2_linear)"/>
<path d="M645.249 56.1729L622.946 66.3756L616.127 56.1729L607.132 59.6085L584.499 79.1667L576.375 75.9969L571.732 79.1667L567.089 75.9969L558.094 79.1667L547.939 75.9969L498.031 59.6083L439.418 98.1692L435.645 104.917L432.163 115.2L367.747 138.658L361.944 136.087L343.663 142.514L332.637 148.298L297.818 148.298L281.278 159.224L266.77 164.044L243.847 178.504L231.08 182.361L212.8 180.432L183.493 187.181L129.813 171.114L93.8325 182.36L69.168 182.36L17.809 203.569L-13.8188 206.14L-37.3221 216.744L-51.5401 219.957L-87.2303 240.202L-127.273 258.84L-153.678 267.194L-174.279 267.194L-142.652 438.469L675.767 191.726L645.249 56.1729Z" fill="url(#paint3_linear)"/>
<path d="M647.31 145.094C640.571 143.072 633.401 142.971 626.607 144.803L509.279 176.442L197.388 306.653C194.279 307.951 191.011 308.827 187.67 309.259L17.9689 331.184L-1266.86 681.748C-1309.4 693.353 -1301 756 -1256.91 756L2612.42 756C2654.2 756 2665.09 698.211 2626.17 683.006L1379.61 195.972C1373.64 193.641 1367.18 192.865 1360.83 193.716L987.675 243.732C982.351 244.445 976.936 244.016 971.791 242.472L647.31 145.094Z" fill="url(#paint4_linear)"/>
<path d="M-15.1571 627.649C-21.7799 626.703 -28.5195 626.97 -35.0466 628.437L-2472.6 1176.29C-2536.26 1190.59 -2526.7 1284.09 -2461.47 1285.23L2510.19 1372.01C2572.65 1373.1 2588.5 1285.88 2529.66 1264.92L957.998 705.034C950.136 702.233 941.74 701.253 933.443 702.169L699.608 727.971C695.002 728.48 690.35 728.405 685.762 727.75L-15.1571 627.649Z" fill="url(#paint5_linear)"/>
<path d="M-1.88445 591.677L-14.8935 649.732L0.741727 659.013L-1.88445 591.677Z" fill="#070606"/>
<path d="M8.75542 624.565L-14.8459 648.87L-4.65919 681.955L8.75542 624.565Z" fill="#070606"/>
<path d="M78.7679 579.486L65.7588 637.541L81.3941 646.821L78.7679 579.486Z" fill="#070606"/>
<path d="M89.4078 612.374L65.8064 636.679L75.9931 669.764L89.4078 612.374Z" fill="#070606"/>
<path d="M65.952 578.474L57.9446 642.691H73.9595L65.952 578.474Z" fill="#070606"/>
<path d="M46.088 593.198L44.1211 660.694L59.6603 650.321L46.088 593.198Z" fill="#070606"/>
<path d="M37.6244 605.932L43.9723 671.465L57.4036 648.113L37.6244 605.932Z" fill="#070606"/>
<path d="M52.9984 579.545L50.6131 646.905L66.2212 637.301L52.9984 579.545Z" fill="#070606"/>
<path d="M60.7308 590.237L47.7217 648.292L63.357 657.572L60.7308 590.237Z" fill="#070606"/>
<path d="M136.911 629.189L123.902 687.244L139.538 696.524L136.911 629.189Z" fill="#070606"/>
<path d="M147.551 662.077L123.95 686.382L134.137 719.467L147.551 662.077Z" fill="#070606"/>
<path d="M124.096 628.177L116.088 692.394H132.103L124.096 628.177Z" fill="#070606"/>
<path d="M104.232 642.901L102.265 710.397L117.804 700.024L104.232 642.901Z" fill="#070606"/>
<path d="M95.7679 655.635L102.116 721.169L115.547 697.816L95.7679 655.635Z" fill="#070606"/>
<path d="M111.142 629.248L108.757 696.608L124.365 687.004L111.142 629.248Z" fill="#070606"/>
<path d="M118.874 639.94L105.865 697.995L121.501 707.275L118.874 639.94Z" fill="#070606"/>
<path d="M40.3187 623.561L27.3096 681.616L42.9449 690.896L40.3187 623.561Z" fill="#070606"/>
<path d="M50.9585 656.449L27.3572 680.754L37.5439 713.839L50.9585 656.449Z" fill="#070606"/>
<path d="M27.5028 622.549L19.4954 686.766H35.5103L27.5028 622.549Z" fill="#070606"/>
<path d="M7.63881 637.273L5.67189 704.769L21.2111 694.397L7.63881 637.273Z" fill="#070606"/>
<path d="M-0.824824 650.007L5.52313 715.541L18.9543 692.188L-0.824824 650.007Z" fill="#070606"/>
<path d="M14.5492 623.62L12.1638 690.98L27.772 681.376L14.5492 623.62Z" fill="#070606"/>
<path d="M22.2816 634.312L9.27248 692.367L24.9077 701.647L22.2816 634.312Z" fill="#070606"/>
<path d="M14.0599 599.179L1.0508 657.234L16.6861 666.515L14.0599 599.179Z" fill="#070606"/>
<path d="M24.6998 632.067L1.09842 656.372L11.2851 689.457L24.6998 632.067Z" fill="#070606"/>
<path d="M1.24502 598.167L-6.76242 662.385H9.25246L1.24502 598.167Z" fill="#070606"/>
<path d="M-11.7096 599.238L-14.0949 666.599L1.51321 656.994L-11.7096 599.238Z" fill="#070606"/>
<path d="M-3.97624 609.93L-16.9853 667.985L-1.35007 677.266L-3.97624 609.93Z" fill="#070606"/>
<path d="M165.984 611.372L152.975 669.427L168.61 678.707L165.984 611.372Z" fill="#070606"/>
<path d="M176.624 644.26L153.022 668.565L163.209 701.65L176.624 644.26Z" fill="#070606"/>
<path d="M153.169 610.359L145.161 674.577H161.176L153.169 610.359Z" fill="#070606"/>
<path d="M133.304 625.084L131.337 692.58L146.876 682.207L133.304 625.084Z" fill="#070606"/>
<path d="M124.84 637.818L131.188 703.351L144.619 679.999L124.84 637.818Z" fill="#070606"/>
<path d="M140.214 611.431L137.829 678.791L153.437 669.187L140.214 611.431Z" fill="#070606"/>
<path d="M147.948 622.122L134.938 680.178L150.574 689.458L147.948 622.122Z" fill="#070606"/>
<path d="M198.807 616.997L185.798 675.052L201.433 684.332L198.807 616.997Z" fill="#070606"/>
<path d="M209.447 649.885L185.845 674.19L196.032 707.275L209.447 649.885Z" fill="#070606"/>
<path d="M185.992 615.984L177.985 680.202H194L185.992 615.984Z" fill="#070606"/>
<path d="M166.127 630.709L164.16 698.205L179.699 687.832L166.127 630.709Z" fill="#070606"/>
<path d="M157.663 643.443L164.011 708.976L177.443 685.624L157.663 643.443Z" fill="#070606"/>
<path d="M173.037 617.056L170.652 684.416L186.26 674.812L173.037 617.056Z" fill="#070606"/>
<path d="M180.771 627.747L167.762 685.803L183.397 695.083L180.771 627.747Z" fill="#070606"/>
<path d="M279.458 643.256L266.449 701.311L282.085 710.592L279.458 643.256Z" fill="#070606"/>
<path d="M290.098 676.144L266.497 700.449L276.684 733.534L290.098 676.144Z" fill="#070606"/>
<path d="M266.643 642.244L258.636 706.462H274.651L266.643 642.244Z" fill="#070606"/>
<path d="M246.778 656.968L244.812 724.465L260.351 714.092L246.778 656.968Z" fill="#070606"/>
<path d="M238.315 669.702L244.663 735.236L258.094 711.883L238.315 669.702Z" fill="#070606"/>
<path d="M253.689 643.316L251.303 710.676L266.912 701.071L253.689 643.316Z" fill="#070606"/>
<path d="M261.422 654.007L248.413 712.062L264.048 721.343L261.422 654.007Z" fill="#070606"/>
<path d="M133.161 586.988L120.152 645.043L135.788 654.323L133.161 586.988Z" fill="#070606"/>
<path d="M143.801 619.876L120.2 644.181L130.387 677.266L143.801 619.876Z" fill="#070606"/>
<path d="M120.346 585.976L112.338 650.193H128.353L120.346 585.976Z" fill="#070606"/>
<path d="M100.482 600.7L98.5147 668.196L114.054 657.823L100.482 600.7Z" fill="#070606"/>
<path d="M92.0179 613.434L98.3659 678.967L111.797 655.615L92.0179 613.434Z" fill="#070606"/>
<path d="M107.392 587.047L105.007 654.407L120.615 644.803L107.392 587.047Z" fill="#070606"/>
<path d="M115.124 597.739L102.115 655.794L117.751 665.074L115.124 597.739Z" fill="#070606"/>
<path d="M337.602 648.883L324.593 706.938L340.228 716.219L337.602 648.883Z" fill="#070606"/>
<path d="M348.242 681.771L324.64 706.076L334.827 739.161L348.242 681.771Z" fill="#070606"/>
<path d="M324.787 647.871L316.78 712.089H332.794L324.787 647.871Z" fill="#070606"/>
<path d="M304.922 662.595L302.955 730.092L318.494 719.719L304.922 662.595Z" fill="#070606"/>
<path d="M296.458 675.329L302.806 740.863L316.238 717.51L296.458 675.329Z" fill="#070606"/>
<path d="M311.832 648.942L309.447 716.303L325.055 706.698L311.832 648.942Z" fill="#070606"/>
<path d="M319.566 659.634L306.557 717.689L322.192 726.97L319.566 659.634Z" fill="#070606"/>
<path d="M377.928 643.256L364.919 701.311L380.554 710.592L377.928 643.256Z" fill="#070606"/>
<path d="M388.568 676.144L364.967 700.449L375.153 733.534L388.568 676.144Z" fill="#070606"/>
<path d="M365.113 642.244L357.106 706.462H373.121L365.113 642.244Z" fill="#070606"/>
<path d="M345.248 656.968L343.281 724.465L358.82 714.092L345.248 656.968Z" fill="#070606"/>
<path d="M336.785 669.702L343.133 735.236L356.564 711.883L336.785 669.702Z" fill="#070606"/>
<path d="M352.159 643.316L349.773 710.676L365.381 701.071L352.159 643.316Z" fill="#070606"/>
<path d="M359.892 654.007L346.883 712.062L362.518 721.343L359.892 654.007Z" fill="#070606"/>
<path d="M425.755 658.26L412.746 716.315L428.381 725.596L425.755 658.26Z" fill="#070606"/>
<path d="M436.395 691.148L412.794 715.453L422.98 748.538L436.395 691.148Z" fill="#070606"/>
<path d="M412.94 657.248L404.933 721.466H420.948L412.94 657.248Z" fill="#070606"/>
<path d="M393.075 671.972L391.108 739.469L406.648 729.096L393.075 671.972Z" fill="#070606"/>
<path d="M384.612 684.706L390.96 750.24L404.391 726.887L384.612 684.706Z" fill="#070606"/>
<path d="M399.986 658.319L397.6 725.68L413.209 716.075L399.986 658.319Z" fill="#070606"/>
<path d="M407.719 669.011L394.71 727.066L410.345 736.347L407.719 669.011Z" fill="#070606"/>
<path d="M473.583 637.629L460.574 695.684L476.21 704.965L473.583 637.629Z" fill="#070606"/>
<path d="M484.223 670.518L460.622 694.822L470.809 727.907L484.223 670.518Z" fill="#070606"/>
<path d="M460.768 636.617L452.761 700.835H468.776L460.768 636.617Z" fill="#070606"/>
<path d="M440.903 651.341L438.937 718.838L454.476 708.465L440.903 651.341Z" fill="#070606"/>
<path d="M432.44 664.075L438.788 729.609L452.219 706.256L432.44 664.075Z" fill="#070606"/>
<path d="M447.814 637.689L445.428 705.049L461.037 695.445L447.814 637.689Z" fill="#070606"/>
<path d="M455.547 648.38L442.538 706.435L458.173 715.716L455.547 648.38Z" fill="#070606"/>
<path d="M483.081 693.148L489.429 758.681L502.861 735.329L483.081 693.148Z" fill="#070606"/>
<path d="M471.852 684.165L469.885 751.661L485.424 741.288L471.852 684.165Z" fill="#070606"/>
<path d="M463.388 696.899L469.736 762.432L483.167 739.08L463.388 696.899Z" fill="#070606"/>
<path d="M478.762 670.512L476.377 737.872L491.985 728.268L478.762 670.512Z" fill="#070606"/>
<path d="M486.495 681.204L473.486 739.259L489.122 748.539L486.495 681.204Z" fill="#070606"/>
<path d="M433.258 647.008L420.249 705.063L435.884 714.344L433.258 647.008Z" fill="#070606"/>
<path d="M443.898 679.896L420.297 704.201L430.483 737.286L443.898 679.896Z" fill="#070606"/>
<path d="M420.443 645.996L412.436 710.214H428.451L420.443 645.996Z" fill="#070606"/>
<path d="M400.577 660.72L398.61 728.217L414.15 717.844L400.577 660.72Z" fill="#070606"/>
<path d="M392.115 673.454L398.463 738.988L411.894 715.635L392.115 673.454Z" fill="#070606"/>
<path d="M407.489 647.067L405.103 714.428L420.711 704.823L407.489 647.067Z" fill="#070606"/>
<path d="M415.222 657.759L402.213 715.814L417.848 725.095L415.222 657.759Z" fill="#070606"/>
<path d="M418.254 639.505L405.245 697.56L420.88 706.841L418.254 639.505Z" fill="#070606"/>
<path d="M428.894 672.394L405.293 696.698L415.479 729.783L428.894 672.394Z" fill="#070606"/>
<path d="M405.439 638.493L397.432 702.711H413.447L405.439 638.493Z" fill="#070606"/>
<path d="M385.574 653.217L383.607 720.714L399.147 710.341L385.574 653.217Z" fill="#070606"/>
<path d="M377.111 665.951L383.459 731.485L396.89 708.132L377.111 665.951Z" fill="#070606"/>
<path d="M392.485 639.565L390.099 706.925L405.708 697.321L392.485 639.565Z" fill="#070606"/>
<path d="M400.218 650.256L387.209 708.311L402.844 717.592L400.218 650.256Z" fill="#070606"/>
<path d="M264.453 621.687L251.444 679.742L267.08 689.022L264.453 621.687Z" fill="#070606"/>
<path d="M275.093 654.575L251.492 678.88L261.679 711.965L275.093 654.575Z" fill="#070606"/>
<path d="M251.639 620.675L243.631 684.892H259.646L251.639 620.675Z" fill="#070606"/>
<path d="M231.774 635.399L229.807 702.895L245.346 692.523L231.774 635.399Z" fill="#070606"/>
<path d="M223.31 648.133L229.658 713.667L243.089 690.314L223.31 648.133Z" fill="#070606"/>
<path d="M238.684 621.746L236.299 689.106L251.907 679.502L238.684 621.746Z" fill="#070606"/>
<path d="M246.417 632.438L233.408 690.493L249.043 699.773L246.417 632.438Z" fill="#070606"/>
<path d="M304.779 648.883L291.77 706.938L307.405 716.219L304.779 648.883Z" fill="#070606"/>
<path d="M315.419 681.771L291.817 706.076L302.004 739.161L315.419 681.771Z" fill="#070606"/>
<path d="M291.964 647.871L283.956 712.089H299.971L291.964 647.871Z" fill="#070606"/>
<path d="M272.099 662.595L270.132 730.092L285.671 719.719L272.099 662.595Z" fill="#070606"/>
<path d="M263.635 675.329L269.983 740.863L283.414 717.51L263.635 675.329Z" fill="#070606"/>
<path d="M279.009 648.942L276.624 716.303L292.232 706.698L279.009 648.942Z" fill="#070606"/>
<path d="M286.743 659.634L273.733 717.689L289.369 726.97L286.743 659.634Z" fill="#070606"/>
<path d="M107.84 622.624L94.8311 680.68L110.466 689.96L107.84 622.624Z" fill="#070606"/>
<path d="M118.48 655.513L94.8787 679.818L105.065 712.902L118.48 655.513Z" fill="#070606"/>
<path d="M95.0243 621.612L87.0169 685.83H103.032L95.0243 621.612Z" fill="#070606"/>
<path d="M75.1603 636.336L73.1934 703.833L88.7325 693.46L75.1603 636.336Z" fill="#070606"/>
<path d="M66.6967 649.07L73.0446 714.604L86.4758 691.252L66.6967 649.07Z" fill="#070606"/>
<path d="M82.0707 622.684L79.6853 690.044L95.2935 680.44L82.0707 622.684Z" fill="#070606"/>
<path d="M89.8031 633.375L76.794 691.431L92.4292 700.711L89.8031 633.375Z" fill="#070606"/>
<path d="M107.84 612.309L94.8311 670.364L110.466 679.644L107.84 612.309Z" fill="#070606"/>
<path d="M118.48 645.197L94.8787 669.502L105.065 702.587L118.48 645.197Z" fill="#070606"/>
<path d="M95.0253 611.297L87.0178 675.514H103.033L95.0253 611.297Z" fill="#070606"/>
<path d="M75.1603 626.021L73.1934 693.517L88.7325 683.145L75.1603 626.021Z" fill="#070606"/>
<path d="M66.6967 638.755L73.0446 704.289L86.4758 680.936L66.6967 638.755Z" fill="#070606"/>
<path d="M82.0707 612.368L79.6853 679.728L95.2935 670.124L82.0707 612.368Z" fill="#070606"/>
<path d="M89.804 623.06L76.7949 681.115L92.4302 690.395L89.804 623.06Z" fill="#070606"/>
<path d="M45.9447 595.428L32.9356 653.483L48.5708 662.764L45.9447 595.428Z" fill="#070606"/>
<path d="M56.5845 628.316L32.9832 652.621L43.1699 685.706L56.5845 628.316Z" fill="#070606"/>
<path d="M33.1298 594.416L25.1223 658.634H41.1372L33.1298 594.416Z" fill="#070606"/>
<path d="M13.2648 609.14L11.2979 676.637L26.837 666.264L13.2648 609.14Z" fill="#070606"/>
<path d="M4.80115 621.874L11.1491 687.408L24.5803 664.055L4.80115 621.874Z" fill="#070606"/>
<path d="M20.1752 595.487L17.7898 662.848L33.398 653.243L20.1752 595.487Z" fill="#070606"/>
<path d="M27.9075 606.179L14.8985 664.234L30.5337 673.515L27.9075 606.179Z" fill="#070606"/>
<path d="M228.817 630.126L215.808 688.182L231.443 697.462L228.817 630.126Z" fill="#070606"/>
<path d="M239.457 663.015L215.855 687.319L226.042 720.404L239.457 663.015Z" fill="#070606"/>
<path d="M216.002 629.114L207.994 693.332H224.009L216.002 629.114Z" fill="#070606"/>
<path d="M196.137 643.838L194.17 711.335L209.709 700.962L196.137 643.838Z" fill="#070606"/>
<path d="M187.673 656.572L194.021 722.106L207.452 698.754L187.673 656.572Z" fill="#070606"/>
<path d="M203.047 630.186L200.662 697.546L216.27 687.942L203.047 630.186Z" fill="#070606"/>
<path d="M210.781 640.877L197.771 698.933L213.407 708.213L210.781 640.877Z" fill="#070606"/>
<path d="M346.981 633.877L333.972 691.933L349.607 701.213L346.981 633.877Z" fill="#070606"/>
<path d="M357.621 666.766L334.019 691.07L344.206 724.155L357.621 666.766Z" fill="#070606"/>
<path d="M334.166 632.865L326.158 697.083H342.173L334.166 632.865Z" fill="#070606"/>
<path d="M314.3 647.589L312.333 715.086L327.872 704.713L314.3 647.589Z" fill="#070606"/>
<path d="M305.837 660.324L312.185 725.858L325.616 702.505L305.837 660.324Z" fill="#070606"/>
<path d="M321.211 633.937L318.826 701.297L334.434 691.693L321.211 633.937Z" fill="#070606"/>
<path d="M328.945 644.628L315.936 702.684L331.571 711.964L328.945 644.628Z" fill="#070606"/>
<path d="M322.598 628.249L309.589 686.305L325.224 695.585L322.598 628.249Z" fill="#070606"/>
<path d="M333.238 661.138L309.637 685.443L319.823 718.527L333.238 661.138Z" fill="#070606"/>
<path d="M309.783 627.237L301.776 691.455H317.791L309.783 627.237Z" fill="#070606"/>
<path d="M289.918 641.961L287.951 709.458L303.49 699.085L289.918 641.961Z" fill="#070606"/>
<path d="M281.454 654.695L287.802 720.229L301.234 696.877L281.454 654.695Z" fill="#070606"/>
<path d="M296.828 628.309L294.443 695.669L310.051 686.065L296.828 628.309Z" fill="#070606"/>
<path d="M304.562 639L291.553 697.056L307.188 706.336L304.562 639Z" fill="#070606"/>
<path d="M381.68 643.256L368.671 701.311L384.306 710.592L381.68 643.256Z" fill="#070606"/>
<path d="M392.32 676.144L368.719 700.449L378.905 733.534L392.32 676.144Z" fill="#070606"/>
<path d="M368.865 642.244L360.858 706.462H376.873L368.865 642.244Z" fill="#070606"/>
<path d="M349 656.968L347.033 724.465L362.572 714.092L349 656.968Z" fill="#070606"/>
<path d="M340.537 669.702L346.884 735.236L360.316 711.883L340.537 669.702Z" fill="#070606"/>
<path d="M355.911 643.316L353.525 710.676L369.133 701.071L355.911 643.316Z" fill="#070606"/>
<path d="M363.644 654.007L350.635 712.062L366.27 721.343L363.644 654.007Z" fill="#070606"/>
</g>
</g>
<defs>
<linearGradient id="paint0_linear" x1="403.7" y1="-42.972" x2="394.339" y2="495.41" gradientUnits="userSpaceOnUse">
<stop stop-color="#557C99"/>
<stop offset="0.197099" stop-color="#86B2D3"/>
<stop offset="0.50737" stop-color="#CBD7D8"/>
<stop offset="1" stop-color="#BECED6"/>
</linearGradient>
<linearGradient id="paint1_linear" x1="153.812" y1="35.5628" x2="153.456" y2="269.82" gradientUnits="userSpaceOnUse">
<stop stop-color="#718DD3"/>
<stop offset="0.443093" stop-color="#BED1DA" stop-opacity="0"/>
<stop offset="1" stop-color="#C2D0D9"/>
</linearGradient>
<linearGradient id="paint2_linear" x1="407.323" y1="92.0909" x2="409.231" y2="326.339" gradientUnits="userSpaceOnUse">
<stop stop-color="#718DD3"/>
<stop offset="0.265461" stop-color="#BED1DA" stop-opacity="0"/>
<stop offset="1" stop-color="#C2D0D9"/>
</linearGradient>
<linearGradient id="paint3_linear" x1="228.093" y1="52.3068" x2="277.668" y2="323.241" gradientUnits="userSpaceOnUse">
<stop offset="0.264036" stop-color="#5080A2"/>
<stop offset="0.460477" stop-color="#80A4B9"/>
<stop offset="0.95725" stop-color="#C6CFCA"/>
</linearGradient>
<linearGradient id="paint4_linear" x1="548.188" y1="269.615" x2="75.7818" y2="334.653" gradientUnits="userSpaceOnUse">
<stop offset="0.228791" stop-color="#3B2F19"/>
<stop offset="1" stop-color="#887449"/>
</linearGradient>
<linearGradient id="paint5_linear" x1="-25.1745" y1="626.218" x2="-37.4161" y2="1327.54" gradientUnits="userSpaceOnUse">
<stop stop-color="#060606"/>
<stop offset="1" stop-color="#0B0804"/>
</linearGradient>
<clipPath id="clip0">
<rect width="481" height="854" fill="white"/>
</clipPath>
<clipPath id="clip1">
<rect width="635" height="854" fill="white" transform="matrix(-1 0 0 1 635 0)"/>
</clipPath>
</defs>
</svg>
