<svg width="1550" height="875" viewBox="0 0 1550 875" fill="none" xmlns="http://www.w3.org/2000/svg">
<g clip-path="url(#clip0)">
<rect width="1550" height="875" fill="white"/>
<g clip-path="url(#clip1)">
<rect width="1555.66" height="875" transform="matrix(-1 0 0 1 1555.66 0)" fill="url(#paint0_linear)"/>
<path d="M1352.78 258.45L991.591 272.019L915.995 251.989L835.229 230.02H791.939L762.217 212.575L735.08 219.682L701.481 197.714L669.821 186.084L623.3 197.714L600.039 186.084L541.888 197.714L453.369 186.084L346.758 172.515L305.406 154.424L271.162 160.885L236.271 144.732L213.656 154.424L185.873 144.732L145.813 172.515L125.137 166.7L88.9543 178.977L17.8805 209.991L-13.1335 204.175L-52.5472 218.39H-74.5154L-120.39 230.02L-225.063 218.39L-250.908 558.898H1299.79L1352.78 258.45Z" fill="url(#paint1_linear)"/>
<path d="M1918.74 417.392L1557.69 434.112L1481.92 414.742L1400.97 393.48L1357.68 393.857L1327.81 376.672L1300.73 384.016L1266.94 362.342L1235.18 350.988L1188.76 363.024L1165.4 351.597L1107.36 363.734L1018.74 352.877L912.014 340.239L870.505 322.509L836.318 329.269L801.288 313.421L778.759 323.31L750.892 313.861L711.076 341.993L690.35 336.358L654.276 348.95L583.475 380.583L552.412 375.039L513.124 389.597L491.156 389.789L445.385 401.819L315.481 472.737L317.742 731.823L1868.38 718.291L1918.74 417.392Z" fill="url(#paint2_linear)"/>
<path d="M1645.89 145.398L1596.23 165.913L1581.05 145.398L1561.02 152.306L1510.62 191.632L1492.53 185.259L1482.19 191.632L1471.85 185.259L1451.82 191.632L1429.21 185.259L1318.07 152.306L1187.56 229.841L1179.16 243.41L1171.4 264.086L1027.96 311.253L1015.04 306.084L974.335 319.006L949.782 330.637L872.247 330.637L835.418 352.605L803.112 362.297L752.068 391.372L723.639 399.126L682.933 395.249L617.674 408.818L498.141 376.511L418.021 399.126L363.099 399.126L248.735 441.77L178.307 446.939L125.971 468.261L94.3112 474.722L14.8377 515.428L-74.3275 552.904L-133.125 569.703L-179 569.703L-108.572 914.088L1713.85 417.957L1645.89 145.398Z" fill="url(#paint3_linear)"/>
<path d="M640.798 502.878C629.518 502.878 618.379 505.39 608.19 510.23L129.014 737.875L-76.4223 804.689C-81.17 806.233 -85.754 808.241 -90.1079 810.684L-2472.34 2147.52C-2549.96 2191.08 -2502.3 2309.64 -2416.12 2287.36L4264.85 559.54C4348.18 537.99 4337.12 416.341 4251.27 410.176L1953.45 245.147C1945.04 244.543 1936.59 245.342 1928.45 247.512L1573.31 342.094C1567.59 343.616 1562.07 345.8 1556.86 348.602L1282.19 496.361C1274.17 500.671 1265.45 503.507 1256.44 504.734L1045.28 533.487C1037.96 534.485 1030.53 534.408 1023.22 533.259L835.927 503.801C832.022 503.187 828.074 502.878 824.12 502.878L640.798 502.878Z" fill="url(#paint4_linear)"/>
<path d="M1642.92 509.67C1631.06 506.602 1618.63 506.449 1606.69 509.222L1391.56 559.217L821.695 764.24C816.1 766.253 810.288 767.602 804.379 768.26L494.088 802.807L-1712.21 1321.57C-1800.07 1342.23 -1785.07 1471.54 -1694.82 1471.54L5135.88 1471.54C5221.95 1471.54 5241.7 1350.99 5160.13 1323.53L2980.85 589.786C2970.25 586.218 2958.99 585.032 2947.88 586.316L2264.73 665.224C2255.44 666.297 2246.04 665.647 2236.98 663.306L1642.92 509.67Z" fill="url(#paint5_linear)"/>
<path d="M176.93 632.927C167.804 631.623 158.517 631.991 149.523 634.013L-3209.31 1388.92C-3297.03 1408.64 -3283.86 1537.47 -3193.97 1539.04L3656.74 1658.62C3742.8 1660.12 3764.65 1539.94 3683.57 1511.06L1517.89 739.56C1507.06 735.7 1495.49 734.35 1484.06 735.611L1161.84 771.167C1155.49 771.867 1149.09 771.765 1142.76 770.862L176.93 632.927Z" fill="url(#paint6_linear)"/>
<path d="M38.86 605.328L20.9341 685.325L42.4788 698.113L38.86 605.328Z" fill="#070606"/>
<path d="M53.5208 650.645L20.9993 684.136L35.0361 729.726L53.5208 650.645Z" fill="#070606"/>
<path d="M21.2006 603.932L10.1667 692.421H32.2345L21.2006 603.932Z" fill="#070606"/>
<path d="M-6.17096 624.221L-8.88127 717.228L12.531 702.935L-6.17096 624.221Z" fill="#070606"/>
<path d="M-17.8338 641.769L-9.08661 732.071L9.42096 699.893L-17.8338 641.769Z" fill="#070606"/>
<path d="M3.35034 605.409L0.0634665 698.228L21.5708 684.994L3.35034 605.409Z" fill="#070606"/>
<path d="M14.0065 620.141L-3.91941 700.138L17.6252 712.926L14.0065 620.141Z" fill="#070606"/>
<path d="M84.0866 620.835L66.1607 700.832L87.7053 713.62L84.0866 620.835Z" fill="#070606"/>
<path d="M98.7474 666.153L66.2259 699.643L80.2627 745.233L98.7474 666.153Z" fill="#070606"/>
<path d="M66.4271 619.439L55.3933 707.928H77.461L66.4271 619.439Z" fill="#070606"/>
<path d="M39.0556 639.729L36.3453 732.736L57.7575 718.442L39.0556 639.729Z" fill="#070606"/>
<path d="M27.3947 657.278L36.1419 747.581L54.6495 715.402L27.3947 657.278Z" fill="#070606"/>
<path d="M48.5769 620.916L45.29 713.735L66.7973 700.501L48.5769 620.916Z" fill="#070606"/>
<path d="M59.235 635.648L41.3091 715.645L62.8538 728.433L59.235 635.648Z" fill="#070606"/>
<path d="M195.221 583.36L177.295 663.357L198.84 676.145L195.221 583.36Z" fill="#070606"/>
<path d="M209.882 628.677L177.361 662.168L191.397 707.758L209.882 628.677Z" fill="#070606"/>
<path d="M177.562 581.964L166.528 670.453H188.596L177.562 581.964Z" fill="#070606"/>
<path d="M150.19 602.253L147.48 695.26L168.892 680.967L150.19 602.253Z" fill="#070606"/>
<path d="M138.528 619.801L147.275 710.103L165.782 677.925L138.528 619.801Z" fill="#070606"/>
<path d="M159.712 583.441L156.425 676.26L177.932 663.026L159.712 583.441Z" fill="#070606"/>
<path d="M170.368 598.173L152.442 678.17L173.987 690.958L170.368 598.173Z" fill="#070606"/>
<path d="M306.356 566.56L288.43 646.557L309.975 659.345L306.356 566.56Z" fill="#070606"/>
<path d="M321.017 611.877L288.495 645.368L302.532 690.958L321.017 611.877Z" fill="#070606"/>
<path d="M288.697 565.164L277.663 653.653H299.731L288.697 565.164Z" fill="#070606"/>
<path d="M261.325 585.453L258.615 678.46L280.027 664.167L261.325 585.453Z" fill="#070606"/>
<path d="M249.662 603.001L258.409 693.303L276.917 661.125L249.662 603.001Z" fill="#070606"/>
<path d="M270.846 566.641L267.56 659.46L289.067 646.226L270.846 566.641Z" fill="#070606"/>
<path d="M281.503 581.373L263.577 661.37L285.121 674.158L281.503 581.373Z" fill="#070606"/>
<path d="M386.475 635.049L368.549 715.047L390.094 727.834L386.475 635.049Z" fill="#070606"/>
<path d="M401.136 680.367L368.615 713.858L382.651 759.447L401.136 680.367Z" fill="#070606"/>
<path d="M368.816 633.654L357.782 722.142H379.85L368.816 633.654Z" fill="#070606"/>
<path d="M341.444 653.943L338.734 746.95L360.146 732.657L341.444 653.943Z" fill="#070606"/>
<path d="M329.781 671.491L338.529 761.793L357.036 729.615L329.781 671.491Z" fill="#070606"/>
<path d="M350.966 635.131L347.679 727.95L369.186 714.716L350.966 635.131Z" fill="#070606"/>
<path d="M361.622 649.862L343.696 729.86L365.24 742.647L361.622 649.862Z" fill="#070606"/>
<path d="M253.374 627.295L235.448 707.292L256.992 720.08L253.374 627.295Z" fill="#070606"/>
<path d="M268.035 672.612L235.513 706.103L249.55 751.693L268.035 672.612Z" fill="#070606"/>
<path d="M235.714 625.899L224.68 714.388H246.748L235.714 625.899Z" fill="#070606"/>
<path d="M208.343 646.189L205.632 739.195L227.045 724.902L208.343 646.189Z" fill="#070606"/>
<path d="M196.68 663.737L205.427 754.039L223.935 721.86L196.68 663.737Z" fill="#070606"/>
<path d="M217.864 627.376L214.577 720.195L236.084 706.961L217.864 627.376Z" fill="#070606"/>
<path d="M228.52 642.108L210.594 722.105L232.139 734.893L228.52 642.108Z" fill="#070606"/>
<path d="M124.149 598.867L106.223 678.864L127.768 691.652L124.149 598.867Z" fill="#070606"/>
<path d="M138.81 644.184L106.288 677.675L120.325 723.265L138.81 644.184Z" fill="#070606"/>
<path d="M106.49 597.471L95.4558 685.96H117.524L106.49 597.471Z" fill="#070606"/>
<path d="M79.1181 617.76L76.4078 710.767L97.82 696.474L79.1181 617.76Z" fill="#070606"/>
<path d="M67.4553 635.308L76.2025 725.611L94.71 693.432L67.4553 635.308Z" fill="#070606"/>
<path d="M88.6394 598.948L85.3525 691.767L106.86 678.533L88.6394 598.948Z" fill="#070606"/>
<path d="M99.2956 613.68L81.3696 693.677L102.914 706.465L99.2956 613.68Z" fill="#070606"/>
<path d="M217.19 593.697L199.264 673.694L220.809 686.482L217.19 593.697Z" fill="#070606"/>
<path d="M231.851 639.015L199.329 672.506L213.366 718.095L231.851 639.015Z" fill="#070606"/>
<path d="M199.531 592.301L188.497 680.79H210.565L199.531 592.301Z" fill="#070606"/>
<path d="M172.159 612.591L169.449 705.598L190.861 691.304L172.159 612.591Z" fill="#070606"/>
<path d="M160.496 630.139L169.243 720.441L187.751 688.262L160.496 630.139Z" fill="#070606"/>
<path d="M181.68 593.778L178.394 686.597L199.901 673.363L181.68 593.778Z" fill="#070606"/>
<path d="M192.337 608.51L174.411 688.507L195.955 701.295L192.337 608.51Z" fill="#070606"/>
<path d="M426.534 610.495L408.608 690.493L430.153 703.28L426.534 610.495Z" fill="#070606"/>
<path d="M441.195 655.813L408.673 689.304L422.71 734.893L441.195 655.813Z" fill="#070606"/>
<path d="M408.874 609.1L397.841 697.588H419.908L408.874 609.1Z" fill="#070606"/>
<path d="M381.503 629.389L378.793 722.396L400.205 708.103L381.503 629.389Z" fill="#070606"/>
<path d="M369.84 646.937L378.587 737.239L397.095 705.061L369.84 646.937Z" fill="#070606"/>
<path d="M391.024 610.577L387.737 703.396L409.245 690.162L391.024 610.577Z" fill="#070606"/>
<path d="M401.68 625.308L383.754 705.306L405.299 718.093L401.68 625.308Z" fill="#070606"/>
<path d="M471.764 618.249L453.838 698.247L475.383 711.034L471.764 618.249Z" fill="#070606"/>
<path d="M486.425 663.567L453.904 697.058L467.94 742.647L486.425 663.567Z" fill="#070606"/>
<path d="M454.105 616.854L443.071 705.342H465.139L454.105 616.854Z" fill="#070606"/>
<path d="M426.733 637.143L424.023 730.15L445.435 715.856L426.733 637.143Z" fill="#070606"/>
<path d="M415.071 654.691L423.818 744.993L442.325 712.814L415.071 654.691Z" fill="#070606"/>
<path d="M436.255 618.33L432.968 711.15L454.475 697.915L436.255 618.33Z" fill="#070606"/>
<path d="M446.911 633.062L428.985 713.06L450.53 725.847L446.911 633.062Z" fill="#070606"/>
<path d="M582.899 654.433L564.973 734.43L586.518 747.218L582.899 654.433Z" fill="#070606"/>
<path d="M597.56 699.75L565.038 733.241L579.075 778.831L597.56 699.75Z" fill="#070606"/>
<path d="M565.24 653.037L554.206 741.526H576.274L565.24 653.037Z" fill="#070606"/>
<path d="M537.868 673.327L535.158 766.334L556.57 752.04L537.868 673.327Z" fill="#070606"/>
<path d="M526.205 690.874L534.952 781.177L553.46 748.998L526.205 690.874Z" fill="#070606"/>
<path d="M547.389 654.514L544.103 747.334L565.61 734.099L547.389 654.514Z" fill="#070606"/>
<path d="M558.044 669.246L540.118 749.243L561.662 762.031L558.044 669.246Z" fill="#070606"/>
<path d="M381.305 576.898L363.379 656.895L384.924 669.683L381.305 576.898Z" fill="#070606"/>
<path d="M395.966 622.215L363.445 655.706L377.481 701.296L395.966 622.215Z" fill="#070606"/>
<path d="M363.646 575.502L352.612 663.991H374.68L363.646 575.502Z" fill="#070606"/>
<path d="M336.274 595.792L333.564 688.799L354.976 674.505L336.274 595.792Z" fill="#070606"/>
<path d="M324.612 613.34L333.359 703.642L351.866 671.463L324.612 613.34Z" fill="#070606"/>
<path d="M345.796 576.979L342.509 669.798L364.016 656.564L345.796 576.979Z" fill="#070606"/>
<path d="M356.452 591.711L338.526 671.708L360.071 684.496L356.452 591.711Z" fill="#070606"/>
<path d="M663.016 662.187L645.09 742.184L666.635 754.972L663.016 662.187Z" fill="#070606"/>
<path d="M677.677 707.504L645.156 740.995L659.192 786.584L677.677 707.504Z" fill="#070606"/>
<path d="M645.357 660.791L634.323 749.28H656.391L645.357 660.791Z" fill="#070606"/>
<path d="M617.985 681.08L615.275 774.087L636.687 759.794L617.985 681.08Z" fill="#070606"/>
<path d="M606.322 698.628L615.07 788.93L633.577 756.752L606.322 698.628Z" fill="#070606"/>
<path d="M627.507 662.268L624.22 755.087L645.727 741.853L627.507 662.268Z" fill="#070606"/>
<path d="M638.163 677L620.237 756.997L641.781 769.785L638.163 677Z" fill="#070606"/>
<path d="M718.583 654.433L700.657 734.431L722.201 747.218L718.583 654.433Z" fill="#070606"/>
<path d="M733.243 699.751L700.722 733.242L714.759 778.831L733.243 699.751Z" fill="#070606"/>
<path d="M700.923 653.038L689.889 741.526H711.957L700.923 653.038Z" fill="#070606"/>
<path d="M673.552 673.327L670.841 766.334L692.254 752.041L673.552 673.327Z" fill="#070606"/>
<path d="M661.887 690.875L670.634 781.177L689.142 748.998L661.887 690.875Z" fill="#070606"/>
<path d="M683.073 654.515L679.786 747.334L701.293 734.1L683.073 654.515Z" fill="#070606"/>
<path d="M693.729 669.246L675.803 749.244L697.348 762.031L693.729 669.246Z" fill="#070606"/>
<path d="M784.489 675.109L766.563 755.106L788.108 767.894L784.489 675.109Z" fill="#070606"/>
<path d="M799.15 720.426L766.628 753.917L780.665 799.507L799.15 720.426Z" fill="#070606"/>
<path d="M766.829 673.713L755.796 762.202H777.863L766.829 673.713Z" fill="#070606"/>
<path d="M739.458 694.002L736.748 787.009L758.16 772.716L739.458 694.002Z" fill="#070606"/>
<path d="M727.795 711.55L736.542 801.852L755.05 769.674L727.795 711.55Z" fill="#070606"/>
<path d="M748.979 675.19L745.692 768.009L767.2 754.775L748.979 675.19Z" fill="#070606"/>
<path d="M759.635 689.922L741.709 769.919L763.254 782.707L759.635 689.922Z" fill="#070606"/>
<path d="M850.395 646.68L832.469 726.677L854.014 739.465L850.395 646.68Z" fill="#070606"/>
<path d="M865.056 691.997L832.534 725.488L846.571 771.078L865.056 691.997Z" fill="#070606"/>
<path d="M832.736 645.284L821.702 733.773H843.77L832.736 645.284Z" fill="#070606"/>
<path d="M805.364 665.574L802.654 758.58L824.066 744.287L805.364 665.574Z" fill="#070606"/>
<path d="M793.701 683.122L802.449 773.424L820.956 741.245L793.701 683.122Z" fill="#070606"/>
<path d="M814.885 646.761L811.599 739.58L833.106 726.346L814.885 646.761Z" fill="#070606"/>
<path d="M825.542 661.493L807.616 741.49L829.16 754.278L825.542 661.493Z" fill="#070606"/>
<path d="M920.176 686.74L902.251 766.737L923.795 779.525L920.176 686.74Z" fill="#070606"/>
<path d="M934.837 732.058L902.316 765.549L916.353 811.138L934.837 732.058Z" fill="#070606"/>
<path d="M902.517 685.344L891.483 773.833H913.551L902.517 685.344Z" fill="#070606"/>
<path d="M875.145 705.634L872.435 798.641L893.847 784.347L875.145 705.634Z" fill="#070606"/>
<path d="M863.483 723.182L872.23 813.484L890.737 781.305L863.483 723.182Z" fill="#070606"/>
<path d="M884.667 686.821L881.38 779.64L902.887 766.406L884.667 686.821Z" fill="#070606"/>
<path d="M895.323 701.553L877.397 781.55L898.942 794.338L895.323 701.553Z" fill="#070606"/>
<path d="M974.45 703.538L956.524 783.535L978.069 796.323L974.45 703.538Z" fill="#070606"/>
<path d="M989.111 748.855L956.589 782.346L970.626 827.936L989.111 748.855Z" fill="#070606"/>
<path d="M956.79 702.142L945.757 790.631H967.824L956.79 702.142Z" fill="#070606"/>
<path d="M929.419 722.431L926.709 815.438L948.121 801.145L929.419 722.431Z" fill="#070606"/>
<path d="M917.756 739.979L926.503 830.282L945.011 798.103L917.756 739.979Z" fill="#070606"/>
<path d="M938.94 703.619L935.653 796.438L957.161 783.204L938.94 703.619Z" fill="#070606"/>
<path d="M949.596 718.351L931.67 798.348L953.215 811.136L949.596 718.351Z" fill="#070606"/>
<path d="M1098.5 720.338L1080.58 800.335L1102.12 813.123L1098.5 720.338Z" fill="#070606"/>
<path d="M1113.16 765.655L1080.64 799.146L1094.68 844.736L1113.16 765.655Z" fill="#070606"/>
<path d="M1080.84 718.942L1069.81 807.431H1091.88L1080.84 718.942Z" fill="#070606"/>
<path d="M1053.47 739.232L1050.76 832.238L1072.17 817.945L1053.47 739.232Z" fill="#070606"/>
<path d="M1041.81 756.781L1050.56 847.083L1069.07 814.905L1041.81 756.781Z" fill="#070606"/>
<path d="M1062.99 720.419L1059.71 813.238L1081.21 800.004L1062.99 720.419Z" fill="#070606"/>
<path d="M1073.65 735.151L1055.73 815.148L1077.27 827.936L1073.65 735.151Z" fill="#070606"/>
<path d="M1164.41 703.538L1146.48 783.535L1168.03 796.323L1164.41 703.538Z" fill="#070606"/>
<path d="M1179.07 748.855L1146.55 782.346L1160.58 827.936L1179.07 748.855Z" fill="#070606"/>
<path d="M1146.75 702.142L1135.72 790.631H1157.78L1146.75 702.142Z" fill="#070606"/>
<path d="M1119.38 722.431L1116.67 815.438L1138.08 801.145L1119.38 722.431Z" fill="#070606"/>
<path d="M1107.72 739.979L1116.46 830.282L1134.97 798.103L1107.72 739.979Z" fill="#070606"/>
<path d="M1128.9 703.619L1125.61 796.438L1147.12 783.204L1128.9 703.619Z" fill="#070606"/>
<path d="M1139.56 718.351L1121.63 798.348L1143.17 811.136L1139.56 718.351Z" fill="#070606"/>
<path d="M1254.87 686.74L1236.94 766.737L1258.48 779.525L1254.87 686.74Z" fill="#070606"/>
<path d="M1269.53 732.058L1237.01 765.549L1251.04 811.138L1269.53 732.058Z" fill="#070606"/>
<path d="M1237.21 685.344L1226.17 773.833H1248.24L1237.21 685.344Z" fill="#070606"/>
<path d="M1209.83 705.634L1207.12 798.641L1228.54 784.347L1209.83 705.634Z" fill="#070606"/>
<path d="M1198.17 723.182L1206.92 813.484L1225.43 781.305L1198.17 723.182Z" fill="#070606"/>
<path d="M1219.36 686.821L1216.07 779.64L1237.58 766.406L1219.36 686.821Z" fill="#070606"/>
<path d="M1230.01 701.553L1212.09 781.55L1233.63 794.338L1230.01 701.553Z" fill="#070606"/>
<path d="M1342.74 662.187L1324.81 742.184L1346.36 754.972L1342.74 662.187Z" fill="#070606"/>
<path d="M1357.4 707.504L1324.88 740.995L1338.92 786.585L1357.4 707.504Z" fill="#070606"/>
<path d="M1325.08 660.791L1314.05 749.28H1336.12L1325.08 660.791Z" fill="#070606"/>
<path d="M1297.71 681.08L1295 774.087L1316.41 759.794L1297.71 681.08Z" fill="#070606"/>
<path d="M1286.05 698.628L1294.79 788.93L1313.3 756.752L1286.05 698.628Z" fill="#070606"/>
<path d="M1307.23 662.268L1303.94 755.087L1325.45 741.853L1307.23 662.268Z" fill="#070606"/>
<path d="M1317.89 677L1299.96 756.997L1321.51 769.785L1317.89 677Z" fill="#070606"/>
<path d="M1555.96 694.494L1538.04 774.491L1559.58 787.279L1555.96 694.494Z" fill="#070606"/>
<path d="M1570.62 739.811L1538.1 773.302L1552.14 818.891L1570.62 739.811Z" fill="#070606"/>
<path d="M1538.31 693.098L1527.27 781.586H1549.34L1538.31 693.098Z" fill="#070606"/>
<path d="M1510.93 713.387L1508.22 806.394L1529.63 792.101L1510.93 713.387Z" fill="#070606"/>
<path d="M1499.27 730.935L1508.02 821.237L1526.53 789.059L1499.27 730.935Z" fill="#070606"/>
<path d="M1520.45 694.575L1517.17 787.394L1538.67 774.16L1520.45 694.575Z" fill="#070606"/>
<path d="M1531.11 709.306L1513.19 789.304L1534.73 802.091L1531.11 709.306Z" fill="#070606"/>
<path d="M1510.74 689.324L1492.81 769.321L1514.35 782.109L1510.74 689.324Z" fill="#070606"/>
<path d="M1525.4 734.642L1492.87 768.133L1506.91 813.722L1525.4 734.642Z" fill="#070606"/>
<path d="M1493.08 687.928L1482.04 776.417H1504.11L1493.08 687.928Z" fill="#070606"/>
<path d="M1465.7 708.218L1462.99 801.225L1484.41 786.931L1465.7 708.218Z" fill="#070606"/>
<path d="M1454.04 725.766L1462.79 816.068L1481.3 783.889L1454.04 725.766Z" fill="#070606"/>
<path d="M1475.23 689.405L1471.94 782.224L1493.45 768.99L1475.23 689.405Z" fill="#070606"/>
<path d="M1485.88 704.137L1467.96 784.134L1489.5 796.922L1485.88 704.137Z" fill="#070606"/>
<path d="M1287.17 703.538L1269.25 783.535L1290.79 796.323L1287.17 703.538Z" fill="#070606"/>
<path d="M1301.83 748.856L1269.31 782.347L1283.35 827.936L1301.83 748.856Z" fill="#070606"/>
<path d="M1269.51 702.142L1258.48 790.631H1280.55L1269.51 702.142Z" fill="#070606"/>
<path d="M1242.14 722.432L1239.43 815.439L1260.84 801.145L1242.14 722.432Z" fill="#070606"/>
<path d="M1230.48 739.98L1239.23 830.282L1257.73 798.103L1230.48 739.98Z" fill="#070606"/>
<path d="M1251.66 703.619L1248.38 796.439L1269.88 783.204L1251.66 703.619Z" fill="#070606"/>
<path d="M1262.32 718.351L1244.39 798.348L1265.94 811.136L1262.32 718.351Z" fill="#070606"/>
<path d="M1213.52 716.461L1195.59 796.459L1217.14 809.247L1213.52 716.461Z" fill="#070606"/>
<path d="M1228.18 761.779L1195.66 795.27L1209.69 840.859L1228.18 761.779Z" fill="#070606"/>
<path d="M1195.86 715.066L1184.82 803.554H1206.89L1195.86 715.066Z" fill="#070606"/>
<path d="M1168.49 735.355L1165.77 828.362L1187.19 814.069L1168.49 735.355Z" fill="#070606"/>
<path d="M1156.82 752.903L1165.57 843.205L1184.08 811.027L1156.82 752.903Z" fill="#070606"/>
<path d="M1178.01 716.543L1174.72 809.362L1196.23 796.128L1178.01 716.543Z" fill="#070606"/>
<path d="M1188.66 731.274L1170.74 811.272L1192.28 824.06L1188.66 731.274Z" fill="#070606"/>
<path d="M1058.45 703.539L1040.52 783.536L1062.07 796.324L1058.45 703.539Z" fill="#070606"/>
<path d="M1073.11 748.856L1040.59 782.347L1054.62 827.937L1073.11 748.856Z" fill="#070606"/>
<path d="M1040.79 702.143L1029.76 790.632H1051.82L1040.79 702.143Z" fill="#070606"/>
<path d="M1013.42 722.432L1010.71 815.439L1032.12 801.146L1013.42 722.432Z" fill="#070606"/>
<path d="M1001.75 739.98L1010.5 830.282L1029.01 798.104L1001.75 739.98Z" fill="#070606"/>
<path d="M1022.94 703.62L1019.65 796.439L1041.16 783.205L1022.94 703.62Z" fill="#070606"/>
<path d="M1033.59 718.352L1015.67 798.349L1037.21 811.137L1033.59 718.352Z" fill="#070606"/>
<path d="M893.038 691.908L875.112 771.905L896.656 784.693L893.038 691.908Z" fill="#070606"/>
<path d="M907.699 737.226L875.177 770.716L889.214 816.306L907.699 737.226Z" fill="#070606"/>
<path d="M875.378 690.512L864.344 779.001H886.412L875.378 690.512Z" fill="#070606"/>
<path d="M848.007 710.802L845.296 803.809L866.709 789.515L848.007 710.802Z" fill="#070606"/>
<path d="M836.344 728.35L845.091 818.652L863.599 786.473L836.344 728.35Z" fill="#070606"/>
<path d="M857.528 691.989L854.241 784.808L875.748 771.574L857.528 691.989Z" fill="#070606"/>
<path d="M868.184 706.721L850.258 786.718L871.803 799.506L868.184 706.721Z" fill="#070606"/>
<path d="M794.825 659.602L776.899 739.599L798.444 752.387L794.825 659.602Z" fill="#070606"/>
<path d="M809.486 704.919L776.964 738.41L791.001 784L809.486 704.919Z" fill="#070606"/>
<path d="M777.165 658.206L766.132 746.695H788.199L777.165 658.206Z" fill="#070606"/>
<path d="M749.794 678.495L747.084 771.502L768.496 757.209L749.794 678.495Z" fill="#070606"/>
<path d="M738.131 696.043L746.878 786.346L765.386 754.167L738.131 696.043Z" fill="#070606"/>
<path d="M759.315 659.683L756.028 752.502L777.536 739.268L759.315 659.683Z" fill="#070606"/>
<path d="M769.971 674.415L752.045 754.412L773.59 767.2L769.971 674.415Z" fill="#070606"/>
<path d="M774.151 649.263L756.225 729.261L777.77 742.049L774.151 649.263Z" fill="#070606"/>
<path d="M788.812 694.581L756.29 728.072L770.327 773.661L788.812 694.581Z" fill="#070606"/>
<path d="M756.492 647.868L745.458 736.356H767.525L756.492 647.868Z" fill="#070606"/>
<path d="M729.12 668.157L726.41 761.164L747.822 746.871L729.12 668.157Z" fill="#070606"/>
<path d="M717.457 685.705L726.204 776.007L744.712 743.829L717.457 685.705Z" fill="#070606"/>
<path d="M738.641 649.345L735.354 742.164L756.862 728.93L738.641 649.345Z" fill="#070606"/>
<path d="M749.298 664.076L731.372 744.074L752.916 756.862L749.298 664.076Z" fill="#070606"/>
<path d="M1477.13 662.187L1459.21 742.184L1480.75 754.972L1477.13 662.187Z" fill="#070606"/>
<path d="M1491.79 707.504L1459.27 740.995L1473.31 786.584L1491.79 707.504Z" fill="#070606"/>
<path d="M1459.47 660.791L1448.44 749.28H1470.51L1459.47 660.791Z" fill="#070606"/>
<path d="M1432.1 681.08L1429.39 774.087L1450.8 759.794L1432.1 681.08Z" fill="#070606"/>
<path d="M1420.44 698.628L1429.19 788.93L1447.69 756.752L1420.44 698.628Z" fill="#070606"/>
<path d="M1441.62 662.268L1438.34 755.087L1459.84 741.853L1441.62 662.268Z" fill="#070606"/>
<path d="M1452.28 677L1434.35 756.997L1455.9 769.785L1452.28 677Z" fill="#070606"/>
<path d="M1408.65 678.987L1390.72 758.984L1412.26 771.772L1408.65 678.987Z" fill="#070606"/>
<path d="M1423.31 724.304L1390.78 757.795L1404.82 803.385L1423.31 724.304Z" fill="#070606"/>
<path d="M1390.99 677.591L1379.95 766.08H1402.02L1390.99 677.591Z" fill="#070606"/>
<path d="M1363.61 697.88L1360.9 790.887L1382.32 776.594L1363.61 697.88Z" fill="#070606"/>
<path d="M1351.95 715.428L1360.7 805.73L1379.21 773.552L1351.95 715.428Z" fill="#070606"/>
<path d="M1373.14 679.068L1369.85 771.887L1391.36 758.653L1373.14 679.068Z" fill="#070606"/>
<path d="M1383.79 693.8L1365.87 773.797L1387.41 786.585L1383.79 693.8Z" fill="#070606"/>
<path d="M1135.98 719.045L1118.06 799.042L1139.6 811.83L1135.98 719.045Z" fill="#070606"/>
<path d="M1150.64 764.362L1118.12 797.853L1132.16 843.443L1150.64 764.362Z" fill="#070606"/>
<path d="M1118.32 717.649L1107.29 806.138H1129.36L1118.32 717.649Z" fill="#070606"/>
<path d="M1090.95 737.939L1088.24 830.945L1109.65 816.652L1090.95 737.939Z" fill="#070606"/>
<path d="M1079.29 755.487L1088.03 845.789L1106.54 813.61L1079.29 755.487Z" fill="#070606"/>
<path d="M1100.47 719.126L1097.18 811.945L1118.69 798.711L1100.47 719.126Z" fill="#070606"/>
<path d="M1111.13 733.858L1093.2 813.855L1114.75 826.643L1111.13 733.858Z" fill="#070606"/>
<path d="M1024.85 702.247L1006.92 782.244L1028.47 795.032L1024.85 702.247Z" fill="#070606"/>
<path d="M1039.51 747.564L1006.99 781.055L1021.02 826.645L1039.51 747.564Z" fill="#070606"/>
<path d="M1007.19 700.851L996.153 789.34H1018.22L1007.19 700.851Z" fill="#070606"/>
<path d="M979.815 721.14L977.105 814.147L998.517 799.854L979.815 721.14Z" fill="#070606"/>
<path d="M968.154 738.688L976.902 828.99L995.409 796.812L968.154 738.688Z" fill="#070606"/>
<path d="M989.337 702.328L986.05 795.147L1007.56 781.913L989.337 702.328Z" fill="#070606"/>
<path d="M999.993 717.06L982.067 797.057L1003.61 809.845L999.993 717.06Z" fill="#070606"/>
<path d="M1017.09 681.57L999.167 761.567L1020.71 774.355L1017.09 681.57Z" fill="#070606"/>
<path d="M1031.75 726.887L999.232 760.378L1013.27 805.968L1031.75 726.887Z" fill="#070606"/>
<path d="M999.433 680.174L988.399 768.663H1010.47L999.433 680.174Z" fill="#070606"/>
<path d="M972.061 700.463L969.351 793.47L990.763 779.177L972.061 700.463Z" fill="#070606"/>
<path d="M960.399 718.011L969.146 808.314L987.653 776.135L960.399 718.011Z" fill="#070606"/>
<path d="M981.583 681.651L978.296 774.47L999.803 761.236L981.583 681.651Z" fill="#070606"/>
<path d="M992.239 696.383L974.313 776.38L995.858 789.168L992.239 696.383Z" fill="#070606"/>
<path d="M562.219 624.712L544.293 704.709L565.838 717.497L562.219 624.712Z" fill="#070606"/>
<path d="M576.88 670.029L544.359 703.52L558.396 749.11L576.88 670.029Z" fill="#070606"/>
<path d="M544.56 623.316L533.526 711.805H555.594L544.56 623.316Z" fill="#070606"/>
<path d="M517.188 643.605L514.478 736.612L535.89 722.319L517.188 643.605Z" fill="#070606"/>
<path d="M505.526 661.153L514.273 751.456L532.78 719.277L505.526 661.153Z" fill="#070606"/>
<path d="M526.71 624.793L523.423 717.612L544.93 704.378L526.71 624.793Z" fill="#070606"/>
<path d="M537.366 639.525L519.44 719.522L540.985 732.31L537.366 639.525Z" fill="#070606"/>
<path d="M617.788 662.187L599.862 742.184L621.406 754.972L617.788 662.187Z" fill="#070606"/>
<path d="M632.449 707.504L599.927 740.995L613.964 786.584L632.449 707.504Z" fill="#070606"/>
<path d="M600.128 660.791L589.094 749.28H611.162L600.128 660.791Z" fill="#070606"/>
<path d="M572.757 681.08L570.046 774.087L591.459 759.794L572.757 681.08Z" fill="#070606"/>
<path d="M561.094 698.628L569.841 788.93L588.349 756.752L561.094 698.628Z" fill="#070606"/>
<path d="M582.278 662.268L578.991 755.087L600.498 741.853L582.278 662.268Z" fill="#070606"/>
<path d="M592.934 677L575.008 756.997L596.553 769.785L592.934 677Z" fill="#070606"/>
<path d="M346.417 626.003L328.491 706.001L350.035 718.789L346.417 626.003Z" fill="#070606"/>
<path d="M361.077 671.321L328.556 704.812L342.593 750.401L361.077 671.321Z" fill="#070606"/>
<path d="M328.757 624.608L317.723 713.096H339.791L328.757 624.608Z" fill="#070606"/>
<path d="M301.386 644.897L298.675 737.904L320.088 723.611L301.386 644.897Z" fill="#070606"/>
<path d="M289.723 662.445L298.47 752.747L316.978 720.569L289.723 662.445Z" fill="#070606"/>
<path d="M310.907 626.085L307.62 718.904L329.127 705.67L310.907 626.085Z" fill="#070606"/>
<path d="M321.563 640.816L303.637 720.814L325.182 733.602L321.563 640.816Z" fill="#070606"/>
<path d="M346.415 611.788L328.489 691.786L350.033 704.573L346.415 611.788Z" fill="#070606"/>
<path d="M361.076 657.106L328.554 690.597L342.591 736.186L361.076 657.106Z" fill="#070606"/>
<path d="M328.755 610.392L317.721 698.881H339.789L328.755 610.392Z" fill="#070606"/>
<path d="M301.384 630.682L298.673 723.689L320.086 709.396L301.384 630.682Z" fill="#070606"/>
<path d="M289.721 648.23L298.468 738.532L316.976 706.354L289.721 648.23Z" fill="#070606"/>
<path d="M310.905 611.87L307.618 704.689L329.125 691.455L310.905 611.87Z" fill="#070606"/>
<path d="M321.561 626.601L303.635 706.599L325.18 719.386L321.561 626.601Z" fill="#070606"/>
<path d="M261.126 588.528L243.2 668.525L264.744 681.313L261.126 588.528Z" fill="#070606"/>
<path d="M275.786 633.845L243.265 667.336L257.302 712.926L275.786 633.845Z" fill="#070606"/>
<path d="M243.466 587.131L232.432 675.62H254.5L243.466 587.131Z" fill="#070606"/>
<path d="M216.095 607.421L213.384 700.428L234.797 686.135L216.095 607.421Z" fill="#070606"/>
<path d="M204.432 624.969L213.179 715.271L231.687 683.093L204.432 624.969Z" fill="#070606"/>
<path d="M225.616 588.609L222.329 681.428L243.836 668.194L225.616 588.609Z" fill="#070606"/>
<path d="M236.272 603.341L218.346 683.338L239.891 696.126L236.272 603.341Z" fill="#070606"/>
<path d="M160.331 592.405L142.405 672.402L163.949 685.19L160.331 592.405Z" fill="#070606"/>
<path d="M174.992 637.722L142.47 671.213L156.507 716.803L174.992 637.722Z" fill="#070606"/>
<path d="M142.671 591.009L131.637 679.498H153.705L142.671 591.009Z" fill="#070606"/>
<path d="M115.3 611.298L112.589 704.305L134.002 690.012L115.3 611.298Z" fill="#070606"/>
<path d="M103.637 628.846L112.384 719.148L130.892 686.97L103.637 628.846Z" fill="#070606"/>
<path d="M124.821 592.486L121.534 685.305L143.041 672.071L124.821 592.486Z" fill="#070606"/>
<path d="M135.477 607.218L117.551 687.215L139.096 700.003L135.477 607.218Z" fill="#070606"/>
<path d="M84.0866 616.958L66.1607 696.956L87.7053 709.743L84.0866 616.958Z" fill="#070606"/>
<path d="M98.7474 662.276L66.2259 695.767L80.2627 741.356L98.7474 662.276Z" fill="#070606"/>
<path d="M66.4271 615.562L55.3933 704.051H77.461L66.4271 615.562Z" fill="#070606"/>
<path d="M39.0556 635.852L36.3453 728.859L57.7575 714.565L39.0556 635.852Z" fill="#070606"/>
<path d="M27.3947 653.4L36.1419 743.702L54.6495 711.523L27.3947 653.4Z" fill="#070606"/>
<path d="M48.5769 617.039L45.29 709.859L66.7973 696.624L48.5769 617.039Z" fill="#070606"/>
<path d="M59.235 631.771L41.3091 711.769L62.8538 724.556L59.235 631.771Z" fill="#070606"/>
<path d="M513.116 636.342L495.19 716.339L516.735 729.127L513.116 636.342Z" fill="#070606"/>
<path d="M527.777 681.659L495.255 715.15L509.292 760.74L527.777 681.659Z" fill="#070606"/>
<path d="M495.456 634.946L484.423 723.435H506.49L495.456 634.946Z" fill="#070606"/>
<path d="M468.085 655.235L465.375 748.242L486.787 733.949L468.085 655.235Z" fill="#070606"/>
<path d="M456.422 672.783L465.169 763.085L483.677 730.907L456.422 672.783Z" fill="#070606"/>
<path d="M477.606 636.423L474.319 729.242L495.827 716.008L477.606 636.423Z" fill="#070606"/>
<path d="M488.262 651.155L470.336 731.152L491.881 743.94L488.262 651.155Z" fill="#070606"/>
<path d="M675.94 641.509L658.014 721.507L679.559 734.294L675.94 641.509Z" fill="#070606"/>
<path d="M690.601 686.827L658.079 720.318L672.116 765.907L690.601 686.827Z" fill="#070606"/>
<path d="M658.281 640.114L647.247 728.602H669.315L658.281 640.114Z" fill="#070606"/>
<path d="M630.909 660.403L628.199 753.41L649.611 739.116L630.909 660.403Z" fill="#070606"/>
<path d="M619.246 677.952L627.993 768.254L646.501 736.075L619.246 677.952Z" fill="#070606"/>
<path d="M640.43 641.59L637.144 734.41L658.651 721.175L640.43 641.59Z" fill="#070606"/>
<path d="M651.087 656.322L633.161 736.32L654.705 749.107L651.087 656.322Z" fill="#070606"/>
<path d="M642.339 633.756L624.413 713.753L645.957 726.541L642.339 633.756Z" fill="#070606"/>
<path d="M656.999 679.074L624.478 712.565L638.515 758.154L656.999 679.074Z" fill="#070606"/>
<path d="M624.679 632.36L613.645 720.849H635.713L624.679 632.36Z" fill="#070606"/>
<path d="M597.308 652.65L594.597 745.657L616.009 731.363L597.308 652.65Z" fill="#070606"/>
<path d="M585.645 670.198L594.392 760.5L612.899 728.321L585.645 670.198Z" fill="#070606"/>
<path d="M606.829 633.837L603.542 726.657L625.049 713.422L606.829 633.837Z" fill="#070606"/>
<path d="M617.485 648.569L599.559 728.566L621.104 741.354L617.485 648.569Z" fill="#070606"/>
<path d="M723.755 654.433L705.829 734.43L727.373 747.218L723.755 654.433Z" fill="#070606"/>
<path d="M738.415 699.751L705.894 733.242L719.931 778.831L738.415 699.751Z" fill="#070606"/>
<path d="M706.095 653.037L695.061 741.526H717.129L706.095 653.037Z" fill="#070606"/>
<path d="M678.724 673.327L676.013 766.334L697.426 752.04L678.724 673.327Z" fill="#070606"/>
<path d="M667.061 690.875L675.808 781.177L694.315 748.998L667.061 690.875Z" fill="#070606"/>
<path d="M688.245 654.514L684.958 747.334L706.465 734.099L688.245 654.514Z" fill="#070606"/>
<path d="M698.901 669.246L680.975 749.243L702.52 762.031L698.901 669.246Z" fill="#070606"/>
</g>
</g>
<defs>
<linearGradient id="paint0_linear" x1="989.005" y1="-44.0287" x2="984.993" y2="507.73" gradientUnits="userSpaceOnUse">
<stop stop-color="#557C99"/>
<stop offset="0.197099" stop-color="#86B2D3"/>
<stop offset="0.50737" stop-color="#CBD7D8"/>
<stop offset="1" stop-color="#BECED6"/>
</linearGradient>
<linearGradient id="paint1_linear" x1="551.58" y1="87.8729" x2="550.934" y2="558.898" gradientUnits="userSpaceOnUse">
<stop stop-color="#718DD3"/>
<stop offset="0.443093" stop-color="#BED1DA" stop-opacity="0"/>
<stop offset="1" stop-color="#C2D0D9"/>
</linearGradient>
<linearGradient id="paint2_linear" x1="1116.09" y1="253.813" x2="1119.55" y2="724.826" gradientUnits="userSpaceOnUse">
<stop stop-color="#718DD3"/>
<stop offset="0.265461" stop-color="#BED1DA" stop-opacity="0"/>
<stop offset="1" stop-color="#C2D0D9"/>
</linearGradient>
<linearGradient id="paint3_linear" x1="716.988" y1="137.625" x2="807.54" y2="685.675" gradientUnits="userSpaceOnUse">
<stop offset="0.264036" stop-color="#5080A2"/>
<stop offset="0.460477" stop-color="#80A4B9"/>
<stop offset="0.95725" stop-color="#C6CFCA"/>
</linearGradient>
<linearGradient id="paint4_linear" x1="695.02" y1="485.24" x2="865.667" y2="1438.63" gradientUnits="userSpaceOnUse">
<stop stop-color="#3C5168"/>
<stop offset="0.180685" stop-color="#6C7266"/>
<stop offset="0.51559" stop-color="#8E846A" stop-opacity="0.58"/>
</linearGradient>
<linearGradient id="paint5_linear" x1="1462.63" y1="705.888" x2="605.221" y2="842.866" gradientUnits="userSpaceOnUse">
<stop offset="0.228791" stop-color="#3B2F19"/>
<stop offset="1" stop-color="#887449"/>
</linearGradient>
<linearGradient id="paint6_linear" x1="163.127" y1="630.955" x2="146.258" y2="1597.35" gradientUnits="userSpaceOnUse">
<stop stop-color="#060606"/>
<stop offset="1" stop-color="#0B0804"/>
</linearGradient>
<clipPath id="clip0">
<rect width="1550" height="875" fill="white"/>
</clipPath>
<clipPath id="clip1">
<rect width="1555.66" height="875" fill="white" transform="matrix(-1 0 0 1 1555.66 0)"/>
</clipPath>
</defs>
</svg>
