<svg width="480" height="565" viewBox="0 0 480 565" fill="none" xmlns="http://www.w3.org/2000/svg">
<g clip-path="url(#clip0)">
<rect width="480" height="565" fill="white"/>
<g clip-path="url(#clip1)">
<rect width="1294.62" height="728.178" transform="matrix(-1 0 0 1 1255.62 -49)" fill="url(#paint0_linear)"/>
<path d="M1070.59 184.637L770.011 195.928L707.099 179.259L639.886 160.977H603.86L579.125 146.459L556.541 152.374L528.581 134.092L502.233 124.413L463.518 134.092L444.16 124.413L395.767 134.092L322.101 124.413L233.379 113.121L198.966 98.0656L170.467 103.443L141.431 90L122.611 98.0656L99.4899 90L66.152 113.121L48.9454 108.282L18.8337 118.499L-40.3141 144.308L-66.124 139.469L-98.9242 151.299H-117.206L-155.384 160.977L-242.492 151.299L-264 434.671H1026.5L1070.59 184.637Z" fill="url(#paint1_linear)"/>
<path d="M1557.78 298.354L1257.31 312.268L1194.26 296.149L1126.89 278.454L1090.86 278.769L1066 264.467L1043.47 270.579L1015.35 252.541L988.92 243.093L950.291 253.109L930.85 243.599L882.542 253.7L808.795 244.665L719.978 234.147L685.435 219.393L656.984 225.018L627.832 211.829L609.083 220.059L585.892 212.195L552.757 235.607L535.509 230.918L505.488 241.397L446.567 267.722L420.716 263.108L388.021 275.223L369.739 275.383L331.648 285.394L223.542 344.412L225.423 560.025L1515.87 548.763L1557.78 298.354Z" fill="url(#paint2_linear)"/>
<path d="M1372.4 -4.3731L1331.07 12.6994L1318.43 -4.3731L1301.76 1.37578L1259.82 34.1031L1244.77 28.7989L1236.16 34.1031L1227.56 28.7989L1210.89 34.1031L1192.07 28.7989L1099.59 1.37556L990.97 65.9005L983.98 77.1923L977.527 94.399L858.156 133.652L847.402 129.35L813.526 140.104L793.094 149.783L728.569 149.783L697.919 168.065L671.034 176.131L628.555 200.327L604.896 206.78L571.02 203.554L516.712 214.845L417.236 187.96L350.56 206.78L304.854 206.78L209.68 242.269L151.07 246.57L107.515 264.315L81.1677 269.692L15.0296 303.567L-59.1741 334.754L-108.105 348.735L-146.283 348.735L-87.6726 635.333L1428.95 222.451L1372.4 -4.3731Z" fill="url(#paint3_linear)"/>
<path d="M80.7866 336.23C71.3989 336.23 62.1292 338.32 53.6499 342.348L-345.122 531.795L-516.087 587.398C-520.038 588.683 -523.853 590.354 -527.476 592.387L-2509.98 1704.91C-2574.58 1741.16 -2534.91 1839.83 -2463.19 1821.28L3096.73 383.385C3166.08 365.45 3156.88 264.214 3085.43 259.083L1173.18 121.746C1166.18 121.243 1159.15 121.908 1152.37 123.713L856.824 202.425C852.067 203.691 847.475 205.509 843.14 207.841L614.552 330.806C607.884 334.393 600.627 336.753 593.126 337.775L417.399 361.703C411.303 362.533 405.119 362.469 399.041 361.514L243.173 336.998C239.923 336.487 236.638 336.23 233.348 336.23L80.7866 336.23Z" fill="url(#paint4_linear)"/>
<path d="M1330.38 428.655C1320.51 426.102 1310.16 425.974 1300.23 428.282L1121.19 469.888L646.954 640.508C642.298 642.183 637.461 643.306 632.543 643.854L374.319 672.604L-1461.77 1104.32C-1534.88 1121.51 -1522.4 1229.12 -1447.3 1229.12L4237.23 1229.12C4308.86 1229.12 4325.3 1128.81 4257.41 1105.95L2443.81 495.328C2434.99 492.358 2425.62 491.371 2416.37 492.439L1847.85 558.107C1840.12 559 1832.29 558.459 1824.76 556.511L1330.38 428.655Z" fill="url(#paint5_linear)"/>
<path d="M32.4294 454.037C24.8349 452.952 17.1062 453.259 9.62137 454.941L-2925.13 1114.54C-2998.12 1130.94 -2987.17 1238.16 -2912.36 1239.47L3066.67 1343.83C3138.29 1345.08 3156.48 1245.07 3089 1221.03L1195.16 546.369C1186.15 543.157 1176.52 542.033 1167.01 543.083L886.654 574.019C881.372 574.602 876.037 574.516 870.777 573.765L32.4294 454.037Z" fill="url(#paint6_linear)"/>
<path d="M48.7722 411.124L33.2275 480.494L51.9102 491.583L48.7722 411.124Z" fill="#070606"/>
<path d="M61.4841 450.422L33.2828 479.464L45.4549 518.997L61.4841 450.422Z" fill="#070606"/>
<path d="M33.4575 409.914L23.8894 486.648H43.0257L33.4575 409.914Z" fill="#070606"/>
<path d="M9.72127 427.508L7.37099 508.16L25.9388 495.766L9.72127 427.508Z" fill="#070606"/>
<path d="M-0.390901 442.724L7.1943 521.031L23.2433 493.127L-0.390901 442.724Z" fill="#070606"/>
<path d="M17.9784 411.195L15.1281 491.684L33.7784 480.207L17.9784 411.195Z" fill="#070606"/>
<path d="M27.2194 423.971L11.6748 493.341L30.3575 504.43L27.2194 423.971Z" fill="#070606"/>
<path d="M145.141 396.555L129.597 465.925L148.279 477.014L145.141 396.555Z" fill="#070606"/>
<path d="M157.855 435.853L129.654 464.895L141.826 504.428L157.855 435.853Z" fill="#070606"/>
<path d="M129.829 395.345L120.261 472.079H139.397L129.829 395.345Z" fill="#070606"/>
<path d="M106.09 412.939L103.74 493.591L122.308 481.197L106.09 412.939Z" fill="#070606"/>
<path d="M95.9782 428.155L103.563 506.462L119.612 478.558L95.9782 428.155Z" fill="#070606"/>
<path d="M114.349 396.626L111.499 477.115L130.149 465.639L114.349 396.626Z" fill="#070606"/>
<path d="M123.591 409.402L108.046 478.772L126.729 489.861L123.591 409.402Z" fill="#070606"/>
<path d="M214.618 455.946L199.073 525.316L217.756 536.405L214.618 455.946Z" fill="#070606"/>
<path d="M227.332 495.244L199.13 524.286L211.303 563.819L227.332 495.244Z" fill="#070606"/>
<path d="M199.305 454.736L189.737 531.47H208.873L199.305 454.736Z" fill="#070606"/>
<path d="M175.567 472.33L173.217 552.982L191.785 540.587L175.567 472.33Z" fill="#070606"/>
<path d="M165.455 487.546L173.04 565.852L189.089 537.948L165.455 487.546Z" fill="#070606"/>
<path d="M183.826 456.016L180.976 536.505L199.626 525.029L183.826 456.016Z" fill="#070606"/>
<path d="M193.067 468.793L177.522 538.163L196.205 549.252L193.067 468.793Z" fill="#070606"/>
<path d="M99.1979 449.222L83.6533 518.592L102.336 529.681L99.1979 449.222Z" fill="#070606"/>
<path d="M111.912 488.52L83.7105 517.562L95.8827 557.095L111.912 488.52Z" fill="#070606"/>
<path d="M83.8853 448.012L74.3171 524.746H93.4534L83.8853 448.012Z" fill="#070606"/>
<path d="M60.147 465.606L57.7968 546.258L76.3646 533.863L60.147 465.606Z" fill="#070606"/>
<path d="M50.0349 480.822L57.6201 559.128L73.6691 531.224L50.0349 480.822Z" fill="#070606"/>
<path d="M68.4061 449.293L65.5559 529.782L84.2061 518.305L68.4061 449.293Z" fill="#070606"/>
<path d="M77.6472 462.068L62.1025 531.439L80.7852 542.528L77.6472 462.068Z" fill="#070606"/>
<path d="M-0.146737 463.867L-28.3481 492.909L-16.1759 532.442L-0.146737 463.867Z" fill="#070606"/>
<path d="M67.821 420.087L52.2764 489.457L70.959 500.546L67.821 420.087Z" fill="#070606"/>
<path d="M80.5349 459.385L52.3336 488.427L64.5057 527.96L80.5349 459.385Z" fill="#070606"/>
<path d="M52.5083 418.877L42.9402 495.611H62.0764L52.5083 418.877Z" fill="#070606"/>
<path d="M28.7701 436.471L26.4198 517.123L44.9876 504.729L28.7701 436.471Z" fill="#070606"/>
<path d="M18.6579 451.687L26.2431 529.994L42.2921 502.09L18.6579 451.687Z" fill="#070606"/>
<path d="M37.0292 420.158L34.1789 500.647L52.8292 489.171L37.0292 420.158Z" fill="#070606"/>
<path d="M46.2702 432.934L30.7256 502.304L49.4082 513.393L46.2702 432.934Z" fill="#070606"/>
<path d="M249.356 434.654L233.812 504.025L252.494 515.114L249.356 434.654Z" fill="#070606"/>
<path d="M262.07 473.952L233.869 502.994L246.041 542.528L262.07 473.952Z" fill="#070606"/>
<path d="M234.043 433.445L224.475 510.179H243.612L234.043 433.445Z" fill="#070606"/>
<path d="M210.305 451.039L207.955 531.691L226.523 519.296L210.305 451.039Z" fill="#070606"/>
<path d="M200.193 466.255L207.778 544.561L223.827 516.657L200.193 466.255Z" fill="#070606"/>
<path d="M218.564 434.725L215.714 515.214L234.364 503.738L218.564 434.725Z" fill="#070606"/>
<path d="M227.805 447.501L212.261 516.872L230.943 527.961L227.805 447.501Z" fill="#070606"/>
<path d="M288.579 441.377L273.034 510.747L291.717 521.836L288.579 441.377Z" fill="#070606"/>
<path d="M301.291 480.675L273.089 509.717L285.262 549.25L301.291 480.675Z" fill="#070606"/>
<path d="M273.264 440.167L263.696 516.901H282.832L273.264 440.167Z" fill="#070606"/>
<path d="M249.528 457.762L247.178 538.413L265.745 526.019L249.528 457.762Z" fill="#070606"/>
<path d="M239.416 472.977L247.001 551.284L263.05 523.38L239.416 472.977Z" fill="#070606"/>
<path d="M257.785 441.448L254.935 521.937L273.585 510.461L257.785 441.448Z" fill="#070606"/>
<path d="M267.026 454.224L251.481 523.594L270.164 534.683L267.026 454.224Z" fill="#070606"/>
<path d="M384.95 472.756L369.405 542.126L388.088 553.215L384.95 472.756Z" fill="#070606"/>
<path d="M397.664 512.054L369.462 541.096L381.635 580.629L397.664 512.054Z" fill="#070606"/>
<path d="M369.637 471.546L360.069 548.28H379.205L369.637 471.546Z" fill="#070606"/>
<path d="M345.899 489.14L343.549 569.792L362.117 557.398L345.899 489.14Z" fill="#070606"/>
<path d="M335.787 504.356L343.372 582.662L359.421 554.758L335.787 504.356Z" fill="#070606"/>
<path d="M354.158 472.827L351.308 553.316L369.958 541.84L354.158 472.827Z" fill="#070606"/>
<path d="M363.399 485.603L347.854 554.973L366.537 566.062L363.399 485.603Z" fill="#070606"/>
<path d="M210.139 405.52L194.595 474.89L213.277 485.979L210.139 405.52Z" fill="#070606"/>
<path d="M222.853 444.818L194.652 473.86L206.824 513.393L222.853 444.818Z" fill="#070606"/>
<path d="M194.827 404.31L185.259 481.044H204.395L194.827 404.31Z" fill="#070606"/>
<path d="M171.088 421.904L168.738 502.556L187.306 490.162L171.088 421.904Z" fill="#070606"/>
<path d="M160.976 437.12L168.561 515.427L184.61 487.523L160.976 437.12Z" fill="#070606"/>
<path d="M179.348 405.591L176.497 486.08L195.148 474.603L179.348 405.591Z" fill="#070606"/>
<path d="M188.589 418.367L173.044 487.737L191.727 498.826L188.589 418.367Z" fill="#070606"/>
<path d="M454.425 479.48L438.88 548.85L457.563 559.939L454.425 479.48Z" fill="#070606"/>
<path d="M467.136 518.778L438.935 547.82L451.107 587.353L467.136 518.778Z" fill="#070606"/>
<path d="M439.11 478.27L429.542 555.004H448.678L439.11 478.27Z" fill="#070606"/>
<path d="M415.374 495.864L413.023 576.516L431.591 564.121L415.374 495.864Z" fill="#070606"/>
<path d="M405.261 511.08L412.847 589.386L428.896 561.482L405.261 511.08Z" fill="#070606"/>
<path d="M423.631 479.551L420.78 560.04L439.431 548.563L423.631 479.551Z" fill="#070606"/>
<path d="M432.872 492.327L417.327 561.697L436.01 572.786L432.872 492.327Z" fill="#070606"/>
<path d="M487.297 471.546L477.729 548.28H496.866L487.297 471.546Z" fill="#070606"/>
<path d="M463.561 489.14L461.211 569.792L479.779 557.398L463.561 489.14Z" fill="#070606"/>
<path d="M453.449 504.356L461.034 582.662L477.083 554.758L453.449 504.356Z" fill="#070606"/>
<path d="M471.818 472.827L468.968 553.316L487.618 541.84L471.818 472.827Z" fill="#070606"/>
<path d="M481.059 485.603L465.515 554.973L484.197 566.062L481.059 485.603Z" fill="#070606"/>
<path d="M367.018 446.982L351.474 516.352L370.156 527.441L367.018 446.982Z" fill="#070606"/>
<path d="M379.732 486.28L351.531 515.322L363.703 554.856L379.732 486.28Z" fill="#070606"/>
<path d="M351.706 445.773L342.137 522.507H361.274L351.706 445.773Z" fill="#070606"/>
<path d="M327.967 463.367L325.617 544.019L344.185 531.624L327.967 463.367Z" fill="#070606"/>
<path d="M317.855 478.583L325.44 556.889L341.489 528.985L317.855 478.583Z" fill="#070606"/>
<path d="M336.226 447.053L333.376 527.542L352.026 516.066L336.226 447.053Z" fill="#070606"/>
<path d="M345.467 459.829L329.923 529.199L348.606 540.288L345.467 459.829Z" fill="#070606"/>
<path d="M415.206 479.48L399.661 548.85L418.344 559.939L415.206 479.48Z" fill="#070606"/>
<path d="M427.92 518.778L399.718 547.82L411.89 587.353L427.92 518.778Z" fill="#070606"/>
<path d="M399.893 478.27L390.325 555.004H409.461L399.893 478.27Z" fill="#070606"/>
<path d="M376.155 495.864L373.805 576.516L392.372 564.121L376.155 495.864Z" fill="#070606"/>
<path d="M366.043 511.08L373.628 589.386L389.677 561.482L366.043 511.08Z" fill="#070606"/>
<path d="M384.414 479.551L381.564 560.04L400.214 548.563L384.414 479.551Z" fill="#070606"/>
<path d="M393.655 492.327L378.11 561.697L396.793 572.786L393.655 492.327Z" fill="#070606"/>
<path d="M179.882 448.101L164.337 517.472L183.02 528.561L179.882 448.101Z" fill="#070606"/>
<path d="M192.595 487.4L164.394 516.442L176.566 555.975L192.595 487.4Z" fill="#070606"/>
<path d="M164.569 446.892L155.001 523.626H174.137L164.569 446.892Z" fill="#070606"/>
<path d="M140.831 464.486L138.48 545.138L157.048 532.743L140.831 464.486Z" fill="#070606"/>
<path d="M130.718 479.702L138.304 558.008L154.353 530.104L130.718 479.702Z" fill="#070606"/>
<path d="M149.09 448.172L146.239 528.661L164.89 517.185L149.09 448.172Z" fill="#070606"/>
<path d="M158.331 460.948L142.786 530.319L161.469 541.408L158.331 460.948Z" fill="#070606"/>
<path d="M179.882 435.775L164.337 505.146L183.02 516.235L179.882 435.775Z" fill="#070606"/>
<path d="M192.595 475.074L164.394 504.116L176.566 543.649L192.595 475.074Z" fill="#070606"/>
<path d="M164.569 434.566L155.001 511.3H174.137L164.569 434.566Z" fill="#070606"/>
<path d="M140.831 452.16L138.48 532.812L157.048 520.417L140.831 452.16Z" fill="#070606"/>
<path d="M130.718 467.376L138.304 545.682L154.353 517.778L130.718 467.376Z" fill="#070606"/>
<path d="M149.09 435.846L146.239 516.336L164.89 504.859L149.09 435.846Z" fill="#070606"/>
<path d="M158.331 448.622L142.786 517.993L161.469 529.082L158.331 448.622Z" fill="#070606"/>
<path d="M105.923 415.605L90.3779 484.976L109.061 496.065L105.923 415.605Z" fill="#070606"/>
<path d="M118.636 454.903L90.4351 483.945L102.607 523.479L118.636 454.903Z" fill="#070606"/>
<path d="M90.6099 414.396L81.0418 491.13H100.178L90.6099 414.396Z" fill="#070606"/>
<path d="M66.8717 431.99L64.5214 512.642L83.0892 500.247L66.8717 431.99Z" fill="#070606"/>
<path d="M56.7595 447.206L64.3447 525.512L80.3937 497.608L56.7595 447.206Z" fill="#070606"/>
<path d="M75.1307 415.676L72.2805 496.165L90.9307 484.689L75.1307 415.676Z" fill="#070606"/>
<path d="M84.3718 428.452L68.8271 497.823L87.5098 508.912L84.3718 428.452Z" fill="#070606"/>
<path d="M18.5143 418.966L2.96973 488.336L21.6524 499.425L18.5143 418.966Z" fill="#070606"/>
<path d="M31.2283 458.264L3.02693 487.306L15.1991 526.839L31.2283 458.264Z" fill="#070606"/>
<path d="M3.20168 417.757L-6.36645 494.49H12.7698L3.20168 417.757Z" fill="#070606"/>
<path d="M-12.2775 419.037L-15.1277 499.526L3.52251 488.05L-12.2775 419.037Z" fill="#070606"/>
<path d="M-3.03643 431.813L-18.5811 501.183L0.101595 512.273L-3.03643 431.813Z" fill="#070606"/>
<path d="M324.434 457.067L308.89 526.437L327.572 537.526L324.434 457.067Z" fill="#070606"/>
<path d="M337.148 496.365L308.947 525.407L321.119 564.94L337.148 496.365Z" fill="#070606"/>
<path d="M309.122 455.857L299.553 532.591H318.69L309.122 455.857Z" fill="#070606"/>
<path d="M285.383 473.452L283.033 554.104L301.601 541.709L285.383 473.452Z" fill="#070606"/>
<path d="M275.271 488.667L282.856 566.974L298.905 539.07L275.271 488.667Z" fill="#070606"/>
<path d="M293.642 457.138L290.792 537.627L309.442 526.151L293.642 457.138Z" fill="#070606"/>
<path d="M302.883 469.914L287.339 539.284L306.022 550.373L302.883 469.914Z" fill="#070606"/>
<path d="M465.632 461.548L450.087 530.918L468.77 542.007L465.632 461.548Z" fill="#070606"/>
<path d="M478.343 500.846L450.142 529.888L462.314 569.421L478.343 500.846Z" fill="#070606"/>
<path d="M450.317 460.338L440.749 537.072H459.885L450.317 460.338Z" fill="#070606"/>
<path d="M426.581 477.932L424.23 558.584L442.798 546.19L426.581 477.932Z" fill="#070606"/>
<path d="M416.468 493.149L424.054 571.456L440.103 543.552L416.468 493.149Z" fill="#070606"/>
<path d="M434.838 461.619L431.988 542.108L450.638 530.632L434.838 461.619Z" fill="#070606"/>
<path d="M444.079 474.395L428.534 543.765L447.217 554.854L444.079 474.395Z" fill="#070606"/>
<path d="M436.499 454.823L420.954 524.193L439.637 535.283L436.499 454.823Z" fill="#070606"/>
<path d="M449.211 494.121L421.009 523.163L433.182 562.697L449.211 494.121Z" fill="#070606"/>
<path d="M421.184 453.614L411.616 530.348H430.752L421.184 453.614Z" fill="#070606"/>
<path d="M397.448 471.208L395.098 551.86L413.665 539.465L397.448 471.208Z" fill="#070606"/>
<path d="M387.336 486.424L394.921 564.73L410.97 536.826L387.336 486.424Z" fill="#070606"/>
<path d="M405.705 454.894L402.855 535.383L421.505 523.907L405.705 454.894Z" fill="#070606"/>
<path d="M414.946 467.67L399.401 537.041L418.084 548.13L414.946 467.67Z" fill="#070606"/>
<path d="M468.045 489.14L465.695 569.792L484.263 557.398L468.045 489.14Z" fill="#070606"/>
<path d="M457.933 504.356L465.519 582.662L481.568 554.758L457.933 504.356Z" fill="#070606"/>
<path d="M476.303 472.827L473.452 553.316L492.103 541.84L476.303 472.827Z" fill="#070606"/>
<path d="M485.544 485.603L469.999 554.973L488.682 566.062L485.544 485.603Z" fill="#070606"/>
</g>
</g>
<defs>
<linearGradient id="paint0_linear" x1="823.053" y1="-36.6408" x2="819.714" y2="422.534" gradientUnits="userSpaceOnUse">
<stop stop-color="#557C99"/>
<stop offset="0.197099" stop-color="#86B2D3"/>
<stop offset="0.50737" stop-color="#CBD7D8"/>
<stop offset="1" stop-color="#BECED6"/>
</linearGradient>
<linearGradient id="paint1_linear" x1="403.832" y1="42.6817" x2="403.295" y2="434.671" gradientUnits="userSpaceOnUse">
<stop stop-color="#718DD3"/>
<stop offset="0.443093" stop-color="#BED1DA" stop-opacity="0"/>
<stop offset="1" stop-color="#C2D0D9"/>
</linearGradient>
<linearGradient id="paint2_linear" x1="889.81" y1="162.223" x2="892.693" y2="554.202" gradientUnits="userSpaceOnUse">
<stop stop-color="#718DD3"/>
<stop offset="0.265461" stop-color="#BED1DA" stop-opacity="0"/>
<stop offset="1" stop-color="#C2D0D9"/>
</linearGradient>
<linearGradient id="paint3_linear" x1="599.361" y1="-10.8424" x2="674.719" y2="445.247" gradientUnits="userSpaceOnUse">
<stop offset="0.264036" stop-color="#5080A2"/>
<stop offset="0.460477" stop-color="#80A4B9"/>
<stop offset="0.95725" stop-color="#C6CFCA"/>
</linearGradient>
<linearGradient id="paint4_linear" x1="125.91" y1="321.552" x2="267.923" y2="1114.97" gradientUnits="userSpaceOnUse">
<stop stop-color="#3C5168"/>
<stop offset="0.180685" stop-color="#6C7266"/>
<stop offset="0.51559" stop-color="#8E846A" stop-opacity="0.58"/>
</linearGradient>
<linearGradient id="paint5_linear" x1="1180.34" y1="591.947" x2="466.804" y2="705.942" gradientUnits="userSpaceOnUse">
<stop offset="0.228791" stop-color="#3B2F19"/>
<stop offset="1" stop-color="#887449"/>
</linearGradient>
<linearGradient id="paint6_linear" x1="20.9422" y1="452.396" x2="6.31458" y2="1290.41" gradientUnits="userSpaceOnUse">
<stop stop-color="#060606"/>
<stop offset="1" stop-color="#0B0804"/>
</linearGradient>
<clipPath id="clip0">
<rect width="480" height="565" fill="white"/>
</clipPath>
<clipPath id="clip1">
<rect width="1294.62" height="728.178" fill="white" transform="matrix(-1 0 0 1 1255.62 -49)"/>
</clipPath>
</defs>
</svg>
