<svg width="414" height="854" viewBox="0 0 414 854" fill="none" xmlns="http://www.w3.org/2000/svg">
<g clip-path="url(#clip0)">
<rect width="414" height="854" fill="white"/>
<g clip-path="url(#clip1)">
<rect width="635" height="854" transform="matrix(-1 0 0 1 635 0)" fill="url(#paint0_linear)"/>
<path d="M513.615 120.397L351.413 127.145L317.464 117.183L281.194 106.258H261.753L248.405 97.5816L236.218 101.116L221.13 90.1908L206.912 84.4066L186.02 90.1908L175.574 84.4066L149.459 90.1908L109.707 84.4066L61.8298 77.6585L43.2593 68.6609L27.8806 71.8743L12.2118 63.8408L2.05603 68.6609L-10.421 63.8408L-28.4111 77.6585L-37.6964 74.7664L-53.9456 80.8719L-85.8636 96.2962L-99.7914 93.4042L-117.491 100.474H-127.357L-147.959 106.258L-194.965 100.474L-206.572 269.82H489.821L513.615 120.397Z" fill="url(#paint1_linear)"/>
<path d="M767.781 173.444L605.638 181.76L571.612 172.127L535.257 161.552L515.817 161.74L502.401 153.193L490.243 156.846L475.069 146.066L460.806 140.42L439.96 146.405L429.469 140.723L403.401 146.759L363.604 141.359L315.676 135.074L297.035 126.256L281.683 129.618L265.951 121.736L255.834 126.654L243.319 121.955L225.439 135.946L216.131 133.144L199.93 139.406L168.135 155.138L154.185 152.381L136.541 159.621L126.676 159.717L106.121 165.7L47.7837 200.969L48.799 329.822L745.166 323.092L767.781 173.444Z" fill="url(#paint2_linear)"/>
<path d="M645.249 56.1729L622.946 66.3756L616.127 56.1729L607.132 59.6085L584.499 79.1667L576.375 75.9969L571.732 79.1667L567.089 75.9969L558.094 79.1667L547.939 75.9969L498.031 59.6083L439.418 98.1692L435.645 104.917L432.163 115.2L367.747 138.658L361.944 136.087L343.663 142.514L332.637 148.298L297.818 148.298L281.278 159.224L266.77 164.044L243.847 178.504L231.08 182.361L212.8 180.432L183.493 187.181L129.813 171.114L93.8325 182.361L69.168 182.36L17.809 203.569L-13.8188 206.14L-37.3221 216.744L-51.5401 219.957L-87.2303 240.202L-127.273 258.84L-153.678 267.194L-174.279 267.194L-142.652 438.469L675.767 191.726L645.249 56.1729Z" fill="url(#paint3_linear)"/>
<path d="M647.31 145.094C640.571 143.072 633.401 142.971 626.607 144.803L509.279 176.442L197.388 306.653C194.279 307.951 191.011 308.827 187.67 309.259L17.9689 331.184L-1266.86 681.748C-1309.4 693.353 -1301 756 -1256.91 756L2612.42 756C2654.2 756 2665.09 698.211 2626.17 683.006L1379.61 195.972C1373.64 193.641 1367.18 192.865 1360.83 193.716L987.675 243.732C982.351 244.445 976.936 244.016 971.791 242.472L647.31 145.094Z" fill="url(#paint4_linear)"/>
<path d="M-15.1571 661.649C-21.7798 660.703 -28.5194 660.97 -35.0467 662.437L-2472.6 1210.29C-2536.26 1224.59 -2526.7 1318.09 -2461.47 1319.23L2510.19 1406.01C2572.65 1407.1 2588.5 1319.88 2529.66 1298.92L957.998 739.034C950.136 736.233 941.74 735.253 933.443 736.169L699.608 761.971C695.002 762.48 690.35 762.405 685.762 761.75L-15.1571 661.649Z" fill="url(#paint5_linear)"/>
<path d="M-1.88396 625.677L-14.893 683.732L0.742216 693.013L-1.88396 625.677Z" fill="#070606"/>
<path d="M8.7559 658.565L-14.8454 682.87L-4.65871 715.955L8.7559 658.565Z" fill="#070606"/>
<path d="M78.7679 613.486L65.7588 671.541L81.3941 680.821L78.7679 613.486Z" fill="#070606"/>
<path d="M89.4078 646.374L65.8064 670.679L75.9931 703.764L89.4078 646.374Z" fill="#070606"/>
<path d="M65.9525 612.474L57.9451 676.691H73.96L65.9525 612.474Z" fill="#070606"/>
<path d="M46.088 627.198L44.1211 694.694L59.6603 684.321L46.088 627.198Z" fill="#070606"/>
<path d="M37.6244 639.932L43.9723 705.465L57.4036 682.113L37.6244 639.932Z" fill="#070606"/>
<path d="M52.9984 613.545L50.6131 680.905L66.2212 671.301L52.9984 613.545Z" fill="#070606"/>
<path d="M60.7313 624.237L47.7222 682.292L63.3574 691.572L60.7313 624.237Z" fill="#070606"/>
<path d="M136.911 663.189L123.902 721.244L139.538 730.524L136.911 663.189Z" fill="#070606"/>
<path d="M147.551 696.077L123.95 720.382L134.137 753.467L147.551 696.077Z" fill="#070606"/>
<path d="M124.096 662.177L116.089 726.394H132.104L124.096 662.177Z" fill="#070606"/>
<path d="M104.232 676.901L102.265 744.397L117.804 734.024L104.232 676.901Z" fill="#070606"/>
<path d="M95.7679 689.635L102.116 755.169L115.547 731.816L95.7679 689.635Z" fill="#070606"/>
<path d="M111.142 663.248L108.757 730.608L124.365 721.004L111.142 663.248Z" fill="#070606"/>
<path d="M118.875 673.94L105.866 731.995L121.501 741.275L118.875 673.94Z" fill="#070606"/>
<path d="M40.3187 657.561L27.3096 715.616L42.9449 724.896L40.3187 657.561Z" fill="#070606"/>
<path d="M50.9585 690.449L27.3572 714.754L37.5439 747.839L50.9585 690.449Z" fill="#070606"/>
<path d="M27.5033 656.549L19.4959 720.766H35.5108L27.5033 656.549Z" fill="#070606"/>
<path d="M7.63881 671.273L5.67189 738.769L21.2111 728.397L7.63881 671.273Z" fill="#070606"/>
<path d="M-0.824824 684.007L5.52313 749.541L18.9543 726.188L-0.824824 684.007Z" fill="#070606"/>
<path d="M14.5492 657.62L12.1638 724.98L27.772 715.376L14.5492 657.62Z" fill="#070606"/>
<path d="M22.2821 668.312L9.27296 726.367L24.9082 735.647L22.2821 668.312Z" fill="#070606"/>
<path d="M14.0599 633.179L1.0508 691.234L16.6861 700.515L14.0599 633.179Z" fill="#070606"/>
<path d="M24.6998 666.067L1.09842 690.372L11.2851 723.457L24.6998 666.067Z" fill="#070606"/>
<path d="M1.24453 632.167L-6.76291 696.385H9.25197L1.24453 632.167Z" fill="#070606"/>
<path d="M-11.7096 633.238L-14.0949 700.599L1.51321 690.994L-11.7096 633.238Z" fill="#070606"/>
<path d="M-3.97673 643.93L-16.9858 701.985L-1.35056 711.266L-3.97673 643.93Z" fill="#070606"/>
<path d="M165.984 645.372L152.975 703.427L168.61 712.707L165.984 645.372Z" fill="#070606"/>
<path d="M176.624 678.26L153.022 702.565L163.209 735.65L176.624 678.26Z" fill="#070606"/>
<path d="M153.168 644.359L145.161 708.577H161.176L153.168 644.359Z" fill="#070606"/>
<path d="M133.304 659.084L131.337 726.58L146.876 716.207L133.304 659.084Z" fill="#070606"/>
<path d="M124.84 671.818L131.188 737.351L144.619 713.999L124.84 671.818Z" fill="#070606"/>
<path d="M140.214 645.431L137.829 712.791L153.437 703.187L140.214 645.431Z" fill="#070606"/>
<path d="M147.947 656.122L134.938 714.178L150.573 723.458L147.947 656.122Z" fill="#070606"/>
<path d="M198.807 650.997L185.798 709.052L201.433 718.332L198.807 650.997Z" fill="#070606"/>
<path d="M209.447 683.885L185.845 708.19L196.032 741.275L209.447 683.885Z" fill="#070606"/>
<path d="M185.992 649.984L177.984 714.202H193.999L185.992 649.984Z" fill="#070606"/>
<path d="M166.127 664.709L164.16 732.205L179.699 721.832L166.127 664.709Z" fill="#070606"/>
<path d="M157.663 677.443L164.011 742.976L177.443 719.624L157.663 677.443Z" fill="#070606"/>
<path d="M173.037 651.056L170.652 718.416L186.26 708.812L173.037 651.056Z" fill="#070606"/>
<path d="M180.77 661.747L167.761 719.803L183.397 729.083L180.77 661.747Z" fill="#070606"/>
<path d="M279.458 677.256L266.449 735.311L282.085 744.592L279.458 677.256Z" fill="#070606"/>
<path d="M290.098 710.144L266.497 734.449L276.684 767.534L290.098 710.144Z" fill="#070606"/>
<path d="M266.643 676.244L258.636 740.462H274.651L266.643 676.244Z" fill="#070606"/>
<path d="M246.778 690.968L244.811 758.465L260.35 748.092L246.778 690.968Z" fill="#070606"/>
<path d="M238.315 703.702L244.663 769.236L258.094 745.883L238.315 703.702Z" fill="#070606"/>
<path d="M253.689 677.316L251.303 744.676L266.912 735.071L253.689 677.316Z" fill="#070606"/>
<path d="M261.422 688.007L248.413 746.062L264.048 755.343L261.422 688.007Z" fill="#070606"/>
<path d="M133.161 620.988L120.152 679.043L135.788 688.323L133.161 620.988Z" fill="#070606"/>
<path d="M143.801 653.876L120.2 678.181L130.387 711.266L143.801 653.876Z" fill="#070606"/>
<path d="M120.346 619.976L112.339 684.193H128.354L120.346 619.976Z" fill="#070606"/>
<path d="M100.482 634.7L98.5147 702.196L114.054 691.823L100.482 634.7Z" fill="#070606"/>
<path d="M92.0179 647.434L98.3659 712.967L111.797 689.615L92.0179 647.434Z" fill="#070606"/>
<path d="M107.392 621.047L105.007 688.407L120.615 678.803L107.392 621.047Z" fill="#070606"/>
<path d="M115.125 631.739L102.116 689.794L117.751 699.074L115.125 631.739Z" fill="#070606"/>
<path d="M337.601 682.883L324.592 740.938L340.228 750.219L337.601 682.883Z" fill="#070606"/>
<path d="M348.241 715.771L324.64 740.076L334.827 773.161L348.241 715.771Z" fill="#070606"/>
<path d="M324.787 681.871L316.779 746.089H332.794L324.787 681.871Z" fill="#070606"/>
<path d="M304.921 696.595L302.954 764.092L318.493 753.719L304.921 696.595Z" fill="#070606"/>
<path d="M296.458 709.329L302.806 774.863L316.237 751.51L296.458 709.329Z" fill="#070606"/>
<path d="M311.832 682.942L309.447 750.303L325.055 740.698L311.832 682.942Z" fill="#070606"/>
<path d="M319.565 693.634L306.556 751.689L322.191 760.97L319.565 693.634Z" fill="#070606"/>
<path d="M377.928 677.256L364.919 735.311L380.554 744.592L377.928 677.256Z" fill="#070606"/>
<path d="M388.568 710.144L364.967 734.449L375.153 767.534L388.568 710.144Z" fill="#070606"/>
<path d="M365.113 676.244L357.106 740.462H373.121L365.113 676.244Z" fill="#070606"/>
<path d="M345.248 690.968L343.281 758.465L358.82 748.092L345.248 690.968Z" fill="#070606"/>
<path d="M336.785 703.702L343.133 769.236L356.564 745.883L336.785 703.702Z" fill="#070606"/>
<path d="M352.159 677.316L349.773 744.676L365.381 735.071L352.159 677.316Z" fill="#070606"/>
<path d="M359.891 688.007L346.882 746.062L362.518 755.343L359.891 688.007Z" fill="#070606"/>
<path d="M425.755 692.26L412.746 750.315L428.381 759.596L425.755 692.26Z" fill="#070606"/>
<path d="M436.395 725.148L412.794 749.453L422.98 782.538L436.395 725.148Z" fill="#070606"/>
<path d="M412.94 691.248L404.933 755.466H420.948L412.94 691.248Z" fill="#070606"/>
<path d="M393.075 705.972L391.108 773.469L406.647 763.096L393.075 705.972Z" fill="#070606"/>
<path d="M384.612 718.706L390.96 784.24L404.391 760.887L384.612 718.706Z" fill="#070606"/>
<path d="M399.986 692.319L397.6 759.68L413.209 750.075L399.986 692.319Z" fill="#070606"/>
<path d="M407.719 703.011L394.709 761.066L410.345 770.347L407.719 703.011Z" fill="#070606"/>
<path d="M420.443 679.996L412.435 744.214H428.45L420.443 679.996Z" fill="#070606"/>
<path d="M400.578 694.72L398.611 762.217L414.15 751.844L400.578 694.72Z" fill="#070606"/>
<path d="M392.115 707.454L398.463 772.988L411.894 749.635L392.115 707.454Z" fill="#070606"/>
<path d="M407.488 681.067L405.103 748.428L420.711 738.823L407.488 681.067Z" fill="#070606"/>
<path d="M415.222 691.759L402.212 749.814L417.848 759.095L415.222 691.759Z" fill="#070606"/>
<path d="M418.254 673.505L405.245 731.56L420.88 740.841L418.254 673.505Z" fill="#070606"/>
<path d="M428.894 706.394L405.292 730.698L415.479 763.783L428.894 706.394Z" fill="#070606"/>
<path d="M405.439 672.493L397.431 736.711H413.446L405.439 672.493Z" fill="#070606"/>
<path d="M385.573 687.217L383.606 754.714L399.146 744.341L385.573 687.217Z" fill="#070606"/>
<path d="M377.111 699.951L383.459 765.485L396.89 742.132L377.111 699.951Z" fill="#070606"/>
<path d="M392.484 673.565L390.099 740.925L405.707 731.321L392.484 673.565Z" fill="#070606"/>
<path d="M400.217 684.256L387.208 742.311L402.843 751.592L400.217 684.256Z" fill="#070606"/>
<path d="M264.453 655.687L251.444 713.742L267.08 723.022L264.453 655.687Z" fill="#070606"/>
<path d="M275.093 688.575L251.492 712.88L261.679 745.965L275.093 688.575Z" fill="#070606"/>
<path d="M251.639 654.675L243.631 718.892H259.646L251.639 654.675Z" fill="#070606"/>
<path d="M231.773 669.399L229.806 736.895L245.345 726.523L231.773 669.399Z" fill="#070606"/>
<path d="M223.31 682.133L229.658 747.667L243.089 724.314L223.31 682.133Z" fill="#070606"/>
<path d="M238.684 655.746L236.299 723.106L251.907 713.502L238.684 655.746Z" fill="#070606"/>
<path d="M246.417 666.438L233.408 724.493L249.043 733.773L246.417 666.438Z" fill="#070606"/>
<path d="M304.779 682.883L291.77 740.938L307.405 750.219L304.779 682.883Z" fill="#070606"/>
<path d="M315.419 715.771L291.817 740.076L302.004 773.161L315.419 715.771Z" fill="#070606"/>
<path d="M291.964 681.871L283.956 746.089H299.971L291.964 681.871Z" fill="#070606"/>
<path d="M272.099 696.595L270.132 764.092L285.671 753.719L272.099 696.595Z" fill="#070606"/>
<path d="M263.636 709.329L269.984 774.863L283.415 751.51L263.636 709.329Z" fill="#070606"/>
<path d="M279.009 682.942L276.624 750.303L292.232 740.698L279.009 682.942Z" fill="#070606"/>
<path d="M286.742 693.634L273.733 751.689L289.368 760.97L286.742 693.634Z" fill="#070606"/>
<path d="M107.84 656.624L94.8311 714.68L110.466 723.96L107.84 656.624Z" fill="#070606"/>
<path d="M118.48 689.513L94.8787 713.818L105.065 746.902L118.48 689.513Z" fill="#070606"/>
<path d="M95.0248 655.612L87.0174 719.83H103.032L95.0248 655.612Z" fill="#070606"/>
<path d="M75.1603 670.336L73.1934 737.833L88.7325 727.46L75.1603 670.336Z" fill="#070606"/>
<path d="M66.6967 683.07L73.0446 748.604L86.4758 725.252L66.6967 683.07Z" fill="#070606"/>
<path d="M82.0707 656.684L79.6853 724.044L95.2935 714.44L82.0707 656.684Z" fill="#070606"/>
<path d="M89.8035 667.375L76.7944 725.431L92.4297 734.711L89.8035 667.375Z" fill="#070606"/>
<path d="M107.84 646.309L94.8311 704.364L110.466 713.644L107.84 646.309Z" fill="#070606"/>
<path d="M118.48 679.197L94.8787 703.502L105.065 736.587L118.48 679.197Z" fill="#070606"/>
<path d="M95.0248 645.297L87.0174 709.514H103.032L95.0248 645.297Z" fill="#070606"/>
<path d="M75.1598 660.021L73.1929 727.517L88.7321 717.145L75.1598 660.021Z" fill="#070606"/>
<path d="M66.6971 672.755L73.0451 738.289L86.4763 714.936L66.6971 672.755Z" fill="#070606"/>
<path d="M82.0707 646.368L79.6853 713.728L95.2935 704.124L82.0707 646.368Z" fill="#070606"/>
<path d="M89.8035 657.06L76.7944 715.115L92.4297 724.395L89.8035 657.06Z" fill="#070606"/>
<path d="M45.9447 629.428L32.9356 687.483L48.5708 696.764L45.9447 629.428Z" fill="#070606"/>
<path d="M56.5845 662.316L32.9832 686.621L43.1699 719.706L56.5845 662.316Z" fill="#070606"/>
<path d="M33.1293 628.416L25.1219 692.634H41.1367L33.1293 628.416Z" fill="#070606"/>
<path d="M13.2648 643.14L11.2979 710.637L26.837 700.264L13.2648 643.14Z" fill="#070606"/>
<path d="M4.80115 655.874L11.1491 721.408L24.5803 698.055L4.80115 655.874Z" fill="#070606"/>
<path d="M20.1752 629.487L17.7898 696.848L33.398 687.243L20.1752 629.487Z" fill="#070606"/>
<path d="M27.908 640.179L14.8989 698.234L30.5342 707.515L27.908 640.179Z" fill="#070606"/>
<path d="M228.817 664.126L215.808 722.182L231.443 731.462L228.817 664.126Z" fill="#070606"/>
<path d="M239.457 697.015L215.855 721.319L226.042 754.404L239.457 697.015Z" fill="#070606"/>
<path d="M216.002 663.114L207.994 727.332H224.009L216.002 663.114Z" fill="#070606"/>
<path d="M196.136 677.838L194.169 745.335L209.709 734.962L196.136 677.838Z" fill="#070606"/>
<path d="M187.673 690.572L194.021 756.106L207.452 732.754L187.673 690.572Z" fill="#070606"/>
<path d="M203.047 664.186L200.662 731.546L216.27 721.942L203.047 664.186Z" fill="#070606"/>
<path d="M210.78 674.877L197.771 732.933L213.406 742.213L210.78 674.877Z" fill="#070606"/>
<path d="M346.981 667.877L333.972 725.933L349.607 735.213L346.981 667.877Z" fill="#070606"/>
<path d="M357.621 700.766L334.019 725.07L344.206 758.155L357.621 700.766Z" fill="#070606"/>
<path d="M334.165 666.865L326.158 731.083H342.173L334.165 666.865Z" fill="#070606"/>
<path d="M314.3 681.589L312.334 749.086L327.873 738.713L314.3 681.589Z" fill="#070606"/>
<path d="M305.838 694.324L312.186 759.858L325.617 736.505L305.838 694.324Z" fill="#070606"/>
<path d="M321.211 667.937L318.825 735.297L334.434 725.693L321.211 667.937Z" fill="#070606"/>
<path d="M328.944 678.628L315.935 736.684L331.57 745.964L328.944 678.628Z" fill="#070606"/>
<path d="M322.597 662.249L309.588 720.305L325.224 729.585L322.597 662.249Z" fill="#070606"/>
<path d="M333.237 695.138L309.636 719.443L319.823 752.527L333.237 695.138Z" fill="#070606"/>
<path d="M309.783 661.237L301.775 725.455H317.79L309.783 661.237Z" fill="#070606"/>
<path d="M289.917 675.961L287.95 743.458L303.489 733.085L289.917 675.961Z" fill="#070606"/>
<path d="M281.454 688.695L287.802 754.229L301.233 730.877L281.454 688.695Z" fill="#070606"/>
<path d="M296.828 662.309L294.443 729.669L310.051 720.065L296.828 662.309Z" fill="#070606"/>
<path d="M304.561 673L291.552 731.056L307.187 740.336L304.561 673Z" fill="#070606"/>
<path d="M381.68 677.256L368.67 735.311L384.306 744.592L381.68 677.256Z" fill="#070606"/>
<path d="M392.319 710.144L368.718 734.449L378.905 767.534L392.319 710.144Z" fill="#070606"/>
<path d="M368.865 676.244L360.857 740.462H376.872L368.865 676.244Z" fill="#070606"/>
<path d="M348.999 690.968L347.032 758.465L362.571 748.092L348.999 690.968Z" fill="#070606"/>
<path d="M340.536 703.702L346.884 769.236L360.315 745.883L340.536 703.702Z" fill="#070606"/>
<path d="M355.91 677.316L353.525 744.676L369.133 735.071L355.91 677.316Z" fill="#070606"/>
<path d="M363.643 688.007L350.634 746.062L366.269 755.343L363.643 688.007Z" fill="#070606"/>
</g>
</g>
<defs>
<linearGradient id="paint0_linear" x1="403.7" y1="-42.972" x2="394.339" y2="495.41" gradientUnits="userSpaceOnUse">
<stop stop-color="#557C99"/>
<stop offset="0.197099" stop-color="#86B2D3"/>
<stop offset="0.50737" stop-color="#CBD7D8"/>
<stop offset="1" stop-color="#BECED6"/>
</linearGradient>
<linearGradient id="paint1_linear" x1="153.812" y1="35.5628" x2="153.456" y2="269.82" gradientUnits="userSpaceOnUse">
<stop stop-color="#718DD3"/>
<stop offset="0.443093" stop-color="#BED1DA" stop-opacity="0"/>
<stop offset="1" stop-color="#C2D0D9"/>
</linearGradient>
<linearGradient id="paint2_linear" x1="407.323" y1="92.0909" x2="409.231" y2="326.339" gradientUnits="userSpaceOnUse">
<stop stop-color="#718DD3"/>
<stop offset="0.265461" stop-color="#BED1DA" stop-opacity="0"/>
<stop offset="1" stop-color="#C2D0D9"/>
</linearGradient>
<linearGradient id="paint3_linear" x1="228.093" y1="52.3068" x2="277.668" y2="323.241" gradientUnits="userSpaceOnUse">
<stop offset="0.264036" stop-color="#5080A2"/>
<stop offset="0.460477" stop-color="#80A4B9"/>
<stop offset="0.95725" stop-color="#C6CFCA"/>
</linearGradient>
<linearGradient id="paint4_linear" x1="548.188" y1="269.615" x2="75.7818" y2="334.653" gradientUnits="userSpaceOnUse">
<stop offset="0.228791" stop-color="#3B2F19"/>
<stop offset="1" stop-color="#887449"/>
</linearGradient>
<linearGradient id="paint5_linear" x1="-25.1745" y1="660.218" x2="-37.4161" y2="1361.54" gradientUnits="userSpaceOnUse">
<stop stop-color="#060606"/>
<stop offset="1" stop-color="#0B0804"/>
</linearGradient>
<clipPath id="clip0">
<rect width="414" height="854" fill="white"/>
</clipPath>
<clipPath id="clip1">
<rect width="635" height="854" fill="white" transform="matrix(-1 0 0 1 635 0)"/>
</clipPath>
</defs>
</svg>
