<svg width="768" height="679" viewBox="0 0 768 679" fill="none" xmlns="http://www.w3.org/2000/svg">
<g clip-path="url(#clip0)">
<rect width="768" height="679" fill="white"/>
<g clip-path="url(#clip1)">
<rect width="1294.62" height="728.178" transform="matrix(-1 0 0 1 1264.91 0)" fill="url(#paint0_linear)"/>
<path d="M1096.07 215.082L795.494 226.374L732.582 209.705L665.368 191.423H629.342L604.607 176.905L582.024 182.82L554.063 164.538L527.715 154.859L489 164.538L469.643 154.859L421.249 164.538L347.583 154.859L258.862 143.567L224.448 128.511L195.95 133.888L166.914 120.446L148.094 128.511L124.972 120.446L91.6344 143.567L74.4278 138.728L44.3162 148.944L-14.8317 174.754L-40.6416 169.915L-73.4418 181.744H-91.7239L-129.901 191.423L-217.01 181.744L-238.518 465.116H1051.98L1096.07 215.082Z" fill="url(#paint1_linear)"/>
<path d="M1567.07 347.354L1266.6 361.268L1203.55 345.149L1136.18 327.454L1100.15 327.769L1075.29 313.467L1052.76 319.579L1024.64 301.541L998.211 292.093L959.582 302.109L940.141 292.599L891.834 302.7L818.086 293.665L729.269 283.147L694.726 268.393L666.275 274.018L637.123 260.829L618.374 269.059L595.183 261.195L562.048 284.607L544.8 279.918L514.779 290.397L455.858 316.722L430.007 312.108L397.312 324.223L379.03 324.383L340.939 334.394L232.833 393.412L234.714 609.025L1525.16 597.763L1567.07 347.354Z" fill="url(#paint2_linear)"/>
<path d="M1340.01 121.001L1298.68 138.073L1286.04 121.001L1269.37 126.75L1227.43 159.477L1212.37 154.173L1203.77 159.477L1195.17 154.173L1178.5 159.477L1159.68 154.173L1067.19 126.749L958.575 191.274L951.585 202.566L945.133 219.773L825.762 259.025L815.008 254.724L781.132 265.478L760.699 275.157L696.174 275.157L665.525 293.439L638.639 301.504L596.161 325.701L572.501 332.154L538.626 328.927L484.317 340.219L384.841 313.334L318.166 332.154L272.459 332.154L177.285 367.642L118.675 371.944L75.1208 389.688L48.7731 395.065L-17.365 428.941L-91.5686 460.128L-140.5 474.108L-178.677 474.108L-120.067 760.707L1396.56 347.825L1340.01 121.001Z" fill="url(#paint3_linear)"/>
<path d="M503.562 418.498C494.174 418.498 484.905 420.588 476.425 424.616L77.6533 614.063L-93.3115 669.665C-97.2626 670.95 -101.077 672.621 -104.701 674.655L-2087.2 1787.17C-2151.8 1823.42 -2112.14 1922.09 -2040.42 1903.55L3519.51 465.652C3588.86 447.717 3579.65 346.481 3508.21 341.35L1595.95 204.013C1588.96 203.511 1581.93 204.175 1575.15 205.981L1279.6 284.692C1274.84 285.959 1270.25 287.777 1265.91 290.109L1037.33 413.074C1030.66 416.66 1023.4 419.021 1015.9 420.042L840.175 443.971C834.079 444.801 827.894 444.737 821.817 443.781L665.949 419.266C662.699 418.754 659.413 418.498 656.123 418.498L503.562 418.498Z" fill="url(#paint4_linear)"/>
<path d="M1339.67 477.655C1329.8 475.102 1319.46 474.974 1309.52 477.282L1130.49 518.888L656.245 689.508C651.589 691.183 646.752 692.306 641.834 692.854L383.61 721.604L-1452.48 1153.32C-1525.59 1170.51 -1513.11 1278.12 -1438.01 1278.12L4246.52 1278.12C4318.15 1278.12 4334.59 1177.81 4266.7 1154.95L2453.1 544.328C2444.28 541.358 2434.91 540.371 2425.66 541.439L1857.14 607.107C1849.41 608 1841.59 607.459 1834.05 605.511L1339.67 477.655Z" fill="url(#paint5_linear)"/>
<path d="M119.427 559.037C111.833 557.952 104.104 558.259 96.6194 559.941L-2838.13 1219.54C-2911.12 1235.94 -2900.17 1343.16 -2825.36 1344.47L3153.67 1448.83C3225.29 1450.08 3243.47 1350.07 3176 1326.03L1282.16 651.369C1273.15 648.157 1263.52 647.033 1254 648.083L973.652 679.019C968.37 679.602 963.035 679.516 957.775 678.765L119.427 559.037Z" fill="url(#paint6_linear)"/>
<path d="M0.180365 535.172L-15.3643 604.543L3.31839 615.632L0.180365 535.172Z" fill="#070606"/>
<path d="M12.8923 574.471L-15.309 603.513L-3.13685 643.046L12.8923 574.471Z" fill="#070606"/>
<path d="M39.3991 548.619L23.8545 617.99L42.5371 629.079L39.3991 548.619Z" fill="#070606"/>
<path d="M52.113 587.917L23.9117 616.959L36.0839 656.493L52.113 587.917Z" fill="#070606"/>
<path d="M24.0864 547.41L14.5183 624.144H33.6546L24.0864 547.41Z" fill="#070606"/>
<path d="M0.34822 565.004L-2.00205 645.656L16.5658 633.261L0.34822 565.004Z" fill="#070606"/>
<path d="M-9.76395 580.221L-2.17875 658.528L13.8703 630.624L-9.76395 580.221Z" fill="#070606"/>
<path d="M8.60728 548.69L5.75703 629.179L24.4073 617.703L8.60728 548.69Z" fill="#070606"/>
<path d="M17.8483 561.466L2.30371 630.837L20.9864 641.926L17.8483 561.466Z" fill="#070606"/>
<path d="M135.77 516.124L120.226 585.494L138.908 596.583L135.77 516.124Z" fill="#070606"/>
<path d="M148.482 555.422L120.281 584.464L132.453 623.997L148.482 555.422Z" fill="#070606"/>
<path d="M120.456 514.914L110.887 591.648H130.024L120.456 514.914Z" fill="#070606"/>
<path d="M96.7193 532.508L94.369 613.16L112.937 600.766L96.7193 532.508Z" fill="#070606"/>
<path d="M86.6071 547.724L94.1923 626.031L110.241 598.127L86.6071 547.724Z" fill="#070606"/>
<path d="M104.976 516.195L102.126 596.684L120.776 585.207L104.976 516.195Z" fill="#070606"/>
<path d="M114.217 528.971L98.6729 598.341L117.356 609.43L114.217 528.971Z" fill="#070606"/>
<path d="M232.139 501.555L216.595 570.925L235.277 582.014L232.139 501.555Z" fill="#070606"/>
<path d="M244.853 540.853L216.652 569.895L228.824 609.428L244.853 540.853Z" fill="#070606"/>
<path d="M216.827 500.345L207.259 577.079H226.395L216.827 500.345Z" fill="#070606"/>
<path d="M193.088 517.939L190.738 598.591L209.306 586.197L193.088 517.939Z" fill="#070606"/>
<path d="M182.976 533.155L190.561 611.462L206.61 583.558L182.976 533.155Z" fill="#070606"/>
<path d="M201.348 501.626L198.497 582.115L217.148 570.639L201.348 501.626Z" fill="#070606"/>
<path d="M210.589 514.402L195.044 583.772L213.727 594.861L210.589 514.402Z" fill="#070606"/>
<path d="M301.616 560.946L286.071 630.316L304.754 641.405L301.616 560.946Z" fill="#070606"/>
<path d="M314.33 600.244L286.128 629.286L298.301 668.819L314.33 600.244Z" fill="#070606"/>
<path d="M286.303 559.736L276.735 636.47H295.871L286.303 559.736Z" fill="#070606"/>
<path d="M262.565 577.33L260.215 657.982L278.783 645.587L262.565 577.33Z" fill="#070606"/>
<path d="M252.453 592.546L260.038 670.852L276.087 642.948L252.453 592.546Z" fill="#070606"/>
<path d="M270.824 561.016L267.974 641.505L286.624 630.029L270.824 561.016Z" fill="#070606"/>
<path d="M280.065 573.793L264.521 643.163L283.203 654.252L280.065 573.793Z" fill="#070606"/>
<path d="M186.196 554.222L170.651 623.592L189.334 634.681L186.196 554.222Z" fill="#070606"/>
<path d="M198.91 593.52L170.709 622.562L182.881 662.095L198.91 593.52Z" fill="#070606"/>
<path d="M170.883 553.012L161.315 629.746H180.451L170.883 553.012Z" fill="#070606"/>
<path d="M147.145 570.606L144.795 651.258L163.363 638.863L147.145 570.606Z" fill="#070606"/>
<path d="M137.033 585.822L144.618 664.128L160.667 636.224L137.033 585.822Z" fill="#070606"/>
<path d="M155.404 554.293L152.554 634.782L171.204 623.305L155.404 554.293Z" fill="#070606"/>
<path d="M164.645 567.068L149.101 636.439L167.783 647.528L164.645 567.068Z" fill="#070606"/>
<path d="M74.1374 529.569L58.5928 598.939L77.2754 610.028L74.1374 529.569Z" fill="#070606"/>
<path d="M86.8513 568.867L58.65 597.909L70.8221 637.442L86.8513 568.867Z" fill="#070606"/>
<path d="M58.8247 528.36L49.2566 605.093H68.3929L58.8247 528.36Z" fill="#070606"/>
<path d="M35.0865 545.954L32.7362 626.605L51.3041 614.211L35.0865 545.954Z" fill="#070606"/>
<path d="M24.9743 561.169L32.5595 639.476L48.6085 611.572L24.9743 561.169Z" fill="#070606"/>
<path d="M43.3456 529.64L40.4953 610.129L59.1456 598.653L43.3456 529.64Z" fill="#070606"/>
<path d="M52.5866 542.416L37.042 611.786L55.7246 622.875L52.5866 542.416Z" fill="#070606"/>
<path d="M154.819 525.087L139.274 594.457L157.957 605.546L154.819 525.087Z" fill="#070606"/>
<path d="M167.533 564.385L139.332 593.427L151.504 632.96L167.533 564.385Z" fill="#070606"/>
<path d="M139.506 523.877L129.938 600.611H149.074L139.506 523.877Z" fill="#070606"/>
<path d="M115.768 541.471L113.418 622.123L131.986 609.729L115.768 541.471Z" fill="#070606"/>
<path d="M105.656 556.687L113.241 634.994L129.29 607.09L105.656 556.687Z" fill="#070606"/>
<path d="M124.027 525.158L121.177 605.647L139.827 594.171L124.027 525.158Z" fill="#070606"/>
<path d="M133.268 537.934L117.724 607.304L136.406 618.393L133.268 537.934Z" fill="#070606"/>
<path d="M336.354 539.654L320.81 609.025L339.492 620.114L336.354 539.654Z" fill="#070606"/>
<path d="M349.068 578.952L320.867 607.994L333.039 647.528L349.068 578.952Z" fill="#070606"/>
<path d="M321.042 538.445L311.473 615.179H330.61L321.042 538.445Z" fill="#070606"/>
<path d="M297.303 556.039L294.953 636.691L313.521 624.296L297.303 556.039Z" fill="#070606"/>
<path d="M287.191 571.255L294.776 649.561L310.825 621.657L287.191 571.255Z" fill="#070606"/>
<path d="M305.562 539.725L302.712 620.214L321.362 608.738L305.562 539.725Z" fill="#070606"/>
<path d="M314.803 552.501L299.259 621.872L317.941 632.961L314.803 552.501Z" fill="#070606"/>
<path d="M375.577 546.377L360.032 615.747L378.715 626.836L375.577 546.377Z" fill="#070606"/>
<path d="M388.289 585.675L360.087 614.717L372.26 654.25L388.289 585.675Z" fill="#070606"/>
<path d="M360.262 545.167L350.694 621.901H369.83L360.262 545.167Z" fill="#070606"/>
<path d="M336.526 562.762L334.176 643.413L352.744 631.019L336.526 562.762Z" fill="#070606"/>
<path d="M326.414 577.977L333.999 656.284L350.048 628.38L326.414 577.977Z" fill="#070606"/>
<path d="M344.783 546.448L341.933 626.937L360.583 615.461L344.783 546.448Z" fill="#070606"/>
<path d="M354.024 559.224L338.479 628.594L357.162 639.683L354.024 559.224Z" fill="#070606"/>
<path d="M471.946 577.756L456.401 647.126L475.084 658.215L471.946 577.756Z" fill="#070606"/>
<path d="M484.66 617.054L456.459 646.096L468.631 685.629L484.66 617.054Z" fill="#070606"/>
<path d="M456.633 576.546L447.065 653.28H466.201L456.633 576.546Z" fill="#070606"/>
<path d="M432.895 594.14L430.545 674.792L449.113 662.398L432.895 594.14Z" fill="#070606"/>
<path d="M422.783 609.356L430.368 687.662L446.417 659.758L422.783 609.356Z" fill="#070606"/>
<path d="M441.154 577.827L438.304 658.316L456.954 646.84L441.154 577.827Z" fill="#070606"/>
<path d="M450.395 590.603L434.851 659.973L453.533 671.062L450.395 590.603Z" fill="#070606"/>
<path d="M297.137 510.52L281.593 579.89L300.275 590.979L297.137 510.52Z" fill="#070606"/>
<path d="M309.851 549.818L281.65 578.86L293.822 618.393L309.851 549.818Z" fill="#070606"/>
<path d="M281.825 509.31L272.257 586.044H291.393L281.825 509.31Z" fill="#070606"/>
<path d="M258.087 526.904L255.736 607.556L274.304 595.162L258.087 526.904Z" fill="#070606"/>
<path d="M247.974 542.12L255.56 620.427L271.609 592.523L247.974 542.12Z" fill="#070606"/>
<path d="M266.346 510.591L263.495 591.08L282.146 579.603L266.346 510.591Z" fill="#070606"/>
<path d="M275.587 523.367L260.042 592.737L278.725 603.826L275.587 523.367Z" fill="#070606"/>
<path d="M541.423 584.48L525.878 653.85L544.561 664.939L541.423 584.48Z" fill="#070606"/>
<path d="M554.135 623.778L525.933 652.82L538.105 692.353L554.135 623.778Z" fill="#070606"/>
<path d="M526.108 583.27L516.54 660.004H535.676L526.108 583.27Z" fill="#070606"/>
<path d="M502.372 600.864L500.021 681.516L518.589 669.121L502.372 600.864Z" fill="#070606"/>
<path d="M492.259 616.08L499.845 694.386L515.894 666.482L492.259 616.08Z" fill="#070606"/>
<path d="M510.629 584.551L507.779 665.04L526.429 653.563L510.629 584.551Z" fill="#070606"/>
<path d="M519.87 597.327L504.325 666.697L523.008 677.786L519.87 597.327Z" fill="#070606"/>
<path d="M589.61 577.756L574.065 647.126L592.748 658.215L589.61 577.756Z" fill="#070606"/>
<path d="M602.322 617.054L574.121 646.096L586.293 685.629L602.322 617.054Z" fill="#070606"/>
<path d="M574.295 576.546L564.727 653.28H583.864L574.295 576.546Z" fill="#070606"/>
<path d="M550.559 594.14L548.209 674.792L566.777 662.398L550.559 594.14Z" fill="#070606"/>
<path d="M540.447 609.356L548.032 687.662L564.081 659.758L540.447 609.356Z" fill="#070606"/>
<path d="M558.816 577.827L555.966 658.316L574.616 646.84L558.816 577.827Z" fill="#070606"/>
<path d="M568.057 590.603L552.513 659.973L571.195 671.062L568.057 590.603Z" fill="#070606"/>
<path d="M646.757 595.684L631.212 665.054L649.895 676.143L646.757 595.684Z" fill="#070606"/>
<path d="M659.47 634.982L631.269 664.024L643.441 703.557L659.47 634.982Z" fill="#070606"/>
<path d="M631.444 594.475L621.876 671.208H641.012L631.444 594.475Z" fill="#070606"/>
<path d="M607.706 612.069L605.355 692.72L623.923 680.326L607.706 612.069Z" fill="#070606"/>
<path d="M597.593 627.284L605.179 705.591L621.228 677.687L597.593 627.284Z" fill="#070606"/>
<path d="M615.965 595.755L613.114 676.244L631.765 664.768L615.965 595.755Z" fill="#070606"/>
<path d="M625.206 608.531L609.661 677.901L628.344 688.991L625.206 608.531Z" fill="#070606"/>
<path d="M703.907 571.031L688.362 640.401L707.045 651.491L703.907 571.031Z" fill="#070606"/>
<path d="M716.621 610.329L688.42 639.371L700.592 678.905L716.621 610.329Z" fill="#070606"/>
<path d="M688.594 569.822L679.026 646.555H698.162L688.594 569.822Z" fill="#070606"/>
<path d="M664.856 587.416L662.506 668.068L681.074 655.673L664.856 587.416Z" fill="#070606"/>
<path d="M654.744 602.631L662.329 680.938L678.378 653.034L654.744 602.631Z" fill="#070606"/>
<path d="M673.115 571.102L670.265 651.591L688.915 640.115L673.115 571.102Z" fill="#070606"/>
<path d="M682.356 583.878L666.812 653.249L685.494 664.338L682.356 583.878Z" fill="#070606"/>
<path d="M764.421 605.77L748.876 675.14L767.559 686.229L764.421 605.77Z" fill="#070606"/>
<path d="M777.135 645.068L748.933 674.11L761.105 713.643L777.135 645.068Z" fill="#070606"/>
<path d="M749.108 604.56L739.54 681.294H758.676L749.108 604.56Z" fill="#070606"/>
<path d="M725.37 622.154L723.019 702.806L741.587 690.412L725.37 622.154Z" fill="#070606"/>
<path d="M715.258 637.37L722.843 715.676L738.892 687.772L715.258 637.37Z" fill="#070606"/>
<path d="M733.629 605.841L730.779 686.33L749.429 674.853L733.629 605.841Z" fill="#070606"/>
<path d="M742.87 618.617L727.325 687.987L746.008 699.076L742.87 618.617Z" fill="#070606"/>
<path d="M772.436 636.723L770.086 717.375L788.654 704.98L772.436 636.723Z" fill="#070606"/>
<path d="M762.324 651.939L769.909 730.245L785.958 702.341L762.324 651.939Z" fill="#070606"/>
<path d="M740.887 610.252L725.343 679.622L744.025 690.711L740.887 610.252Z" fill="#070606"/>
<path d="M753.601 649.55L725.4 678.592L737.572 718.125L753.601 649.55Z" fill="#070606"/>
<path d="M725.575 609.042L716.007 685.776H735.143L725.575 609.042Z" fill="#070606"/>
<path d="M701.837 626.637L699.486 707.288L718.054 694.894L701.837 626.637Z" fill="#070606"/>
<path d="M691.724 641.852L699.31 720.158L715.359 692.254L691.724 641.852Z" fill="#070606"/>
<path d="M710.096 610.323L707.245 690.812L725.896 679.336L710.096 610.323Z" fill="#070606"/>
<path d="M719.337 623.099L703.792 692.469L722.475 703.558L719.337 623.099Z" fill="#070606"/>
<path d="M655.723 582.238L640.179 651.608L658.861 662.697L655.723 582.238Z" fill="#070606"/>
<path d="M668.435 621.536L640.234 650.578L652.406 690.111L668.435 621.536Z" fill="#070606"/>
<path d="M640.409 581.028L630.841 657.762H649.977L640.409 581.028Z" fill="#070606"/>
<path d="M616.672 598.623L614.322 679.274L632.89 666.88L616.672 598.623Z" fill="#070606"/>
<path d="M606.56 613.838L614.145 692.145L630.194 664.241L606.56 613.838Z" fill="#070606"/>
<path d="M624.93 582.309L622.079 662.798L640.73 651.322L624.93 582.309Z" fill="#070606"/>
<path d="M634.171 595.085L618.626 664.455L637.309 675.544L634.171 595.085Z" fill="#070606"/>
<path d="M637.798 573.271L622.253 642.642L640.936 653.731L637.798 573.271Z" fill="#070606"/>
<path d="M650.51 612.569L622.308 641.611L634.48 681.145L650.51 612.569Z" fill="#070606"/>
<path d="M622.483 572.062L612.915 648.796H632.051L622.483 572.062Z" fill="#070606"/>
<path d="M598.747 589.656L596.396 670.308L614.964 657.913L598.747 589.656Z" fill="#070606"/>
<path d="M588.634 604.872L596.22 683.178L612.269 655.274L588.634 604.872Z" fill="#070606"/>
<path d="M607.004 573.342L604.154 653.831L622.804 642.355L607.004 573.342Z" fill="#070606"/>
<path d="M616.245 586.118L600.7 655.489L619.383 666.578L616.245 586.118Z" fill="#070606"/>
<path d="M454.016 551.982L438.472 621.352L457.154 632.441L454.016 551.982Z" fill="#070606"/>
<path d="M466.73 591.28L438.529 620.322L450.701 659.856L466.73 591.28Z" fill="#070606"/>
<path d="M438.704 550.773L429.136 627.507H448.272L438.704 550.773Z" fill="#070606"/>
<path d="M414.965 568.367L412.615 649.019L431.183 636.624L414.965 568.367Z" fill="#070606"/>
<path d="M404.853 583.583L412.438 661.889L428.487 633.985L404.853 583.583Z" fill="#070606"/>
<path d="M423.224 552.053L420.374 632.542L439.024 621.066L423.224 552.053Z" fill="#070606"/>
<path d="M432.466 564.829L416.921 634.199L435.604 645.288L432.466 564.829Z" fill="#070606"/>
<path d="M502.204 584.48L486.659 653.85L505.342 664.939L502.204 584.48Z" fill="#070606"/>
<path d="M514.918 623.778L486.716 652.82L498.889 692.353L514.918 623.778Z" fill="#070606"/>
<path d="M486.891 583.27L477.323 660.004H496.459L486.891 583.27Z" fill="#070606"/>
<path d="M463.153 600.864L460.803 681.516L479.37 669.121L463.153 600.864Z" fill="#070606"/>
<path d="M453.041 616.08L460.626 694.386L476.675 666.482L453.041 616.08Z" fill="#070606"/>
<path d="M471.412 584.551L468.562 665.04L487.212 653.563L471.412 584.551Z" fill="#070606"/>
<path d="M480.653 597.327L465.108 666.697L483.791 677.786L480.653 597.327Z" fill="#070606"/>
<path d="M266.88 553.101L251.335 622.472L270.018 633.561L266.88 553.101Z" fill="#070606"/>
<path d="M279.593 592.4L251.392 621.442L263.564 660.975L279.593 592.4Z" fill="#070606"/>
<path d="M251.567 551.892L241.999 628.626H261.135L251.567 551.892Z" fill="#070606"/>
<path d="M227.829 569.486L225.478 650.138L244.046 637.743L227.829 569.486Z" fill="#070606"/>
<path d="M217.717 584.702L225.302 663.008L241.351 635.104L217.717 584.702Z" fill="#070606"/>
<path d="M236.088 553.172L233.238 633.661L251.888 622.185L236.088 553.172Z" fill="#070606"/>
<path d="M245.329 565.948L229.784 635.319L248.467 646.408L245.329 565.948Z" fill="#070606"/>
<path d="M266.88 540.775L251.335 610.146L270.018 621.235L266.88 540.775Z" fill="#070606"/>
<path d="M279.593 580.074L251.392 609.116L263.564 648.649L279.593 580.074Z" fill="#070606"/>
<path d="M251.567 539.566L241.999 616.3H261.135L251.567 539.566Z" fill="#070606"/>
<path d="M227.829 557.16L225.478 637.812L244.046 625.417L227.829 557.16Z" fill="#070606"/>
<path d="M217.717 572.376L225.302 650.682L241.351 622.778L217.717 572.376Z" fill="#070606"/>
<path d="M236.088 540.846L233.238 621.336L251.888 609.859L236.088 540.846Z" fill="#070606"/>
<path d="M245.329 553.622L229.784 622.993L248.467 634.082L245.329 553.622Z" fill="#070606"/>
<path d="M192.921 520.605L177.376 589.976L196.059 601.065L192.921 520.605Z" fill="#070606"/>
<path d="M205.635 559.903L177.433 588.945L189.605 628.479L205.635 559.903Z" fill="#070606"/>
<path d="M177.608 519.396L168.04 596.13H187.176L177.608 519.396Z" fill="#070606"/>
<path d="M153.87 536.99L151.519 617.642L170.087 605.247L153.87 536.99Z" fill="#070606"/>
<path d="M143.758 552.206L151.343 630.512L167.392 602.608L143.758 552.206Z" fill="#070606"/>
<path d="M162.129 520.676L159.279 601.165L177.929 589.689L162.129 520.676Z" fill="#070606"/>
<path d="M171.37 533.452L155.825 602.823L174.508 613.912L171.37 533.452Z" fill="#070606"/>
<path d="M105.512 523.966L89.9678 593.336L108.65 604.425L105.512 523.966Z" fill="#070606"/>
<path d="M118.226 563.264L90.025 592.306L102.197 631.839L118.226 563.264Z" fill="#070606"/>
<path d="M90.1997 522.757L80.6316 599.49H99.7679L90.1997 522.757Z" fill="#070606"/>
<path d="M66.4615 540.351L64.1112 621.002L82.6791 608.608L66.4615 540.351Z" fill="#070606"/>
<path d="M56.3493 555.566L63.9345 633.873L79.9835 605.969L56.3493 555.566Z" fill="#070606"/>
<path d="M74.7206 524.037L71.8703 604.526L90.5206 593.05L74.7206 524.037Z" fill="#070606"/>
<path d="M83.9616 536.813L68.417 606.183L87.0996 617.273L83.9616 536.813Z" fill="#070606"/>
<path d="M39.3991 545.257L23.8545 614.628L42.5371 625.717L39.3991 545.257Z" fill="#070606"/>
<path d="M52.113 584.556L23.9117 613.598L36.0839 653.131L52.113 584.556Z" fill="#070606"/>
<path d="M24.0864 544.048L14.5183 620.782H33.6546L24.0864 544.048Z" fill="#070606"/>
<path d="M0.34822 561.642L-2.00205 642.294L16.5658 629.899L0.34822 561.642Z" fill="#070606"/>
<path d="M-9.76395 576.858L-2.17875 655.164L13.8703 627.26L-9.76395 576.858Z" fill="#070606"/>
<path d="M8.60728 545.328L5.75703 625.817L24.4073 614.341L8.60728 545.328Z" fill="#070606"/>
<path d="M17.8483 558.104L2.30371 627.475L20.9864 638.564L17.8483 558.104Z" fill="#070606"/>
<path d="M411.432 562.067L395.888 631.437L414.57 642.526L411.432 562.067Z" fill="#070606"/>
<path d="M424.146 601.365L395.945 630.407L408.117 669.94L424.146 601.365Z" fill="#070606"/>
<path d="M396.12 560.857L386.552 637.591H405.688L396.12 560.857Z" fill="#070606"/>
<path d="M372.381 578.452L370.031 659.104L388.599 646.709L372.381 578.452Z" fill="#070606"/>
<path d="M362.269 593.667L369.854 671.974L385.903 644.07L362.269 593.667Z" fill="#070606"/>
<path d="M380.64 562.138L377.79 642.627L396.44 631.151L380.64 562.138Z" fill="#070606"/>
<path d="M389.882 574.914L374.337 644.284L393.02 655.373L389.882 574.914Z" fill="#070606"/>
<path d="M552.63 566.548L537.085 635.918L555.768 647.007L552.63 566.548Z" fill="#070606"/>
<path d="M565.342 605.846L537.14 634.888L549.312 674.421L565.342 605.846Z" fill="#070606"/>
<path d="M537.315 565.338L527.747 642.072H546.883L537.315 565.338Z" fill="#070606"/>
<path d="M513.579 582.932L511.228 663.584L529.796 651.19L513.579 582.932Z" fill="#070606"/>
<path d="M503.467 598.149L511.052 676.456L527.101 648.552L503.467 598.149Z" fill="#070606"/>
<path d="M521.836 566.619L518.986 647.108L537.636 635.632L521.836 566.619Z" fill="#070606"/>
<path d="M531.077 579.395L515.532 648.765L534.215 659.854L531.077 579.395Z" fill="#070606"/>
<path d="M523.497 559.823L507.952 629.193L526.635 640.283L523.497 559.823Z" fill="#070606"/>
<path d="M536.209 599.121L508.007 628.163L520.18 667.697L536.209 599.121Z" fill="#070606"/>
<path d="M508.182 558.614L498.614 635.348H517.75L508.182 558.614Z" fill="#070606"/>
<path d="M484.446 576.208L482.096 656.86L500.663 644.465L484.446 576.208Z" fill="#070606"/>
<path d="M474.334 591.424L481.919 669.73L497.968 641.826L474.334 591.424Z" fill="#070606"/>
<path d="M492.703 559.894L489.853 640.383L508.503 628.907L492.703 559.894Z" fill="#070606"/>
<path d="M501.944 572.67L486.399 642.041L505.082 653.13L501.944 572.67Z" fill="#070606"/>
<path d="M594.094 577.756L578.55 647.126L597.232 658.215L594.094 577.756Z" fill="#070606"/>
<path d="M606.806 617.054L578.605 646.096L590.777 685.629L606.806 617.054Z" fill="#070606"/>
<path d="M578.78 576.546L569.212 653.28H588.348L578.78 576.546Z" fill="#070606"/>
<path d="M555.044 594.14L552.693 674.792L571.261 662.398L555.044 594.14Z" fill="#070606"/>
<path d="M544.931 609.356L552.517 687.662L568.566 659.758L544.931 609.356Z" fill="#070606"/>
<path d="M563.301 577.827L560.45 658.316L579.101 646.84L563.301 577.827Z" fill="#070606"/>
<path d="M572.542 590.603L556.997 659.973L575.68 671.062L572.542 590.603Z" fill="#070606"/>
</g>
</g>
<defs>
<linearGradient id="paint0_linear" x1="823.053" y1="-36.6408" x2="819.714" y2="422.534" gradientUnits="userSpaceOnUse">
<stop stop-color="#557C99"/>
<stop offset="0.197099" stop-color="#86B2D3"/>
<stop offset="0.50737" stop-color="#CBD7D8"/>
<stop offset="1" stop-color="#BECED6"/>
</linearGradient>
<linearGradient id="paint1_linear" x1="429.315" y1="73.1275" x2="428.777" y2="465.116" gradientUnits="userSpaceOnUse">
<stop stop-color="#718DD3"/>
<stop offset="0.443093" stop-color="#BED1DA" stop-opacity="0"/>
<stop offset="1" stop-color="#C2D0D9"/>
</linearGradient>
<linearGradient id="paint2_linear" x1="899.101" y1="211.223" x2="901.984" y2="603.202" gradientUnits="userSpaceOnUse">
<stop stop-color="#718DD3"/>
<stop offset="0.265461" stop-color="#BED1DA" stop-opacity="0"/>
<stop offset="1" stop-color="#C2D0D9"/>
</linearGradient>
<linearGradient id="paint3_linear" x1="566.967" y1="114.531" x2="642.324" y2="570.621" gradientUnits="userSpaceOnUse">
<stop offset="0.264036" stop-color="#5080A2"/>
<stop offset="0.460477" stop-color="#80A4B9"/>
<stop offset="0.95725" stop-color="#C6CFCA"/>
</linearGradient>
<linearGradient id="paint4_linear" x1="548.685" y1="403.819" x2="690.698" y2="1197.23" gradientUnits="userSpaceOnUse">
<stop stop-color="#3C5168"/>
<stop offset="0.180685" stop-color="#6C7266"/>
<stop offset="0.51559" stop-color="#8E846A" stop-opacity="0.58"/>
</linearGradient>
<linearGradient id="paint5_linear" x1="1189.63" y1="640.947" x2="476.095" y2="754.942" gradientUnits="userSpaceOnUse">
<stop offset="0.228791" stop-color="#3B2F19"/>
<stop offset="1" stop-color="#887449"/>
</linearGradient>
<linearGradient id="paint6_linear" x1="107.94" y1="557.396" x2="93.3126" y2="1395.41" gradientUnits="userSpaceOnUse">
<stop stop-color="#060606"/>
<stop offset="1" stop-color="#0B0804"/>
</linearGradient>
<clipPath id="clip0">
<rect width="768" height="679" fill="white"/>
</clipPath>
<clipPath id="clip1">
<rect width="1294.62" height="728.178" fill="white" transform="matrix(-1 0 0 1 1264.91 0)"/>
</clipPath>
</defs>
</svg>
