<svg width="1440" height="1024" viewBox="0 0 1440 1024" fill="none" xmlns="http://www.w3.org/2000/svg">
<g clip-path="url(#clip0)">
<rect width="1440" height="1024" fill="white"/>
<g clip-path="url(#clip1)">
<rect width="1820.56" height="1024" transform="matrix(-1 0 0 1 1778.78 0)" fill="url(#paint0_linear)"/>
<path d="M1541.35 302.46L1118.66 318.339L1030.19 294.898L935.673 269.189H885.011L850.228 248.773L818.47 257.09L779.15 231.381L742.099 217.771L687.656 231.381L660.434 217.771L592.381 231.381L488.788 217.771L364.023 201.891L315.629 180.719L275.553 188.281L234.721 169.377L208.256 180.719L175.741 169.377L128.86 201.891L104.663 195.086L62.3186 209.453L-20.858 245.748L-57.1533 238.943L-103.279 255.578H-128.988L-182.674 269.189L-305.171 255.578L-335.417 654.07H1479.35L1541.35 302.46Z" fill="url(#paint1_linear)"/>
<path d="M2203.69 488.466L1781.16 508.033L1692.49 485.366L1597.75 460.482L1547.09 460.924L1512.13 440.813L1480.44 449.407L1440.9 424.042L1403.73 410.755L1349.41 424.841L1322.07 411.468L1254.14 425.672L1150.43 412.966L1025.53 398.176L976.957 377.427L936.948 385.338L895.952 366.791L869.587 378.364L836.975 367.306L790.379 400.228L766.124 393.634L723.906 408.37L641.05 445.39L604.696 438.901L558.718 455.939L533.01 456.163L479.444 470.242L327.42 553.236L330.066 856.441L2144.76 840.604L2203.69 488.466Z" fill="url(#paint2_linear)"/>
<path d="M1884.38 170.158L1826.26 194.166L1808.49 170.158L1785.05 178.242L1726.07 224.265L1704.9 216.806L1692.8 224.265L1680.7 216.806L1657.26 224.265L1630.8 216.806L1500.74 178.242L1348 268.98L1338.17 284.859L1329.09 309.056L1161.23 364.255L1146.1 358.206L1098.47 373.329L1069.73 386.94L978.993 386.94L935.893 412.649L898.085 423.991L838.349 458.018L805.078 467.092L757.441 462.555L681.07 478.434L541.182 440.626L447.419 467.092L383.145 467.092L249.306 516.998L166.885 523.047L105.637 548L68.5856 555.561L-24.4211 603.199L-128.77 647.056L-197.58 666.716L-251.266 666.716L-168.846 1069.74L1963.91 489.13L1884.38 170.158Z" fill="url(#paint3_linear)"/>
<path d="M708.133 588.512C694.932 588.512 681.896 591.451 669.972 597.116L109.199 863.526L-131.22 941.717C-136.776 943.524 -142.141 945.874 -147.236 948.733L-2935.13 2513.21C-3025.97 2564.19 -2970.19 2702.95 -2869.34 2676.86L4949.31 654.823C5046.83 629.603 5033.88 487.239 4933.41 480.024L2244.31 286.893C2234.47 286.187 2224.58 287.122 2215.05 289.66L1799.44 400.348C1792.75 402.13 1786.29 404.686 1780.19 407.965L1458.74 580.885C1449.36 585.929 1439.16 589.248 1428.61 590.684L1181.49 624.334C1172.92 625.501 1164.23 625.411 1155.68 624.067L936.49 589.592C931.919 588.873 927.299 588.512 922.672 588.512L708.133 588.512Z" fill="url(#paint4_linear)"/>
<path d="M1883.91 671.702C1870.03 668.112 1855.48 667.932 1841.51 671.178L1589.74 729.686L922.843 969.621C916.295 971.977 909.494 973.556 902.577 974.326L539.449 1014.76L-2042.55 1621.86C-2145.37 1646.04 -2127.82 1797.36 -2022.2 1797.36L5971.67 1797.36C6072.4 1797.36 6095.51 1656.29 6000.05 1624.15L3449.67 765.461C3437.26 761.284 3424.09 759.897 3411.09 761.399L2611.6 853.744C2600.74 855 2589.73 854.239 2579.13 851.499L1883.91 671.702Z" fill="url(#paint5_linear)"/>
<path d="M173.06 831.719C162.38 830.194 151.512 830.624 140.986 832.99L-3789.81 1716.45C-3892.46 1739.52 -3877.06 1890.3 -3771.86 1892.13L4245.43 2032.07C4346.15 2033.83 4371.72 1893.19 4276.83 1859.38L1742.37 956.51C1729.69 951.993 1716.15 950.413 1702.77 951.89L1325.69 993.499C1318.26 994.319 1310.76 994.199 1303.36 993.143L173.06 831.719Z" fill="url(#paint6_linear)"/>
<path d="M11.4772 799.419L-9.50122 893.039L15.7122 908.004L11.4772 799.419Z" fill="#070606"/>
<path d="M28.635 852.455L-9.4245 891.649L7.00258 945.001L28.635 852.455Z" fill="#070606"/>
<path d="M-9.18921 797.787L-22.102 901.344H3.72358L-9.18921 797.787Z" fill="#070606"/>
<path d="M64.4079 817.567L43.4294 911.186L68.6428 926.152L64.4079 817.567Z" fill="#070606"/>
<path d="M81.5656 870.602L43.5062 909.796L59.9332 963.149L81.5656 870.602Z" fill="#070606"/>
<path d="M43.7415 815.935L30.8287 919.492H56.6542L43.7415 815.935Z" fill="#070606"/>
<path d="M11.7083 839.679L8.53644 948.524L33.5949 931.796L11.7083 839.679Z" fill="#070606"/>
<path d="M-1.93997 860.216L8.29673 965.895L29.9559 928.237L-1.93997 860.216Z" fill="#070606"/>
<path d="M22.853 817.663L19.0065 926.288L44.1761 910.8L22.853 817.663Z" fill="#070606"/>
<path d="M35.3224 834.905L14.344 928.524L39.5574 943.49L35.3224 834.905Z" fill="#070606"/>
<path d="M194.464 773.711L173.486 867.331L198.699 882.296L194.464 773.711Z" fill="#070606"/>
<path d="M211.622 826.747L173.562 865.941L189.989 919.293L211.622 826.747Z" fill="#070606"/>
<path d="M173.798 772.079L160.885 875.636H186.71L173.798 772.079Z" fill="#070606"/>
<path d="M141.764 795.824L138.593 904.668L163.651 887.941L141.764 795.824Z" fill="#070606"/>
<path d="M128.116 816.358L138.353 922.038L160.012 884.379L128.116 816.358Z" fill="#070606"/>
<path d="M152.908 773.807L149.061 882.432L174.231 866.944L152.908 773.807Z" fill="#070606"/>
<path d="M165.379 791.049L144.4 884.669L169.614 899.634L165.379 791.049Z" fill="#070606"/>
<path d="M324.525 754.05L303.546 847.67L328.76 862.635L324.525 754.05Z" fill="#070606"/>
<path d="M341.682 807.085L303.623 846.279L320.05 899.632L341.682 807.085Z" fill="#070606"/>
<path d="M303.858 752.418L290.945 855.975H316.771L303.858 752.418Z" fill="#070606"/>
<path d="M271.825 776.162L268.653 885.007L293.712 868.28L271.825 776.162Z" fill="#070606"/>
<path d="M258.177 796.697L268.413 902.376L290.073 864.718L258.177 796.697Z" fill="#070606"/>
<path d="M282.968 754.146L279.122 862.771L304.291 847.283L282.968 754.146Z" fill="#070606"/>
<path d="M295.439 771.388L274.461 865.008L299.674 879.973L295.439 771.388Z" fill="#070606"/>
<path d="M418.286 834.202L397.308 927.821L422.521 942.787L418.286 834.202Z" fill="#070606"/>
<path d="M435.444 887.237L397.385 926.431L413.812 979.784L435.444 887.237Z" fill="#070606"/>
<path d="M397.62 832.569L384.707 936.126H410.533L397.62 832.569Z" fill="#070606"/>
<path d="M365.587 856.314L362.415 965.158L387.473 948.431L365.587 856.314Z" fill="#070606"/>
<path d="M351.938 876.848L362.175 982.528L383.834 944.87L351.938 876.848Z" fill="#070606"/>
<path d="M376.73 834.297L372.883 942.922L398.053 927.435L376.73 834.297Z" fill="#070606"/>
<path d="M389.201 851.539L368.222 945.159L393.436 960.124L389.201 851.539Z" fill="#070606"/>
<path d="M262.52 825.127L241.542 918.747L266.755 933.712L262.52 825.127Z" fill="#070606"/>
<path d="M279.678 878.163L241.618 917.357L258.046 970.709L279.678 878.163Z" fill="#070606"/>
<path d="M241.854 823.495L228.941 927.052H254.767L241.854 823.495Z" fill="#070606"/>
<path d="M209.821 847.24L206.649 956.084L231.707 939.357L209.821 847.24Z" fill="#070606"/>
<path d="M196.173 867.774L206.41 973.454L228.069 935.795L196.173 867.774Z" fill="#070606"/>
<path d="M220.964 825.223L217.117 933.848L242.287 918.36L220.964 825.223Z" fill="#070606"/>
<path d="M233.435 842.465L212.457 936.085L237.67 951.05L233.435 842.465Z" fill="#070606"/>
<path d="M111.289 791.857L90.3103 885.476L115.524 900.442L111.289 791.857Z" fill="#070606"/>
<path d="M128.446 844.892L90.387 884.086L106.814 937.439L128.446 844.892Z" fill="#070606"/>
<path d="M90.6223 790.225L77.7095 893.782H103.535L90.6223 790.225Z" fill="#070606"/>
<path d="M58.5891 813.969L55.4173 922.814L80.4757 906.086L58.5891 813.969Z" fill="#070606"/>
<path d="M44.9409 834.504L55.1776 940.183L76.8367 902.525L44.9409 834.504Z" fill="#070606"/>
<path d="M69.7324 791.953L65.8859 900.578L91.0555 885.09L69.7324 791.953Z" fill="#070606"/>
<path d="M82.2033 809.195L61.2248 902.814L86.4383 917.78L82.2033 809.195Z" fill="#070606"/>
<path d="M220.176 785.808L199.198 879.428L224.411 894.393L220.176 785.808Z" fill="#070606"/>
<path d="M237.334 838.843L199.274 878.037L215.701 931.39L237.334 838.843Z" fill="#070606"/>
<path d="M199.51 784.176L186.597 887.733H212.422L199.51 784.176Z" fill="#070606"/>
<path d="M167.476 807.92L164.305 916.765L189.363 900.038L167.476 807.92Z" fill="#070606"/>
<path d="M153.828 828.455L164.065 934.134L185.724 896.476L153.828 828.455Z" fill="#070606"/>
<path d="M178.62 785.904L174.773 894.529L199.943 879.041L178.62 785.904Z" fill="#070606"/>
<path d="M191.09 803.146L170.112 896.766L195.325 911.731L191.09 803.146Z" fill="#070606"/>
<path d="M465.167 805.468L444.189 899.088L469.402 914.053L465.167 805.468Z" fill="#070606"/>
<path d="M482.325 858.503L444.265 897.697L460.693 951.05L482.325 858.503Z" fill="#070606"/>
<path d="M444.501 803.836L431.588 907.393H457.414L444.501 803.836Z" fill="#070606"/>
<path d="M412.468 827.58L409.296 936.425L434.354 919.698L412.468 827.58Z" fill="#070606"/>
<path d="M398.819 848.115L409.056 953.794L430.715 916.136L398.819 848.115Z" fill="#070606"/>
<path d="M423.611 805.564L419.764 914.189L444.934 898.701L423.611 805.564Z" fill="#070606"/>
<path d="M436.082 822.806L415.103 916.426L440.317 931.391L436.082 822.806Z" fill="#070606"/>
<path d="M518.098 814.54L497.12 908.16L522.333 923.125L518.098 814.54Z" fill="#070606"/>
<path d="M535.256 867.576L497.197 906.77L513.624 960.122L535.256 867.576Z" fill="#070606"/>
<path d="M497.432 812.908L484.519 916.465H510.345L497.432 812.908Z" fill="#070606"/>
<path d="M465.399 836.653L462.227 945.497L487.285 928.77L465.399 836.653Z" fill="#070606"/>
<path d="M451.75 857.187L461.987 962.867L483.646 925.208L451.75 857.187Z" fill="#070606"/>
<path d="M476.542 814.636L472.695 923.261L497.865 907.773L476.542 814.636Z" fill="#070606"/>
<path d="M489.013 831.878L468.034 925.498L493.248 940.463L489.013 831.878Z" fill="#070606"/>
<path d="M648.156 856.888L627.178 950.508L652.391 965.473L648.156 856.888Z" fill="#070606"/>
<path d="M665.314 909.923L627.255 949.117L643.682 1002.47L665.314 909.923Z" fill="#070606"/>
<path d="M627.49 855.256L614.577 958.813H640.403L627.49 855.256Z" fill="#070606"/>
<path d="M595.457 879L592.285 987.845L617.343 971.118L595.457 879Z" fill="#070606"/>
<path d="M581.809 899.535L592.045 1005.21L613.704 967.556L581.809 899.535Z" fill="#070606"/>
<path d="M606.6 856.984L602.754 965.609L627.923 950.121L606.6 856.984Z" fill="#070606"/>
<path d="M619.071 874.226L598.093 967.846L623.306 982.811L619.071 874.226Z" fill="#070606"/>
<path d="M412.239 766.149L391.26 859.768L416.474 874.734L412.239 766.149Z" fill="#070606"/>
<path d="M429.397 819.184L391.337 858.378L407.764 911.731L429.397 819.184Z" fill="#070606"/>
<path d="M391.573 764.517L378.66 868.074H404.485L391.573 764.517Z" fill="#070606"/>
<path d="M359.539 788.261L356.367 897.106L381.426 880.378L359.539 788.261Z" fill="#070606"/>
<path d="M345.891 808.796L356.128 914.475L377.787 876.817L345.891 808.796Z" fill="#070606"/>
<path d="M370.683 766.245L366.836 874.87L392.006 859.382L370.683 766.245Z" fill="#070606"/>
<path d="M383.153 783.487L362.175 877.106L387.388 892.072L383.153 783.487Z" fill="#070606"/>
<path d="M741.92 865.962L720.941 959.582L746.155 974.547L741.92 865.962Z" fill="#070606"/>
<path d="M759.077 918.998L721.018 958.192L737.445 1011.54L759.077 918.998Z" fill="#070606"/>
<path d="M721.253 864.33L708.34 967.887H734.166L721.253 864.33Z" fill="#070606"/>
<path d="M689.22 888.075L686.048 996.919L711.107 980.192L689.22 888.075Z" fill="#070606"/>
<path d="M675.572 908.609L685.808 1014.29L707.468 976.63L675.572 908.609Z" fill="#070606"/>
<path d="M700.363 866.058L696.517 974.683L721.686 959.195L700.363 866.058Z" fill="#070606"/>
<path d="M712.834 883.3L691.856 976.92L717.069 991.885L712.834 883.3Z" fill="#070606"/>
<path d="M806.949 856.888L785.97 950.508L811.184 965.473L806.949 856.888Z" fill="#070606"/>
<path d="M824.107 909.923L786.047 949.117L802.474 1002.47L824.107 909.923Z" fill="#070606"/>
<path d="M786.282 855.256L773.37 958.813H799.195L786.282 855.256Z" fill="#070606"/>
<path d="M754.249 879L751.077 987.845L776.136 971.118L754.249 879Z" fill="#070606"/>
<path d="M740.602 899.535L750.838 1005.21L772.497 967.556L740.602 899.535Z" fill="#070606"/>
<path d="M765.393 856.984L761.546 965.609L786.716 950.121L765.393 856.984Z" fill="#070606"/>
<path d="M777.864 874.226L756.885 967.846L782.099 982.811L777.864 874.226Z" fill="#070606"/>
<path d="M884.075 881.083L863.097 974.703L888.31 989.668L884.075 881.083Z" fill="#070606"/>
<path d="M901.233 934.119L863.174 973.313L879.601 1026.67L901.233 934.119Z" fill="#070606"/>
<path d="M863.409 879.451L850.496 983.008H876.322L863.409 879.451Z" fill="#070606"/>
<path d="M831.376 903.196L828.204 1012.04L853.262 995.313L831.376 903.196Z" fill="#070606"/>
<path d="M817.728 923.73L827.965 1029.41L849.624 991.751L817.728 923.73Z" fill="#070606"/>
<path d="M842.519 881.179L838.672 989.804L863.842 974.316L842.519 881.179Z" fill="#070606"/>
<path d="M854.99 898.421L834.012 992.041L859.225 1007.01L854.99 898.421Z" fill="#070606"/>
<path d="M961.203 847.813L940.225 941.433L965.438 956.398L961.203 847.813Z" fill="#070606"/>
<path d="M978.361 900.848L940.302 940.042L956.729 993.395L978.361 900.848Z" fill="#070606"/>
<path d="M940.537 846.181L927.624 949.738H953.45L940.537 846.181Z" fill="#070606"/>
<path d="M908.504 869.925L905.332 978.77L930.39 962.042L908.504 869.925Z" fill="#070606"/>
<path d="M894.856 890.46L905.093 996.139L926.752 958.481L894.856 890.46Z" fill="#070606"/>
<path d="M919.647 847.909L915.8 956.534L940.97 941.046L919.647 847.909Z" fill="#070606"/>
<path d="M932.118 865.151L911.14 958.77L936.353 973.736L932.118 865.151Z" fill="#070606"/>
<path d="M1042.87 894.695L1021.89 988.314L1047.1 1003.28L1042.87 894.695Z" fill="#070606"/>
<path d="M1060.03 947.73L1021.97 986.924L1038.39 1040.28L1060.03 947.73Z" fill="#070606"/>
<path d="M1022.2 893.062L1009.29 996.62H1035.12L1022.2 893.062Z" fill="#070606"/>
<path d="M990.17 916.807L986.998 1025.65L1012.06 1008.92L990.17 916.807Z" fill="#070606"/>
<path d="M976.522 937.342L986.759 1043.02L1008.42 1005.36L976.522 937.342Z" fill="#070606"/>
<path d="M1001.31 894.791L997.466 1003.42L1022.64 987.928L1001.31 894.791Z" fill="#070606"/>
<path d="M1013.78 912.033L992.806 1005.65L1018.02 1020.62L1013.78 912.033Z" fill="#070606"/>
<path d="M1106.39 914.356L1085.41 1007.98L1110.62 1022.94L1106.39 914.356Z" fill="#070606"/>
<path d="M1123.54 967.391L1085.48 1006.59L1101.91 1059.94L1123.54 967.391Z" fill="#070606"/>
<path d="M1085.72 912.724L1072.81 1016.28H1098.63L1085.72 912.724Z" fill="#070606"/>
<path d="M1053.69 936.468L1050.51 1045.31L1075.57 1028.59L1053.69 936.468Z" fill="#070606"/>
<path d="M1040.04 957.003L1050.28 1062.68L1071.93 1025.02L1040.04 957.003Z" fill="#070606"/>
<path d="M1064.83 914.452L1060.98 1023.08L1086.15 1007.59L1064.83 914.452Z" fill="#070606"/>
<path d="M1077.3 931.694L1056.32 1025.31L1081.54 1040.28L1077.3 931.694Z" fill="#070606"/>
<path d="M1251.57 934.014L1230.59 1027.63L1255.8 1042.6L1251.57 934.014Z" fill="#070606"/>
<path d="M1268.72 987.049L1230.66 1026.24L1247.09 1079.6L1268.72 987.049Z" fill="#070606"/>
<path d="M1230.9 932.382L1217.99 1035.94H1243.81L1230.9 932.382Z" fill="#070606"/>
<path d="M1198.87 956.126L1195.69 1064.97L1220.75 1048.24L1198.87 956.126Z" fill="#070606"/>
<path d="M1185.22 976.663L1195.45 1082.34L1217.11 1044.68L1185.22 976.663Z" fill="#070606"/>
<path d="M1210.01 934.11L1206.16 1042.73L1231.33 1027.25L1210.01 934.11Z" fill="#070606"/>
<path d="M1222.48 951.352L1201.5 1044.97L1226.72 1059.94L1222.48 951.352Z" fill="#070606"/>
<path d="M1328.69 914.356L1307.71 1007.98L1332.93 1022.94L1328.69 914.356Z" fill="#070606"/>
<path d="M1345.85 967.391L1307.79 1006.59L1324.22 1059.94L1345.85 967.391Z" fill="#070606"/>
<path d="M1308.03 912.724L1295.11 1016.28H1320.94L1308.03 912.724Z" fill="#070606"/>
<path d="M1275.99 936.468L1272.82 1045.31L1297.88 1028.59L1275.99 936.468Z" fill="#070606"/>
<path d="M1262.34 957.003L1272.58 1062.68L1294.24 1025.02L1262.34 957.003Z" fill="#070606"/>
<path d="M1287.14 914.452L1283.29 1023.08L1308.46 1007.59L1287.14 914.452Z" fill="#070606"/>
<path d="M1299.61 931.694L1278.63 1025.31L1303.84 1040.28L1299.61 931.694Z" fill="#070606"/>
<path d="M1434.55 894.695L1413.58 988.314L1438.79 1003.28L1434.55 894.695Z" fill="#070606"/>
<path d="M1451.71 947.73L1413.65 986.924L1430.08 1040.28L1451.71 947.73Z" fill="#070606"/>
<path d="M1413.89 893.062L1400.97 996.62H1426.8L1413.89 893.062Z" fill="#070606"/>
<path d="M1381.85 916.807L1378.68 1025.65L1403.74 1008.92L1381.85 916.807Z" fill="#070606"/>
<path d="M1368.21 937.342L1378.44 1043.02L1400.1 1005.36L1368.21 937.342Z" fill="#070606"/>
<path d="M1393 894.791L1389.15 1003.42L1414.32 987.928L1393 894.791Z" fill="#070606"/>
<path d="M1405.47 912.033L1384.49 1005.65L1409.7 1020.62L1405.47 912.033Z" fill="#070606"/>
<path d="M1451.7 912.724L1438.78 1016.28H1464.61L1451.7 912.724Z" fill="#070606"/>
<path d="M1419.66 936.468L1416.49 1045.31L1441.55 1028.59L1419.66 936.468Z" fill="#070606"/>
<path d="M1406.01 957.003L1416.25 1062.68L1437.91 1025.02L1406.01 957.003Z" fill="#070606"/>
<path d="M1430.81 914.452L1426.96 1023.08L1452.13 1007.59L1430.81 914.452Z" fill="#070606"/>
<path d="M1443.28 931.694L1422.3 1025.31L1447.51 1040.28L1443.28 931.694Z" fill="#070606"/>
<path d="M1386.16 929.478L1365.18 1023.1L1390.4 1038.06L1386.16 929.478Z" fill="#070606"/>
<path d="M1403.32 982.513L1365.26 1021.71L1381.69 1075.06L1403.32 982.513Z" fill="#070606"/>
<path d="M1365.5 927.846L1352.58 1031.4H1378.41L1365.5 927.846Z" fill="#070606"/>
<path d="M1333.46 951.59L1330.29 1060.43L1355.35 1043.71L1333.46 951.59Z" fill="#070606"/>
<path d="M1319.82 972.125L1330.05 1077.8L1351.71 1040.15L1319.82 972.125Z" fill="#070606"/>
<path d="M1344.61 929.574L1340.76 1038.2L1365.93 1022.71L1344.61 929.574Z" fill="#070606"/>
<path d="M1357.08 946.816L1336.1 1040.44L1361.31 1055.4L1357.08 946.816Z" fill="#070606"/>
<path d="M1204.69 914.356L1183.71 1007.98L1208.92 1022.94L1204.69 914.356Z" fill="#070606"/>
<path d="M1221.84 967.391L1183.78 1006.59L1200.21 1059.94L1221.84 967.391Z" fill="#070606"/>
<path d="M1184.02 912.724L1171.11 1016.28H1196.93L1184.02 912.724Z" fill="#070606"/>
<path d="M1151.99 936.468L1148.81 1045.31L1173.87 1028.59L1151.99 936.468Z" fill="#070606"/>
<path d="M1138.34 957.003L1148.58 1062.68L1170.23 1025.02L1138.34 957.003Z" fill="#070606"/>
<path d="M1163.13 914.452L1159.28 1023.08L1184.45 1007.59L1163.13 914.452Z" fill="#070606"/>
<path d="M1175.6 931.694L1154.62 1025.31L1179.84 1040.28L1175.6 931.694Z" fill="#070606"/>
<path d="M1011.11 900.744L990.13 994.363L1015.34 1009.33L1011.11 900.744Z" fill="#070606"/>
<path d="M1028.27 953.779L990.207 992.973L1006.63 1046.33L1028.27 953.779Z" fill="#070606"/>
<path d="M990.444 899.111L977.531 1002.67H1003.36L990.444 899.111Z" fill="#070606"/>
<path d="M958.409 922.856L955.237 1031.7L980.296 1014.97L958.409 922.856Z" fill="#070606"/>
<path d="M944.761 943.39L954.998 1049.07L976.657 1011.41L944.761 943.39Z" fill="#070606"/>
<path d="M969.552 900.839L965.706 1009.46L990.875 993.977L969.552 900.839Z" fill="#070606"/>
<path d="M982.024 918.081L961.045 1011.7L986.259 1026.67L982.024 918.081Z" fill="#070606"/>
<path d="M896.174 862.937L875.196 956.557L900.409 971.522L896.174 862.937Z" fill="#070606"/>
<path d="M913.332 915.972L875.272 955.166L891.699 1008.52L913.332 915.972Z" fill="#070606"/>
<path d="M875.508 861.305L862.595 964.862H888.42L875.508 861.305Z" fill="#070606"/>
<path d="M843.474 885.049L840.303 993.894L865.361 977.166L843.474 885.049Z" fill="#070606"/>
<path d="M829.827 905.584L840.063 1011.26L861.722 973.605L829.827 905.584Z" fill="#070606"/>
<path d="M854.618 863.033L850.771 971.658L875.941 956.17L854.618 863.033Z" fill="#070606"/>
<path d="M867.089 880.275L846.111 973.894L871.324 988.86L867.089 880.275Z" fill="#070606"/>
<path d="M871.979 850.836L851 944.456L876.214 959.421L871.979 850.836Z" fill="#070606"/>
<path d="M889.136 903.872L851.077 943.066L867.504 996.418L889.136 903.872Z" fill="#070606"/>
<path d="M851.312 849.204L838.399 952.761H864.225L851.312 849.204Z" fill="#070606"/>
<path d="M819.279 872.949L816.107 981.793L841.166 965.066L819.279 872.949Z" fill="#070606"/>
<path d="M805.631 893.483L815.868 999.163L837.527 961.504L805.631 893.483Z" fill="#070606"/>
<path d="M830.422 850.932L826.576 959.557L851.745 944.069L830.422 850.932Z" fill="#070606"/>
<path d="M842.894 868.174L821.915 961.794L847.129 976.759L842.894 868.174Z" fill="#070606"/>
<path d="M1295.42 932.5L1274.44 1026.12L1299.66 1041.09L1295.42 932.5Z" fill="#070606"/>
<path d="M1312.58 985.536L1274.52 1024.73L1290.95 1078.08L1312.58 985.536Z" fill="#070606"/>
<path d="M1274.75 930.868L1261.84 1034.43H1287.67L1274.75 930.868Z" fill="#070606"/>
<path d="M1242.72 954.613L1239.55 1063.46L1264.61 1046.73L1242.72 954.613Z" fill="#070606"/>
<path d="M1229.07 975.147L1239.31 1080.83L1260.97 1043.17L1229.07 975.147Z" fill="#070606"/>
<path d="M1253.87 932.596L1250.02 1041.22L1275.19 1025.73L1253.87 932.596Z" fill="#070606"/>
<path d="M1266.34 949.838L1245.36 1043.46L1270.57 1058.42L1266.34 949.838Z" fill="#070606"/>
<path d="M1165.36 912.844L1144.39 1006.46L1169.6 1021.43L1165.36 912.844Z" fill="#070606"/>
<path d="M1182.52 965.879L1144.46 1005.07L1160.89 1058.43L1182.52 965.879Z" fill="#070606"/>
<path d="M1144.7 911.212L1131.79 1014.77H1157.61L1144.7 911.212Z" fill="#070606"/>
<path d="M1112.67 934.956L1109.49 1043.8L1134.55 1027.07L1112.67 934.956Z" fill="#070606"/>
<path d="M1099.02 955.491L1109.25 1061.17L1130.91 1023.51L1099.02 955.491Z" fill="#070606"/>
<path d="M1123.81 912.94L1119.96 1021.56L1145.13 1006.08L1123.81 912.94Z" fill="#070606"/>
<path d="M1136.28 930.182L1115.3 1023.8L1140.51 1038.77L1136.28 930.182Z" fill="#070606"/>
<path d="M1156.29 888.643L1135.31 982.263L1160.52 997.228L1156.29 888.643Z" fill="#070606"/>
<path d="M1173.45 941.678L1135.39 980.872L1151.82 1034.23L1173.45 941.678Z" fill="#070606"/>
<path d="M1135.62 887.011L1122.71 990.568H1148.54L1135.62 887.011Z" fill="#070606"/>
<path d="M1103.59 910.755L1100.42 1019.6L1125.48 1002.87L1103.59 910.755Z" fill="#070606"/>
<path d="M1089.94 931.29L1100.18 1036.97L1121.84 999.311L1089.94 931.29Z" fill="#070606"/>
<path d="M1114.73 888.739L1110.89 997.364L1136.06 981.876L1114.73 888.739Z" fill="#070606"/>
<path d="M1127.2 905.981L1106.23 999.601L1131.44 1014.57L1127.2 905.981Z" fill="#070606"/>
<path d="M623.959 822.105L602.981 915.725L628.194 930.69L623.959 822.105Z" fill="#070606"/>
<path d="M641.117 875.14L603.057 914.334L619.485 967.687L641.117 875.14Z" fill="#070606"/>
<path d="M603.293 820.473L590.38 924.03H616.206L603.293 820.473Z" fill="#070606"/>
<path d="M571.26 844.217L568.088 953.062L593.146 936.334L571.26 844.217Z" fill="#070606"/>
<path d="M557.611 864.752L567.848 970.431L589.507 932.773L557.611 864.752Z" fill="#070606"/>
<path d="M582.403 822.201L578.556 930.826L603.726 915.338L582.403 822.201Z" fill="#070606"/>
<path d="M594.874 839.443L573.895 933.062L599.109 948.028L594.874 839.443Z" fill="#070606"/>
<path d="M688.99 865.962L668.012 959.582L693.225 974.547L688.99 865.962Z" fill="#070606"/>
<path d="M706.148 918.998L668.089 958.192L684.516 1011.54L706.148 918.998Z" fill="#070606"/>
<path d="M668.324 864.33L655.411 967.887H681.237L668.324 864.33Z" fill="#070606"/>
<path d="M636.291 888.075L633.119 996.919L658.177 980.192L636.291 888.075Z" fill="#070606"/>
<path d="M622.643 908.609L632.879 1014.29L654.538 976.63L622.643 908.609Z" fill="#070606"/>
<path d="M647.434 866.058L643.588 974.683L668.757 959.195L647.434 866.058Z" fill="#070606"/>
<path d="M659.905 883.3L638.927 976.92L664.14 991.885L659.905 883.3Z" fill="#070606"/>
<path d="M371.407 823.616L350.428 917.235L375.642 932.201L371.407 823.616Z" fill="#070606"/>
<path d="M388.565 876.651L350.505 915.845L366.932 969.198L388.565 876.651Z" fill="#070606"/>
<path d="M350.74 821.983L337.828 925.541H363.653L350.74 821.983Z" fill="#070606"/>
<path d="M318.707 845.728L315.535 954.573L340.594 937.845L318.707 845.728Z" fill="#070606"/>
<path d="M305.059 866.262L315.296 971.942L336.955 934.284L305.059 866.262Z" fill="#070606"/>
<path d="M329.851 823.711L326.004 932.336L351.174 916.849L329.851 823.711Z" fill="#070606"/>
<path d="M342.321 840.953L321.343 934.573L346.556 949.539L342.321 840.953Z" fill="#070606"/>
<path d="M371.407 806.981L350.428 900.601L375.642 915.566L371.407 806.981Z" fill="#070606"/>
<path d="M388.565 860.016L350.505 899.21L366.932 952.563L388.565 860.016Z" fill="#070606"/>
<path d="M350.74 805.349L337.828 908.906H363.653L350.74 805.349Z" fill="#070606"/>
<path d="M318.707 829.093L315.535 937.938L340.594 921.21L318.707 829.093Z" fill="#070606"/>
<path d="M305.059 849.628L315.296 955.307L336.955 917.649L305.059 849.628Z" fill="#070606"/>
<path d="M329.851 807.077L326.004 915.702L351.174 900.214L329.851 807.077Z" fill="#070606"/>
<path d="M342.321 824.319L321.343 917.938L346.556 932.904L342.321 824.319Z" fill="#070606"/>
<path d="M271.593 779.76L250.614 873.38L275.828 888.345L271.593 779.76Z" fill="#070606"/>
<path d="M288.751 832.795L250.691 871.989L267.118 925.342L288.751 832.795Z" fill="#070606"/>
<path d="M250.927 778.128L238.014 881.685H263.839L250.927 778.128Z" fill="#070606"/>
<path d="M218.893 801.872L215.722 910.717L240.78 893.99L218.893 801.872Z" fill="#070606"/>
<path d="M205.245 822.407L215.482 928.086L237.141 890.428L205.245 822.407Z" fill="#070606"/>
<path d="M230.037 779.856L226.19 888.481L251.36 872.993L230.037 779.856Z" fill="#070606"/>
<path d="M242.507 797.098L221.529 890.718L246.742 905.683L242.507 797.098Z" fill="#070606"/>
<path d="M153.634 784.295L132.656 877.915L157.869 892.88L153.634 784.295Z" fill="#070606"/>
<path d="M170.792 837.331L132.732 876.525L149.159 929.877L170.792 837.331Z" fill="#070606"/>
<path d="M132.968 782.663L120.055 886.22H145.88L132.968 782.663Z" fill="#070606"/>
<path d="M100.934 806.408L97.762 915.252L122.82 898.525L100.934 806.408Z" fill="#070606"/>
<path d="M87.2861 826.942L97.5228 932.622L119.182 894.963L87.2861 826.942Z" fill="#070606"/>
<path d="M112.078 784.391L108.231 893.016L133.401 877.528L112.078 784.391Z" fill="#070606"/>
<path d="M124.549 801.633L103.57 895.253L128.783 910.218L124.549 801.633Z" fill="#070606"/>
<path d="M64.4079 813.03L43.4294 906.649L68.6428 921.615L64.4079 813.03Z" fill="#070606"/>
<path d="M81.5656 866.065L43.5062 905.259L59.9332 958.612L81.5656 866.065Z" fill="#070606"/>
<path d="M43.7415 811.397L30.8287 914.955H56.6542L43.7415 811.397Z" fill="#070606"/>
<path d="M11.7083 835.142L8.53644 943.987L33.5949 927.259L11.7083 835.142Z" fill="#070606"/>
<path d="M-1.93997 855.677L8.29673 961.356L29.9559 923.698L-1.93997 855.677Z" fill="#070606"/>
<path d="M22.8516 813.125L19.005 921.75L44.1747 906.263L22.8516 813.125Z" fill="#070606"/>
<path d="M35.3224 830.368L14.344 923.987L39.5574 938.953L35.3224 830.368Z" fill="#070606"/>
<path d="M566.492 835.715L545.513 929.335L570.727 944.3L566.492 835.715Z" fill="#070606"/>
<path d="M583.65 888.75L545.59 927.945L562.017 981.297L583.65 888.75Z" fill="#070606"/>
<path d="M545.825 834.083L532.913 937.64H558.738L545.825 834.083Z" fill="#070606"/>
<path d="M513.792 857.827L510.62 966.672L535.679 949.945L513.792 857.827Z" fill="#070606"/>
<path d="M500.144 878.362L510.381 984.041L532.04 946.383L500.144 878.362Z" fill="#070606"/>
<path d="M524.936 835.811L521.089 944.436L546.259 928.948L524.936 835.811Z" fill="#070606"/>
<path d="M537.406 853.053L516.428 946.673L541.641 961.638L537.406 853.053Z" fill="#070606"/>
<path d="M757.042 841.762L736.064 935.382L761.277 950.347L757.042 841.762Z" fill="#070606"/>
<path d="M774.2 894.797L736.14 933.991L752.568 987.344L774.2 894.797Z" fill="#070606"/>
<path d="M736.376 840.13L723.463 943.687H749.289L736.376 840.13Z" fill="#070606"/>
<path d="M704.343 863.874L701.171 972.719L726.229 955.992L704.343 863.874Z" fill="#070606"/>
<path d="M690.694 884.411L700.931 990.09L722.59 952.432L690.694 884.411Z" fill="#070606"/>
<path d="M715.486 841.858L711.639 950.483L736.809 934.995L715.486 841.858Z" fill="#070606"/>
<path d="M727.957 859.1L706.978 952.72L732.192 967.685L727.957 859.1Z" fill="#070606"/>
<path d="M717.724 832.687L696.745 926.307L721.959 941.272L717.724 832.687Z" fill="#070606"/>
<path d="M734.882 885.722L696.822 924.916L713.249 978.269L734.882 885.722Z" fill="#070606"/>
<path d="M697.057 831.055L684.145 934.612H709.97L697.057 831.055Z" fill="#070606"/>
<path d="M665.024 854.799L661.852 963.644L686.911 946.916L665.024 854.799Z" fill="#070606"/>
<path d="M651.376 875.334L661.613 981.013L683.272 943.355L651.376 875.334Z" fill="#070606"/>
<path d="M676.168 832.783L672.321 941.408L697.491 925.92L676.168 832.783Z" fill="#070606"/>
<path d="M688.638 850.025L667.66 943.644L692.873 958.61L688.638 850.025Z" fill="#070606"/>
<path d="M813 856.888L792.021 950.508L817.235 965.473L813 856.888Z" fill="#070606"/>
<path d="M830.157 909.923L792.098 949.117L808.525 1002.47L830.157 909.923Z" fill="#070606"/>
<path d="M792.333 855.256L779.42 958.813H805.246L792.333 855.256Z" fill="#070606"/>
<path d="M760.3 879L757.128 987.845L782.187 971.118L760.3 879Z" fill="#070606"/>
<path d="M746.652 899.535L756.889 1005.21L778.548 967.556L746.652 899.535Z" fill="#070606"/>
<path d="M771.443 856.984L767.597 965.609L792.766 950.121L771.443 856.984Z" fill="#070606"/>
<path d="M783.915 874.226L762.936 967.846L788.15 982.811L783.915 874.226Z" fill="#070606"/>
</g>
</g>
<defs>
<linearGradient id="paint0_linear" x1="1157.42" y1="-51.5261" x2="1152.72" y2="594.189" gradientUnits="userSpaceOnUse">
<stop stop-color="#557C99"/>
<stop offset="0.197099" stop-color="#86B2D3"/>
<stop offset="0.50737" stop-color="#CBD7D8"/>
<stop offset="1" stop-color="#BECED6"/>
</linearGradient>
<linearGradient id="paint1_linear" x1="603.723" y1="102.836" x2="602.967" y2="654.07" gradientUnits="userSpaceOnUse">
<stop stop-color="#718DD3"/>
<stop offset="0.443093" stop-color="#BED1DA" stop-opacity="0"/>
<stop offset="1" stop-color="#C2D0D9"/>
</linearGradient>
<linearGradient id="paint2_linear" x1="1264.36" y1="297.032" x2="1268.41" y2="848.252" gradientUnits="userSpaceOnUse">
<stop stop-color="#718DD3"/>
<stop offset="0.265461" stop-color="#BED1DA" stop-opacity="0"/>
<stop offset="1" stop-color="#C2D0D9"/>
</linearGradient>
<linearGradient id="paint3_linear" x1="797.295" y1="161.061" x2="903.267" y2="802.437" gradientUnits="userSpaceOnUse">
<stop offset="0.264036" stop-color="#5080A2"/>
<stop offset="0.460477" stop-color="#80A4B9"/>
<stop offset="0.95725" stop-color="#C6CFCA"/>
</linearGradient>
<linearGradient id="paint4_linear" x1="771.588" y1="567.87" x2="971.293" y2="1683.61" gradientUnits="userSpaceOnUse">
<stop stop-color="#3C5168"/>
<stop offset="0.180685" stop-color="#6C7266"/>
<stop offset="0.51559" stop-color="#8E846A" stop-opacity="0.58"/>
</linearGradient>
<linearGradient id="paint5_linear" x1="1672.92" y1="901.332" x2="669.506" y2="1061.64" gradientUnits="userSpaceOnUse">
<stop offset="0.228791" stop-color="#3B2F19"/>
<stop offset="1" stop-color="#887449"/>
</linearGradient>
<linearGradient id="paint6_linear" x1="156.906" y1="829.412" x2="137.165" y2="1960.36" gradientUnits="userSpaceOnUse">
<stop stop-color="#060606"/>
<stop offset="1" stop-color="#0B0804"/>
</linearGradient>
<clipPath id="clip0">
<rect width="1440" height="1024" fill="white"/>
</clipPath>
<clipPath id="clip1">
<rect width="1820.56" height="1024" fill="white" transform="matrix(-1 0 0 1 1778.78 0)"/>
</clipPath>
</defs>
</svg>
