<svg width="635" height="854" viewBox="0 0 635 854" fill="none" xmlns="http://www.w3.org/2000/svg">
<rect width="635" height="854" fill="white"/>
<g clip-path="url(#clip0)">
<rect width="635" height="854" transform="matrix(-1 0 0 1 635 0)" fill="url(#paint0_linear)"/>
<path d="M513.615 194.397L351.413 201.145L317.464 191.183L281.194 180.258H261.753L248.405 171.582L236.218 175.116L221.13 164.191L206.912 158.407L186.02 164.191L175.574 158.407L149.459 164.191L109.707 158.407L61.8298 151.658L43.2593 142.661L27.8806 145.874L12.2118 137.841L2.05603 142.661L-10.421 137.841L-28.4111 151.658L-37.6964 148.766L-53.9456 154.872L-85.8636 170.296L-99.7914 167.404L-117.491 174.474H-127.357L-147.959 180.258L-194.965 174.474L-206.572 343.82H489.821L513.615 194.397Z" fill="url(#paint1_linear)"/>
<path d="M767.781 273.444L605.638 281.76L571.612 272.127L535.257 261.552L515.817 261.74L502.401 253.193L490.243 256.846L475.069 246.066L460.806 240.42L439.96 246.405L429.469 240.723L403.401 246.759L363.604 241.359L315.676 235.074L297.035 226.256L281.683 229.618L265.951 221.736L255.834 226.654L243.319 221.955L225.439 235.946L216.131 233.144L199.93 239.406L168.135 255.138L154.185 252.381L136.541 259.621L126.676 259.717L106.121 265.7L47.7837 300.969L48.799 429.822L745.166 423.092L767.781 273.444Z" fill="url(#paint2_linear)"/>
<path d="M645.249 138.173L622.946 148.376L616.127 138.173L607.132 141.608L584.499 161.167L576.375 157.997L571.732 161.167L567.089 157.997L558.094 161.167L547.939 157.997L498.031 141.608L439.418 180.169L435.645 186.917L432.163 197.2L367.747 220.658L361.944 218.087L343.663 224.514L332.637 230.298L297.818 230.298L281.278 241.224L266.77 246.044L243.847 260.504L231.08 264.361L212.8 262.432L183.493 269.181L129.813 253.114L93.8325 264.361L69.168 264.36L17.809 285.569L-13.8188 288.14L-37.3221 298.744L-51.5401 301.957L-87.2303 322.202L-127.273 340.84L-153.678 349.194L-174.279 349.194L-142.652 520.469L675.767 273.726L645.249 138.173Z" fill="url(#paint3_linear)"/>
<path d="M195.376 315.961C189.338 315.961 183.327 317.463 177.859 320.34L-35.9557 432.833L-127.585 465.835C-130.134 466.753 -132.591 467.944 -134.915 469.388L-1203.55 1133.51C-1241.21 1156.91 -1218.69 1214.83 -1176.62 1202.78L1819.17 344.773C1859.74 333.153 1856.45 273.131 1815.06 269.839L784.419 187.866C779.952 187.51 775.424 187.989 771.054 189.278L613.419 235.77C610.344 236.677 607.378 237.976 604.591 239.637L482.974 312.088C478.682 314.645 473.978 316.337 469.129 317.068L376.442 331.045C372.548 331.632 368.613 331.592 364.784 330.925L281.929 316.493C279.894 316.139 277.827 315.961 275.749 315.961L195.376 315.961Z" fill="url(#paint4_linear)"/>
<path d="M646.835 351.819C640.368 349.967 633.524 349.874 627.01 351.551L532.185 375.954L277.016 477.622C274.01 478.82 270.863 479.627 267.652 480.022L129.148 497.1L-862.494 755.317C-905.412 766.493 -897.32 829.683 -852.971 829.683L2212.47 829.683C2254.58 829.683 2265.13 771.193 2225.67 756.479L1247.42 391.722C1241.68 389.581 1235.5 388.869 1229.42 389.646L925.721 428.495C920.629 429.147 915.456 428.753 910.52 427.34L646.835 351.819Z" fill="url(#paint5_linear)"/>
<path d="M-15.1571 608.649C-21.7798 607.703 -28.5194 607.97 -35.0467 609.437L-2472.6 1157.29C-2536.26 1171.59 -2526.7 1265.09 -2461.47 1266.23L2510.19 1353.01C2572.65 1354.1 2588.5 1266.88 2529.66 1245.92L957.998 686.034C950.136 683.233 941.74 682.253 933.443 683.169L699.608 708.971C695.002 709.48 690.35 709.405 685.762 708.75L-15.1571 608.649Z" fill="url(#paint6_linear)"/>
<path d="M-1.88396 572.677L-14.893 630.732L0.742216 640.013L-1.88396 572.677Z" fill="#070606"/>
<path d="M8.7559 605.565L-14.8454 629.87L-4.65871 662.955L8.7559 605.565Z" fill="#070606"/>
<path d="M78.7679 560.486L65.7588 618.541L81.3941 627.821L78.7679 560.486Z" fill="#070606"/>
<path d="M89.4078 593.374L65.8064 617.679L75.9931 650.764L89.4078 593.374Z" fill="#070606"/>
<path d="M65.9525 559.474L57.9451 623.691H73.96L65.9525 559.474Z" fill="#070606"/>
<path d="M46.088 574.198L44.1211 641.694L59.6603 631.321L46.088 574.198Z" fill="#070606"/>
<path d="M37.6244 586.932L43.9723 652.465L57.4036 629.113L37.6244 586.932Z" fill="#070606"/>
<path d="M52.9984 560.545L50.6131 627.905L66.2212 618.301L52.9984 560.545Z" fill="#070606"/>
<path d="M60.7313 571.237L47.7222 629.292L63.3574 638.572L60.7313 571.237Z" fill="#070606"/>
<path d="M136.911 610.189L123.902 668.244L139.538 677.524L136.911 610.189Z" fill="#070606"/>
<path d="M147.551 643.077L123.95 667.382L134.137 700.467L147.551 643.077Z" fill="#070606"/>
<path d="M124.096 609.177L116.089 673.394H132.104L124.096 609.177Z" fill="#070606"/>
<path d="M104.232 623.901L102.265 691.397L117.804 681.024L104.232 623.901Z" fill="#070606"/>
<path d="M95.7679 636.635L102.116 702.169L115.547 678.816L95.7679 636.635Z" fill="#070606"/>
<path d="M111.142 610.248L108.757 677.608L124.365 668.004L111.142 610.248Z" fill="#070606"/>
<path d="M118.875 620.94L105.866 678.995L121.501 688.275L118.875 620.94Z" fill="#070606"/>
<path d="M40.3187 604.561L27.3096 662.616L42.9449 671.896L40.3187 604.561Z" fill="#070606"/>
<path d="M50.9585 637.449L27.3572 661.754L37.5439 694.839L50.9585 637.449Z" fill="#070606"/>
<path d="M27.5033 603.549L19.4959 667.766H35.5108L27.5033 603.549Z" fill="#070606"/>
<path d="M7.63881 618.273L5.67189 685.769L21.2111 675.397L7.63881 618.273Z" fill="#070606"/>
<path d="M-0.824824 631.007L5.52313 696.541L18.9543 673.188L-0.824824 631.007Z" fill="#070606"/>
<path d="M14.5492 604.62L12.1638 671.98L27.772 662.376L14.5492 604.62Z" fill="#070606"/>
<path d="M22.2821 615.312L9.27296 673.367L24.9082 682.647L22.2821 615.312Z" fill="#070606"/>
<path d="M14.0599 580.179L1.0508 638.234L16.6861 647.515L14.0599 580.179Z" fill="#070606"/>
<path d="M24.6998 613.067L1.09842 637.372L11.2851 670.457L24.6998 613.067Z" fill="#070606"/>
<path d="M1.24453 579.167L-6.76291 643.385H9.25197L1.24453 579.167Z" fill="#070606"/>
<path d="M-11.7096 580.238L-14.0949 647.599L1.51321 637.994L-11.7096 580.238Z" fill="#070606"/>
<path d="M-3.97673 590.93L-16.9858 648.985L-1.35056 658.266L-3.97673 590.93Z" fill="#070606"/>
<path d="M165.984 592.372L152.975 650.427L168.61 659.707L165.984 592.372Z" fill="#070606"/>
<path d="M176.624 625.26L153.022 649.565L163.209 682.65L176.624 625.26Z" fill="#070606"/>
<path d="M153.168 591.359L145.161 655.577H161.176L153.168 591.359Z" fill="#070606"/>
<path d="M133.304 606.084L131.337 673.58L146.876 663.207L133.304 606.084Z" fill="#070606"/>
<path d="M124.84 618.818L131.188 684.351L144.619 660.999L124.84 618.818Z" fill="#070606"/>
<path d="M140.214 592.431L137.829 659.791L153.437 650.187L140.214 592.431Z" fill="#070606"/>
<path d="M147.947 603.122L134.938 661.178L150.573 670.458L147.947 603.122Z" fill="#070606"/>
<path d="M198.807 597.997L185.798 656.052L201.433 665.332L198.807 597.997Z" fill="#070606"/>
<path d="M209.447 630.885L185.845 655.19L196.032 688.275L209.447 630.885Z" fill="#070606"/>
<path d="M185.992 596.984L177.984 661.202H193.999L185.992 596.984Z" fill="#070606"/>
<path d="M166.127 611.709L164.16 679.205L179.699 668.832L166.127 611.709Z" fill="#070606"/>
<path d="M157.663 624.443L164.011 689.976L177.443 666.624L157.663 624.443Z" fill="#070606"/>
<path d="M173.037 598.056L170.652 665.416L186.26 655.812L173.037 598.056Z" fill="#070606"/>
<path d="M180.77 608.747L167.761 666.803L183.397 676.083L180.77 608.747Z" fill="#070606"/>
<path d="M279.458 624.256L266.449 682.311L282.085 691.592L279.458 624.256Z" fill="#070606"/>
<path d="M290.098 657.144L266.497 681.449L276.684 714.534L290.098 657.144Z" fill="#070606"/>
<path d="M266.643 623.244L258.636 687.462H274.651L266.643 623.244Z" fill="#070606"/>
<path d="M246.778 637.968L244.811 705.465L260.35 695.092L246.778 637.968Z" fill="#070606"/>
<path d="M238.315 650.702L244.663 716.236L258.094 692.883L238.315 650.702Z" fill="#070606"/>
<path d="M253.689 624.316L251.303 691.676L266.912 682.071L253.689 624.316Z" fill="#070606"/>
<path d="M261.422 635.007L248.413 693.062L264.048 702.343L261.422 635.007Z" fill="#070606"/>
<path d="M133.161 567.988L120.152 626.043L135.788 635.323L133.161 567.988Z" fill="#070606"/>
<path d="M143.801 600.876L120.2 625.181L130.387 658.266L143.801 600.876Z" fill="#070606"/>
<path d="M120.346 566.976L112.339 631.193H128.354L120.346 566.976Z" fill="#070606"/>
<path d="M100.482 581.7L98.5147 649.196L114.054 638.823L100.482 581.7Z" fill="#070606"/>
<path d="M92.0179 594.434L98.3659 659.967L111.797 636.615L92.0179 594.434Z" fill="#070606"/>
<path d="M107.392 568.047L105.007 635.407L120.615 625.803L107.392 568.047Z" fill="#070606"/>
<path d="M115.125 578.739L102.116 636.794L117.751 646.074L115.125 578.739Z" fill="#070606"/>
<path d="M337.601 629.883L324.592 687.938L340.228 697.219L337.601 629.883Z" fill="#070606"/>
<path d="M348.241 662.771L324.64 687.076L334.827 720.161L348.241 662.771Z" fill="#070606"/>
<path d="M324.787 628.871L316.779 693.089H332.794L324.787 628.871Z" fill="#070606"/>
<path d="M304.921 643.595L302.954 711.092L318.493 700.719L304.921 643.595Z" fill="#070606"/>
<path d="M296.458 656.329L302.806 721.863L316.237 698.51L296.458 656.329Z" fill="#070606"/>
<path d="M311.832 629.942L309.447 697.303L325.055 687.698L311.832 629.942Z" fill="#070606"/>
<path d="M319.565 640.634L306.556 698.689L322.191 707.97L319.565 640.634Z" fill="#070606"/>
<path d="M377.928 624.256L364.919 682.311L380.554 691.592L377.928 624.256Z" fill="#070606"/>
<path d="M388.568 657.144L364.967 681.449L375.153 714.534L388.568 657.144Z" fill="#070606"/>
<path d="M365.113 623.244L357.106 687.462H373.121L365.113 623.244Z" fill="#070606"/>
<path d="M345.248 637.968L343.281 705.465L358.82 695.092L345.248 637.968Z" fill="#070606"/>
<path d="M336.785 650.702L343.133 716.236L356.564 692.883L336.785 650.702Z" fill="#070606"/>
<path d="M352.159 624.316L349.773 691.676L365.381 682.071L352.159 624.316Z" fill="#070606"/>
<path d="M359.891 635.007L346.882 693.062L362.518 702.343L359.891 635.007Z" fill="#070606"/>
<path d="M425.755 639.26L412.746 697.315L428.381 706.596L425.755 639.26Z" fill="#070606"/>
<path d="M436.395 672.148L412.794 696.453L422.98 729.538L436.395 672.148Z" fill="#070606"/>
<path d="M412.94 638.248L404.933 702.466H420.948L412.94 638.248Z" fill="#070606"/>
<path d="M393.075 652.972L391.108 720.469L406.647 710.096L393.075 652.972Z" fill="#070606"/>
<path d="M384.612 665.706L390.96 731.24L404.391 707.887L384.612 665.706Z" fill="#070606"/>
<path d="M399.986 639.319L397.6 706.68L413.209 697.075L399.986 639.319Z" fill="#070606"/>
<path d="M407.719 650.011L394.709 708.066L410.345 717.347L407.719 650.011Z" fill="#070606"/>
<path d="M473.583 618.629L460.574 676.684L476.21 685.965L473.583 618.629Z" fill="#070606"/>
<path d="M484.223 651.518L460.622 675.822L470.809 708.907L484.223 651.518Z" fill="#070606"/>
<path d="M460.768 617.617L452.761 681.835H468.776L460.768 617.617Z" fill="#070606"/>
<path d="M440.903 632.341L438.936 699.838L454.475 689.465L440.903 632.341Z" fill="#070606"/>
<path d="M432.44 645.075L438.788 710.609L452.219 687.256L432.44 645.075Z" fill="#070606"/>
<path d="M447.814 618.689L445.428 686.049L461.037 676.445L447.814 618.689Z" fill="#070606"/>
<path d="M455.547 629.38L442.538 687.435L458.173 696.716L455.547 629.38Z" fill="#070606"/>
<path d="M524.225 647.702L511.216 705.757L526.851 715.037L524.225 647.702Z" fill="#070606"/>
<path d="M534.865 680.59L511.263 704.895L521.45 737.98L534.865 680.59Z" fill="#070606"/>
<path d="M511.41 646.689L503.403 710.907H519.417L511.41 646.689Z" fill="#070606"/>
<path d="M491.545 661.414L489.578 728.91L505.117 718.537L491.545 661.414Z" fill="#070606"/>
<path d="M483.082 674.148L489.43 739.681L502.861 716.329L483.082 674.148Z" fill="#070606"/>
<path d="M498.455 647.761L496.07 715.121L511.678 705.517L498.455 647.761Z" fill="#070606"/>
<path d="M506.188 658.453L493.179 716.508L508.814 725.788L506.188 658.453Z" fill="#070606"/>
<path d="M563.614 659.893L550.605 717.948L566.24 727.228L563.614 659.893Z" fill="#070606"/>
<path d="M574.253 692.781L550.652 717.086L560.839 750.171L574.253 692.781Z" fill="#070606"/>
<path d="M550.799 658.881L542.791 723.098H558.806L550.799 658.881Z" fill="#070606"/>
<path d="M530.933 673.605L528.966 741.101L544.505 730.729L530.933 673.605Z" fill="#070606"/>
<path d="M522.471 686.339L528.819 751.873L542.25 728.52L522.471 686.339Z" fill="#070606"/>
<path d="M537.844 659.952L535.459 727.312L551.067 717.708L537.844 659.952Z" fill="#070606"/>
<path d="M545.577 670.644L532.568 728.699L548.203 737.979L545.577 670.644Z" fill="#070606"/>
<path d="M640.827 671.071L632.82 735.289H648.834L640.827 671.071Z" fill="#070606"/>
<path d="M620.962 685.795L618.995 753.292L634.534 742.919L620.962 685.795Z" fill="#070606"/>
<path d="M612.499 698.53L618.847 764.064L632.278 740.712L612.499 698.53Z" fill="#070606"/>
<path d="M627.873 672.143L625.488 739.503L641.096 729.899L627.873 672.143Z" fill="#070606"/>
<path d="M635.606 682.834L622.597 740.89L638.232 750.17L635.606 682.834Z" fill="#070606"/>
<path d="M624.571 659.893L611.562 717.948L627.197 727.228L624.571 659.893Z" fill="#070606"/>
<path d="M635.211 692.781L611.61 717.086L621.796 750.171L635.211 692.781Z" fill="#070606"/>
<path d="M611.756 658.881L603.749 723.098H619.764L611.756 658.881Z" fill="#070606"/>
<path d="M591.891 673.605L589.924 741.101L605.463 730.729L591.891 673.605Z" fill="#070606"/>
<path d="M583.428 686.339L589.776 751.873L603.207 728.52L583.428 686.339Z" fill="#070606"/>
<path d="M598.802 659.952L596.416 727.312L612.024 717.708L598.802 659.952Z" fill="#070606"/>
<path d="M606.534 670.644L593.525 728.699L609.161 737.979L606.534 670.644Z" fill="#070606"/>
<path d="M504.531 651.453L491.522 709.508L507.157 718.788L504.531 651.453Z" fill="#070606"/>
<path d="M515.171 684.341L491.57 708.646L501.756 741.731L515.171 684.341Z" fill="#070606"/>
<path d="M491.716 650.44L483.709 714.658H499.724L491.716 650.44Z" fill="#070606"/>
<path d="M471.851 665.165L469.884 732.661L485.423 722.288L471.851 665.165Z" fill="#070606"/>
<path d="M463.388 677.899L469.736 743.432L483.167 720.08L463.388 677.899Z" fill="#070606"/>
<path d="M478.762 651.512L476.376 718.872L491.984 709.268L478.762 651.512Z" fill="#070606"/>
<path d="M486.494 662.204L473.485 720.259L489.121 729.539L486.494 662.204Z" fill="#070606"/>
<path d="M433.258 628.008L420.249 686.063L435.884 695.344L433.258 628.008Z" fill="#070606"/>
<path d="M443.898 660.896L420.297 685.201L430.483 718.286L443.898 660.896Z" fill="#070606"/>
<path d="M420.443 626.996L412.435 691.214H428.45L420.443 626.996Z" fill="#070606"/>
<path d="M400.578 641.72L398.611 709.217L414.15 698.844L400.578 641.72Z" fill="#070606"/>
<path d="M392.115 654.454L398.463 719.988L411.894 696.635L392.115 654.454Z" fill="#070606"/>
<path d="M407.488 628.067L405.103 695.428L420.711 685.823L407.488 628.067Z" fill="#070606"/>
<path d="M415.222 638.759L402.212 696.814L417.848 706.095L415.222 638.759Z" fill="#070606"/>
<path d="M418.254 620.505L405.245 678.56L420.88 687.841L418.254 620.505Z" fill="#070606"/>
<path d="M428.894 653.394L405.292 677.698L415.479 710.783L428.894 653.394Z" fill="#070606"/>
<path d="M405.439 619.493L397.431 683.711H413.446L405.439 619.493Z" fill="#070606"/>
<path d="M385.573 634.217L383.606 701.714L399.146 691.341L385.573 634.217Z" fill="#070606"/>
<path d="M377.111 646.951L383.459 712.485L396.89 689.132L377.111 646.951Z" fill="#070606"/>
<path d="M392.484 620.565L390.099 687.925L405.707 678.321L392.484 620.565Z" fill="#070606"/>
<path d="M400.217 631.256L387.208 689.311L402.843 698.592L400.217 631.256Z" fill="#070606"/>
<path d="M639.696 697.592L646.044 763.126L659.475 739.773L639.696 697.592Z" fill="#070606"/>
<path d="M600.187 658.956L587.178 717.011L602.814 726.291L600.187 658.956Z" fill="#070606"/>
<path d="M610.827 691.844L587.226 716.149L597.413 749.234L610.827 691.844Z" fill="#070606"/>
<path d="M587.372 657.943L579.365 722.161H595.38L587.372 657.943Z" fill="#070606"/>
<path d="M567.507 672.668L565.54 740.164L581.079 729.791L567.507 672.668Z" fill="#070606"/>
<path d="M559.044 685.402L565.392 750.935L578.823 727.583L559.044 685.402Z" fill="#070606"/>
<path d="M574.418 659.015L572.033 726.375L587.641 716.771L574.418 659.015Z" fill="#070606"/>
<path d="M582.151 669.706L569.142 727.762L584.777 737.042L582.151 669.706Z" fill="#070606"/>
<path d="M594.56 643.949L581.551 702.004L597.186 711.284L594.56 643.949Z" fill="#070606"/>
<path d="M605.2 676.837L581.598 701.142L591.785 734.227L605.2 676.837Z" fill="#070606"/>
<path d="M581.745 642.937L573.738 707.154H589.752L581.745 642.937Z" fill="#070606"/>
<path d="M561.88 657.661L559.913 725.157L575.452 714.784L561.88 657.661Z" fill="#070606"/>
<path d="M553.416 670.395L559.764 735.928L573.196 712.576L553.416 670.395Z" fill="#070606"/>
<path d="M568.79 644.008L566.405 711.368L582.013 701.764L568.79 644.008Z" fill="#070606"/>
<path d="M576.523 654.7L563.514 712.755L579.149 722.035L576.523 654.7Z" fill="#070606"/>
<path d="M264.453 602.687L251.444 660.742L267.08 670.022L264.453 602.687Z" fill="#070606"/>
<path d="M275.093 635.575L251.492 659.88L261.679 692.965L275.093 635.575Z" fill="#070606"/>
<path d="M251.639 601.675L243.631 665.892H259.646L251.639 601.675Z" fill="#070606"/>
<path d="M231.773 616.399L229.806 683.895L245.345 673.523L231.773 616.399Z" fill="#070606"/>
<path d="M223.31 629.133L229.658 694.667L243.089 671.314L223.31 629.133Z" fill="#070606"/>
<path d="M238.684 602.746L236.299 670.106L251.907 660.502L238.684 602.746Z" fill="#070606"/>
<path d="M246.417 613.438L233.408 671.493L249.043 680.773L246.417 613.438Z" fill="#070606"/>
<path d="M304.779 629.883L291.77 687.938L307.405 697.219L304.779 629.883Z" fill="#070606"/>
<path d="M315.419 662.771L291.817 687.076L302.004 720.161L315.419 662.771Z" fill="#070606"/>
<path d="M291.964 628.871L283.956 693.089H299.971L291.964 628.871Z" fill="#070606"/>
<path d="M272.099 643.595L270.132 711.092L285.671 700.719L272.099 643.595Z" fill="#070606"/>
<path d="M263.636 656.329L269.984 721.863L283.415 698.51L263.636 656.329Z" fill="#070606"/>
<path d="M279.009 629.942L276.624 697.303L292.232 687.698L279.009 629.942Z" fill="#070606"/>
<path d="M286.742 640.634L273.733 698.689L289.368 707.97L286.742 640.634Z" fill="#070606"/>
<path d="M107.84 603.624L94.8311 661.68L110.466 670.96L107.84 603.624Z" fill="#070606"/>
<path d="M118.48 636.513L94.8787 660.818L105.065 693.902L118.48 636.513Z" fill="#070606"/>
<path d="M95.0248 602.612L87.0174 666.83H103.032L95.0248 602.612Z" fill="#070606"/>
<path d="M75.1603 617.336L73.1934 684.833L88.7325 674.46L75.1603 617.336Z" fill="#070606"/>
<path d="M66.6967 630.07L73.0446 695.604L86.4758 672.252L66.6967 630.07Z" fill="#070606"/>
<path d="M82.0707 603.684L79.6853 671.044L95.2935 661.44L82.0707 603.684Z" fill="#070606"/>
<path d="M89.8035 614.375L76.7944 672.431L92.4297 681.711L89.8035 614.375Z" fill="#070606"/>
<path d="M107.84 593.309L94.8311 651.364L110.466 660.644L107.84 593.309Z" fill="#070606"/>
<path d="M118.48 626.197L94.8787 650.502L105.065 683.587L118.48 626.197Z" fill="#070606"/>
<path d="M95.0248 592.297L87.0174 656.514H103.032L95.0248 592.297Z" fill="#070606"/>
<path d="M75.1598 607.021L73.1929 674.517L88.7321 664.145L75.1598 607.021Z" fill="#070606"/>
<path d="M66.6971 619.755L73.0451 685.289L86.4763 661.936L66.6971 619.755Z" fill="#070606"/>
<path d="M82.0707 593.368L79.6853 660.728L95.2935 651.124L82.0707 593.368Z" fill="#070606"/>
<path d="M89.8035 604.06L76.7944 662.115L92.4297 671.395L89.8035 604.06Z" fill="#070606"/>
<path d="M45.9447 576.428L32.9356 634.483L48.5708 643.764L45.9447 576.428Z" fill="#070606"/>
<path d="M56.5845 609.316L32.9832 633.621L43.1699 666.706L56.5845 609.316Z" fill="#070606"/>
<path d="M33.1293 575.416L25.1219 639.634H41.1367L33.1293 575.416Z" fill="#070606"/>
<path d="M13.2648 590.14L11.2979 657.637L26.837 647.264L13.2648 590.14Z" fill="#070606"/>
<path d="M4.80115 602.874L11.1491 668.408L24.5803 645.055L4.80115 602.874Z" fill="#070606"/>
<path d="M20.1752 576.487L17.7898 643.848L33.398 634.243L20.1752 576.487Z" fill="#070606"/>
<path d="M27.908 587.179L14.8989 645.234L30.5342 654.515L27.908 587.179Z" fill="#070606"/>
<path d="M228.817 611.126L215.808 669.182L231.443 678.462L228.817 611.126Z" fill="#070606"/>
<path d="M239.457 644.015L215.855 668.319L226.042 701.404L239.457 644.015Z" fill="#070606"/>
<path d="M216.002 610.114L207.994 674.332H224.009L216.002 610.114Z" fill="#070606"/>
<path d="M196.136 624.838L194.169 692.335L209.709 681.962L196.136 624.838Z" fill="#070606"/>
<path d="M187.673 637.572L194.021 703.106L207.452 679.754L187.673 637.572Z" fill="#070606"/>
<path d="M203.047 611.186L200.662 678.546L216.27 668.942L203.047 611.186Z" fill="#070606"/>
<path d="M210.78 621.877L197.771 679.933L213.406 689.213L210.78 621.877Z" fill="#070606"/>
<path d="M346.981 614.877L333.972 672.933L349.607 682.213L346.981 614.877Z" fill="#070606"/>
<path d="M357.621 647.766L334.019 672.07L344.206 705.155L357.621 647.766Z" fill="#070606"/>
<path d="M334.165 613.865L326.158 678.083H342.173L334.165 613.865Z" fill="#070606"/>
<path d="M314.3 628.589L312.334 696.086L327.873 685.713L314.3 628.589Z" fill="#070606"/>
<path d="M305.838 641.324L312.186 706.858L325.617 683.505L305.838 641.324Z" fill="#070606"/>
<path d="M321.211 614.937L318.825 682.297L334.434 672.693L321.211 614.937Z" fill="#070606"/>
<path d="M328.944 625.628L315.935 683.684L331.57 692.964L328.944 625.628Z" fill="#070606"/>
<path d="M322.597 609.249L309.588 667.305L325.224 676.585L322.597 609.249Z" fill="#070606"/>
<path d="M333.237 642.138L309.636 666.443L319.823 699.527L333.237 642.138Z" fill="#070606"/>
<path d="M309.783 608.237L301.775 672.455H317.79L309.783 608.237Z" fill="#070606"/>
<path d="M289.917 622.961L287.95 690.458L303.489 680.085L289.917 622.961Z" fill="#070606"/>
<path d="M281.454 635.695L287.802 701.229L301.233 677.877L281.454 635.695Z" fill="#070606"/>
<path d="M296.828 609.309L294.443 676.669L310.051 667.065L296.828 609.309Z" fill="#070606"/>
<path d="M304.561 620L291.552 678.056L307.187 687.336L304.561 620Z" fill="#070606"/>
<path d="M381.68 624.256L368.67 682.311L384.306 691.592L381.68 624.256Z" fill="#070606"/>
<path d="M392.319 657.144L368.718 681.449L378.905 714.534L392.319 657.144Z" fill="#070606"/>
<path d="M368.865 623.244L360.857 687.462H376.872L368.865 623.244Z" fill="#070606"/>
<path d="M348.999 637.968L347.032 705.465L362.571 695.092L348.999 637.968Z" fill="#070606"/>
<path d="M340.536 650.702L346.884 716.236L360.315 692.883L340.536 650.702Z" fill="#070606"/>
<path d="M355.91 624.316L353.525 691.676L369.133 682.071L355.91 624.316Z" fill="#070606"/>
<path d="M363.643 635.007L350.634 693.062L366.269 702.343L363.643 635.007Z" fill="#070606"/>
</g>
<defs>
<linearGradient id="paint0_linear" x1="403.7" y1="-42.972" x2="394.339" y2="495.41" gradientUnits="userSpaceOnUse">
<stop stop-color="#557C99"/>
<stop offset="0.197099" stop-color="#86B2D3"/>
<stop offset="0.50737" stop-color="#CBD7D8"/>
<stop offset="1" stop-color="#BECED6"/>
</linearGradient>
<linearGradient id="paint1_linear" x1="153.812" y1="109.563" x2="153.456" y2="343.82" gradientUnits="userSpaceOnUse">
<stop stop-color="#718DD3"/>
<stop offset="0.443093" stop-color="#BED1DA" stop-opacity="0"/>
<stop offset="1" stop-color="#C2D0D9"/>
</linearGradient>
<linearGradient id="paint2_linear" x1="407.323" y1="192.091" x2="409.231" y2="426.339" gradientUnits="userSpaceOnUse">
<stop stop-color="#718DD3"/>
<stop offset="0.265461" stop-color="#BED1DA" stop-opacity="0"/>
<stop offset="1" stop-color="#C2D0D9"/>
</linearGradient>
<linearGradient id="paint3_linear" x1="228.093" y1="134.307" x2="277.668" y2="405.241" gradientUnits="userSpaceOnUse">
<stop offset="0.264036" stop-color="#5080A2"/>
<stop offset="0.460477" stop-color="#80A4B9"/>
<stop offset="0.95725" stop-color="#C6CFCA"/>
</linearGradient>
<linearGradient id="paint4_linear" x1="218.228" y1="307.188" x2="311.559" y2="778.032" gradientUnits="userSpaceOnUse">
<stop stop-color="#3C5168"/>
<stop offset="0.180685" stop-color="#6C7266"/>
<stop offset="0.51559" stop-color="#8E846A" stop-opacity="0.58"/>
</linearGradient>
<linearGradient id="paint5_linear" x1="564.103" y1="448.899" x2="177.278" y2="504.702" gradientUnits="userSpaceOnUse">
<stop offset="0.228791" stop-color="#3B2F19"/>
<stop offset="1" stop-color="#887449"/>
</linearGradient>
<linearGradient id="paint6_linear" x1="-25.1745" y1="607.218" x2="-37.4161" y2="1308.54" gradientUnits="userSpaceOnUse">
<stop stop-color="#060606"/>
<stop offset="1" stop-color="#0B0804"/>
</linearGradient>
<clipPath id="clip0">
<rect width="635" height="854" fill="white" transform="matrix(-1 0 0 1 635 0)"/>
</clipPath>
</defs>
</svg>
