<svg width="1200" height="875" viewBox="0 0 1200 875" fill="none" xmlns="http://www.w3.org/2000/svg">
<g clip-path="url(#clip0)">
<rect width="1200" height="875" fill="white"/>
<g clip-path="url(#clip1)">
<rect width="1517" height="875" transform="matrix(-1 0 0 1 1482 0)" fill="url(#paint0_linear)"/>
<path d="M1284.14 252.05L931.9 265.282L858.175 245.748L779.41 224.324H737.191L708.205 207.311L681.74 214.242L648.974 192.818L618.097 181.476L572.728 192.818L550.044 181.476L493.332 192.818L407.005 181.476L303.034 168.243L262.706 150.599L229.309 156.901L195.283 141.147L173.228 150.599L146.133 141.147L107.065 168.243L86.901 162.572L51.6139 174.544L-17.7 204.79L-47.946 199.119L-86.3837 212.982H-107.808L-152.547 224.324L-254.627 212.982L-279.832 545.058H1232.47L1284.14 252.05Z" fill="url(#paint1_linear)"/>
<path d="M1836.09 407.055L1483.98 423.361L1410.09 404.472L1331.14 383.735L1288.92 384.104L1259.79 367.344L1233.39 374.506L1200.43 353.369L1169.46 342.296L1124.19 354.034L1101.41 342.89L1044.8 354.727L958.375 344.138L854.292 331.814L813.812 314.523L780.471 321.115L746.309 305.659L724.337 315.303L697.161 306.088L658.331 333.524L638.118 328.029L602.937 340.309L533.889 371.158L503.595 365.751L465.28 379.949L443.856 380.136L399.218 391.868L272.531 461.03L274.736 713.701L1786.98 700.504L1836.09 407.055Z" fill="url(#paint2_linear)"/>
<path d="M1570 141.798L1521.57 161.805L1506.76 141.798L1487.22 148.535L1438.07 186.887L1420.43 180.671L1410.35 186.887L1400.27 180.671L1380.73 186.887L1358.68 180.671L1250.3 148.535L1123.01 224.15L1114.82 237.382L1107.26 257.546L967.371 303.546L954.768 298.505L915.07 311.107L891.125 322.449L815.51 322.449L779.593 343.874L748.087 353.326L698.307 381.681L670.581 389.243L630.883 385.462L567.241 398.695L450.667 367.188L372.532 389.243L318.97 389.243L207.437 430.831L138.754 435.872L87.7134 456.666L56.8372 462.967L-20.6683 502.665L-107.626 539.213L-164.967 555.596L-209.706 555.596L-141.022 891.453L1636.27 407.608L1570 141.798Z" fill="url(#paint3_linear)"/>
<path d="M589.793 490.427C578.792 490.427 567.929 492.876 557.992 497.597L90.6812 719.605L-109.668 784.764C-114.298 786.27 -118.769 788.228 -123.015 790.611L-2446.26 2094.34C-2521.96 2136.83 -2475.48 2252.45 -2391.43 2230.72L4124.11 545.686C4205.37 524.669 4194.59 406.033 4110.86 400.02L1869.94 239.078C1861.74 238.489 1853.5 239.268 1845.56 241.384L1499.21 333.624C1493.64 335.108 1488.26 337.238 1483.18 339.971L1215.3 484.071C1207.49 488.274 1198.98 491.04 1190.19 492.237L984.261 520.278C977.117 521.251 969.87 521.176 962.748 520.056L780.09 491.327C776.281 490.728 772.431 490.427 768.576 490.427L589.793 490.427Z" fill="url(#paint4_linear)"/>
<path d="M1559.05 456.555C1547.48 453.563 1535.36 453.413 1523.72 456.118L1313.91 504.875L758.16 704.82C752.704 706.784 747.036 708.1 741.273 708.741L438.665 742.432L-1713 1248.35C-1798.68 1268.5 -1784.05 1394.6 -1696.04 1394.6L4965.52 1394.6C5049.46 1394.6 5068.72 1277.05 4989.16 1250.26L2863.85 534.687C2853.51 531.206 2842.53 530.051 2831.7 531.302L2165.46 608.257C2156.4 609.303 2147.23 608.669 2138.4 606.386L1559.05 456.555Z" fill="url(#paint5_linear)"/>
<path d="M147.252 620.043C138.352 618.772 129.295 619.131 120.524 621.103L-3318.63 1394.07C-3404.18 1413.29 -3391.34 1538.94 -3303.67 1540.47L3703.01 1662.77C3786.94 1664.23 3808.24 1547.03 3729.17 1518.86L1509.83 728.245C1499.27 724.48 1487.98 723.164 1476.83 724.394L1148.3 760.647C1142.11 761.33 1135.86 761.23 1129.69 760.35L147.252 620.043Z" fill="url(#paint6_linear)"/>
<path d="M7.50809 592.077L-10.7083 673.371L11.1855 686.366L7.50809 592.077Z" fill="#070606"/>
<path d="M22.4071 638.13L-10.6413 672.163L3.62292 718.491L22.4071 638.13Z" fill="#070606"/>
<path d="M-10.4375 590.66L-21.6501 680.582H0.775163L-10.4375 590.66Z" fill="#070606"/>
<path d="M53.4729 607.835L35.2566 689.129L57.1503 702.124L53.4729 607.835Z" fill="#070606"/>
<path d="M68.37 653.888L35.3216 687.921L49.5858 734.249L68.37 653.888Z" fill="#070606"/>
<path d="M35.5254 606.418L24.3128 696.34H46.7381L35.5254 606.418Z" fill="#070606"/>
<path d="M7.71077 627.036L4.95655 721.55L26.7157 707.025L7.71077 627.036Z" fill="#070606"/>
<path d="M-4.13973 644.869L4.74918 736.634L23.5566 703.934L-4.13973 644.869Z" fill="#070606"/>
<path d="M17.3874 607.918L14.0473 702.241L35.9031 688.793L17.3874 607.918Z" fill="#070606"/>
<path d="M28.2151 622.89L9.99876 704.184L31.8925 717.179L28.2151 622.89Z" fill="#070606"/>
<path d="M166.403 569.754L148.186 651.048L170.08 664.043L166.403 569.754Z" fill="#070606"/>
<path d="M181.302 615.807L148.253 649.84L162.517 696.168L181.302 615.807Z" fill="#070606"/>
<path d="M148.457 568.337L137.244 658.259H159.67L148.457 568.337Z" fill="#070606"/>
<path d="M120.64 588.955L117.886 683.469L139.645 668.944L120.64 588.955Z" fill="#070606"/>
<path d="M108.79 606.786L117.679 698.551L136.486 665.851L108.79 606.786Z" fill="#070606"/>
<path d="M130.319 569.837L126.979 664.16L148.835 650.712L130.319 569.837Z" fill="#070606"/>
<path d="M141.147 584.809L122.93 666.103L144.824 679.098L141.147 584.809Z" fill="#070606"/>
<path d="M279.34 552.681L261.124 633.975L283.017 646.97L279.34 552.681Z" fill="#070606"/>
<path d="M294.237 598.734L261.189 632.767L275.453 679.096L294.237 598.734Z" fill="#070606"/>
<path d="M261.393 551.264L250.18 641.187H272.605L261.393 551.264Z" fill="#070606"/>
<path d="M233.578 571.882L230.824 666.396L252.583 651.871L233.578 571.882Z" fill="#070606"/>
<path d="M221.727 589.713L230.616 681.479L249.424 648.779L221.727 589.713Z" fill="#070606"/>
<path d="M243.255 552.765L239.914 647.088L261.77 633.639L243.255 552.765Z" fill="#070606"/>
<path d="M254.082 567.737L235.866 649.03L257.76 662.025L254.082 567.737Z" fill="#070606"/>
<path d="M360.758 622.28L342.542 703.573L364.435 716.568L360.758 622.28Z" fill="#070606"/>
<path d="M375.655 668.332L342.607 702.366L356.871 748.694L375.655 668.332Z" fill="#070606"/>
<path d="M342.811 620.863L331.598 710.785H354.023L342.811 620.863Z" fill="#070606"/>
<path d="M314.996 641.481L312.242 735.995L334.001 721.47L314.996 641.481Z" fill="#070606"/>
<path d="M303.145 659.312L312.034 751.077L330.842 718.377L303.145 659.312Z" fill="#070606"/>
<path d="M324.673 622.363L321.332 716.686L343.188 703.237L324.673 622.363Z" fill="#070606"/>
<path d="M335.5 637.335L317.284 718.628L339.178 731.623L335.5 637.335Z" fill="#070606"/>
<path d="M225.5 614.4L207.284 695.694L229.178 708.689L225.5 614.4Z" fill="#070606"/>
<path d="M240.397 660.453L207.349 694.486L221.613 740.815L240.397 660.453Z" fill="#070606"/>
<path d="M207.553 612.983L196.34 702.905H218.765L207.553 612.983Z" fill="#070606"/>
<path d="M179.738 633.601L176.984 728.115L198.743 713.59L179.738 633.601Z" fill="#070606"/>
<path d="M167.888 651.432L176.777 743.198L195.584 710.498L167.888 651.432Z" fill="#070606"/>
<path d="M189.415 614.484L186.075 708.807L207.93 695.358L189.415 614.484Z" fill="#070606"/>
<path d="M200.244 629.455L182.028 710.749L203.922 723.744L200.244 629.455Z" fill="#070606"/>
<path d="M94.18 585.511L75.9636 666.804L97.8573 679.799L94.18 585.511Z" fill="#070606"/>
<path d="M109.077 631.563L76.0286 665.597L90.2928 711.925L109.077 631.563Z" fill="#070606"/>
<path d="M76.2324 584.093L65.0198 674.016H87.4451L76.2324 584.093Z" fill="#070606"/>
<path d="M48.4178 604.711L45.6636 699.225L67.4227 684.7L48.4178 604.711Z" fill="#070606"/>
<path d="M36.5673 622.542L45.4562 714.308L64.2636 681.608L36.5673 622.542Z" fill="#070606"/>
<path d="M58.0945 585.594L54.7543 679.917L76.6101 666.468L58.0945 585.594Z" fill="#070606"/>
<path d="M68.9221 600.565L50.7058 681.859L72.5995 694.854L68.9221 600.565Z" fill="#070606"/>
<path d="M188.731 580.258L170.514 661.551L192.408 674.546L188.731 580.258Z" fill="#070606"/>
<path d="M203.628 626.31L170.579 660.344L184.844 706.672L203.628 626.31Z" fill="#070606"/>
<path d="M170.783 578.84L159.571 668.763H181.996L170.783 578.84Z" fill="#070606"/>
<path d="M142.969 599.459L140.214 693.973L161.974 679.448L142.969 599.459Z" fill="#070606"/>
<path d="M131.118 617.29L140.007 709.055L158.814 676.355L131.118 617.29Z" fill="#070606"/>
<path d="M152.645 580.341L149.305 674.664L171.161 661.215L152.645 580.341Z" fill="#070606"/>
<path d="M163.473 595.313L145.257 676.606L167.15 689.601L163.473 595.313Z" fill="#070606"/>
<path d="M401.465 597.329L383.249 678.623L405.142 691.618L401.465 597.329Z" fill="#070606"/>
<path d="M416.362 643.382L383.314 677.415L397.578 723.744L416.362 643.382Z" fill="#070606"/>
<path d="M383.518 595.912L372.305 685.835H394.73L383.518 595.912Z" fill="#070606"/>
<path d="M355.703 616.53L352.949 711.044L374.708 696.519L355.703 616.53Z" fill="#070606"/>
<path d="M343.852 634.361L352.741 726.127L371.549 693.427L343.852 634.361Z" fill="#070606"/>
<path d="M365.38 597.413L362.039 691.736L383.895 678.287L365.38 597.413Z" fill="#070606"/>
<path d="M376.207 612.385L357.991 693.678L379.885 706.673L376.207 612.385Z" fill="#070606"/>
<path d="M447.426 605.207L429.21 686.501L451.103 699.496L447.426 605.207Z" fill="#070606"/>
<path d="M462.325 651.26L429.277 685.293L443.541 731.622L462.325 651.26Z" fill="#070606"/>
<path d="M429.48 603.79L418.268 693.713H440.693L429.48 603.79Z" fill="#070606"/>
<path d="M401.664 624.408L398.91 718.922L420.669 704.397L401.664 624.408Z" fill="#070606"/>
<path d="M389.813 642.239L398.702 734.005L417.51 701.305L389.813 642.239Z" fill="#070606"/>
<path d="M411.343 605.29L408.002 699.614L429.858 686.165L411.343 605.29Z" fill="#070606"/>
<path d="M422.17 620.262L403.954 701.556L425.848 714.551L422.17 620.262Z" fill="#070606"/>
<path d="M560.364 641.979L542.147 723.273L564.041 736.268L560.364 641.979Z" fill="#070606"/>
<path d="M575.261 688.032L542.212 722.065L556.476 768.394L575.261 688.032Z" fill="#070606"/>
<path d="M542.416 640.562L531.203 730.484H553.629L542.416 640.562Z" fill="#070606"/>
<path d="M514.601 661.18L511.847 755.694L533.606 741.169L514.601 661.18Z" fill="#070606"/>
<path d="M502.751 679.011L511.64 770.776L530.447 738.076L502.751 679.011Z" fill="#070606"/>
<path d="M524.278 642.062L520.938 736.386L542.794 722.937L524.278 642.062Z" fill="#070606"/>
<path d="M535.106 657.034L516.889 738.328L538.783 751.323L535.106 657.034Z" fill="#070606"/>
<path d="M355.508 563.187L337.292 644.481L359.185 657.476L355.508 563.187Z" fill="#070606"/>
<path d="M370.405 609.24L337.357 643.273L351.621 689.602L370.405 609.24Z" fill="#070606"/>
<path d="M337.561 561.77L326.348 651.692H348.773L337.561 561.77Z" fill="#070606"/>
<path d="M309.746 582.388L306.992 676.902L328.751 662.377L309.746 582.388Z" fill="#070606"/>
<path d="M297.895 600.219L306.784 691.985L325.592 659.285L297.895 600.219Z" fill="#070606"/>
<path d="M319.423 563.27L316.082 657.594L337.938 644.145L319.423 563.27Z" fill="#070606"/>
<path d="M330.25 578.242L312.034 659.536L333.928 672.531L330.25 578.242Z" fill="#070606"/>
<path d="M641.778 649.859L623.561 731.152L645.455 744.147L641.778 649.859Z" fill="#070606"/>
<path d="M656.677 695.911L623.628 729.945L637.892 776.273L656.677 695.911Z" fill="#070606"/>
<path d="M623.832 648.441L612.619 738.364H635.045L623.832 648.441Z" fill="#070606"/>
<path d="M596.015 669.06L593.261 763.574L615.02 749.049L596.015 669.06Z" fill="#070606"/>
<path d="M584.165 686.891L593.054 778.656L611.861 745.956L584.165 686.891Z" fill="#070606"/>
<path d="M605.694 649.942L602.354 744.265L624.21 730.817L605.694 649.942Z" fill="#070606"/>
<path d="M616.522 664.914L598.305 746.208L620.199 759.202L616.522 664.914Z" fill="#070606"/>
<path d="M698.246 641.979L680.03 723.273L701.924 736.268L698.246 641.979Z" fill="#070606"/>
<path d="M713.145 688.032L680.097 722.065L694.361 768.394L713.145 688.032Z" fill="#070606"/>
<path d="M680.301 640.562L669.088 730.484H691.513L680.301 640.562Z" fill="#070606"/>
<path d="M652.484 661.18L649.73 755.694L671.489 741.169L652.484 661.18Z" fill="#070606"/>
<path d="M640.634 679.011L649.523 770.776L668.33 738.076L640.634 679.011Z" fill="#070606"/>
<path d="M662.163 642.062L658.823 736.386L680.678 722.937L662.163 642.062Z" fill="#070606"/>
<path d="M672.992 657.034L654.776 738.328L676.67 751.323L672.992 657.034Z" fill="#070606"/>
<path d="M765.219 662.989L747.003 744.282L768.896 757.277L765.219 662.989Z" fill="#070606"/>
<path d="M780.116 709.041L747.068 743.075L761.332 789.403L780.116 709.041Z" fill="#070606"/>
<path d="M747.271 661.572L736.059 751.494H758.484L747.271 661.572Z" fill="#070606"/>
<path d="M719.457 682.19L716.703 776.704L738.462 762.179L719.457 682.19Z" fill="#070606"/>
<path d="M707.606 700.021L716.495 791.786L735.303 759.086L707.606 700.021Z" fill="#070606"/>
<path d="M729.134 663.072L725.793 757.395L747.649 743.947L729.134 663.072Z" fill="#070606"/>
<path d="M739.963 678.044L721.747 759.338L743.641 772.333L739.963 678.044Z" fill="#070606"/>
<path d="M832.192 634.099L813.975 715.393L835.869 728.388L832.192 634.099Z" fill="#070606"/>
<path d="M847.089 680.152L814.04 714.185L828.305 760.513L847.089 680.152Z" fill="#070606"/>
<path d="M814.244 632.682L803.032 722.604H825.457L814.244 632.682Z" fill="#070606"/>
<path d="M786.43 653.3L783.675 747.814L805.434 733.289L786.43 653.3Z" fill="#070606"/>
<path d="M774.579 671.131L783.468 762.896L802.275 730.196L774.579 671.131Z" fill="#070606"/>
<path d="M796.106 634.182L792.766 728.505L814.622 715.057L796.106 634.182Z" fill="#070606"/>
<path d="M806.936 649.154L788.719 730.448L810.613 743.443L806.936 649.154Z" fill="#070606"/>
<path d="M903.106 674.808L884.889 756.102L906.783 769.097L903.106 674.808Z" fill="#070606"/>
<path d="M918.003 720.861L884.954 754.894L899.219 801.223L918.003 720.861Z" fill="#070606"/>
<path d="M885.158 673.391L873.946 763.314H896.371L885.158 673.391Z" fill="#070606"/>
<path d="M857.344 694.009L854.589 788.523L876.349 773.998L857.344 694.009Z" fill="#070606"/>
<path d="M845.493 711.84L854.382 803.605L873.189 770.905L845.493 711.84Z" fill="#070606"/>
<path d="M867.02 674.892L863.68 769.215L885.536 755.766L867.02 674.892Z" fill="#070606"/>
<path d="M877.85 689.864L859.634 771.157L881.527 784.152L877.85 689.864Z" fill="#070606"/>
<path d="M958.262 691.881L940.046 773.174L961.939 786.169L958.262 691.881Z" fill="#070606"/>
<path d="M973.159 737.933L940.111 771.967L954.375 818.295L973.159 737.933Z" fill="#070606"/>
<path d="M940.314 690.463L929.102 780.386H951.527L940.314 690.463Z" fill="#070606"/>
<path d="M912.5 711.082L909.746 805.596L931.505 791.071L912.5 711.082Z" fill="#070606"/>
<path d="M900.649 728.913L909.538 820.678L928.346 787.978L900.649 728.913Z" fill="#070606"/>
<path d="M922.176 691.964L918.836 786.287L940.692 772.838L922.176 691.964Z" fill="#070606"/>
<path d="M933.006 706.936L914.79 788.229L936.684 801.224L933.006 706.936Z" fill="#070606"/>
<path d="M1084.32 708.951L1066.11 790.244L1088 803.239L1084.32 708.951Z" fill="#070606"/>
<path d="M1099.22 755.003L1066.17 789.037L1080.44 835.365L1099.22 755.003Z" fill="#070606"/>
<path d="M1066.38 707.534L1055.16 797.456H1077.59L1066.38 707.534Z" fill="#070606"/>
<path d="M1038.56 728.152L1035.81 822.666L1057.57 808.141L1038.56 728.152Z" fill="#070606"/>
<path d="M1026.71 745.984L1035.6 837.75L1054.41 805.05L1026.71 745.984Z" fill="#070606"/>
<path d="M1048.24 709.034L1044.9 803.357L1066.76 789.909L1048.24 709.034Z" fill="#070606"/>
<path d="M1059.07 724.006L1040.85 805.3L1062.75 818.295L1059.07 724.006Z" fill="#070606"/>
<path d="M1151.3 691.881L1133.08 773.174L1154.97 786.169L1151.3 691.881Z" fill="#070606"/>
<path d="M1166.19 737.933L1133.15 771.967L1147.41 818.295L1166.19 737.933Z" fill="#070606"/>
<path d="M1133.35 690.463L1122.14 780.386H1144.56L1133.35 690.463Z" fill="#070606"/>
<path d="M1105.53 711.082L1102.78 805.596L1124.54 791.071L1105.53 711.082Z" fill="#070606"/>
<path d="M1093.68 728.913L1102.57 820.678L1121.38 787.978L1093.68 728.913Z" fill="#070606"/>
<path d="M1115.21 691.964L1111.87 786.287L1133.73 772.838L1115.21 691.964Z" fill="#070606"/>
<path d="M1126.04 706.936L1107.82 788.229L1129.72 801.224L1126.04 706.936Z" fill="#070606"/>
<path d="M1197.46 694.009L1194.7 788.523L1216.46 773.998L1197.46 694.009Z" fill="#070606"/>
<path d="M1185.61 711.84L1194.5 803.605L1213.3 770.905L1185.61 711.84Z" fill="#070606"/>
<path d="M1207.14 674.892L1203.8 769.215L1225.65 755.766L1207.14 674.892Z" fill="#070606"/>
<path d="M1217.97 689.864L1199.75 771.157L1221.64 784.152L1217.97 689.864Z" fill="#070606"/>
<path d="M1201.2 705.012L1182.98 786.305L1204.88 799.3L1201.2 705.012Z" fill="#070606"/>
<path d="M1216.1 751.064L1183.05 785.098L1197.31 831.426L1216.1 751.064Z" fill="#070606"/>
<path d="M1183.25 703.594L1172.04 793.517H1194.47L1183.25 703.594Z" fill="#070606"/>
<path d="M1155.44 724.213L1152.68 818.726L1174.44 804.202L1155.44 724.213Z" fill="#070606"/>
<path d="M1143.59 742.043L1152.48 833.809L1171.28 801.109L1143.59 742.043Z" fill="#070606"/>
<path d="M1165.12 705.095L1161.78 799.418L1183.63 785.969L1165.12 705.095Z" fill="#070606"/>
<path d="M1175.95 720.067L1157.73 801.36L1179.62 814.355L1175.95 720.067Z" fill="#070606"/>
<path d="M1043.62 691.881L1025.4 773.174L1047.29 786.169L1043.62 691.881Z" fill="#070606"/>
<path d="M1058.51 737.933L1025.47 771.967L1039.73 818.295L1058.51 737.933Z" fill="#070606"/>
<path d="M1025.67 690.463L1014.46 780.386H1036.88L1025.67 690.463Z" fill="#070606"/>
<path d="M997.855 711.082L995.101 805.596L1016.86 791.071L997.855 711.082Z" fill="#070606"/>
<path d="M986.005 728.913L994.894 820.678L1013.7 787.978L986.005 728.913Z" fill="#070606"/>
<path d="M1007.53 691.964L1004.19 786.287L1026.05 772.838L1007.53 691.964Z" fill="#070606"/>
<path d="M1018.36 706.936L1000.15 788.229L1022.04 801.224L1018.36 706.936Z" fill="#070606"/>
<path d="M875.528 680.061L857.311 761.354L879.205 774.349L875.528 680.061Z" fill="#070606"/>
<path d="M890.425 726.113L857.376 760.147L871.64 806.475L890.425 726.113Z" fill="#070606"/>
<path d="M857.584 678.644L846.371 768.566H868.797L857.584 678.644Z" fill="#070606"/>
<path d="M829.765 699.262L827.011 793.776L848.77 779.251L829.765 699.262Z" fill="#070606"/>
<path d="M817.915 717.092L826.804 808.858L845.611 776.158L817.915 717.092Z" fill="#070606"/>
<path d="M839.442 680.144L836.102 774.467L857.958 761.018L839.442 680.144Z" fill="#070606"/>
<path d="M850.272 695.116L832.055 776.409L853.949 789.404L850.272 695.116Z" fill="#070606"/>
<path d="M775.723 647.232L757.507 728.525L779.4 741.52L775.723 647.232Z" fill="#070606"/>
<path d="M790.622 693.284L757.574 727.318L771.838 773.646L790.622 693.284Z" fill="#070606"/>
<path d="M757.777 645.814L746.565 735.737H768.99L757.777 645.814Z" fill="#070606"/>
<path d="M729.961 666.433L727.207 760.947L748.966 746.422L729.961 666.433Z" fill="#070606"/>
<path d="M718.11 684.264L726.999 776.029L745.807 743.329L718.11 684.264Z" fill="#070606"/>
<path d="M739.639 647.315L736.299 741.638L758.155 728.19L739.639 647.315Z" fill="#070606"/>
<path d="M750.469 662.287L732.253 743.581L754.146 756.576L750.469 662.287Z" fill="#070606"/>
<path d="M754.715 636.724L736.499 718.018L758.392 731.013L754.715 636.724Z" fill="#070606"/>
<path d="M769.614 682.777L736.566 716.81L750.83 763.139L769.614 682.777Z" fill="#070606"/>
<path d="M736.77 635.307L725.557 725.23H747.982L736.77 635.307Z" fill="#070606"/>
<path d="M708.953 655.925L706.199 750.439L727.958 735.914L708.953 655.925Z" fill="#070606"/>
<path d="M697.102 673.756L705.991 765.521L724.799 732.821L697.102 673.756Z" fill="#070606"/>
<path d="M718.632 636.808L715.291 731.131L737.147 717.682L718.632 636.808Z" fill="#070606"/>
<path d="M729.461 651.78L711.245 733.073L733.139 746.068L729.461 651.78Z" fill="#070606"/>
<path d="M1122.41 707.637L1104.19 788.93L1126.08 801.925L1122.41 707.637Z" fill="#070606"/>
<path d="M1137.3 753.689L1104.26 787.723L1118.52 834.051L1137.3 753.689Z" fill="#070606"/>
<path d="M1104.46 706.219L1093.25 796.142H1115.67L1104.46 706.219Z" fill="#070606"/>
<path d="M1076.64 726.837L1073.89 821.351L1095.65 806.826L1076.64 726.837Z" fill="#070606"/>
<path d="M1064.79 744.668L1073.68 836.433L1092.49 803.733L1064.79 744.668Z" fill="#070606"/>
<path d="M1086.32 707.72L1082.98 802.043L1104.84 788.594L1086.32 707.72Z" fill="#070606"/>
<path d="M1097.15 722.692L1078.93 803.985L1100.83 816.98L1097.15 722.692Z" fill="#070606"/>
<path d="M1009.47 690.568L991.257 771.862L1013.15 784.857L1009.47 690.568Z" fill="#070606"/>
<path d="M1024.37 736.621L991.322 770.654L1005.59 816.982L1024.37 736.621Z" fill="#070606"/>
<path d="M991.525 689.151L980.313 779.073H1002.74L991.525 689.151Z" fill="#070606"/>
<path d="M963.711 709.769L960.957 804.283L982.716 789.758L963.711 709.769Z" fill="#070606"/>
<path d="M951.86 727.6L960.749 819.365L979.557 786.665L951.86 727.6Z" fill="#070606"/>
<path d="M973.387 690.651L970.047 784.974L991.903 771.526L973.387 690.651Z" fill="#070606"/>
<path d="M984.217 705.623L966.001 786.917L987.894 799.912L984.217 705.623Z" fill="#070606"/>
<path d="M1001.59 669.553L983.378 750.847L1005.27 763.842L1001.59 669.553Z" fill="#070606"/>
<path d="M1016.49 715.606L983.443 749.64L997.707 795.968L1016.49 715.606Z" fill="#070606"/>
<path d="M983.646 668.136L972.434 758.059H994.859L983.646 668.136Z" fill="#070606"/>
<path d="M955.832 688.754L953.078 783.268L974.837 768.743L955.832 688.754Z" fill="#070606"/>
<path d="M943.981 706.585L952.87 798.35L971.678 765.65L943.981 706.585Z" fill="#070606"/>
<path d="M965.509 669.637L962.168 763.96L984.024 750.511L965.509 669.637Z" fill="#070606"/>
<path d="M976.338 684.609L958.122 765.902L980.016 778.897L976.338 684.609Z" fill="#070606"/>
<path d="M539.352 611.776L521.135 693.069L543.029 706.064L539.352 611.776Z" fill="#070606"/>
<path d="M554.249 657.828L521.2 691.862L535.465 738.19L554.249 657.828Z" fill="#070606"/>
<path d="M521.404 610.359L510.192 700.281H532.617L521.404 610.359Z" fill="#070606"/>
<path d="M493.59 630.977L490.835 725.491L512.595 710.966L493.59 630.977Z" fill="#070606"/>
<path d="M481.739 648.808L490.628 740.573L509.436 707.873L481.739 648.808Z" fill="#070606"/>
<path d="M503.266 611.859L499.926 706.182L521.782 692.734L503.266 611.859Z" fill="#070606"/>
<path d="M514.094 626.831L495.878 708.124L517.771 721.119L514.094 626.831Z" fill="#070606"/>
<path d="M595.821 649.859L577.604 731.152L599.498 744.147L595.821 649.859Z" fill="#070606"/>
<path d="M610.718 695.911L577.669 729.945L591.933 776.273L610.718 695.911Z" fill="#070606"/>
<path d="M577.873 648.441L566.66 738.364H589.086L577.873 648.441Z" fill="#070606"/>
<path d="M550.058 669.06L547.304 763.574L569.063 749.049L550.058 669.06Z" fill="#070606"/>
<path d="M538.208 686.891L547.097 778.656L565.904 745.956L538.208 686.891Z" fill="#070606"/>
<path d="M559.735 649.942L556.395 744.265L578.251 730.817L559.735 649.942Z" fill="#070606"/>
<path d="M570.563 664.914L552.346 746.208L574.24 759.202L570.563 664.914Z" fill="#070606"/>
<path d="M320.051 613.088L301.835 694.381L323.728 707.376L320.051 613.088Z" fill="#070606"/>
<path d="M334.948 659.14L301.9 693.174L316.164 739.502L334.948 659.14Z" fill="#070606"/>
<path d="M302.104 611.67L290.891 701.593H313.316L302.104 611.67Z" fill="#070606"/>
<path d="M274.289 632.289L271.535 726.802L293.294 712.277L274.289 632.289Z" fill="#070606"/>
<path d="M262.438 650.12L271.327 741.885L290.135 709.185L262.438 650.12Z" fill="#070606"/>
<path d="M283.966 613.171L280.625 707.494L302.481 694.045L283.966 613.171Z" fill="#070606"/>
<path d="M294.793 628.143L276.577 709.436L298.471 722.431L294.793 628.143Z" fill="#070606"/>
<path d="M320.051 598.643L301.835 679.937L323.728 692.932L320.051 598.643Z" fill="#070606"/>
<path d="M334.948 644.696L301.9 678.729L316.164 725.058L334.948 644.696Z" fill="#070606"/>
<path d="M302.104 597.226L290.891 687.149H313.316L302.104 597.226Z" fill="#070606"/>
<path d="M274.289 617.844L271.535 712.358L293.294 697.833L274.289 617.844Z" fill="#070606"/>
<path d="M262.438 635.675L271.327 727.441L290.135 694.741L262.438 635.675Z" fill="#070606"/>
<path d="M283.966 598.727L280.625 693.05L302.481 679.601L283.966 598.727Z" fill="#070606"/>
<path d="M294.793 613.698L276.577 694.992L298.471 707.987L294.793 613.698Z" fill="#070606"/>
<path d="M233.379 575.006L215.163 656.3L237.057 669.295L233.379 575.006Z" fill="#070606"/>
<path d="M248.276 621.059L215.228 655.092L229.492 701.421L248.276 621.059Z" fill="#070606"/>
<path d="M215.432 573.589L204.219 663.511H226.644L215.432 573.589Z" fill="#070606"/>
<path d="M187.617 594.207L184.863 688.721L206.622 674.196L187.617 594.207Z" fill="#070606"/>
<path d="M175.767 612.038L184.655 703.804L203.463 671.104L175.767 612.038Z" fill="#070606"/>
<path d="M197.294 575.09L193.954 669.413L215.809 655.964L197.294 575.09Z" fill="#070606"/>
<path d="M208.121 590.061L189.905 671.355L211.799 684.35L208.121 590.061Z" fill="#070606"/>
<path d="M130.949 578.945L112.733 660.238L134.627 673.233L130.949 578.945Z" fill="#070606"/>
<path d="M145.847 624.997L112.798 659.031L127.062 705.359L145.847 624.997Z" fill="#070606"/>
<path d="M113.002 577.527L101.789 667.45H124.215L113.002 577.527Z" fill="#070606"/>
<path d="M85.1873 598.145L82.4331 692.659L104.192 678.134L85.1873 598.145Z" fill="#070606"/>
<path d="M73.3368 615.977L82.2257 707.742L101.033 675.042L73.3368 615.977Z" fill="#070606"/>
<path d="M94.864 579.028L91.5239 673.351L113.38 659.902L94.864 579.028Z" fill="#070606"/>
<path d="M105.692 594L87.4753 675.293L109.369 688.288L105.692 594Z" fill="#070606"/>
<path d="M53.4729 603.896L35.2566 685.189L57.1503 698.184L53.4729 603.896Z" fill="#070606"/>
<path d="M68.37 649.948L35.3216 683.982L49.5858 730.31L68.37 649.948Z" fill="#070606"/>
<path d="M35.5254 602.478L24.3128 692.4H46.7381L35.5254 602.478Z" fill="#070606"/>
<path d="M7.71077 623.096L4.95655 717.61L26.7157 703.085L7.71077 623.096Z" fill="#070606"/>
<path d="M-4.13973 640.927L4.74918 732.693L23.5566 699.993L-4.13973 640.927Z" fill="#070606"/>
<path d="M17.3874 603.979L14.0473 698.302L35.9031 684.853L17.3874 603.979Z" fill="#070606"/>
<path d="M28.2151 618.95L9.99876 700.244L31.8925 713.239L28.2151 618.95Z" fill="#070606"/>
<path d="M489.449 623.594L471.233 704.888L493.127 717.883L489.449 623.594Z" fill="#070606"/>
<path d="M504.347 669.647L471.298 703.68L485.562 750.008L504.347 669.647Z" fill="#070606"/>
<path d="M471.502 622.177L460.289 712.099H482.715L471.502 622.177Z" fill="#070606"/>
<path d="M443.687 642.795L440.933 737.309L462.692 722.784L443.687 642.795Z" fill="#070606"/>
<path d="M431.837 660.626L440.726 752.391L459.533 719.691L431.837 660.626Z" fill="#070606"/>
<path d="M453.364 623.677L450.024 718.001L471.88 704.552L453.364 623.677Z" fill="#070606"/>
<path d="M464.192 638.649L445.975 719.943L467.869 732.938L464.192 638.649Z" fill="#070606"/>
<path d="M654.91 628.845L636.694 710.138L658.588 723.133L654.91 628.845Z" fill="#070606"/>
<path d="M669.809 674.897L636.761 708.931L651.025 755.259L669.809 674.897Z" fill="#070606"/>
<path d="M636.965 627.428L625.752 717.35H648.178L636.965 627.428Z" fill="#070606"/>
<path d="M609.148 648.046L606.394 742.56L628.153 728.035L609.148 648.046Z" fill="#070606"/>
<path d="M597.298 665.878L606.187 757.644L624.994 724.944L597.298 665.878Z" fill="#070606"/>
<path d="M618.827 628.928L615.487 723.251L637.343 709.803L618.827 628.928Z" fill="#070606"/>
<path d="M629.655 643.9L611.438 725.194L633.332 738.189L629.655 643.9Z" fill="#070606"/>
<path d="M620.77 620.965L602.553 702.258L624.447 715.253L620.77 620.965Z" fill="#070606"/>
<path d="M635.669 667.017L602.62 701.051L616.885 747.379L635.669 667.017Z" fill="#070606"/>
<path d="M602.824 619.547L591.612 709.47H614.037L602.824 619.547Z" fill="#070606"/>
<path d="M575.008 640.166L572.253 734.679L594.013 720.154L575.008 640.166Z" fill="#070606"/>
<path d="M563.157 657.997L572.046 749.762L590.853 717.062L563.157 657.997Z" fill="#070606"/>
<path d="M584.686 621.048L581.346 715.371L603.202 701.922L584.686 621.048Z" fill="#070606"/>
<path d="M595.514 636.02L577.298 717.313L599.191 730.308L595.514 636.02Z" fill="#070606"/>
<path d="M703.5 641.979L685.284 723.273L707.178 736.268L703.5 641.979Z" fill="#070606"/>
<path d="M718.399 688.032L685.351 722.065L699.615 768.394L718.399 688.032Z" fill="#070606"/>
<path d="M685.555 640.562L674.342 730.484H696.767L685.555 640.562Z" fill="#070606"/>
<path d="M657.738 661.18L654.984 755.694L676.743 741.169L657.738 661.18Z" fill="#070606"/>
<path d="M645.888 679.011L654.777 770.776L673.584 738.076L645.888 679.011Z" fill="#070606"/>
<path d="M667.417 642.062L664.077 736.386L685.932 722.937L667.417 642.062Z" fill="#070606"/>
<path d="M678.246 657.034L660.03 738.328L681.924 751.323L678.246 657.034Z" fill="#070606"/>
</g>
</g>
<defs>
<linearGradient id="paint0_linear" x1="964.43" y1="-44.0287" x2="960.316" y2="507.728" gradientUnits="userSpaceOnUse">
<stop stop-color="#557C99"/>
<stop offset="0.197099" stop-color="#86B2D3"/>
<stop offset="0.50737" stop-color="#CBD7D8"/>
<stop offset="1" stop-color="#BECED6"/>
</linearGradient>
<linearGradient id="paint1_linear" x1="502.784" y1="85.6964" x2="502.154" y2="545.058" gradientUnits="userSpaceOnUse">
<stop stop-color="#718DD3"/>
<stop offset="0.443093" stop-color="#BED1DA" stop-opacity="0"/>
<stop offset="1" stop-color="#C2D0D9"/>
</linearGradient>
<linearGradient id="paint2_linear" x1="1053.31" y1="247.527" x2="1056.69" y2="706.877" gradientUnits="userSpaceOnUse">
<stop stop-color="#718DD3"/>
<stop offset="0.265461" stop-color="#BED1DA" stop-opacity="0"/>
<stop offset="1" stop-color="#C2D0D9"/>
</linearGradient>
<linearGradient id="paint3_linear" x1="664.095" y1="134.217" x2="752.405" y2="668.697" gradientUnits="userSpaceOnUse">
<stop offset="0.264036" stop-color="#5080A2"/>
<stop offset="0.460477" stop-color="#80A4B9"/>
<stop offset="0.95725" stop-color="#C6CFCA"/>
</linearGradient>
<linearGradient id="paint4_linear" x1="642.672" y1="473.226" x2="809.093" y2="1403.01" gradientUnits="userSpaceOnUse">
<stop stop-color="#3C5168"/>
<stop offset="0.180685" stop-color="#6C7266"/>
<stop offset="0.51559" stop-color="#8E846A" stop-opacity="0.58"/>
</linearGradient>
<linearGradient id="paint5_linear" x1="1383.22" y1="647.913" x2="547.047" y2="781.5" gradientUnits="userSpaceOnUse">
<stop offset="0.228791" stop-color="#3B2F19"/>
<stop offset="1" stop-color="#887449"/>
</linearGradient>
<linearGradient id="paint6_linear" x1="133.791" y1="618.121" x2="116.649" y2="1600.17" gradientUnits="userSpaceOnUse">
<stop stop-color="#060606"/>
<stop offset="1" stop-color="#0B0804"/>
</linearGradient>
<clipPath id="clip0">
<rect width="1200" height="875" fill="white"/>
</clipPath>
<clipPath id="clip1">
<rect width="1517" height="875" fill="white" transform="matrix(-1 0 0 1 1482 0)"/>
</clipPath>
</defs>
</svg>
