<svg width="1024" height="768" viewBox="0 0 1024 768" fill="none" xmlns="http://www.w3.org/2000/svg">
<g clip-path="url(#clip0)">
<rect width="1024" height="768" fill="white"/>
<g clip-path="url(#clip1)">
<rect width="1295" height="768" transform="matrix(-1 0 0 1 1265 0)" fill="url(#paint0_linear)"/>
<path d="M1096.16 215.082L795.582 226.374L732.67 209.705L665.456 191.423H629.43L604.695 176.905L582.112 182.82L554.151 164.538L527.803 154.859L489.088 164.538L469.731 154.859L421.337 164.538L347.671 154.859L258.949 143.567L224.536 128.511L196.038 133.888L167.001 120.446L148.182 128.511L125.06 120.446L91.7223 143.567L74.5157 138.728L44.4041 148.944L-14.7438 174.754L-40.5537 169.915L-73.3539 181.744H-91.636L-129.813 191.423L-216.922 181.744L-238.43 465.116H1052.07L1096.16 215.082Z" fill="url(#paint1_linear)"/>
<path d="M1567.16 347.354L1266.69 361.268L1203.64 345.149L1136.27 327.454L1100.24 327.769L1075.38 313.467L1052.85 319.579L1024.73 301.541L998.299 292.093L959.67 302.109L940.229 292.599L891.921 302.7L818.174 293.665L729.357 283.147L694.813 268.393L666.363 274.018L637.211 260.829L618.462 269.059L595.271 261.195L562.136 284.607L544.888 279.918L514.867 290.397L455.946 316.722L430.095 312.108L397.399 324.223L379.118 324.383L341.027 334.394L232.921 393.412L234.802 609.025L1525.25 597.763L1567.16 347.354Z" fill="url(#paint2_linear)"/>
<path d="M1340.09 121.001L1298.76 138.073L1286.13 121.001L1269.46 126.75L1227.52 159.477L1212.46 154.173L1203.86 159.477L1195.25 154.173L1178.59 159.477L1159.77 154.173L1067.28 126.749L958.663 191.274L951.673 202.566L945.221 219.773L825.85 259.025L815.095 254.724L781.22 265.478L760.787 275.157L696.262 275.157L665.613 293.439L638.727 301.504L596.248 325.701L572.589 332.154L538.714 328.927L484.405 340.219L384.929 313.334L318.254 332.154L272.547 332.154L177.373 367.642L118.763 371.944L75.2087 389.688L48.861 395.065L-17.2771 428.941L-91.4807 460.128L-140.412 474.108L-178.589 474.108L-119.979 760.707L1396.65 347.825L1340.09 121.001Z" fill="url(#paint3_linear)"/>
<path d="M503.65 418.498C494.262 418.498 484.992 420.588 476.513 424.616L77.7412 614.063L-93.2236 669.665C-97.1747 670.95 -100.99 672.621 -104.613 674.655L-2087.11 1787.17C-2151.71 1823.42 -2112.05 1922.09 -2040.33 1903.55L3519.6 465.652C3588.95 447.717 3579.74 346.481 3508.29 341.35L1596.04 204.013C1589.04 203.511 1582.01 204.175 1575.24 205.981L1279.69 284.692C1274.93 285.959 1270.34 287.777 1266 290.109L1037.42 413.074C1030.75 416.66 1023.49 419.021 1015.99 420.042L840.263 443.971C834.167 444.801 827.982 444.737 821.905 443.781L666.037 419.266C662.786 418.754 659.501 418.498 656.211 418.498L503.65 418.498Z" fill="url(#paint4_linear)"/>
<path d="M1330.92 393.887C1321.05 391.334 1310.71 391.206 1300.77 393.514L1121.74 435.12L647.495 605.74C642.839 607.415 638.002 608.538 633.084 609.086L374.86 637.836L-1461.23 1069.56C-1534.34 1086.75 -1521.86 1194.36 -1446.76 1194.36L4237.77 1194.36C4309.4 1194.36 4325.84 1094.04 4257.95 1071.18L2444.35 460.559C2435.53 457.589 2426.16 456.603 2416.91 457.671L1848.39 523.339C1840.66 524.232 1832.84 523.691 1825.3 521.742L1330.92 393.887Z" fill="url(#paint5_linear)"/>
<path d="M124.429 529.037C116.835 527.952 109.106 528.259 101.621 529.941L-2833.13 1189.54C-2906.12 1205.94 -2895.17 1313.16 -2820.36 1314.47L3158.67 1418.83C3230.29 1420.08 3248.48 1320.07 3181 1296.03L1287.16 621.369C1278.15 618.157 1268.52 617.033 1259.01 618.083L978.654 649.019C973.372 649.602 968.037 649.516 962.777 648.765L124.429 529.037Z" fill="url(#paint6_linear)"/>
<path d="M5.18232 505.172L-10.3623 574.543L8.32034 585.632L5.18232 505.172Z" fill="#070606"/>
<path d="M17.8943 544.471L-10.3071 573.513L1.8651 613.046L17.8943 544.471Z" fill="#070606"/>
<path d="M44.4011 518.619L28.8564 587.99L47.5391 599.079L44.4011 518.619Z" fill="#070606"/>
<path d="M57.115 557.917L28.9137 586.959L41.0858 626.493L57.115 557.917Z" fill="#070606"/>
<path d="M29.0884 517.41L19.5203 594.144H38.6565L29.0884 517.41Z" fill="#070606"/>
<path d="M5.35017 535.004L2.9999 615.656L21.5677 603.261L5.35017 535.004Z" fill="#070606"/>
<path d="M-4.76199 550.221L2.82321 628.528L18.8722 600.624L-4.76199 550.221Z" fill="#070606"/>
<path d="M13.6092 518.69L10.759 599.179L29.4092 587.703L13.6092 518.69Z" fill="#070606"/>
<path d="M22.8503 531.466L7.30566 600.837L25.9883 611.926L22.8503 531.466Z" fill="#070606"/>
<path d="M140.772 486.124L125.228 555.494L143.91 566.583L140.772 486.124Z" fill="#070606"/>
<path d="M153.484 525.422L125.283 554.464L137.455 593.997L153.484 525.422Z" fill="#070606"/>
<path d="M125.458 484.914L115.889 561.648H135.026L125.458 484.914Z" fill="#070606"/>
<path d="M101.721 502.508L99.371 583.16L117.939 570.766L101.721 502.508Z" fill="#070606"/>
<path d="M91.6091 517.724L99.1943 596.031L115.243 568.127L91.6091 517.724Z" fill="#070606"/>
<path d="M109.978 486.195L107.128 566.684L125.778 555.207L109.978 486.195Z" fill="#070606"/>
<path d="M119.219 498.971L103.675 568.341L122.357 579.43L119.219 498.971Z" fill="#070606"/>
<path d="M237.141 471.555L221.597 540.925L240.279 552.014L237.141 471.555Z" fill="#070606"/>
<path d="M249.855 510.853L221.654 539.895L233.826 579.428L249.855 510.853Z" fill="#070606"/>
<path d="M221.829 470.345L212.261 547.079H231.397L221.829 470.345Z" fill="#070606"/>
<path d="M198.09 487.939L195.74 568.591L214.308 556.197L198.09 487.939Z" fill="#070606"/>
<path d="M187.978 503.155L195.563 581.462L211.612 553.558L187.978 503.155Z" fill="#070606"/>
<path d="M206.349 471.626L203.499 552.115L222.149 540.639L206.349 471.626Z" fill="#070606"/>
<path d="M215.591 484.402L200.046 553.772L218.729 564.861L215.591 484.402Z" fill="#070606"/>
<path d="M306.618 530.946L291.073 600.316L309.756 611.405L306.618 530.946Z" fill="#070606"/>
<path d="M319.332 570.244L291.13 599.286L303.303 638.819L319.332 570.244Z" fill="#070606"/>
<path d="M291.305 529.736L281.737 606.47H300.873L291.305 529.736Z" fill="#070606"/>
<path d="M267.567 547.33L265.217 627.982L283.785 615.587L267.567 547.33Z" fill="#070606"/>
<path d="M257.455 562.546L265.04 640.852L281.089 612.948L257.455 562.546Z" fill="#070606"/>
<path d="M275.826 531.016L272.976 611.505L291.626 600.029L275.826 531.016Z" fill="#070606"/>
<path d="M285.067 543.793L269.522 613.163L288.205 624.252L285.067 543.793Z" fill="#070606"/>
<path d="M191.198 524.222L175.653 593.592L194.336 604.681L191.198 524.222Z" fill="#070606"/>
<path d="M203.912 563.52L175.711 592.562L187.883 632.095L203.912 563.52Z" fill="#070606"/>
<path d="M175.885 523.012L166.317 599.746H185.453L175.885 523.012Z" fill="#070606"/>
<path d="M152.147 540.606L149.797 621.258L168.365 608.863L152.147 540.606Z" fill="#070606"/>
<path d="M142.035 555.822L149.62 634.128L165.669 606.224L142.035 555.822Z" fill="#070606"/>
<path d="M160.406 524.293L157.556 604.782L176.206 593.305L160.406 524.293Z" fill="#070606"/>
<path d="M169.647 537.068L154.103 606.439L172.785 617.528L169.647 537.068Z" fill="#070606"/>
<path d="M79.1393 499.569L63.5947 568.939L82.2774 580.028L79.1393 499.569Z" fill="#070606"/>
<path d="M91.8533 538.867L63.6519 567.909L75.8241 607.442L91.8533 538.867Z" fill="#070606"/>
<path d="M63.8267 498.36L54.2586 575.093H73.3948L63.8267 498.36Z" fill="#070606"/>
<path d="M40.0885 515.954L37.7382 596.605L56.306 584.211L40.0885 515.954Z" fill="#070606"/>
<path d="M29.9763 531.169L37.5615 609.476L53.6105 581.572L29.9763 531.169Z" fill="#070606"/>
<path d="M48.3475 499.64L45.4973 580.129L64.1475 568.653L48.3475 499.64Z" fill="#070606"/>
<path d="M57.5886 512.416L42.0439 581.786L60.7266 592.875L57.5886 512.416Z" fill="#070606"/>
<path d="M159.821 495.087L144.276 564.457L162.959 575.546L159.821 495.087Z" fill="#070606"/>
<path d="M172.535 534.385L144.334 563.427L156.506 602.96L172.535 534.385Z" fill="#070606"/>
<path d="M144.508 493.877L134.94 570.611H154.076L144.508 493.877Z" fill="#070606"/>
<path d="M120.77 511.471L118.42 592.123L136.988 579.729L120.77 511.471Z" fill="#070606"/>
<path d="M110.658 526.687L118.243 604.994L134.292 577.09L110.658 526.687Z" fill="#070606"/>
<path d="M129.029 495.158L126.179 575.647L144.829 564.171L129.029 495.158Z" fill="#070606"/>
<path d="M138.27 507.934L122.726 577.304L141.408 588.393L138.27 507.934Z" fill="#070606"/>
<path d="M341.356 509.654L325.812 579.025L344.494 590.114L341.356 509.654Z" fill="#070606"/>
<path d="M354.07 548.952L325.869 577.994L338.041 617.528L354.07 548.952Z" fill="#070606"/>
<path d="M326.043 508.445L316.475 585.179H335.612L326.043 508.445Z" fill="#070606"/>
<path d="M302.305 526.039L299.955 606.691L318.523 594.296L302.305 526.039Z" fill="#070606"/>
<path d="M292.193 541.255L299.778 619.561L315.827 591.657L292.193 541.255Z" fill="#070606"/>
<path d="M310.564 509.725L307.714 590.214L326.364 578.738L310.564 509.725Z" fill="#070606"/>
<path d="M319.805 522.501L304.261 591.872L322.943 602.961L319.805 522.501Z" fill="#070606"/>
<path d="M380.579 516.377L365.034 585.747L383.717 596.836L380.579 516.377Z" fill="#070606"/>
<path d="M393.291 555.675L365.089 584.717L377.262 624.25L393.291 555.675Z" fill="#070606"/>
<path d="M365.264 515.167L355.696 591.901H374.832L365.264 515.167Z" fill="#070606"/>
<path d="M341.528 532.762L339.178 613.413L357.745 601.019L341.528 532.762Z" fill="#070606"/>
<path d="M331.416 547.977L339.001 626.284L355.05 598.38L331.416 547.977Z" fill="#070606"/>
<path d="M349.785 516.448L346.935 596.937L365.585 585.461L349.785 516.448Z" fill="#070606"/>
<path d="M359.026 529.224L343.481 598.594L362.164 609.683L359.026 529.224Z" fill="#070606"/>
<path d="M476.95 547.756L461.405 617.126L480.088 628.215L476.95 547.756Z" fill="#070606"/>
<path d="M489.664 587.054L461.462 616.096L473.635 655.629L489.664 587.054Z" fill="#070606"/>
<path d="M461.637 546.546L452.069 623.28H471.205L461.637 546.546Z" fill="#070606"/>
<path d="M437.899 564.14L435.549 644.792L454.117 632.398L437.899 564.14Z" fill="#070606"/>
<path d="M427.787 579.356L435.372 657.662L451.421 629.758L427.787 579.356Z" fill="#070606"/>
<path d="M446.158 547.827L443.308 628.316L461.958 616.84L446.158 547.827Z" fill="#070606"/>
<path d="M455.399 560.603L439.854 629.973L458.537 641.062L455.399 560.603Z" fill="#070606"/>
<path d="M302.139 480.52L286.595 549.89L305.277 560.979L302.139 480.52Z" fill="#070606"/>
<path d="M314.853 519.818L286.652 548.86L298.824 588.393L314.853 519.818Z" fill="#070606"/>
<path d="M286.827 479.31L277.259 556.044H296.395L286.827 479.31Z" fill="#070606"/>
<path d="M263.088 496.904L260.738 577.556L279.306 565.162L263.088 496.904Z" fill="#070606"/>
<path d="M252.976 512.12L260.561 590.427L276.61 562.523L252.976 512.12Z" fill="#070606"/>
<path d="M271.348 480.591L268.497 561.08L287.148 549.603L271.348 480.591Z" fill="#070606"/>
<path d="M280.589 493.367L265.044 562.737L283.727 573.826L280.589 493.367Z" fill="#070606"/>
<path d="M546.425 554.48L530.88 623.85L549.563 634.939L546.425 554.48Z" fill="#070606"/>
<path d="M559.136 593.778L530.935 622.82L543.107 662.353L559.136 593.778Z" fill="#070606"/>
<path d="M531.11 553.27L521.542 630.004H540.678L531.11 553.27Z" fill="#070606"/>
<path d="M507.374 570.864L505.023 651.516L523.591 639.121L507.374 570.864Z" fill="#070606"/>
<path d="M497.261 586.08L504.847 664.386L520.896 636.482L497.261 586.08Z" fill="#070606"/>
<path d="M515.631 554.551L512.78 635.04L531.431 623.563L515.631 554.551Z" fill="#070606"/>
<path d="M524.872 567.327L509.327 636.697L528.01 647.786L524.872 567.327Z" fill="#070606"/>
<path d="M594.612 547.756L579.067 617.126L597.75 628.215L594.612 547.756Z" fill="#070606"/>
<path d="M607.324 587.054L579.123 616.096L591.295 655.629L607.324 587.054Z" fill="#070606"/>
<path d="M579.297 546.546L569.729 623.28H588.866L579.297 546.546Z" fill="#070606"/>
<path d="M555.561 564.14L553.211 644.792L571.779 632.398L555.561 564.14Z" fill="#070606"/>
<path d="M545.449 579.356L553.034 657.662L569.083 629.758L545.449 579.356Z" fill="#070606"/>
<path d="M563.818 547.827L560.968 628.316L579.618 616.84L563.818 547.827Z" fill="#070606"/>
<path d="M573.059 560.603L557.515 629.973L576.197 641.062L573.059 560.603Z" fill="#070606"/>
<path d="M651.758 565.684L636.214 635.054L654.897 646.143L651.758 565.684Z" fill="#070606"/>
<path d="M664.472 604.982L636.271 634.024L648.443 673.557L664.472 604.982Z" fill="#070606"/>
<path d="M636.446 564.475L626.878 641.208H646.014L636.446 564.475Z" fill="#070606"/>
<path d="M612.708 582.069L610.357 662.72L628.925 650.326L612.708 582.069Z" fill="#070606"/>
<path d="M602.595 597.284L610.181 675.591L626.23 647.687L602.595 597.284Z" fill="#070606"/>
<path d="M620.967 565.755L618.116 646.244L636.767 634.768L620.967 565.755Z" fill="#070606"/>
<path d="M630.208 578.531L614.663 647.901L633.346 658.991L630.208 578.531Z" fill="#070606"/>
<path d="M708.909 541.031L693.364 610.401L712.047 621.491L708.909 541.031Z" fill="#070606"/>
<path d="M721.623 580.329L693.421 609.371L705.594 648.905L721.623 580.329Z" fill="#070606"/>
<path d="M693.596 539.822L684.028 616.555H703.164L693.596 539.822Z" fill="#070606"/>
<path d="M669.858 557.416L667.508 638.068L686.076 625.673L669.858 557.416Z" fill="#070606"/>
<path d="M659.746 572.631L667.331 650.938L683.38 623.034L659.746 572.631Z" fill="#070606"/>
<path d="M678.117 541.102L675.267 621.591L693.917 610.115L678.117 541.102Z" fill="#070606"/>
<path d="M687.358 553.878L671.813 623.249L690.496 634.338L687.358 553.878Z" fill="#070606"/>
<path d="M769.423 575.77L753.878 645.14L772.561 656.229L769.423 575.77Z" fill="#070606"/>
<path d="M782.136 615.068L753.935 644.11L766.107 683.643L782.136 615.068Z" fill="#070606"/>
<path d="M754.11 574.56L744.542 651.294H763.678L754.11 574.56Z" fill="#070606"/>
<path d="M730.372 592.154L728.021 672.806L746.589 660.412L730.372 592.154Z" fill="#070606"/>
<path d="M720.259 607.37L727.845 685.676L743.894 657.772L720.259 607.37Z" fill="#070606"/>
<path d="M738.631 575.841L735.78 656.33L754.431 644.853L738.631 575.841Z" fill="#070606"/>
<path d="M747.872 588.617L732.327 657.987L751.01 669.076L747.872 588.617Z" fill="#070606"/>
<path d="M816.489 590.338L800.944 659.709L819.627 670.798L816.489 590.338Z" fill="#070606"/>
<path d="M829.203 629.636L801.002 658.678L813.174 698.212L829.203 629.636Z" fill="#070606"/>
<path d="M801.176 589.129L791.608 665.863H810.744L801.176 589.129Z" fill="#070606"/>
<path d="M777.438 606.723L775.088 687.375L793.656 674.98L777.438 606.723Z" fill="#070606"/>
<path d="M767.326 621.939L774.911 700.245L790.96 672.341L767.326 621.939Z" fill="#070606"/>
<path d="M785.697 590.409L782.847 670.898L801.497 659.422L785.697 590.409Z" fill="#070606"/>
<path d="M794.938 603.185L779.394 672.556L798.076 683.645L794.938 603.185Z" fill="#070606"/>
<path d="M924.061 604.905L908.517 674.275L927.199 685.364L924.061 604.905Z" fill="#070606"/>
<path d="M936.775 644.203L908.574 673.245L920.746 712.778L936.775 644.203Z" fill="#070606"/>
<path d="M908.749 603.695L899.18 680.429H918.317L908.749 603.695Z" fill="#070606"/>
<path d="M885.01 621.289L882.66 701.941L901.228 689.547L885.01 621.289Z" fill="#070606"/>
<path d="M874.898 636.506L882.483 714.813L898.532 686.909L874.898 636.506Z" fill="#070606"/>
<path d="M893.271 604.976L890.421 685.465L909.071 673.988L893.271 604.976Z" fill="#070606"/>
<path d="M902.51 617.752L886.966 687.122L905.648 698.211L902.51 617.752Z" fill="#070606"/>
<path d="M981.212 590.338L965.667 659.709L984.35 670.798L981.212 590.338Z" fill="#070606"/>
<path d="M993.926 629.636L965.724 658.678L977.896 698.212L993.926 629.636Z" fill="#070606"/>
<path d="M965.899 589.129L956.331 665.863H975.467L965.899 589.129Z" fill="#070606"/>
<path d="M942.161 606.723L939.81 687.375L958.378 674.98L942.161 606.723Z" fill="#070606"/>
<path d="M932.049 621.939L939.634 700.245L955.683 672.341L932.049 621.939Z" fill="#070606"/>
<path d="M950.42 590.409L947.57 670.898L966.22 659.422L950.42 590.409Z" fill="#070606"/>
<path d="M959.661 603.185L944.116 672.556L962.799 683.645L959.661 603.185Z" fill="#070606"/>
<path d="M1020.6 592.154L1018.25 672.806L1036.82 660.412L1020.6 592.154Z" fill="#070606"/>
<path d="M1010.49 607.37L1018.08 685.676L1034.13 657.772L1010.49 607.37Z" fill="#070606"/>
<path d="M1028.86 575.841L1026.01 656.33L1044.66 644.853L1028.86 575.841Z" fill="#070606"/>
<path d="M1038.1 588.617L1022.56 657.987L1041.24 669.076L1038.1 588.617Z" fill="#070606"/>
<path d="M1023.8 601.543L1008.25 670.914L1026.94 682.003L1023.8 601.543Z" fill="#070606"/>
<path d="M1036.51 640.841L1008.31 669.883L1020.48 709.417L1036.51 640.841Z" fill="#070606"/>
<path d="M1008.48 600.334L998.917 677.068H1018.05L1008.48 600.334Z" fill="#070606"/>
<path d="M984.749 617.928L982.398 698.58L1000.97 686.185L984.749 617.928Z" fill="#070606"/>
<path d="M974.636 633.144L982.222 711.45L998.271 683.546L974.636 633.144Z" fill="#070606"/>
<path d="M993.006 601.614L990.155 682.103L1008.81 670.627L993.006 601.614Z" fill="#070606"/>
<path d="M1002.25 614.39L986.702 683.761L1005.38 694.85L1002.25 614.39Z" fill="#070606"/>
<path d="M889.325 590.338L873.78 659.709L892.463 670.798L889.325 590.338Z" fill="#070606"/>
<path d="M902.039 629.636L873.837 658.678L886.01 698.212L902.039 629.636Z" fill="#070606"/>
<path d="M874.012 589.129L864.444 665.863H883.58L874.012 589.129Z" fill="#070606"/>
<path d="M850.274 606.723L847.924 687.375L866.492 674.98L850.274 606.723Z" fill="#070606"/>
<path d="M840.162 621.939L847.747 700.245L863.796 672.341L840.162 621.939Z" fill="#070606"/>
<path d="M858.533 590.409L855.683 670.898L874.333 659.422L858.533 590.409Z" fill="#070606"/>
<path d="M867.774 603.185L852.229 672.556L870.912 683.645L867.774 603.185Z" fill="#070606"/>
<path d="M745.889 580.252L730.345 649.622L749.027 660.711L745.889 580.252Z" fill="#070606"/>
<path d="M758.603 619.55L730.402 648.592L742.574 688.125L758.603 619.55Z" fill="#070606"/>
<path d="M730.577 579.042L721.009 655.776H740.145L730.577 579.042Z" fill="#070606"/>
<path d="M706.838 596.637L704.488 677.288L723.056 664.894L706.838 596.637Z" fill="#070606"/>
<path d="M696.726 611.852L704.311 690.158L720.36 662.254L696.726 611.852Z" fill="#070606"/>
<path d="M715.098 580.323L712.247 660.812L730.898 649.336L715.098 580.323Z" fill="#070606"/>
<path d="M724.339 593.099L708.794 662.469L727.477 673.558L724.339 593.099Z" fill="#070606"/>
<path d="M660.725 552.238L645.181 621.608L663.863 632.697L660.725 552.238Z" fill="#070606"/>
<path d="M673.437 591.536L645.236 620.578L657.408 660.111L673.437 591.536Z" fill="#070606"/>
<path d="M645.411 551.028L635.843 627.762H654.979L645.411 551.028Z" fill="#070606"/>
<path d="M621.674 568.623L619.324 649.274L637.892 636.88L621.674 568.623Z" fill="#070606"/>
<path d="M611.562 583.838L619.147 662.145L635.196 634.241L611.562 583.838Z" fill="#070606"/>
<path d="M629.931 552.309L627.081 632.798L645.731 621.322L629.931 552.309Z" fill="#070606"/>
<path d="M639.173 565.085L623.628 634.455L642.311 645.544L639.173 565.085Z" fill="#070606"/>
<path d="M642.8 543.271L627.255 612.642L645.938 623.731L642.8 543.271Z" fill="#070606"/>
<path d="M655.511 582.569L627.31 611.611L639.482 651.145L655.511 582.569Z" fill="#070606"/>
<path d="M627.485 542.062L617.917 618.796H637.053L627.485 542.062Z" fill="#070606"/>
<path d="M603.749 559.656L601.398 640.308L619.966 627.913L603.749 559.656Z" fill="#070606"/>
<path d="M593.636 574.872L601.222 653.178L617.271 625.274L593.636 574.872Z" fill="#070606"/>
<path d="M612.006 543.342L609.155 623.831L627.806 612.355L612.006 543.342Z" fill="#070606"/>
<path d="M621.247 556.118L605.702 625.489L624.385 636.578L621.247 556.118Z" fill="#070606"/>
<path d="M956.559 603.783L941.015 673.153L959.697 684.242L956.559 603.783Z" fill="#070606"/>
<path d="M969.273 643.081L941.072 672.123L953.244 711.657L969.273 643.081Z" fill="#070606"/>
<path d="M941.247 602.574L931.678 679.308H950.815L941.247 602.574Z" fill="#070606"/>
<path d="M917.508 620.168L915.158 700.82L933.726 688.425L917.508 620.168Z" fill="#070606"/>
<path d="M907.396 635.383L914.981 713.69L931.03 685.786L907.396 635.383Z" fill="#070606"/>
<path d="M925.767 603.854L922.917 684.343L941.567 672.867L925.767 603.854Z" fill="#070606"/>
<path d="M935.008 616.63L919.464 686.001L938.147 697.09L935.008 616.63Z" fill="#070606"/>
<path d="M860.188 589.218L844.644 658.588L863.326 669.678L860.188 589.218Z" fill="#070606"/>
<path d="M872.902 628.516L844.701 657.558L856.873 697.092L872.902 628.516Z" fill="#070606"/>
<path d="M844.876 588.009L835.307 664.743H854.444L844.876 588.009Z" fill="#070606"/>
<path d="M821.137 605.603L818.787 686.255L837.355 673.86L821.137 605.603Z" fill="#070606"/>
<path d="M811.025 620.818L818.61 699.125L834.659 671.221L811.025 620.818Z" fill="#070606"/>
<path d="M829.396 589.289L826.546 669.778L845.196 658.302L829.396 589.289Z" fill="#070606"/>
<path d="M838.637 602.065L823.093 671.436L841.775 682.525L838.637 602.065Z" fill="#070606"/>
<path d="M853.466 571.285L837.921 640.656L856.604 651.745L853.466 571.285Z" fill="#070606"/>
<path d="M866.179 610.584L837.978 639.626L850.15 679.159L866.179 610.584Z" fill="#070606"/>
<path d="M838.153 570.076L828.585 646.81H847.721L838.153 570.076Z" fill="#070606"/>
<path d="M814.415 587.67L812.064 668.322L830.632 655.927L814.415 587.67Z" fill="#070606"/>
<path d="M804.302 602.886L811.888 681.192L827.937 653.288L804.302 602.886Z" fill="#070606"/>
<path d="M822.674 571.356L819.823 651.846L838.474 640.369L822.674 571.356Z" fill="#070606"/>
<path d="M831.915 584.133L816.37 653.503L835.053 664.592L831.915 584.133Z" fill="#070606"/>
<path d="M459.018 521.982L443.474 591.352L462.156 602.441L459.018 521.982Z" fill="#070606"/>
<path d="M471.732 561.28L443.531 590.322L455.703 629.856L471.732 561.28Z" fill="#070606"/>
<path d="M443.706 520.773L434.137 597.507H453.274L443.706 520.773Z" fill="#070606"/>
<path d="M419.967 538.367L417.617 619.019L436.185 606.624L419.967 538.367Z" fill="#070606"/>
<path d="M409.855 553.583L417.44 631.889L433.489 603.985L409.855 553.583Z" fill="#070606"/>
<path d="M428.226 522.053L425.376 602.542L444.026 591.066L428.226 522.053Z" fill="#070606"/>
<path d="M437.467 534.829L421.923 604.199L440.606 615.288L437.467 534.829Z" fill="#070606"/>
<path d="M507.206 554.48L491.661 623.85L510.344 634.939L507.206 554.48Z" fill="#070606"/>
<path d="M519.92 593.778L491.718 622.82L503.89 662.353L519.92 593.778Z" fill="#070606"/>
<path d="M491.893 553.27L482.325 630.004H501.461L491.893 553.27Z" fill="#070606"/>
<path d="M468.155 570.864L465.805 651.516L484.372 639.121L468.155 570.864Z" fill="#070606"/>
<path d="M458.043 586.08L465.628 664.386L481.677 636.482L458.043 586.08Z" fill="#070606"/>
<path d="M476.414 554.551L473.564 635.04L492.214 623.563L476.414 554.551Z" fill="#070606"/>
<path d="M485.655 567.327L470.11 636.697L488.793 647.786L485.655 567.327Z" fill="#070606"/>
<path d="M271.882 523.101L256.337 592.472L275.02 603.561L271.882 523.101Z" fill="#070606"/>
<path d="M284.595 562.4L256.394 591.442L268.566 630.975L284.595 562.4Z" fill="#070606"/>
<path d="M256.569 521.892L247.001 598.626H266.137L256.569 521.892Z" fill="#070606"/>
<path d="M232.831 539.486L230.48 620.138L249.048 607.743L232.831 539.486Z" fill="#070606"/>
<path d="M222.718 554.702L230.304 633.008L246.353 605.104L222.718 554.702Z" fill="#070606"/>
<path d="M241.09 523.172L238.239 603.661L256.89 592.185L241.09 523.172Z" fill="#070606"/>
<path d="M250.331 535.948L234.786 605.319L253.469 616.408L250.331 535.948Z" fill="#070606"/>
<path d="M271.882 510.775L256.337 580.146L275.02 591.235L271.882 510.775Z" fill="#070606"/>
<path d="M284.595 550.074L256.394 579.116L268.566 618.649L284.595 550.074Z" fill="#070606"/>
<path d="M256.569 509.566L247.001 586.3H266.137L256.569 509.566Z" fill="#070606"/>
<path d="M232.831 527.16L230.48 607.812L249.048 595.417L232.831 527.16Z" fill="#070606"/>
<path d="M222.718 542.376L230.304 620.682L246.353 592.778L222.718 542.376Z" fill="#070606"/>
<path d="M241.09 510.846L238.239 591.336L256.89 579.859L241.09 510.846Z" fill="#070606"/>
<path d="M250.331 523.622L234.786 592.993L253.469 604.082L250.331 523.622Z" fill="#070606"/>
<path d="M197.923 490.605L182.378 559.976L201.061 571.065L197.923 490.605Z" fill="#070606"/>
<path d="M210.636 529.903L182.435 558.945L194.607 598.479L210.636 529.903Z" fill="#070606"/>
<path d="M182.61 489.396L173.042 566.13H192.178L182.61 489.396Z" fill="#070606"/>
<path d="M158.872 506.99L156.521 587.642L175.089 575.247L158.872 506.99Z" fill="#070606"/>
<path d="M148.759 522.206L156.345 600.512L172.394 572.608L148.759 522.206Z" fill="#070606"/>
<path d="M167.131 490.676L164.28 571.165L182.931 559.689L167.131 490.676Z" fill="#070606"/>
<path d="M176.372 503.452L160.827 572.823L179.51 583.912L176.372 503.452Z" fill="#070606"/>
<path d="M110.514 493.966L94.9697 563.336L113.652 574.425L110.514 493.966Z" fill="#070606"/>
<path d="M123.228 533.264L95.0269 562.306L107.199 601.839L123.228 533.264Z" fill="#070606"/>
<path d="M95.2017 492.757L85.6336 569.49H104.77L95.2017 492.757Z" fill="#070606"/>
<path d="M71.4635 510.351L69.1132 591.002L87.681 578.608L71.4635 510.351Z" fill="#070606"/>
<path d="M61.3513 525.566L68.9365 603.873L84.9855 575.969L61.3513 525.566Z" fill="#070606"/>
<path d="M79.7225 494.037L76.8723 574.526L95.5225 563.05L79.7225 494.037Z" fill="#070606"/>
<path d="M88.9636 506.813L73.4189 576.183L92.1016 587.273L88.9636 506.813Z" fill="#070606"/>
<path d="M44.4011 515.257L28.8564 584.628L47.5391 595.717L44.4011 515.257Z" fill="#070606"/>
<path d="M57.115 554.556L28.9137 583.598L41.0858 623.131L57.115 554.556Z" fill="#070606"/>
<path d="M29.0884 514.048L19.5203 590.782H38.6565L29.0884 514.048Z" fill="#070606"/>
<path d="M5.35017 531.642L2.9999 612.294L21.5677 599.899L5.35017 531.642Z" fill="#070606"/>
<path d="M-4.76199 546.858L2.82321 625.164L18.8722 597.26L-4.76199 546.858Z" fill="#070606"/>
<path d="M13.6092 515.328L10.759 595.817L29.4092 584.341L13.6092 515.328Z" fill="#070606"/>
<path d="M22.8503 528.104L7.30566 597.475L25.9883 608.564L22.8503 528.104Z" fill="#070606"/>
<path d="M416.434 532.067L400.89 601.437L419.572 612.526L416.434 532.067Z" fill="#070606"/>
<path d="M429.148 571.365L400.947 600.407L413.119 639.94L429.148 571.365Z" fill="#070606"/>
<path d="M401.122 530.857L391.553 607.591H410.69L401.122 530.857Z" fill="#070606"/>
<path d="M377.383 548.452L375.033 629.104L393.601 616.709L377.383 548.452Z" fill="#070606"/>
<path d="M367.271 563.667L374.856 641.974L390.905 614.07L367.271 563.667Z" fill="#070606"/>
<path d="M385.642 532.138L382.792 612.627L401.442 601.151L385.642 532.138Z" fill="#070606"/>
<path d="M394.883 544.914L379.339 614.284L398.022 625.373L394.883 544.914Z" fill="#070606"/>
<path d="M557.632 536.548L542.087 605.918L560.77 617.007L557.632 536.548Z" fill="#070606"/>
<path d="M570.343 575.846L542.142 604.888L554.314 644.421L570.343 575.846Z" fill="#070606"/>
<path d="M542.317 535.338L532.749 612.072H551.885L542.317 535.338Z" fill="#070606"/>
<path d="M518.581 552.932L516.23 633.584L534.798 621.19L518.581 552.932Z" fill="#070606"/>
<path d="M508.468 568.149L516.054 646.456L532.103 618.552L508.468 568.149Z" fill="#070606"/>
<path d="M526.838 536.619L523.988 617.108L542.638 605.632L526.838 536.619Z" fill="#070606"/>
<path d="M536.079 549.395L520.534 618.765L539.217 629.854L536.079 549.395Z" fill="#070606"/>
<path d="M528.499 529.823L512.954 599.193L531.637 610.283L528.499 529.823Z" fill="#070606"/>
<path d="M541.211 569.121L513.009 598.163L525.182 637.697L541.211 569.121Z" fill="#070606"/>
<path d="M513.184 528.614L503.616 605.348H522.752L513.184 528.614Z" fill="#070606"/>
<path d="M489.448 546.208L487.098 626.86L505.665 614.465L489.448 546.208Z" fill="#070606"/>
<path d="M479.336 561.424L486.921 639.73L502.97 611.826L479.336 561.424Z" fill="#070606"/>
<path d="M497.705 529.894L494.855 610.383L513.505 598.907L497.705 529.894Z" fill="#070606"/>
<path d="M506.946 542.67L491.401 612.041L510.084 623.13L506.946 542.67Z" fill="#070606"/>
<path d="M599.096 547.756L583.552 617.126L602.234 628.215L599.096 547.756Z" fill="#070606"/>
<path d="M611.808 587.054L583.607 616.096L595.779 655.629L611.808 587.054Z" fill="#070606"/>
<path d="M583.782 546.546L574.214 623.28H593.35L583.782 546.546Z" fill="#070606"/>
<path d="M560.045 564.14L557.695 644.792L576.263 632.398L560.045 564.14Z" fill="#070606"/>
<path d="M549.933 579.356L557.519 657.662L573.568 629.758L549.933 579.356Z" fill="#070606"/>
<path d="M568.303 547.827L565.452 628.316L584.103 616.84L568.303 547.827Z" fill="#070606"/>
<path d="M577.544 560.603L561.999 629.973L580.682 641.062L577.544 560.603Z" fill="#070606"/>
</g>
</g>
<defs>
<linearGradient id="paint0_linear" x1="823.294" y1="-38.6446" x2="819.581" y2="445.639" gradientUnits="userSpaceOnUse">
<stop stop-color="#557C99"/>
<stop offset="0.197099" stop-color="#86B2D3"/>
<stop offset="0.50737" stop-color="#CBD7D8"/>
<stop offset="1" stop-color="#BECED6"/>
</linearGradient>
<linearGradient id="paint1_linear" x1="429.403" y1="73.1275" x2="428.865" y2="465.116" gradientUnits="userSpaceOnUse">
<stop stop-color="#718DD3"/>
<stop offset="0.443093" stop-color="#BED1DA" stop-opacity="0"/>
<stop offset="1" stop-color="#C2D0D9"/>
</linearGradient>
<linearGradient id="paint2_linear" x1="899.189" y1="211.223" x2="902.072" y2="603.202" gradientUnits="userSpaceOnUse">
<stop stop-color="#718DD3"/>
<stop offset="0.265461" stop-color="#BED1DA" stop-opacity="0"/>
<stop offset="1" stop-color="#C2D0D9"/>
</linearGradient>
<linearGradient id="paint3_linear" x1="567.055" y1="114.531" x2="642.412" y2="570.621" gradientUnits="userSpaceOnUse">
<stop offset="0.264036" stop-color="#5080A2"/>
<stop offset="0.460477" stop-color="#80A4B9"/>
<stop offset="0.95725" stop-color="#C6CFCA"/>
</linearGradient>
<linearGradient id="paint4_linear" x1="548.773" y1="403.819" x2="690.786" y2="1197.23" gradientUnits="userSpaceOnUse">
<stop stop-color="#3C5168"/>
<stop offset="0.180685" stop-color="#6C7266"/>
<stop offset="0.51559" stop-color="#8E846A" stop-opacity="0.58"/>
</linearGradient>
<linearGradient id="paint5_linear" x1="1180.88" y1="557.179" x2="467.345" y2="671.173" gradientUnits="userSpaceOnUse">
<stop offset="0.228791" stop-color="#3B2F19"/>
<stop offset="1" stop-color="#887449"/>
</linearGradient>
<linearGradient id="paint6_linear" x1="112.942" y1="527.396" x2="98.3146" y2="1365.41" gradientUnits="userSpaceOnUse">
<stop stop-color="#060606"/>
<stop offset="1" stop-color="#0B0804"/>
</linearGradient>
<clipPath id="clip0">
<rect width="1024" height="768" fill="white"/>
</clipPath>
<clipPath id="clip1">
<rect width="1295" height="768" fill="white" transform="matrix(-1 0 0 1 1265 0)"/>
</clipPath>
</defs>
</svg>
