<svg width="325" height="565" viewBox="0 0 325 565" fill="none" xmlns="http://www.w3.org/2000/svg">
<g clip-path="url(#clip0)">
<rect width="325" height="565" fill="white"/>
<g clip-path="url(#clip1)">
<rect width="498.49" height="670.411" transform="matrix(-1 0 0 1 498.49 0)" fill="url(#paint0_linear)"/>
<path d="M403.201 94.5145L275.869 99.812L249.218 91.9919L220.745 83.4151H205.483L195.005 76.604L185.438 79.3789L173.593 70.802L162.432 66.2614L146.031 70.802L137.831 66.2614L117.33 70.802L86.1237 66.2614L48.5391 60.9639L33.9608 53.9006L21.8881 56.4232L9.58773 50.1167L1.61523 53.9006L-8.17954 50.1167L-22.3022 60.9639L-29.5914 58.6935L-42.3474 63.4865L-67.4038 75.595L-78.3375 73.3246L-92.2324 78.8744H-99.9771L-116.15 83.4151L-153.051 78.8744L-162.163 211.816H384.523L403.201 94.5145Z" fill="url(#paint1_linear)"/>
<path d="M602.729 136.158L475.443 142.686L448.732 135.124L420.192 126.822L404.931 126.97L394.4 120.26L384.855 123.128L372.943 114.665L361.746 110.233L345.382 114.932L337.146 110.471L316.682 115.209L285.441 110.97L247.816 106.036L233.182 99.1141L221.13 101.753L208.78 95.5659L200.838 99.4267L191.014 95.7376L176.977 106.721L169.67 104.521L156.953 109.437L131.993 121.787L121.041 119.623L107.191 125.306L99.4464 125.381L83.31 130.078L37.5138 157.766L38.3109 258.918L584.975 253.635L602.729 136.158Z" fill="url(#paint2_linear)"/>
<path d="M409.634 114.981L397.57 121.685L393.133 111.696L388.23 113.786L376.506 128.909L371.724 125.127L369.272 127.469L366.463 124.08L361.545 125.93L355.612 121.92L326.414 101.48L295.371 129.717L293.613 135.39L292.218 144.291L257.039 158.225L253.606 155.247L243.61 158.993L237.688 162.977L217.959 159.049L209.202 167.057L201.253 169.777L189.078 180.26L182.061 182.305L171.595 178.5L155.369 181.293L124.051 160.718L104.297 166.824L90.3222 164.042L62.4145 177.416L44.6389 176.171L31.9181 183.104L24.0429 184.404L4.95887 198.674L-16.6814 211.001L-31.1727 215.573L-42.8455 213.25L-15.2986 371.603L434.544 240.926L409.634 114.981Z" fill="url(#paint3_linear)"/>
<path d="M156.525 217.082C149.822 216.286 142.957 217.911 137.101 221.681L-21.5241 323.792C-23.2125 324.879 -24.9957 325.794 -26.847 326.525L-94.2566 353.12C-97.0389 354.218 -99.6621 355.731 -102.038 357.61L-968.917 1043.09C-994.759 1063.53 -976.026 1104.37 -944.899 1095.45L1513.3 391.414C1542.96 382.918 1543.53 339.897 1514.07 333.199L620.953 130.176C616.177 129.091 611.157 129.273 606.361 130.706L486.395 166.556C482.969 167.579 479.725 169.222 476.819 171.403L387.451 238.499C382.937 241.889 377.638 243.953 372.158 244.455L302.484 250.846C298.393 251.221 294.307 250.717 290.49 249.364L223.922 225.775C221.977 225.086 219.957 224.615 217.896 224.37L156.525 217.082Z" fill="url(#paint4_linear)"/>
<path d="M557.307 266.429C552.016 264.841 546.388 264.762 541.055 266.2L448.949 291.037L204.107 393.257C201.667 394.275 199.101 394.963 196.479 395.302L63.2588 412.514L-945.365 687.715C-978.755 696.825 -972.167 746.005 -937.555 746.005L2099.96 746.005C2132.76 746.005 2141.31 700.639 2110.76 688.703L1132.18 306.369C1127.49 304.539 1122.42 303.93 1117.44 304.598L824.501 343.862C820.322 344.422 816.071 344.085 812.032 342.873L557.307 266.429Z" fill="url(#paint5_linear)"/>
<path d="M-18.3804 480.116C-23.5794 479.373 -28.8702 479.583 -33.9941 480.735L-1947.53 910.809C-1997.5 922.041 -1990.01 995.439 -1938.79 996.333L1964.08 1064.46C2013.11 1065.31 2025.55 996.846 1979.36 980.391L745.57 540.865C739.398 538.666 732.807 537.897 726.294 538.616L542.727 558.872C539.111 559.271 535.46 559.212 531.858 558.698L-18.3804 480.116Z" fill="url(#paint6_linear)"/>
<path d="M0.390847 477.695L-18.1368 496.775L-10.1399 522.747L0.390847 477.695Z" fill="#070606"/>
<path d="M55.353 442.307L45.1406 487.881L57.4146 495.167L55.353 442.307Z" fill="#070606"/>
<path d="M63.7053 468.124L45.1777 487.204L53.1745 513.177L63.7053 468.124Z" fill="#070606"/>
<path d="M45.2923 441.511L39.0063 491.924H51.5783L45.2923 441.511Z" fill="#070606"/>
<path d="M29.6974 453.071L28.1533 506.057L40.3519 497.914L29.6974 453.071Z" fill="#070606"/>
<path d="M23.0531 463.067L28.0364 514.513L38.5803 496.18L23.0531 463.067Z" fill="#070606"/>
<path d="M35.1231 442.353L33.2506 495.232L45.5034 487.693L35.1231 442.353Z" fill="#070606"/>
<path d="M41.1929 450.746L30.9804 496.321L43.2545 503.606L41.1929 450.746Z" fill="#070606"/>
<path d="M100.998 481.325L90.7851 526.9L103.059 534.185L100.998 481.325Z" fill="#070606"/>
<path d="M109.35 507.143L90.8222 526.223L98.819 552.195L109.35 507.143Z" fill="#070606"/>
<path d="M90.9368 480.53L84.6508 530.942H97.2229L90.9368 480.53Z" fill="#070606"/>
<path d="M75.3419 492.089L73.7978 545.075L85.9964 536.932L75.3419 492.089Z" fill="#070606"/>
<path d="M68.6977 502.086L73.681 553.531L84.2248 535.199L68.6977 502.086Z" fill="#070606"/>
<path d="M80.7677 481.371L78.8951 534.251L91.1479 526.711L80.7677 481.371Z" fill="#070606"/>
<path d="M86.8374 489.765L76.6249 535.339L88.899 542.625L86.8374 489.765Z" fill="#070606"/>
<path d="M25.1694 476.907L14.957 522.482L27.231 529.767L25.1694 476.907Z" fill="#070606"/>
<path d="M33.5217 502.725L14.9941 521.805L22.9909 547.777L33.5217 502.725Z" fill="#070606"/>
<path d="M15.1087 476.112L8.82267 526.524H21.3947L15.1087 476.112Z" fill="#070606"/>
<path d="M-0.486238 487.671L-2.03031 540.657L10.1683 532.514L-0.486238 487.671Z" fill="#070606"/>
<path d="M-7.13045 497.668L-2.14715 549.113L8.39667 530.781L-7.13045 497.668Z" fill="#070606"/>
<path d="M4.93953 476.953L3.06699 529.833L15.3198 522.293L4.93953 476.953Z" fill="#070606"/>
<path d="M11.0093 485.347L0.79682 530.921L13.0709 538.207L11.0093 485.347Z" fill="#070606"/>
<path d="M4.55615 457.766L-5.6563 503.341L6.61776 510.626L4.55615 457.766Z" fill="#070606"/>
<path d="M12.9084 483.584L-5.61919 502.664L2.37763 528.636L12.9084 483.584Z" fill="#070606"/>
<path d="M-5.50458 456.971L-11.7906 507.384H0.781454L-5.50458 456.971Z" fill="#070606"/>
<path d="M123.818 467.337L113.605 512.912L125.879 520.197L123.818 467.337Z" fill="#070606"/>
<path d="M132.17 493.155L113.643 512.235L121.639 538.208L132.17 493.155Z" fill="#070606"/>
<path d="M113.757 466.542L107.471 516.955H120.043L113.757 466.542Z" fill="#070606"/>
<path d="M98.1622 478.101L96.6181 531.088L108.817 522.945L98.1622 478.101Z" fill="#070606"/>
<path d="M91.518 488.098L96.5013 539.544L107.045 521.211L91.518 488.098Z" fill="#070606"/>
<path d="M103.588 467.384L101.715 520.263L113.968 512.724L103.588 467.384Z" fill="#070606"/>
<path d="M109.658 475.777L99.4453 521.352L111.719 528.637L109.658 475.777Z" fill="#070606"/>
<path d="M149.585 471.754L139.373 517.328L151.647 524.614L149.585 471.754Z" fill="#070606"/>
<path d="M157.938 497.571L139.41 516.651L147.407 542.624L157.938 497.571Z" fill="#070606"/>
<path d="M139.525 470.958L133.239 521.371H145.811L139.525 470.958Z" fill="#070606"/>
<path d="M123.93 482.518L122.386 535.504L134.584 527.361L123.93 482.518Z" fill="#070606"/>
<path d="M117.286 492.514L122.269 543.96L132.813 525.628L117.286 492.514Z" fill="#070606"/>
<path d="M129.356 471.8L127.483 524.679L139.736 517.14L129.356 471.8Z" fill="#070606"/>
<path d="M135.425 480.193L125.213 525.768L137.487 533.053L135.425 480.193Z" fill="#070606"/>
<path d="M212.902 492.368L202.689 537.943L214.963 545.228L212.902 492.368Z" fill="#070606"/>
<path d="M221.254 518.186L202.727 537.266L210.723 563.238L221.254 518.186Z" fill="#070606"/>
<path d="M202.841 491.573L196.555 541.985H209.127L202.841 491.573Z" fill="#070606"/>
<path d="M187.246 503.132L185.702 556.119L197.901 547.976L187.246 503.132Z" fill="#070606"/>
<path d="M180.602 513.129L185.585 564.574L196.129 546.242L180.602 513.129Z" fill="#070606"/>
<path d="M192.672 492.415L190.799 545.294L203.052 537.754L192.672 492.415Z" fill="#070606"/>
<path d="M198.742 500.808L188.529 546.382L200.803 553.668L198.742 500.808Z" fill="#070606"/>
<path d="M98.0522 448.196L87.8398 493.77L100.114 501.056L98.0522 448.196Z" fill="#070606"/>
<path d="M106.405 474.014L87.8769 493.093L95.8737 519.066L106.405 474.014Z" fill="#070606"/>
<path d="M87.9915 447.401L81.7055 497.813H94.2775L87.9915 447.401Z" fill="#070606"/>
<path d="M72.3966 458.96L70.8525 511.946L83.0511 503.803L72.3966 458.96Z" fill="#070606"/>
<path d="M65.7524 468.956L70.7357 520.402L81.2795 502.07L65.7524 468.956Z" fill="#070606"/>
<path d="M77.8223 448.242L75.9498 501.122L88.2026 493.582L77.8223 448.242Z" fill="#070606"/>
<path d="M83.8921 456.635L73.6796 502.21L85.9537 509.495L83.8921 456.635Z" fill="#070606"/>
<path d="M258.544 496.785L248.332 542.36L260.606 549.645L258.544 496.785Z" fill="#070606"/>
<path d="M266.897 522.603L248.369 541.683L256.366 567.656L266.897 522.603Z" fill="#070606"/>
<path d="M248.484 495.99L242.198 546.403H254.77L248.484 495.99Z" fill="#070606"/>
<path d="M232.889 507.549L231.345 560.536L243.543 552.393L232.889 507.549Z" fill="#070606"/>
<path d="M226.245 517.546L231.228 568.992L241.772 550.659L226.245 517.546Z" fill="#070606"/>
<path d="M238.315 496.832L236.442 549.711L248.695 542.172L238.315 496.832Z" fill="#070606"/>
<path d="M244.384 505.225L234.172 550.8L246.446 558.085L244.384 505.225Z" fill="#070606"/>
<path d="M290.201 492.368L279.988 537.943L292.262 545.228L290.201 492.368Z" fill="#070606"/>
<path d="M298.553 518.186L280.025 537.266L288.022 563.238L298.553 518.186Z" fill="#070606"/>
<path d="M280.14 491.573L273.854 541.985H286.426L280.14 491.573Z" fill="#070606"/>
<path d="M264.545 503.132L263.001 556.119L275.2 547.976L264.545 503.132Z" fill="#070606"/>
<path d="M257.901 513.129L262.884 564.574L273.428 546.242L257.901 513.129Z" fill="#070606"/>
<path d="M269.971 492.415L268.098 545.294L280.351 537.754L269.971 492.415Z" fill="#070606"/>
<path d="M276.041 500.808L265.828 546.382L278.102 553.668L276.041 500.808Z" fill="#070606"/>
<path d="M327.748 504.147L317.535 549.721L329.809 557.007L327.748 504.147Z" fill="#070606"/>
<path d="M336.1 529.964L317.572 549.044L325.569 575.017L336.1 529.964Z" fill="#070606"/>
<path d="M317.687 503.352L311.401 553.764H323.973L317.687 503.352Z" fill="#070606"/>
<path d="M302.092 514.911L300.548 567.897L312.746 559.754L302.092 514.911Z" fill="#070606"/>
<path d="M295.448 524.907L300.431 576.353L310.975 558.021L295.448 524.907Z" fill="#070606"/>
<path d="M307.518 504.193L305.645 557.072L317.898 549.533L307.518 504.193Z" fill="#070606"/>
<path d="M313.587 512.586L303.375 558.161L315.649 565.446L313.587 512.586Z" fill="#070606"/>
<path d="M333.636 495.313L323.424 540.888L335.698 548.173L333.636 495.313Z" fill="#070606"/>
<path d="M341.989 521.131L323.461 540.211L331.458 566.183L341.989 521.131Z" fill="#070606"/>
<path d="M323.575 494.518L317.289 544.931H329.862L323.575 494.518Z" fill="#070606"/>
<path d="M307.981 506.077L306.436 559.064L318.635 550.921L307.981 506.077Z" fill="#070606"/>
<path d="M301.336 516.074L306.32 567.519L316.863 549.187L301.336 516.074Z" fill="#070606"/>
<path d="M313.406 495.36L311.534 548.239L323.787 540.699L313.406 495.36Z" fill="#070606"/>
<path d="M319.476 503.753L309.264 549.328L321.538 556.613L319.476 503.753Z" fill="#070606"/>
<path d="M321.857 489.423L311.644 534.998L323.919 542.283L321.857 489.423Z" fill="#070606"/>
<path d="M330.209 515.241L311.682 534.321L319.678 560.293L330.209 515.241Z" fill="#070606"/>
<path d="M311.796 488.628L305.51 539.04H318.082L311.796 488.628Z" fill="#070606"/>
<path d="M296.201 500.187L294.657 553.174L306.856 545.031L296.201 500.187Z" fill="#070606"/>
<path d="M289.557 510.184L294.54 561.629L305.084 543.297L289.557 510.184Z" fill="#070606"/>
<path d="M301.627 489.469L299.754 542.349L312.007 534.809L301.627 489.469Z" fill="#070606"/>
<path d="M307.697 497.863L297.484 543.437L309.758 550.723L307.697 497.863Z" fill="#070606"/>
<path d="M201.121 475.436L190.908 521.01L203.182 528.296L201.121 475.436Z" fill="#070606"/>
<path d="M209.473 501.254L190.945 520.333L198.942 546.306L209.473 501.254Z" fill="#070606"/>
<path d="M191.06 474.641L184.774 525.053H197.346L191.06 474.641Z" fill="#070606"/>
<path d="M175.465 486.2L173.921 539.186L186.119 531.043L175.465 486.2Z" fill="#070606"/>
<path d="M168.821 496.196L173.804 547.642L184.348 529.31L168.821 496.196Z" fill="#070606"/>
<path d="M180.891 475.482L179.018 528.362L191.271 520.822L180.891 475.482Z" fill="#070606"/>
<path d="M186.96 483.875L176.748 529.45L189.022 536.735L186.96 483.875Z" fill="#070606"/>
<path d="M232.777 496.785L222.564 542.36L234.838 549.645L232.777 496.785Z" fill="#070606"/>
<path d="M241.129 522.603L222.602 541.683L230.598 567.655L241.129 522.603Z" fill="#070606"/>
<path d="M222.716 495.99L216.43 546.402H229.002L222.716 495.99Z" fill="#070606"/>
<path d="M207.121 507.549L205.577 560.536L217.776 552.393L207.121 507.549Z" fill="#070606"/>
<path d="M200.477 517.546L205.46 568.991L216.004 550.659L200.477 517.546Z" fill="#070606"/>
<path d="M212.547 496.831L210.674 549.711L222.927 542.171L212.547 496.831Z" fill="#070606"/>
<path d="M218.617 505.225L208.404 550.799L220.678 558.085L218.617 505.225Z" fill="#070606"/>
<path d="M78.1753 476.172L67.9628 521.746L80.2369 529.032L78.1753 476.172Z" fill="#070606"/>
<path d="M86.5276 501.989L68 521.069L75.9968 547.042L86.5276 501.989Z" fill="#070606"/>
<path d="M68.1146 475.376L61.8285 525.789H74.4006L68.1146 475.376Z" fill="#070606"/>
<path d="M52.5196 486.936L50.9755 539.922L63.1742 531.779L52.5196 486.936Z" fill="#070606"/>
<path d="M45.8754 496.932L50.8587 548.378L61.4025 530.045L45.8754 496.932Z" fill="#070606"/>
<path d="M57.9454 476.218L56.0728 529.097L68.3256 521.558L57.9454 476.218Z" fill="#070606"/>
<path d="M64.0151 484.611L53.8027 530.186L66.0767 537.471L64.0151 484.611Z" fill="#070606"/>
<path d="M78.1753 468.073L67.9628 513.648L80.2369 520.933L78.1753 468.073Z" fill="#070606"/>
<path d="M86.5276 493.891L68 512.971L75.9968 538.944L86.5276 493.891Z" fill="#070606"/>
<path d="M68.1146 467.279L61.8285 517.691H74.4006L68.1146 467.279Z" fill="#070606"/>
<path d="M52.5196 478.838L50.9755 531.824L63.1742 523.681L52.5196 478.838Z" fill="#070606"/>
<path d="M45.8754 488.834L50.8587 540.28L61.4025 521.947L45.8754 488.834Z" fill="#070606"/>
<path d="M57.9454 468.12L56.0728 520.999L68.3256 513.46L57.9454 468.12Z" fill="#070606"/>
<path d="M64.0151 476.513L53.8027 522.088L66.0767 529.373L64.0151 476.513Z" fill="#070606"/>
<path d="M29.5854 454.822L19.373 500.397L31.6471 507.682L29.5854 454.822Z" fill="#070606"/>
<path d="M37.9377 480.64L19.4101 499.72L27.4069 525.692L37.9377 480.64Z" fill="#070606"/>
<path d="M19.5247 454.027L13.2387 504.439H25.8108L19.5247 454.027Z" fill="#070606"/>
<path d="M3.92978 465.586L2.3857 518.572L14.5843 510.429L3.92978 465.586Z" fill="#070606"/>
<path d="M-2.71443 475.583L2.26887 527.028L12.8127 508.696L-2.71443 475.583Z" fill="#070606"/>
<path d="M9.35555 454.868L7.48301 507.748L19.7358 500.208L9.35555 454.868Z" fill="#070606"/>
<path d="M15.4253 463.262L5.21284 508.836L17.4869 516.122L15.4253 463.262Z" fill="#070606"/>
<path d="M173.144 482.061L162.932 527.635L175.206 534.921L173.144 482.061Z" fill="#070606"/>
<path d="M181.496 507.879L162.969 526.958L170.966 552.931L181.496 507.879Z" fill="#070606"/>
<path d="M163.083 481.266L156.797 531.678H169.369L163.083 481.266Z" fill="#070606"/>
<path d="M147.488 492.825L145.944 545.811L158.143 537.668L147.488 492.825Z" fill="#070606"/>
<path d="M140.844 502.821L145.827 554.267L156.371 535.935L140.844 502.821Z" fill="#070606"/>
<path d="M152.914 482.107L151.042 534.987L163.294 527.447L152.914 482.107Z" fill="#070606"/>
<path d="M158.984 490.5L148.771 536.075L161.045 543.36L158.984 490.5Z" fill="#070606"/>
<path d="M265.906 485.005L255.693 530.58L267.967 537.865L265.906 485.005Z" fill="#070606"/>
<path d="M274.258 510.823L255.73 529.903L263.727 555.875L274.258 510.823Z" fill="#070606"/>
<path d="M255.845 484.21L249.559 534.622H262.131L255.845 484.21Z" fill="#070606"/>
<path d="M240.25 495.769L238.706 548.756L250.905 540.613L240.25 495.769Z" fill="#070606"/>
<path d="M233.606 505.767L238.589 557.212L249.133 538.88L233.606 505.767Z" fill="#070606"/>
<path d="M245.676 485.051L243.803 537.931L256.056 530.391L245.676 485.051Z" fill="#070606"/>
<path d="M251.746 493.445L241.533 539.019L253.807 546.305L251.746 493.445Z" fill="#070606"/>
<path d="M246.765 480.587L236.553 526.162L248.827 533.447L246.765 480.587Z" fill="#070606"/>
<path d="M255.117 506.405L236.59 525.485L244.587 551.457L255.117 506.405Z" fill="#070606"/>
<path d="M236.704 479.792L230.418 530.204H242.99L236.704 479.792Z" fill="#070606"/>
<path d="M221.109 491.351L219.565 544.338L231.764 536.195L221.109 491.351Z" fill="#070606"/>
<path d="M214.465 501.348L219.449 552.793L229.992 534.461L214.465 501.348Z" fill="#070606"/>
<path d="M226.535 480.633L224.663 533.513L236.915 525.973L226.535 480.633Z" fill="#070606"/>
<path d="M232.605 489.027L222.393 534.601L234.667 541.887L232.605 489.027Z" fill="#070606"/>
<path d="M293.146 492.368L282.934 537.943L295.208 545.228L293.146 492.368Z" fill="#070606"/>
<path d="M301.498 518.186L282.971 537.266L290.967 563.238L301.498 518.186Z" fill="#070606"/>
<path d="M283.085 491.573L276.799 541.985H289.371L283.085 491.573Z" fill="#070606"/>
<path d="M267.49 503.132L265.946 556.119L278.145 547.976L267.49 503.132Z" fill="#070606"/>
<path d="M260.846 513.129L265.829 564.574L276.373 546.242L260.846 513.129Z" fill="#070606"/>
<path d="M272.916 492.415L271.044 545.294L283.296 537.754L272.916 492.415Z" fill="#070606"/>
<path d="M278.986 500.808L268.773 546.382L281.047 553.668L278.986 500.808Z" fill="#070606"/>
</g>
</g>
<defs>
<linearGradient id="paint0_linear" x1="316.914" y1="-33.734" x2="309.565" y2="388.909" gradientUnits="userSpaceOnUse">
<stop stop-color="#557C99"/>
<stop offset="0.197099" stop-color="#86B2D3"/>
<stop offset="0.50737" stop-color="#CBD7D8"/>
<stop offset="1" stop-color="#BECED6"/>
</linearGradient>
<linearGradient id="paint1_linear" x1="120.747" y1="27.9178" x2="120.468" y2="211.815" gradientUnits="userSpaceOnUse">
<stop stop-color="#718DD3"/>
<stop offset="0.443093" stop-color="#BED1DA" stop-opacity="0"/>
<stop offset="1" stop-color="#C2D0D9"/>
</linearGradient>
<linearGradient id="paint2_linear" x1="319.761" y1="72.2936" x2="321.259" y2="256.184" gradientUnits="userSpaceOnUse">
<stop stop-color="#718DD3"/>
<stop offset="0.265461" stop-color="#BED1DA" stop-opacity="0"/>
<stop offset="1" stop-color="#C2D0D9"/>
</linearGradient>
<linearGradient id="paint3_linear" x1="173.058" y1="64.4339" x2="196.898" y2="316.719" gradientUnits="userSpaceOnUse">
<stop offset="0.264036" stop-color="#5080A2"/>
<stop offset="0.460477" stop-color="#80A4B9"/>
<stop offset="0.95725" stop-color="#C6CFCA"/>
</linearGradient>
<linearGradient id="paint4_linear" x1="171.345" y1="209.1" x2="257.381" y2="749.473" gradientUnits="userSpaceOnUse">
<stop stop-color="#3C5168"/>
<stop offset="0.180685" stop-color="#6C7266"/>
<stop offset="0.51559" stop-color="#8E846A" stop-opacity="0.58"/>
</linearGradient>
<linearGradient id="paint5_linear" x1="479.493" y1="364.181" x2="108.643" y2="415.237" gradientUnits="userSpaceOnUse">
<stop offset="0.228791" stop-color="#3B2F19"/>
<stop offset="1" stop-color="#887449"/>
</linearGradient>
<linearGradient id="paint6_linear" x1="-26.2443" y1="478.993" x2="-35.8542" y2="1029.55" gradientUnits="userSpaceOnUse">
<stop stop-color="#060606"/>
<stop offset="1" stop-color="#0B0804"/>
</linearGradient>
<clipPath id="clip0">
<rect width="325" height="565" fill="white"/>
</clipPath>
<clipPath id="clip1">
<rect width="498.49" height="670.411" fill="white" transform="matrix(-1 0 0 1 498.49 0)"/>
</clipPath>
</defs>
</svg>
